<?xml version="1.0" encoding="UTF-8" standalone="no"?>
<!DOCTYPE svg PUBLIC "-//W3C//DTD SVG 1.1//EN"
 "http://www.w3.org/Graphics/SVG/1.1/DTD/svg11.dtd">
<!-- Generated by graphviz version 2.43.0 (0)
 -->
<!-- Title: Application Pages: 1 -->
<svg width="351pt" height="292pt"
 viewBox="0.00 0.00 351.00 292.00" xmlns="http://www.w3.org/2000/svg" xmlns:xlink="http://www.w3.org/1999/xlink">
<g id="graph0" class="graph" transform="scale(1 1) rotate(0) translate(4 288)">
<title>Application</title>
<!-- Node1 -->
<g id="node1" class="node">
<title>Node1</title>
<g id="a_node1"><a xlink:title=" ">
<polygon fill="#bfbfbf" stroke="black" points="150.5,-0.5 150.5,-134.5 248.5,-134.5 248.5,-0.5 150.5,-0.5"/>
<text text-anchor="middle" x="199.5" y="-122.5" font-family="Helvetica,sans-Serif" font-size="10.00">Application</text>
<polyline fill="none" stroke="black" points="150.5,-115.5 248.5,-115.5 "/>
<text text-anchor="middle" x="199.5" y="-103.5" font-family="Helvetica,sans-Serif" font-size="10.00"> </text>
<polyline fill="none" stroke="black" points="150.5,-96.5 248.5,-96.5 "/>
<text text-anchor="start" x="158.5" y="-84.5" font-family="Helvetica,sans-Serif" font-size="10.00">+ Application()</text>
<text text-anchor="start" x="158.5" y="-73.5" font-family="Helvetica,sans-Serif" font-size="10.00">+ ~Application()</text>
<text text-anchor="start" x="158.5" y="-62.5" font-family="Helvetica,sans-Serif" font-size="10.00">+ loop()</text>
<text text-anchor="start" x="158.5" y="-51.5" font-family="Helvetica,sans-Serif" font-size="10.00">+ load_plugins()</text>
<text text-anchor="start" x="158.5" y="-40.5" font-family="Helvetica,sans-Serif" font-size="10.00">+ handshake()</text>
<text text-anchor="start" x="158.5" y="-29.5" font-family="Helvetica,sans-Serif" font-size="10.00">+ serve()</text>
<text text-anchor="start" x="158.5" y="-18.5" font-family="Helvetica,sans-Serif" font-size="10.00">+ connect()</text>
<text text-anchor="start" x="158.5" y="-7.5" font-family="Helvetica,sans-Serif" font-size="10.00">+ status()</text>
</a>
</g>
</g>
<!-- Node2 -->
<g id="node2" class="node">
<title>Node2</title>
<g id="a_node2"><a target="_parent" xlink:href="../libpalliate/classUtil_1_1configurable.html" xlink:title=" ">
<polygon fill="none" stroke="black" points="0,-177 0,-278 129,-278 129,-177 0,-177"/>
<text text-anchor="start" x="8" y="-266" font-family="Helvetica,sans-Serif" font-size="10.00">Util::configurable</text>
<text text-anchor="middle" x="64.5" y="-255" font-family="Helvetica,sans-Serif" font-size="10.00">&lt; config::Application &gt;</text>
<polyline fill="none" stroke="black" points="0,-248 129,-248 "/>
<text text-anchor="start" x="8" y="-236" font-family="Helvetica,sans-Serif" font-size="10.00">+ config</text>
<text text-anchor="start" x="8" y="-225" font-family="Helvetica,sans-Serif" font-size="10.00"># _lock</text>
<polyline fill="none" stroke="black" points="0,-218 129,-218 "/>
<text text-anchor="start" x="8" y="-206" font-family="Helvetica,sans-Serif" font-size="10.00">+ configurable()</text>
<text text-anchor="start" x="8" y="-195" font-family="Helvetica,sans-Serif" font-size="10.00">+ ~configurable()</text>
<text text-anchor="start" x="8" y="-184" font-family="Helvetica,sans-Serif" font-size="10.00">+ lock()</text>
</a>
</g>
</g>
<!-- Node2&#45;&gt;Node1 -->
<g id="edge1" class="edge">
<title>Node2&#45;&gt;Node1</title>
<path fill="none" stroke="midnightblue" d="M113.44,-169.22C125.5,-155.11 138.41,-140 150.47,-125.89"/>
<polygon fill="none" stroke="midnightblue" points="110.68,-167.06 106.84,-176.94 116,-171.61 110.68,-167.06"/>
</g>
<!-- Node3 -->
<g id="node3" class="node">
<title>Node3</title>
<g id="a_node3"><a target="_parent" xlink:href="../libpalliate/structThreading_1_1Worker.html" xlink:title=" ">
<polygon fill="none" stroke="black" points="147,-171.5 147,-283.5 252,-283.5 252,-171.5 147,-171.5"/>
<text text-anchor="middle" x="199.5" y="-271.5" font-family="Helvetica,sans-Serif" font-size="10.00">Threading::Worker</text>
<polyline fill="none" stroke="black" points="147,-264.5 252,-264.5 "/>
<text text-anchor="start" x="155" y="-252.5" font-family="Helvetica,sans-Serif" font-size="10.00">+ executor</text>
<text text-anchor="start" x="155" y="-241.5" font-family="Helvetica,sans-Serif" font-size="10.00"># event_loop</text>
<text text-anchor="start" x="155" y="-230.5" font-family="Helvetica,sans-Serif" font-size="10.00"># wait_scope</text>
<polyline fill="none" stroke="black" points="147,-223.5 252,-223.5 "/>
<text text-anchor="start" x="155" y="-211.5" font-family="Helvetica,sans-Serif" font-size="10.00">+ Worker()</text>
<text text-anchor="start" x="155" y="-200.5" font-family="Helvetica,sans-Serif" font-size="10.00">+ ~Worker()</text>
<text text-anchor="start" x="155" y="-189.5" font-family="Helvetica,sans-Serif" font-size="10.00">+ operator()()</text>
<text text-anchor="start" x="155" y="-178.5" font-family="Helvetica,sans-Serif" font-size="10.00">+ loop()</text>
</a>
</g>
</g>
<!-- Node3&#45;&gt;Node1 -->
<g id="edge2" class="edge">
<title>Node3&#45;&gt;Node1</title>
<path fill="none" stroke="midnightblue" d="M199.5,-161.09C199.5,-152.34 199.5,-143.35 199.5,-134.59"/>
<polygon fill="none" stroke="midnightblue" points="196,-161.24 199.5,-171.24 203,-161.24 196,-161.24"/>
</g>
<!-- Node4 -->
<g id="node4" class="node">
<title>Node4</title>
<g id="a_node4"><a xlink:title=" ">
<polygon fill="none" stroke="black" points="270,-199 270,-256 343,-256 343,-199 270,-199"/>
<text text-anchor="middle" x="306.5" y="-244" font-family="Helvetica,sans-Serif" font-size="10.00">App::Server</text>
<polyline fill="none" stroke="black" points="270,-237 343,-237 "/>
<text text-anchor="middle" x="306.5" y="-225" font-family="Helvetica,sans-Serif" font-size="10.00"> </text>
<polyline fill="none" stroke="black" points="270,-218 343,-218 "/>
<text text-anchor="middle" x="306.5" y="-206" font-family="Helvetica,sans-Serif" font-size="10.00"> </text>
</a>
</g>
</g>
<!-- Node4&#45;&gt;Node1 -->
<g id="edge3" class="edge">
<title>Node4&#45;&gt;Node1</title>
<path fill="none" stroke="midnightblue" d="M282.24,-190.68C271.04,-174.14 257.36,-153.94 244.38,-134.77"/>
<polygon fill="none" stroke="midnightblue" points="279.36,-192.66 287.86,-198.98 285.15,-188.74 279.36,-192.66"/>
</g>
</g>
</svg>
