<?xml version="1.0" encoding="UTF-8" standalone="no"?>
<!DOCTYPE svg PUBLIC "-//W3C//DTD SVG 1.1//EN"
 "http://www.w3.org/Graphics/SVG/1.1/DTD/svg11.dtd">
<!-- Generated by graphviz version 2.43.0 (0)
 -->
<!-- Title: tray_impl Pages: 1 -->
<svg width="98pt" height="287pt"
 viewBox="0.00 0.00 98.00 287.00" xmlns="http://www.w3.org/2000/svg" xmlns:xlink="http://www.w3.org/1999/xlink">
<g id="graph0" class="graph" transform="scale(1 1) rotate(0) translate(4 283)">
<title>tray_impl</title>
<!-- Node1 -->
<g id="node1" class="node">
<title>Node1</title>
<g id="a_node1"><a xlink:title=" ">
<polygon fill="#bfbfbf" stroke="black" points="0,-0.5 0,-79.5 90,-79.5 90,-0.5 0,-0.5"/>
<text text-anchor="middle" x="45" y="-67.5" font-family="Helvetica,sans-Serif" font-size="10.00">tray_impl</text>
<polyline fill="none" stroke="black" points="0,-60.5 90,-60.5 "/>
<text text-anchor="middle" x="45" y="-48.5" font-family="Helvetica,sans-Serif" font-size="10.00"> </text>
<polyline fill="none" stroke="black" points="0,-41.5 90,-41.5 "/>
<text text-anchor="start" x="8" y="-29.5" font-family="Helvetica,sans-Serif" font-size="10.00">+ tray_impl()</text>
<text text-anchor="start" x="8" y="-18.5" font-family="Helvetica,sans-Serif" font-size="10.00">+ ~tray_impl()</text>
<text text-anchor="start" x="8" y="-7.5" font-family="Helvetica,sans-Serif" font-size="10.00">+ render()</text>
</a>
</g>
</g>
<!-- Node2 -->
<g id="node2" class="node">
<title>Node2</title>
<g id="a_node2"><a target="_parent" xlink:href="../libpalliate/classtray.html" xlink:title=" ">
<polygon fill="none" stroke="black" points="11.5,-116.5 11.5,-173.5 78.5,-173.5 78.5,-116.5 11.5,-116.5"/>
<text text-anchor="middle" x="45" y="-161.5" font-family="Helvetica,sans-Serif" font-size="10.00">tray</text>
<polyline fill="none" stroke="black" points="11.5,-154.5 78.5,-154.5 "/>
<text text-anchor="middle" x="45" y="-142.5" font-family="Helvetica,sans-Serif" font-size="10.00"> </text>
<polyline fill="none" stroke="black" points="11.5,-135.5 78.5,-135.5 "/>
<text text-anchor="start" x="19.5" y="-123.5" font-family="Helvetica,sans-Serif" font-size="10.00">+ render()</text>
</a>
</g>
</g>
<!-- Node2&#45;&gt;Node1 -->
<g id="edge1" class="edge">
<title>Node2&#45;&gt;Node1</title>
<path fill="none" stroke="midnightblue" d="M45,-106.16C45,-97.47 45,-88.23 45,-79.52"/>
<polygon fill="none" stroke="midnightblue" points="41.5,-106.4 45,-116.4 48.5,-106.4 41.5,-106.4"/>
</g>
<!-- Node3 -->
<g id="node3" class="node">
<title>Node3</title>
<g id="a_node3"><a target="_parent" xlink:href="../libpalliate/classbackend.html" xlink:title=" ">
<polygon fill="none" stroke="black" points="3,-210.5 3,-278.5 87,-278.5 87,-210.5 3,-210.5"/>
<text text-anchor="middle" x="45" y="-266.5" font-family="Helvetica,sans-Serif" font-size="10.00">backend</text>
<polyline fill="none" stroke="black" points="3,-259.5 87,-259.5 "/>
<text text-anchor="middle" x="45" y="-247.5" font-family="Helvetica,sans-Serif" font-size="10.00"> </text>
<polyline fill="none" stroke="black" points="3,-240.5 87,-240.5 "/>
<text text-anchor="start" x="11" y="-228.5" font-family="Helvetica,sans-Serif" font-size="10.00">+ ~backend()</text>
<text text-anchor="start" x="11" y="-217.5" font-family="Helvetica,sans-Serif" font-size="10.00">+ render()</text>
</a>
</g>
</g>
<!-- Node3&#45;&gt;Node2 -->
<g id="edge2" class="edge">
<title>Node3&#45;&gt;Node2</title>
<path fill="none" stroke="midnightblue" d="M45,-200.45C45,-191.4 45,-182.09 45,-173.78"/>
<polygon fill="none" stroke="midnightblue" points="41.5,-200.49 45,-210.49 48.5,-200.49 41.5,-200.49"/>
</g>
</g>
</svg>
