<?xml version="1.0" encoding="UTF-8" standalone="no"?>
<!DOCTYPE svg PUBLIC "-//W3C//DTD SVG 1.1//EN"
 "http://www.w3.org/Graphics/SVG/1.1/DTD/svg11.dtd">
<!-- Generated by graphviz version 2.43.0 (0)
 -->
<!-- Title: Application Pages: 1 -->
<svg width="351pt" height="248pt"
 viewBox="0.00 0.00 351.00 248.00" xmlns="http://www.w3.org/2000/svg" xmlns:xlink="http://www.w3.org/1999/xlink">
<g id="graph0" class="graph" transform="scale(1 1) rotate(0) translate(4 244)">
<title>Application</title>
<!-- Node1 -->
<g id="node1" class="node">
<title>Node1</title>
<g id="a_node1"><a xlink:title=" ">
<polygon fill="#bfbfbf" stroke="black" points="150.5,-0.5 150.5,-134.5 248.5,-134.5 248.5,-0.5 150.5,-0.5"/>
<text text-anchor="middle" x="199.5" y="-122.5" font-family="Helvetica,sans-Serif" font-size="10.00">Application</text>
<polyline fill="none" stroke="black" points="150.5,-115.5 248.5,-115.5 "/>
<text text-anchor="middle" x="199.5" y="-103.5" font-family="Helvetica,sans-Serif" font-size="10.00"> </text>
<polyline fill="none" stroke="black" points="150.5,-96.5 248.5,-96.5 "/>
<text text-anchor="start" x="158.5" y="-84.5" font-family="Helvetica,sans-Serif" font-size="10.00">+ Application()</text>
<text text-anchor="start" x="158.5" y="-73.5" font-family="Helvetica,sans-Serif" font-size="10.00">+ ~Application()</text>
<text text-anchor="start" x="158.5" y="-62.5" font-family="Helvetica,sans-Serif" font-size="10.00">+ loop()</text>
<text text-anchor="start" x="158.5" y="-51.5" font-family="Helvetica,sans-Serif" font-size="10.00">+ load_plugins()</text>
<text text-anchor="start" x="158.5" y="-40.5" font-family="Helvetica,sans-Serif" font-size="10.00">+ handshake()</text>
<text text-anchor="start" x="158.5" y="-29.5" font-family="Helvetica,sans-Serif" font-size="10.00">+ serve()</text>
<text text-anchor="start" x="158.5" y="-18.5" font-family="Helvetica,sans-Serif" font-size="10.00">+ connect()</text>
<text text-anchor="start" x="158.5" y="-7.5" font-family="Helvetica,sans-Serif" font-size="10.00">+ status()</text>
</a>
</g>
</g>
<!-- Node2 -->
<g id="node2" class="node">
<title>Node2</title>
<g id="a_node2"><a xlink:title=" ">
<polygon fill="none" stroke="black" points="0,-171.5 0,-239.5 129,-239.5 129,-171.5 0,-171.5"/>
<text text-anchor="start" x="8" y="-227.5" font-family="Helvetica,sans-Serif" font-size="10.00">Util::Configurable</text>
<text text-anchor="middle" x="64.5" y="-216.5" font-family="Helvetica,sans-Serif" font-size="10.00">&lt; config::Application &gt;</text>
<polyline fill="none" stroke="black" points="0,-209.5 129,-209.5 "/>
<text text-anchor="middle" x="64.5" y="-197.5" font-family="Helvetica,sans-Serif" font-size="10.00"> </text>
<polyline fill="none" stroke="black" points="0,-190.5 129,-190.5 "/>
<text text-anchor="middle" x="64.5" y="-178.5" font-family="Helvetica,sans-Serif" font-size="10.00"> </text>
</a>
</g>
</g>
<!-- Node2&#45;&gt;Node1 -->
<g id="edge1" class="edge">
<title>Node2&#45;&gt;Node1</title>
<path fill="none" stroke="midnightblue" d="M104.83,-163.87C119.18,-149.42 135.49,-132.99 150.48,-117.88"/>
<polygon fill="none" stroke="midnightblue" points="102.09,-161.67 97.52,-171.23 107.05,-166.6 102.09,-161.67"/>
</g>
<!-- Node3 -->
<g id="node3" class="node">
<title>Node3</title>
<g id="a_node3"><a xlink:title=" ">
<polygon fill="none" stroke="black" points="147,-177 147,-234 252,-234 252,-177 147,-177"/>
<text text-anchor="middle" x="199.5" y="-222" font-family="Helvetica,sans-Serif" font-size="10.00">Threading::Worker</text>
<polyline fill="none" stroke="black" points="147,-215 252,-215 "/>
<text text-anchor="middle" x="199.5" y="-203" font-family="Helvetica,sans-Serif" font-size="10.00"> </text>
<polyline fill="none" stroke="black" points="147,-196 252,-196 "/>
<text text-anchor="middle" x="199.5" y="-184" font-family="Helvetica,sans-Serif" font-size="10.00"> </text>
</a>
</g>
</g>
<!-- Node3&#45;&gt;Node1 -->
<g id="edge2" class="edge">
<title>Node3&#45;&gt;Node1</title>
<path fill="none" stroke="midnightblue" d="M199.5,-166.68C199.5,-156.74 199.5,-145.73 199.5,-134.78"/>
<polygon fill="none" stroke="midnightblue" points="196,-166.98 199.5,-176.98 203,-166.98 196,-166.98"/>
</g>
<!-- Node4 -->
<g id="node4" class="node">
<title>Node4</title>
<g id="a_node4"><a xlink:title=" ">
<polygon fill="none" stroke="black" points="270,-177 270,-234 343,-234 343,-177 270,-177"/>
<text text-anchor="middle" x="306.5" y="-222" font-family="Helvetica,sans-Serif" font-size="10.00">App::Server</text>
<polyline fill="none" stroke="black" points="270,-215 343,-215 "/>
<text text-anchor="middle" x="306.5" y="-203" font-family="Helvetica,sans-Serif" font-size="10.00"> </text>
<polyline fill="none" stroke="black" points="270,-196 343,-196 "/>
<text text-anchor="middle" x="306.5" y="-184" font-family="Helvetica,sans-Serif" font-size="10.00"> </text>
</a>
</g>
</g>
<!-- Node4&#45;&gt;Node1 -->
<g id="edge3" class="edge">
<title>Node4&#45;&gt;Node1</title>
<path fill="none" stroke="midnightblue" d="M278.42,-168.81C269.25,-157.15 258.78,-143.84 248.53,-130.82"/>
<polygon fill="none" stroke="midnightblue" points="275.91,-171.28 284.85,-176.98 281.41,-166.96 275.91,-171.28"/>
</g>
</g>
</svg>
