<?xml version="1.0" encoding="UTF-8" standalone="no"?>
<!DOCTYPE svg PUBLIC "-//W3C//DTD SVG 1.1//EN"
 "http://www.w3.org/Graphics/SVG/1.1/DTD/svg11.dtd">
<!-- Generated by graphviz version 2.43.0 (0)
 -->
<!-- Title: glfw_backend Pages: 1 -->
<svg width="126pt" height="215pt"
 viewBox="0.00 0.00 126.00 215.00" xmlns="http://www.w3.org/2000/svg" xmlns:xlink="http://www.w3.org/1999/xlink">
<g id="graph0" class="graph" transform="scale(1 1) rotate(0) translate(4 211)">
<title>glfw_backend</title>
<!-- Node1 -->
<g id="node1" class="node">
<title>Node1</title>
<g id="a_node1"><a xlink:title=" ">
<polygon fill="#bfbfbf" stroke="black" points="0,-0.5 0,-101.5 118,-101.5 118,-0.5 0,-0.5"/>
<text text-anchor="middle" x="59" y="-89.5" font-family="Helvetica,sans-Serif" font-size="10.00">glfw_backend</text>
<polyline fill="none" stroke="black" points="0,-82.5 118,-82.5 "/>
<text text-anchor="middle" x="59" y="-70.5" font-family="Helvetica,sans-Serif" font-size="10.00"> </text>
<polyline fill="none" stroke="black" points="0,-63.5 118,-63.5 "/>
<text text-anchor="start" x="8" y="-51.5" font-family="Helvetica,sans-Serif" font-size="10.00">+ glfw_backend()</text>
<text text-anchor="start" x="8" y="-40.5" font-family="Helvetica,sans-Serif" font-size="10.00">+ ~glfw_backend()</text>
<text text-anchor="start" x="8" y="-29.5" font-family="Helvetica,sans-Serif" font-size="10.00">+ init_gl()</text>
<text text-anchor="start" x="8" y="-18.5" font-family="Helvetica,sans-Serif" font-size="10.00">+ compile_shaders()</text>
<text text-anchor="start" x="8" y="-7.5" font-family="Helvetica,sans-Serif" font-size="10.00">+ render()</text>
</a>
</g>
</g>
<!-- Node2 -->
<g id="node2" class="node">
<title>Node2</title>
<g id="a_node2"><a target="_parent" xlink:href="../libpalliate/classbackend.html" xlink:title=" ">
<polygon fill="none" stroke="black" points="17,-138.5 17,-206.5 101,-206.5 101,-138.5 17,-138.5"/>
<text text-anchor="middle" x="59" y="-194.5" font-family="Helvetica,sans-Serif" font-size="10.00">backend</text>
<polyline fill="none" stroke="black" points="17,-187.5 101,-187.5 "/>
<text text-anchor="middle" x="59" y="-175.5" font-family="Helvetica,sans-Serif" font-size="10.00"> </text>
<polyline fill="none" stroke="black" points="17,-168.5 101,-168.5 "/>
<text text-anchor="start" x="25" y="-156.5" font-family="Helvetica,sans-Serif" font-size="10.00">+ ~backend()</text>
<text text-anchor="start" x="25" y="-145.5" font-family="Helvetica,sans-Serif" font-size="10.00">+ render()</text>
</a>
</g>
</g>
<!-- Node2&#45;&gt;Node1 -->
<g id="edge1" class="edge">
<title>Node2&#45;&gt;Node1</title>
<path fill="none" stroke="midnightblue" d="M59,-128.05C59,-119.47 59,-110.41 59,-101.65"/>
<polygon fill="none" stroke="midnightblue" points="55.5,-128.21 59,-138.21 62.5,-128.21 55.5,-128.21"/>
</g>
</g>
</svg>
