<?xml version="1.0" encoding="UTF-8" standalone="no"?>
<!DOCTYPE svg PUBLIC "-//W3C//DTD SVG 1.1//EN"
 "http://www.w3.org/Graphics/SVG/1.1/DTD/svg11.dtd">
<!-- Generated by graphviz version 2.43.0 (0)
 -->
<!-- Title: build.Deploy.Settings Pages: 1 -->
<svg width="127pt" height="171pt"
 viewBox="0.00 0.00 127.00 171.00" xmlns="http://www.w3.org/2000/svg" xmlns:xlink="http://www.w3.org/1999/xlink">
<g id="graph0" class="graph" transform="scale(1 1) rotate(0) translate(4 167)">
<title>build.Deploy.Settings</title>
<!-- Node1 -->
<g id="node1" class="node">
<title>Node1</title>
<g id="a_node1"><a xlink:title=" ">
<polygon fill="#bfbfbf" stroke="black" points="0,-0.5 0,-68.5 119,-68.5 119,-0.5 0,-0.5"/>
<text text-anchor="middle" x="59.5" y="-56.5" font-family="Helvetica,sans-Serif" font-size="10.00">build.Deploy.Settings</text>
<polyline fill="none" stroke="black" points="0,-49.5 119,-49.5 "/>
<text text-anchor="start" x="8" y="-37.5" font-family="Helvetica,sans-Serif" font-size="10.00">+ Path</text>
<text text-anchor="start" x="8" y="-26.5" font-family="Helvetica,sans-Serif" font-size="10.00">+ bool</text>
<polyline fill="none" stroke="black" points="0,-19.5 119,-19.5 "/>
<text text-anchor="middle" x="59.5" y="-7.5" font-family="Helvetica,sans-Serif" font-size="10.00"> </text>
</a>
</g>
</g>
<!-- Node2 -->
<g id="node2" class="node">
<title>Node2</title>
<g id="a_node2"><a xlink:title=" ">
<polygon fill="none" stroke="black" points="24,-105.5 24,-162.5 95,-162.5 95,-105.5 24,-105.5"/>
<text text-anchor="middle" x="59.5" y="-150.5" font-family="Helvetica,sans-Serif" font-size="10.00">BaseModel</text>
<polyline fill="none" stroke="black" points="24,-143.5 95,-143.5 "/>
<text text-anchor="middle" x="59.5" y="-131.5" font-family="Helvetica,sans-Serif" font-size="10.00"> </text>
<polyline fill="none" stroke="black" points="24,-124.5 95,-124.5 "/>
<text text-anchor="middle" x="59.5" y="-112.5" font-family="Helvetica,sans-Serif" font-size="10.00"> </text>
</a>
</g>
</g>
<!-- Node2&#45;&gt;Node1 -->
<g id="edge1" class="edge">
<title>Node2&#45;&gt;Node1</title>
<path fill="none" stroke="midnightblue" d="M59.5,-95.06C59.5,-86.39 59.5,-77.24 59.5,-68.79"/>
<polygon fill="none" stroke="midnightblue" points="56,-95.32 59.5,-105.32 63,-95.32 56,-95.32"/>
</g>
</g>
</svg>
