<?xml version="1.0" encoding="UTF-8" standalone="no"?>
<!DOCTYPE svg PUBLIC "-//W3C//DTD SVG 1.1//EN"
 "http://www.w3.org/Graphics/SVG/1.1/DTD/svg11.dtd">
<!-- Generated by graphviz version 2.43.0 (0)
 -->
<!-- Title: Logging::Endpoints::Terminal Pages: 1 -->
<svg width="119pt" height="215pt"
 viewBox="0.00 0.00 119.00 215.00" xmlns="http://www.w3.org/2000/svg" xmlns:xlink="http://www.w3.org/1999/xlink">
<g id="graph0" class="graph" transform="scale(1 1) rotate(0) translate(4 211)">
<title>Logging::Endpoints::Terminal</title>
<!-- Node1 -->
<g id="node1" class="node">
<title>Node1</title>
<g id="a_node1"><a xlink:title=" ">
<polygon fill="#bfbfbf" stroke="black" points="1,-0.5 1,-90.5 110,-90.5 110,-0.5 1,-0.5"/>
<text text-anchor="start" x="9" y="-78.5" font-family="Helvetica,sans-Serif" font-size="10.00">Logging::Endpoints</text>
<text text-anchor="middle" x="55.5" y="-67.5" font-family="Helvetica,sans-Serif" font-size="10.00">::Terminal</text>
<polyline fill="none" stroke="black" points="1,-60.5 110,-60.5 "/>
<text text-anchor="middle" x="55.5" y="-48.5" font-family="Helvetica,sans-Serif" font-size="10.00"> </text>
<polyline fill="none" stroke="black" points="1,-41.5 110,-41.5 "/>
<text text-anchor="start" x="9" y="-29.5" font-family="Helvetica,sans-Serif" font-size="10.00">+ Terminal()</text>
<text text-anchor="start" x="9" y="-18.5" font-family="Helvetica,sans-Serif" font-size="10.00">+ ~Terminal()</text>
<text text-anchor="start" x="9" y="-7.5" font-family="Helvetica,sans-Serif" font-size="10.00">+ print()</text>
</a>
</g>
</g>
<!-- Node2 -->
<g id="node2" class="node">
<title>Node2</title>
<g id="a_node2"><a xlink:title=" ">
<polygon fill="none" stroke="black" points="0,-127.5 0,-206.5 111,-206.5 111,-127.5 0,-127.5"/>
<text text-anchor="start" x="8" y="-194.5" font-family="Helvetica,sans-Serif" font-size="10.00">Endpoint::Registrar</text>
<text text-anchor="start" x="8" y="-183.5" font-family="Helvetica,sans-Serif" font-size="10.00">&lt; Terminal, config::</text>
<text text-anchor="middle" x="55.5" y="-172.5" font-family="Helvetica,sans-Serif" font-size="10.00">Terminal &gt;</text>
<polyline fill="none" stroke="black" points="0,-165.5 111,-165.5 "/>
<text text-anchor="middle" x="55.5" y="-153.5" font-family="Helvetica,sans-Serif" font-size="10.00"> </text>
<polyline fill="none" stroke="black" points="0,-146.5 111,-146.5 "/>
<text text-anchor="middle" x="55.5" y="-134.5" font-family="Helvetica,sans-Serif" font-size="10.00"> </text>
</a>
</g>
</g>
<!-- Node2&#45;&gt;Node1 -->
<g id="edge1" class="edge">
<title>Node2&#45;&gt;Node1</title>
<path fill="none" stroke="midnightblue" d="M55.5,-117.19C55.5,-108.49 55.5,-99.48 55.5,-90.91"/>
<polygon fill="none" stroke="midnightblue" points="52,-117.2 55.5,-127.2 59,-117.2 52,-117.2"/>
</g>
</g>
</svg>
