<?xml version="1.0" encoding="UTF-8" standalone="no"?>
<!DOCTYPE svg PUBLIC "-//W3C//DTD SVG 1.1//EN"
 "http://www.w3.org/Graphics/SVG/1.1/DTD/svg11.dtd">
<!-- Generated by graphviz version 2.43.0 (0)
 -->
<!-- Title: Application Pages: 1 -->
<svg width="347pt" height="347pt"
 viewBox="0.00 0.00 347.00 347.00" xmlns="http://www.w3.org/2000/svg" xmlns:xlink="http://www.w3.org/1999/xlink">
<g id="graph0" class="graph" transform="scale(1 1) rotate(0) translate(4 343)">
<title>Application</title>
<!-- Node1 -->
<g id="node1" class="node">
<title>Node1</title>
<g id="a_node1"><a xlink:title=" ">
<polygon fill="#bfbfbf" stroke="black" points="148.5,-0.5 148.5,-145.5 246.5,-145.5 246.5,-0.5 148.5,-0.5"/>
<text text-anchor="middle" x="197.5" y="-133.5" font-family="Helvetica,sans-Serif" font-size="10.00">Application</text>
<polyline fill="none" stroke="black" points="148.5,-126.5 246.5,-126.5 "/>
<text text-anchor="middle" x="197.5" y="-114.5" font-family="Helvetica,sans-Serif" font-size="10.00"> </text>
<polyline fill="none" stroke="black" points="148.5,-107.5 246.5,-107.5 "/>
<text text-anchor="start" x="156.5" y="-95.5" font-family="Helvetica,sans-Serif" font-size="10.00">+ Application()</text>
<text text-anchor="start" x="156.5" y="-84.5" font-family="Helvetica,sans-Serif" font-size="10.00">+ ~Application()</text>
<text text-anchor="start" x="156.5" y="-73.5" font-family="Helvetica,sans-Serif" font-size="10.00">+ setup()</text>
<text text-anchor="start" x="156.5" y="-62.5" font-family="Helvetica,sans-Serif" font-size="10.00">+ loop()</text>
<text text-anchor="start" x="156.5" y="-51.5" font-family="Helvetica,sans-Serif" font-size="10.00">+ load_plugins()</text>
<text text-anchor="start" x="156.5" y="-40.5" font-family="Helvetica,sans-Serif" font-size="10.00">+ handshake()</text>
<text text-anchor="start" x="156.5" y="-29.5" font-family="Helvetica,sans-Serif" font-size="10.00">+ serve()</text>
<text text-anchor="start" x="156.5" y="-18.5" font-family="Helvetica,sans-Serif" font-size="10.00">+ connect()</text>
<text text-anchor="start" x="156.5" y="-7.5" font-family="Helvetica,sans-Serif" font-size="10.00">+ status()</text>
</a>
</g>
</g>
<!-- Node2 -->
<g id="node2" class="node">
<title>Node2</title>
<g id="a_node2"><a target="_parent" xlink:href="../libpalliate/classUtil_1_1configurable.html" xlink:title=" ">
<polygon fill="none" stroke="black" points="0,-210 0,-311 129,-311 129,-210 0,-210"/>
<text text-anchor="start" x="8" y="-299" font-family="Helvetica,sans-Serif" font-size="10.00">Util::configurable</text>
<text text-anchor="middle" x="64.5" y="-288" font-family="Helvetica,sans-Serif" font-size="10.00">&lt; config::Application &gt;</text>
<polyline fill="none" stroke="black" points="0,-281 129,-281 "/>
<text text-anchor="start" x="8" y="-269" font-family="Helvetica,sans-Serif" font-size="10.00">+ config</text>
<text text-anchor="start" x="8" y="-258" font-family="Helvetica,sans-Serif" font-size="10.00"># _lock</text>
<polyline fill="none" stroke="black" points="0,-251 129,-251 "/>
<text text-anchor="start" x="8" y="-239" font-family="Helvetica,sans-Serif" font-size="10.00">+ configurable()</text>
<text text-anchor="start" x="8" y="-228" font-family="Helvetica,sans-Serif" font-size="10.00">+ ~configurable()</text>
<text text-anchor="start" x="8" y="-217" font-family="Helvetica,sans-Serif" font-size="10.00">+ lock()</text>
</a>
</g>
</g>
<!-- Node2&#45;&gt;Node1 -->
<g id="edge1" class="edge">
<title>Node2&#45;&gt;Node1</title>
<path fill="none" stroke="midnightblue" d="M105.98,-201.65C119.37,-182.97 134.36,-162.07 148.26,-142.68"/>
<polygon fill="none" stroke="midnightblue" points="103.12,-199.62 100.14,-209.79 108.81,-203.7 103.12,-199.62"/>
</g>
<!-- Node3 -->
<g id="node3" class="node">
<title>Node3</title>
<g id="a_node3"><a target="_parent" xlink:href="../libpalliate/classrunnable.html" xlink:title=" ">
<polygon fill="none" stroke="black" points="147,-182.5 147,-338.5 248,-338.5 248,-182.5 147,-182.5"/>
<text text-anchor="middle" x="197.5" y="-326.5" font-family="Helvetica,sans-Serif" font-size="10.00">runnable</text>
<polyline fill="none" stroke="black" points="147,-319.5 248,-319.5 "/>
<text text-anchor="start" x="155" y="-307.5" font-family="Helvetica,sans-Serif" font-size="10.00"># thread</text>
<text text-anchor="start" x="155" y="-296.5" font-family="Helvetica,sans-Serif" font-size="10.00"># callback</text>
<polyline fill="none" stroke="black" points="147,-289.5 248,-289.5 "/>
<text text-anchor="start" x="155" y="-277.5" font-family="Helvetica,sans-Serif" font-size="10.00">+ runnable()</text>
<text text-anchor="start" x="155" y="-266.5" font-family="Helvetica,sans-Serif" font-size="10.00">+ ~runnable()</text>
<text text-anchor="start" x="155" y="-255.5" font-family="Helvetica,sans-Serif" font-size="10.00">+ operator()()</text>
<text text-anchor="start" x="155" y="-244.5" font-family="Helvetica,sans-Serif" font-size="10.00">+ run()</text>
<text text-anchor="start" x="155" y="-233.5" font-family="Helvetica,sans-Serif" font-size="10.00">+ run()</text>
<text text-anchor="start" x="155" y="-222.5" font-family="Helvetica,sans-Serif" font-size="10.00">+ stop()</text>
<text text-anchor="start" x="155" y="-211.5" font-family="Helvetica,sans-Serif" font-size="10.00">+ operator&lt;=&gt;()</text>
<text text-anchor="start" x="155" y="-200.5" font-family="Helvetica,sans-Serif" font-size="10.00"># setup()</text>
<text text-anchor="start" x="155" y="-189.5" font-family="Helvetica,sans-Serif" font-size="10.00"># loop()</text>
</a>
</g>
</g>
<!-- Node3&#45;&gt;Node1 -->
<g id="edge2" class="edge">
<title>Node3&#45;&gt;Node1</title>
<path fill="none" stroke="midnightblue" d="M197.5,-172.42C197.5,-163.49 197.5,-154.5 197.5,-145.77"/>
<polygon fill="none" stroke="midnightblue" points="194,-172.44 197.5,-182.44 201,-172.44 194,-172.44"/>
</g>
<!-- Node4 -->
<g id="node4" class="node">
<title>Node4</title>
<g id="a_node4"><a xlink:title=" ">
<polygon fill="none" stroke="black" points="266,-232 266,-289 339,-289 339,-232 266,-232"/>
<text text-anchor="middle" x="302.5" y="-277" font-family="Helvetica,sans-Serif" font-size="10.00">App::Server</text>
<polyline fill="none" stroke="black" points="266,-270 339,-270 "/>
<text text-anchor="middle" x="302.5" y="-258" font-family="Helvetica,sans-Serif" font-size="10.00"> </text>
<polyline fill="none" stroke="black" points="266,-251 339,-251 "/>
<text text-anchor="middle" x="302.5" y="-239" font-family="Helvetica,sans-Serif" font-size="10.00"> </text>
</a>
</g>
</g>
<!-- Node4&#45;&gt;Node1 -->
<g id="edge3" class="edge">
<title>Node4&#45;&gt;Node1</title>
<path fill="none" stroke="midnightblue" d="M281.69,-222.74C269.24,-200.73 252.98,-172.01 238.08,-145.68"/>
<polygon fill="none" stroke="midnightblue" points="278.81,-224.75 286.78,-231.73 284.9,-221.3 278.81,-224.75"/>
</g>
</g>
</svg>
