<?xml version="1.0" encoding="UTF-8" standalone="no"?>
<!DOCTYPE svg PUBLIC "-//W3C//DTD SVG 1.1//EN"
 "http://www.w3.org/Graphics/SVG/1.1/DTD/svg11.dtd">
<!-- Generated by graphviz version 2.43.0 (0)
 -->
<!-- Title: testmod Pages: 1 -->
<svg width="124pt" height="226pt"
 viewBox="0.00 0.00 124.00 226.00" xmlns="http://www.w3.org/2000/svg" xmlns:xlink="http://www.w3.org/1999/xlink">
<g id="graph0" class="graph" transform="scale(1 1) rotate(0) translate(4 222)">
<title>testmod</title>
<!-- Node1 -->
<g id="node1" class="node">
<title>Node1</title>
<g id="a_node1"><a xlink:title=" ">
<polygon fill="#bfbfbf" stroke="black" points="0,-0.5 0,-90.5 116,-90.5 116,-0.5 0,-0.5"/>
<text text-anchor="middle" x="58" y="-78.5" font-family="Helvetica,sans-Serif" font-size="10.00">testmod</text>
<polyline fill="none" stroke="black" points="0,-71.5 116,-71.5 "/>
<text text-anchor="middle" x="58" y="-59.5" font-family="Helvetica,sans-Serif" font-size="10.00"> </text>
<polyline fill="none" stroke="black" points="0,-52.5 116,-52.5 "/>
<text text-anchor="start" x="8" y="-40.5" font-family="Helvetica,sans-Serif" font-size="10.00">+ testmod()</text>
<text text-anchor="start" x="8" y="-29.5" font-family="Helvetica,sans-Serif" font-size="10.00">+ make_producer()</text>
<text text-anchor="start" x="8" y="-18.5" font-family="Helvetica,sans-Serif" font-size="10.00">+ make_consumer()</text>
<text text-anchor="start" x="8" y="-7.5" font-family="Helvetica,sans-Serif" font-size="10.00">+ test()</text>
</a>
</g>
</g>
<!-- Node2 -->
<g id="node2" class="node">
<title>Node2</title>
<g id="a_node2"><a target="_parent" xlink:href="../libpalliate/classplugin.html" xlink:title=" ">
<polygon fill="none" stroke="black" points="0,-127.5 0,-217.5 116,-217.5 116,-127.5 0,-127.5"/>
<text text-anchor="middle" x="58" y="-205.5" font-family="Helvetica,sans-Serif" font-size="10.00">plugin</text>
<polyline fill="none" stroke="black" points="0,-198.5 116,-198.5 "/>
<text text-anchor="start" x="8" y="-186.5" font-family="Helvetica,sans-Serif" font-size="10.00">+ name</text>
<polyline fill="none" stroke="black" points="0,-179.5 116,-179.5 "/>
<text text-anchor="start" x="8" y="-167.5" font-family="Helvetica,sans-Serif" font-size="10.00">+ plugin()</text>
<text text-anchor="start" x="8" y="-156.5" font-family="Helvetica,sans-Serif" font-size="10.00">+ ~plugin()</text>
<text text-anchor="start" x="8" y="-145.5" font-family="Helvetica,sans-Serif" font-size="10.00">+ make_consumer()</text>
<text text-anchor="start" x="8" y="-134.5" font-family="Helvetica,sans-Serif" font-size="10.00">+ make_producer()</text>
</a>
</g>
</g>
<!-- Node2&#45;&gt;Node1 -->
<g id="edge1" class="edge">
<title>Node2&#45;&gt;Node1</title>
<path fill="none" stroke="midnightblue" d="M58,-117.16C58,-108.28 58,-99.18 58,-90.59"/>
<polygon fill="none" stroke="midnightblue" points="54.5,-117.43 58,-127.43 61.5,-117.43 54.5,-117.43"/>
</g>
</g>
</svg>
