<?xml version="1.0" encoding="UTF-8" standalone="no"?>
<!DOCTYPE svg PUBLIC "-//W3C//DTD SVG 1.1//EN"
 "http://www.w3.org/Graphics/SVG/1.1/DTD/svg11.dtd">
<!-- Generated by graphviz version 2.43.0 (0)
 -->
<!-- Title: Logging::Endpoints::File Pages: 1 -->
<svg width="124pt" height="204pt"
 viewBox="0.00 0.00 124.00 204.00" xmlns="http://www.w3.org/2000/svg" xmlns:xlink="http://www.w3.org/1999/xlink">
<g id="graph0" class="graph" transform="scale(1 1) rotate(0) translate(4 200)">
<title>Logging::Endpoints::File</title>
<!-- Node1 -->
<g id="node1" class="node">
<title>Node1</title>
<g id="a_node1"><a xlink:title=" ">
<polygon fill="#bfbfbf" stroke="black" points="3.5,-0.5 3.5,-90.5 112.5,-90.5 112.5,-0.5 3.5,-0.5"/>
<text text-anchor="start" x="11.5" y="-78.5" font-family="Helvetica,sans-Serif" font-size="10.00">Logging::Endpoints</text>
<text text-anchor="middle" x="58" y="-67.5" font-family="Helvetica,sans-Serif" font-size="10.00">::File</text>
<polyline fill="none" stroke="black" points="3.5,-60.5 112.5,-60.5 "/>
<text text-anchor="middle" x="58" y="-48.5" font-family="Helvetica,sans-Serif" font-size="10.00"> </text>
<polyline fill="none" stroke="black" points="3.5,-41.5 112.5,-41.5 "/>
<text text-anchor="start" x="11.5" y="-29.5" font-family="Helvetica,sans-Serif" font-size="10.00">+ File()</text>
<text text-anchor="start" x="11.5" y="-18.5" font-family="Helvetica,sans-Serif" font-size="10.00">+ ~File()</text>
<text text-anchor="start" x="11.5" y="-7.5" font-family="Helvetica,sans-Serif" font-size="10.00">+ print()</text>
</a>
</g>
</g>
<!-- Node2 -->
<g id="node2" class="node">
<title>Node2</title>
<g id="a_node2"><a xlink:title=" ">
<polygon fill="none" stroke="black" points="0,-127.5 0,-195.5 116,-195.5 116,-127.5 0,-127.5"/>
<text text-anchor="start" x="8" y="-183.5" font-family="Helvetica,sans-Serif" font-size="10.00">Endpoint::Registrar</text>
<text text-anchor="middle" x="58" y="-172.5" font-family="Helvetica,sans-Serif" font-size="10.00">&lt; File, Config::File &gt;</text>
<polyline fill="none" stroke="black" points="0,-165.5 116,-165.5 "/>
<text text-anchor="middle" x="58" y="-153.5" font-family="Helvetica,sans-Serif" font-size="10.00"> </text>
<polyline fill="none" stroke="black" points="0,-146.5 116,-146.5 "/>
<text text-anchor="middle" x="58" y="-134.5" font-family="Helvetica,sans-Serif" font-size="10.00"> </text>
</a>
</g>
</g>
<!-- Node2&#45;&gt;Node1 -->
<g id="edge1" class="edge">
<title>Node2&#45;&gt;Node1</title>
<path fill="none" stroke="midnightblue" d="M58,-116.97C58,-108.35 58,-99.28 58,-90.64"/>
<polygon fill="none" stroke="midnightblue" points="54.5,-117.22 58,-127.22 61.5,-117.22 54.5,-117.22"/>
</g>
</g>
</svg>
