<?xml version="1.0" encoding="UTF-8" standalone="no"?>
<!DOCTYPE svg PUBLIC "-//W3C//DTD SVG 1.1//EN"
 "http://www.w3.org/Graphics/SVG/1.1/DTD/svg11.dtd">
<!-- Generated by graphviz version 2.43.0 (0)
 -->
<!-- Title: Control Pages: 1 -->
<svg width="305pt" height="259pt"
 viewBox="0.00 0.00 304.50 259.00" xmlns="http://www.w3.org/2000/svg" xmlns:xlink="http://www.w3.org/1999/xlink">
<g id="graph0" class="graph" transform="scale(1 1) rotate(0) translate(4 255)">
<title>Control</title>
<!-- Node1 -->
<g id="node1" class="node">
<title>Node1</title>
<g id="a_node1"><a xlink:title=" ">
<polygon fill="#bfbfbf" stroke="black" points="127.5,-0.5 127.5,-145.5 224.5,-145.5 224.5,-0.5 127.5,-0.5"/>
<text text-anchor="middle" x="176" y="-133.5" font-family="Helvetica,sans-Serif" font-size="10.00">Control</text>
<polyline fill="none" stroke="black" points="127.5,-126.5 224.5,-126.5 "/>
<text text-anchor="middle" x="176" y="-114.5" font-family="Helvetica,sans-Serif" font-size="10.00"> </text>
<polyline fill="none" stroke="black" points="127.5,-107.5 224.5,-107.5 "/>
<text text-anchor="start" x="135.5" y="-95.5" font-family="Helvetica,sans-Serif" font-size="10.00">+ Control()</text>
<text text-anchor="start" x="135.5" y="-84.5" font-family="Helvetica,sans-Serif" font-size="10.00">+ ~Control()</text>
<text text-anchor="start" x="135.5" y="-73.5" font-family="Helvetica,sans-Serif" font-size="10.00">+ setup()</text>
<text text-anchor="start" x="135.5" y="-62.5" font-family="Helvetica,sans-Serif" font-size="10.00">+ loop()</text>
<text text-anchor="start" x="135.5" y="-51.5" font-family="Helvetica,sans-Serif" font-size="10.00">+ load_plugins()</text>
<text text-anchor="start" x="135.5" y="-40.5" font-family="Helvetica,sans-Serif" font-size="10.00">+ handshake()</text>
<text text-anchor="start" x="135.5" y="-29.5" font-family="Helvetica,sans-Serif" font-size="10.00">+ serve()</text>
<text text-anchor="start" x="135.5" y="-18.5" font-family="Helvetica,sans-Serif" font-size="10.00">+ connect()</text>
<text text-anchor="start" x="135.5" y="-7.5" font-family="Helvetica,sans-Serif" font-size="10.00">+ status()</text>
</a>
</g>
</g>
<!-- Node2 -->
<g id="node2" class="node">
<title>Node2</title>
<g id="a_node2"><a xlink:title=" ">
<polygon fill="none" stroke="black" points="0,-182.5 0,-250.5 128,-250.5 128,-182.5 0,-182.5"/>
<text text-anchor="start" x="8" y="-238.5" font-family="Helvetica,sans-Serif" font-size="10.00">util::configurable</text>
<text text-anchor="middle" x="64" y="-227.5" font-family="Helvetica,sans-Serif" font-size="10.00">&lt; config::application &gt;</text>
<polyline fill="none" stroke="black" points="0,-220.5 128,-220.5 "/>
<text text-anchor="middle" x="64" y="-208.5" font-family="Helvetica,sans-Serif" font-size="10.00"> </text>
<polyline fill="none" stroke="black" points="0,-201.5 128,-201.5 "/>
<text text-anchor="middle" x="64" y="-189.5" font-family="Helvetica,sans-Serif" font-size="10.00"> </text>
</a>
</g>
</g>
<!-- Node2&#45;&gt;Node1 -->
<g id="edge1" class="edge">
<title>Node2&#45;&gt;Node1</title>
<path fill="none" stroke="midnightblue" d="M96.73,-174.15C106.36,-161.99 117.1,-148.41 127.5,-135.28"/>
<polygon fill="none" stroke="midnightblue" points="93.72,-172.31 90.26,-182.32 99.21,-176.66 93.72,-172.31"/>
</g>
<!-- Node3 -->
<g id="node3" class="node">
<title>Node3</title>
<g id="a_node3"><a xlink:title=" ">
<polygon fill="none" stroke="black" points="146.5,-188 146.5,-245 205.5,-245 205.5,-188 146.5,-188"/>
<text text-anchor="middle" x="176" y="-233" font-family="Helvetica,sans-Serif" font-size="10.00">runnable</text>
<polyline fill="none" stroke="black" points="146.5,-226 205.5,-226 "/>
<text text-anchor="middle" x="176" y="-214" font-family="Helvetica,sans-Serif" font-size="10.00"> </text>
<polyline fill="none" stroke="black" points="146.5,-207 205.5,-207 "/>
<text text-anchor="middle" x="176" y="-195" font-family="Helvetica,sans-Serif" font-size="10.00"> </text>
</a>
</g>
</g>
<!-- Node3&#45;&gt;Node1 -->
<g id="edge2" class="edge">
<title>Node3&#45;&gt;Node1</title>
<path fill="none" stroke="midnightblue" d="M176,-177.6C176,-167.68 176,-156.65 176,-145.6"/>
<polygon fill="none" stroke="midnightblue" points="172.5,-177.88 176,-187.88 179.5,-177.88 172.5,-177.88"/>
</g>
<!-- Node4 -->
<g id="node4" class="node">
<title>Node4</title>
<g id="a_node4"><a xlink:title=" ">
<polygon fill="none" stroke="black" points="223.5,-188 223.5,-245 296.5,-245 296.5,-188 223.5,-188"/>
<text text-anchor="middle" x="260" y="-233" font-family="Helvetica,sans-Serif" font-size="10.00">App::Server</text>
<polyline fill="none" stroke="black" points="223.5,-226 296.5,-226 "/>
<text text-anchor="middle" x="260" y="-214" font-family="Helvetica,sans-Serif" font-size="10.00"> </text>
<polyline fill="none" stroke="black" points="223.5,-207 296.5,-207 "/>
<text text-anchor="middle" x="260" y="-195" font-family="Helvetica,sans-Serif" font-size="10.00"> </text>
</a>
</g>
</g>
<!-- Node4&#45;&gt;Node1 -->
<g id="edge3" class="edge">
<title>Node4&#45;&gt;Node1</title>
<path fill="none" stroke="midnightblue" d="M238.44,-179.18C232.31,-168.86 225.42,-157.24 218.5,-145.6"/>
<polygon fill="none" stroke="midnightblue" points="235.49,-181.07 243.6,-187.88 241.51,-177.5 235.49,-181.07"/>
</g>
</g>
</svg>
