<?xml version="1.0" encoding="UTF-8" standalone="no"?>
<!DOCTYPE svg PUBLIC "-//W3C//DTD SVG 1.1//EN"
 "http://www.w3.org/Graphics/SVG/1.1/DTD/svg11.dtd">
<!-- Generated by graphviz version 2.43.0 (0)
 -->
<!-- Title: logging::endpoint::Bridge Pages: 1 -->
<svg width="286pt" height="215pt"
 viewBox="0.00 0.00 286.00 215.00" xmlns="http://www.w3.org/2000/svg" xmlns:xlink="http://www.w3.org/1999/xlink">
<g id="graph0" class="graph" transform="scale(1 1) rotate(0) translate(4 211)">
<title>logging::endpoint::Bridge</title>
<!-- Node1 -->
<g id="node1" class="node">
<title>Node1</title>
<g id="a_node1"><a xlink:title=" ">
<polygon fill="#bfbfbf" stroke="black" points="92,-0.5 92,-101.5 199,-101.5 199,-0.5 92,-0.5"/>
<text text-anchor="start" x="100" y="-89.5" font-family="Helvetica,sans-Serif" font-size="10.00">logging::endpoint::</text>
<text text-anchor="middle" x="145.5" y="-78.5" font-family="Helvetica,sans-Serif" font-size="10.00">Bridge</text>
<polyline fill="none" stroke="black" points="92,-71.5 199,-71.5 "/>
<text text-anchor="middle" x="145.5" y="-59.5" font-family="Helvetica,sans-Serif" font-size="10.00"> </text>
<polyline fill="none" stroke="black" points="92,-52.5 199,-52.5 "/>
<text text-anchor="start" x="100" y="-40.5" font-family="Helvetica,sans-Serif" font-size="10.00">+ Bridge()</text>
<text text-anchor="start" x="100" y="-29.5" font-family="Helvetica,sans-Serif" font-size="10.00">+ ~Bridge()</text>
<text text-anchor="start" x="100" y="-18.5" font-family="Helvetica,sans-Serif" font-size="10.00">+ authenticate()</text>
<text text-anchor="start" x="100" y="-7.5" font-family="Helvetica,sans-Serif" font-size="10.00">+ print()</text>
</a>
</g>
</g>
<!-- Node2 -->
<g id="node2" class="node">
<title>Node2</title>
<g id="a_node2"><a xlink:title=" ">
<polygon fill="none" stroke="black" points="0,-138.5 0,-206.5 143,-206.5 143,-138.5 0,-138.5"/>
<text text-anchor="start" x="8" y="-194.5" font-family="Helvetica,sans-Serif" font-size="10.00">Endpoint::registrar</text>
<text text-anchor="middle" x="71.5" y="-183.5" font-family="Helvetica,sans-Serif" font-size="10.00">&lt; Bridge, config::bridge &gt;</text>
<polyline fill="none" stroke="black" points="0,-176.5 143,-176.5 "/>
<text text-anchor="middle" x="71.5" y="-164.5" font-family="Helvetica,sans-Serif" font-size="10.00"> </text>
<polyline fill="none" stroke="black" points="0,-157.5 143,-157.5 "/>
<text text-anchor="middle" x="71.5" y="-145.5" font-family="Helvetica,sans-Serif" font-size="10.00"> </text>
</a>
</g>
</g>
<!-- Node2&#45;&gt;Node1 -->
<g id="edge1" class="edge">
<title>Node2&#45;&gt;Node1</title>
<path fill="none" stroke="midnightblue" d="M97.54,-129.45C103.1,-120.47 109.03,-110.89 114.76,-101.65"/>
<polygon fill="none" stroke="midnightblue" points="94.4,-127.87 92.11,-138.21 100.35,-131.55 94.4,-127.87"/>
</g>
<!-- Node3 -->
<g id="node3" class="node">
<title>Node3</title>
<g id="a_node3"><a xlink:title=" ">
<polygon fill="none" stroke="black" points="161,-144 161,-201 278,-201 278,-144 161,-144"/>
<text text-anchor="middle" x="219.5" y="-189" font-family="Helvetica,sans-Serif" font-size="10.00">DataChannel::Server</text>
<polyline fill="none" stroke="black" points="161,-182 278,-182 "/>
<text text-anchor="middle" x="219.5" y="-170" font-family="Helvetica,sans-Serif" font-size="10.00"> </text>
<polyline fill="none" stroke="black" points="161,-163 278,-163 "/>
<text text-anchor="middle" x="219.5" y="-151" font-family="Helvetica,sans-Serif" font-size="10.00"> </text>
</a>
</g>
</g>
<!-- Node3&#45;&gt;Node1 -->
<g id="edge2" class="edge">
<title>Node3&#45;&gt;Node1</title>
<path fill="none" stroke="midnightblue" d="M197.02,-135.2C190.47,-124.61 183.19,-112.86 176.21,-101.6"/>
<polygon fill="none" stroke="midnightblue" points="194.1,-137.12 202.34,-143.78 200.05,-133.44 194.1,-137.12"/>
</g>
</g>
</svg>
