<?xml version="1.0" encoding="UTF-8" standalone="no"?>
<!DOCTYPE svg PUBLIC "-//W3C//DTD SVG 1.1//EN"
 "http://www.w3.org/Graphics/SVG/1.1/DTD/svg11.dtd">
<!-- Generated by graphviz version 2.43.0 (0)
 -->
<!-- Title: logging::endpoint::Systemd Pages: 1 -->
<svg width="173pt" height="193pt"
 viewBox="0.00 0.00 173.00 193.00" xmlns="http://www.w3.org/2000/svg" xmlns:xlink="http://www.w3.org/1999/xlink">
<g id="graph0" class="graph" transform="scale(1 1) rotate(0) translate(4 189)">
<title>logging::endpoint::Systemd</title>
<!-- Node1 -->
<g id="node1" class="node">
<title>Node1</title>
<g id="a_node1"><a xlink:title=" ">
<polygon fill="#bfbfbf" stroke="black" points="29,-0.5 29,-79.5 136,-79.5 136,-0.5 29,-0.5"/>
<text text-anchor="start" x="37" y="-67.5" font-family="Helvetica,sans-Serif" font-size="10.00">logging::endpoint::</text>
<text text-anchor="middle" x="82.5" y="-56.5" font-family="Helvetica,sans-Serif" font-size="10.00">Systemd</text>
<polyline fill="none" stroke="black" points="29,-49.5 136,-49.5 "/>
<text text-anchor="middle" x="82.5" y="-37.5" font-family="Helvetica,sans-Serif" font-size="10.00"> </text>
<polyline fill="none" stroke="black" points="29,-30.5 136,-30.5 "/>
<text text-anchor="start" x="37" y="-18.5" font-family="Helvetica,sans-Serif" font-size="10.00">+ Systemd()</text>
<text text-anchor="start" x="37" y="-7.5" font-family="Helvetica,sans-Serif" font-size="10.00">+ print()</text>
</a>
</g>
</g>
<!-- Node2 -->
<g id="node2" class="node">
<title>Node2</title>
<g id="a_node2"><a xlink:title=" ">
<polygon fill="none" stroke="black" points="0,-116.5 0,-184.5 165,-184.5 165,-116.5 0,-116.5"/>
<text text-anchor="start" x="8" y="-172.5" font-family="Helvetica,sans-Serif" font-size="10.00">Endpoint::registrar</text>
<text text-anchor="middle" x="82.5" y="-161.5" font-family="Helvetica,sans-Serif" font-size="10.00">&lt; Systemd, config::systemd &gt;</text>
<polyline fill="none" stroke="black" points="0,-154.5 165,-154.5 "/>
<text text-anchor="middle" x="82.5" y="-142.5" font-family="Helvetica,sans-Serif" font-size="10.00"> </text>
<polyline fill="none" stroke="black" points="0,-135.5 165,-135.5 "/>
<text text-anchor="middle" x="82.5" y="-123.5" font-family="Helvetica,sans-Serif" font-size="10.00"> </text>
</a>
</g>
</g>
<!-- Node2&#45;&gt;Node1 -->
<g id="edge1" class="edge">
<title>Node2&#45;&gt;Node1</title>
<path fill="none" stroke="midnightblue" d="M82.5,-106.27C82.5,-97.48 82.5,-88.28 82.5,-79.65"/>
<polygon fill="none" stroke="midnightblue" points="79,-106.36 82.5,-116.36 86,-106.36 79,-106.36"/>
</g>
</g>
</svg>
