<?xml version="1.0" encoding="UTF-8" standalone="no"?>
<!DOCTYPE svg PUBLIC "-//W3C//DTD SVG 1.1//EN"
 "http://www.w3.org/Graphics/SVG/1.1/DTD/svg11.dtd">
<!-- Generated by graphviz version 2.43.0 (0)
 -->
<!-- Title: Application Pages: 1 -->
<svg width="347pt" height="369pt"
 viewBox="0.00 0.00 346.50 369.00" xmlns="http://www.w3.org/2000/svg" xmlns:xlink="http://www.w3.org/1999/xlink">
<g id="graph0" class="graph" transform="scale(1 1) rotate(0) translate(4 365)">
<title>Application</title>
<!-- Node1 -->
<g id="node1" class="node">
<title>Node1</title>
<g id="a_node1"><a xlink:title=" ">
<polygon fill="#bfbfbf" stroke="black" points="148,-0.5 148,-145.5 246,-145.5 246,-0.5 148,-0.5"/>
<text text-anchor="middle" x="197" y="-133.5" font-family="Helvetica,sans-Serif" font-size="10.00">Application</text>
<polyline fill="none" stroke="black" points="148,-126.5 246,-126.5 "/>
<text text-anchor="middle" x="197" y="-114.5" font-family="Helvetica,sans-Serif" font-size="10.00"> </text>
<polyline fill="none" stroke="black" points="148,-107.5 246,-107.5 "/>
<text text-anchor="start" x="156" y="-95.5" font-family="Helvetica,sans-Serif" font-size="10.00">+ Application()</text>
<text text-anchor="start" x="156" y="-84.5" font-family="Helvetica,sans-Serif" font-size="10.00">+ ~Application()</text>
<text text-anchor="start" x="156" y="-73.5" font-family="Helvetica,sans-Serif" font-size="10.00">+ setup()</text>
<text text-anchor="start" x="156" y="-62.5" font-family="Helvetica,sans-Serif" font-size="10.00">+ loop()</text>
<text text-anchor="start" x="156" y="-51.5" font-family="Helvetica,sans-Serif" font-size="10.00">+ load_plugins()</text>
<text text-anchor="start" x="156" y="-40.5" font-family="Helvetica,sans-Serif" font-size="10.00">+ handshake()</text>
<text text-anchor="start" x="156" y="-29.5" font-family="Helvetica,sans-Serif" font-size="10.00">+ serve()</text>
<text text-anchor="start" x="156" y="-18.5" font-family="Helvetica,sans-Serif" font-size="10.00">+ connect()</text>
<text text-anchor="start" x="156" y="-7.5" font-family="Helvetica,sans-Serif" font-size="10.00">+ status()</text>
</a>
</g>
</g>
<!-- Node2 -->
<g id="node2" class="node">
<title>Node2</title>
<g id="a_node2"><a target="_parent" xlink:href="../libpalliate/classutil_1_1configurable.html" xlink:title=" ">
<polygon fill="none" stroke="black" points="0,-221 0,-322 128,-322 128,-221 0,-221"/>
<text text-anchor="start" x="8" y="-310" font-family="Helvetica,sans-Serif" font-size="10.00">util::configurable</text>
<text text-anchor="middle" x="64" y="-299" font-family="Helvetica,sans-Serif" font-size="10.00">&lt; config::application &gt;</text>
<polyline fill="none" stroke="black" points="0,-292 128,-292 "/>
<text text-anchor="start" x="8" y="-280" font-family="Helvetica,sans-Serif" font-size="10.00">+ config</text>
<text text-anchor="start" x="8" y="-269" font-family="Helvetica,sans-Serif" font-size="10.00"># _lock</text>
<polyline fill="none" stroke="black" points="0,-262 128,-262 "/>
<text text-anchor="start" x="8" y="-250" font-family="Helvetica,sans-Serif" font-size="10.00">+ configurable()</text>
<text text-anchor="start" x="8" y="-239" font-family="Helvetica,sans-Serif" font-size="10.00">+ ~configurable()</text>
<text text-anchor="start" x="8" y="-228" font-family="Helvetica,sans-Serif" font-size="10.00">+ lock()</text>
</a>
</g>
</g>
<!-- Node2&#45;&gt;Node1 -->
<g id="edge1" class="edge">
<title>Node2&#45;&gt;Node1</title>
<path fill="none" stroke="midnightblue" d="M103.28,-212.46C117.42,-191.58 133.54,-167.76 148.37,-145.84"/>
<polygon fill="none" stroke="midnightblue" points="100.27,-210.67 97.56,-220.91 106.07,-214.6 100.27,-210.67"/>
</g>
<!-- Node3 -->
<g id="node3" class="node">
<title>Node3</title>
<g id="a_node3"><a target="_parent" xlink:href="../libpalliate/classrunnable.html" xlink:title=" ">
<polygon fill="none" stroke="black" points="146.5,-182.5 146.5,-360.5 247.5,-360.5 247.5,-182.5 146.5,-182.5"/>
<text text-anchor="middle" x="197" y="-348.5" font-family="Helvetica,sans-Serif" font-size="10.00">runnable</text>
<polyline fill="none" stroke="black" points="146.5,-341.5 247.5,-341.5 "/>
<text text-anchor="start" x="154.5" y="-329.5" font-family="Helvetica,sans-Serif" font-size="10.00"># thread</text>
<text text-anchor="start" x="154.5" y="-318.5" font-family="Helvetica,sans-Serif" font-size="10.00"># callback</text>
<polyline fill="none" stroke="black" points="146.5,-311.5 247.5,-311.5 "/>
<text text-anchor="start" x="154.5" y="-299.5" font-family="Helvetica,sans-Serif" font-size="10.00">+ runnable()</text>
<text text-anchor="start" x="154.5" y="-288.5" font-family="Helvetica,sans-Serif" font-size="10.00">+ ~runnable()</text>
<text text-anchor="start" x="154.5" y="-277.5" font-family="Helvetica,sans-Serif" font-size="10.00">+ operator()()</text>
<text text-anchor="start" x="154.5" y="-266.5" font-family="Helvetica,sans-Serif" font-size="10.00">+ run()</text>
<text text-anchor="start" x="154.5" y="-255.5" font-family="Helvetica,sans-Serif" font-size="10.00">+ run()</text>
<text text-anchor="start" x="154.5" y="-244.5" font-family="Helvetica,sans-Serif" font-size="10.00">+ run()</text>
<text text-anchor="start" x="154.5" y="-233.5" font-family="Helvetica,sans-Serif" font-size="10.00">+ run()</text>
<text text-anchor="start" x="154.5" y="-222.5" font-family="Helvetica,sans-Serif" font-size="10.00">+ stop()</text>
<text text-anchor="start" x="154.5" y="-211.5" font-family="Helvetica,sans-Serif" font-size="10.00">+ operator&lt;=&gt;()</text>
<text text-anchor="start" x="154.5" y="-200.5" font-family="Helvetica,sans-Serif" font-size="10.00"># setup()</text>
<text text-anchor="start" x="154.5" y="-189.5" font-family="Helvetica,sans-Serif" font-size="10.00"># loop()</text>
</a>
</g>
</g>
<!-- Node3&#45;&gt;Node1 -->
<g id="edge2" class="edge">
<title>Node3&#45;&gt;Node1</title>
<path fill="none" stroke="midnightblue" d="M197,-172.23C197,-163.3 197,-154.36 197,-145.72"/>
<polygon fill="none" stroke="midnightblue" points="193.5,-172.31 197,-182.31 200.5,-172.31 193.5,-172.31"/>
</g>
<!-- Node4 -->
<g id="node4" class="node">
<title>Node4</title>
<g id="a_node4"><a xlink:title=" ">
<polygon fill="none" stroke="black" points="265.5,-243 265.5,-300 338.5,-300 338.5,-243 265.5,-243"/>
<text text-anchor="middle" x="302" y="-288" font-family="Helvetica,sans-Serif" font-size="10.00">App::Server</text>
<polyline fill="none" stroke="black" points="265.5,-281 338.5,-281 "/>
<text text-anchor="middle" x="302" y="-269" font-family="Helvetica,sans-Serif" font-size="10.00"> </text>
<polyline fill="none" stroke="black" points="265.5,-262 338.5,-262 "/>
<text text-anchor="middle" x="302" y="-250" font-family="Helvetica,sans-Serif" font-size="10.00"> </text>
</a>
</g>
</g>
<!-- Node4&#45;&gt;Node1 -->
<g id="edge3" class="edge">
<title>Node4&#45;&gt;Node1</title>
<path fill="none" stroke="midnightblue" d="M283.73,-233.82C275.67,-217.84 266,-198.92 257,-182 250.71,-170.16 243.91,-157.67 237.23,-145.54"/>
<polygon fill="none" stroke="midnightblue" points="280.65,-235.5 288.27,-242.86 286.91,-232.35 280.65,-235.5"/>
</g>
</g>
</svg>
