<?xml version="1.0" encoding="UTF-8" standalone="no"?>
<!DOCTYPE svg PUBLIC "-//W3C//DTD SVG 1.1//EN"
 "http://www.w3.org/Graphics/SVG/1.1/DTD/svg11.dtd">
<!-- Generated by graphviz version 2.43.0 (0)
 -->
<!-- Title: logging::endpoint::bridge Pages: 1 -->
<svg width="286pt" height="215pt"
 viewBox="0.00 0.00 285.50 215.00" xmlns="http://www.w3.org/2000/svg" xmlns:xlink="http://www.w3.org/1999/xlink">
<g id="graph0" class="graph" transform="scale(1 1) rotate(0) translate(4 211)">
<title>logging::endpoint::bridge</title>
<!-- Node1 -->
<g id="node1" class="node">
<title>Node1</title>
<g id="a_node1"><a xlink:title=" ">
<polygon fill="#bfbfbf" stroke="black" points="91.5,-0.5 91.5,-101.5 198.5,-101.5 198.5,-0.5 91.5,-0.5"/>
<text text-anchor="start" x="99.5" y="-89.5" font-family="Helvetica,sans-Serif" font-size="10.00">logging::endpoint::</text>
<text text-anchor="middle" x="145" y="-78.5" font-family="Helvetica,sans-Serif" font-size="10.00">bridge</text>
<polyline fill="none" stroke="black" points="91.5,-71.5 198.5,-71.5 "/>
<text text-anchor="middle" x="145" y="-59.5" font-family="Helvetica,sans-Serif" font-size="10.00"> </text>
<polyline fill="none" stroke="black" points="91.5,-52.5 198.5,-52.5 "/>
<text text-anchor="start" x="99.5" y="-40.5" font-family="Helvetica,sans-Serif" font-size="10.00">+ bridge()</text>
<text text-anchor="start" x="99.5" y="-29.5" font-family="Helvetica,sans-Serif" font-size="10.00">+ ~bridge()</text>
<text text-anchor="start" x="99.5" y="-18.5" font-family="Helvetica,sans-Serif" font-size="10.00">+ authenticate()</text>
<text text-anchor="start" x="99.5" y="-7.5" font-family="Helvetica,sans-Serif" font-size="10.00">+ print()</text>
</a>
</g>
</g>
<!-- Node2 -->
<g id="node2" class="node">
<title>Node2</title>
<g id="a_node2"><a xlink:title=" ">
<polygon fill="none" stroke="black" points="0,-138.5 0,-206.5 142,-206.5 142,-138.5 0,-138.5"/>
<text text-anchor="start" x="8" y="-194.5" font-family="Helvetica,sans-Serif" font-size="10.00">Endpoint::registrar</text>
<text text-anchor="middle" x="71" y="-183.5" font-family="Helvetica,sans-Serif" font-size="10.00">&lt; bridge, config::bridge &gt;</text>
<polyline fill="none" stroke="black" points="0,-176.5 142,-176.5 "/>
<text text-anchor="middle" x="71" y="-164.5" font-family="Helvetica,sans-Serif" font-size="10.00"> </text>
<polyline fill="none" stroke="black" points="0,-157.5 142,-157.5 "/>
<text text-anchor="middle" x="71" y="-145.5" font-family="Helvetica,sans-Serif" font-size="10.00"> </text>
</a>
</g>
</g>
<!-- Node2&#45;&gt;Node1 -->
<g id="edge1" class="edge">
<title>Node2&#45;&gt;Node1</title>
<path fill="none" stroke="midnightblue" d="M97.04,-129.45C102.6,-120.47 108.53,-110.89 114.26,-101.65"/>
<polygon fill="none" stroke="midnightblue" points="93.9,-127.87 91.61,-138.21 99.85,-131.55 93.9,-127.87"/>
</g>
<!-- Node3 -->
<g id="node3" class="node">
<title>Node3</title>
<g id="a_node3"><a xlink:title=" ">
<polygon fill="none" stroke="black" points="160.5,-144 160.5,-201 277.5,-201 277.5,-144 160.5,-144"/>
<text text-anchor="middle" x="219" y="-189" font-family="Helvetica,sans-Serif" font-size="10.00">DataChannel::Server</text>
<polyline fill="none" stroke="black" points="160.5,-182 277.5,-182 "/>
<text text-anchor="middle" x="219" y="-170" font-family="Helvetica,sans-Serif" font-size="10.00"> </text>
<polyline fill="none" stroke="black" points="160.5,-163 277.5,-163 "/>
<text text-anchor="middle" x="219" y="-151" font-family="Helvetica,sans-Serif" font-size="10.00"> </text>
</a>
</g>
</g>
<!-- Node3&#45;&gt;Node1 -->
<g id="edge2" class="edge">
<title>Node3&#45;&gt;Node1</title>
<path fill="none" stroke="midnightblue" d="M196.52,-135.2C189.97,-124.61 182.69,-112.86 175.71,-101.6"/>
<polygon fill="none" stroke="midnightblue" points="193.6,-137.12 201.84,-143.78 199.55,-133.44 193.6,-137.12"/>
</g>
</g>
</svg>
