<?xml version="1.0" encoding="UTF-8" standalone="no"?>
<!DOCTYPE svg PUBLIC "-//W3C//DTD SVG 1.1//EN"
 "http://www.w3.org/Graphics/SVG/1.1/DTD/svg11.dtd">
<!-- Generated by graphviz version 2.43.0 (0)
 -->
<!-- Title: UI::AppIndicator::Tray Pages: 1 -->
<svg width="170pt" height="193pt"
 viewBox="0.00 0.00 170.00 193.00" xmlns="http://www.w3.org/2000/svg" xmlns:xlink="http://www.w3.org/1999/xlink">
<g id="graph0" class="graph" transform="scale(1 1) rotate(0) translate(4 189)">
<title>UI::AppIndicator::Tray</title>
<!-- Node1 -->
<g id="node1" class="node">
<title>Node1</title>
<g id="a_node1"><a xlink:title=" ">
<polygon fill="#bfbfbf" stroke="black" points="20.5,-0.5 20.5,-79.5 141.5,-79.5 141.5,-0.5 20.5,-0.5"/>
<text text-anchor="middle" x="81" y="-67.5" font-family="Helvetica,sans-Serif" font-size="10.00">UI::AppIndicator::Tray</text>
<polyline fill="none" stroke="black" points="20.5,-60.5 141.5,-60.5 "/>
<text text-anchor="middle" x="81" y="-48.5" font-family="Helvetica,sans-Serif" font-size="10.00"> </text>
<polyline fill="none" stroke="black" points="20.5,-41.5 141.5,-41.5 "/>
<text text-anchor="start" x="28.5" y="-29.5" font-family="Helvetica,sans-Serif" font-size="10.00">+ Tray()</text>
<text text-anchor="start" x="28.5" y="-18.5" font-family="Helvetica,sans-Serif" font-size="10.00">+ ~Tray()</text>
<text text-anchor="start" x="28.5" y="-7.5" font-family="Helvetica,sans-Serif" font-size="10.00">+ render()</text>
</a>
</g>
</g>
<!-- Node2 -->
<g id="node2" class="node">
<title>Node2</title>
<g id="a_node2"><a xlink:title=" ">
<polygon fill="none" stroke="black" points="0,-116.5 0,-184.5 162,-184.5 162,-116.5 0,-116.5"/>
<text text-anchor="start" x="8" y="-172.5" font-family="Helvetica,sans-Serif" font-size="10.00">UI::Tray::Registrar</text>
<text text-anchor="middle" x="81" y="-161.5" font-family="Helvetica,sans-Serif" font-size="10.00">&lt; Tray, config::AppIndicator &gt;</text>
<polyline fill="none" stroke="black" points="0,-154.5 162,-154.5 "/>
<text text-anchor="middle" x="81" y="-142.5" font-family="Helvetica,sans-Serif" font-size="10.00"> </text>
<polyline fill="none" stroke="black" points="0,-135.5 162,-135.5 "/>
<text text-anchor="middle" x="81" y="-123.5" font-family="Helvetica,sans-Serif" font-size="10.00"> </text>
</a>
</g>
</g>
<!-- Node2&#45;&gt;Node1 -->
<g id="edge1" class="edge">
<title>Node2&#45;&gt;Node1</title>
<path fill="none" stroke="midnightblue" d="M81,-106.27C81,-97.48 81,-88.28 81,-79.65"/>
<polygon fill="none" stroke="midnightblue" points="77.5,-106.36 81,-116.36 84.5,-106.36 77.5,-106.36"/>
</g>
</g>
</svg>
