<?xml version="1.0" encoding="UTF-8" standalone="no"?>
<!DOCTYPE svg PUBLIC "-//W3C//DTD SVG 1.1//EN"
 "http://www.w3.org/Graphics/SVG/1.1/DTD/svg11.dtd">
<!-- Generated by graphviz version 2.43.0 (0)
 -->
<!-- Title: Logging::Endpoints::Serial Pages: 1 -->
<svg width="144pt" height="204pt"
 viewBox="0.00 0.00 144.00 204.00" xmlns="http://www.w3.org/2000/svg" xmlns:xlink="http://www.w3.org/1999/xlink">
<g id="graph0" class="graph" transform="scale(1 1) rotate(0) translate(4 200)">
<title>Logging::Endpoints::Serial</title>
<!-- Node1 -->
<g id="node1" class="node">
<title>Node1</title>
<g id="a_node1"><a xlink:title=" ">
<polygon fill="#bfbfbf" stroke="black" points="13.5,-0.5 13.5,-90.5 122.5,-90.5 122.5,-0.5 13.5,-0.5"/>
<text text-anchor="start" x="21.5" y="-78.5" font-family="Helvetica,sans-Serif" font-size="10.00">Logging::Endpoints</text>
<text text-anchor="middle" x="68" y="-67.5" font-family="Helvetica,sans-Serif" font-size="10.00">::Serial</text>
<polyline fill="none" stroke="black" points="13.5,-60.5 122.5,-60.5 "/>
<text text-anchor="middle" x="68" y="-48.5" font-family="Helvetica,sans-Serif" font-size="10.00"> </text>
<polyline fill="none" stroke="black" points="13.5,-41.5 122.5,-41.5 "/>
<text text-anchor="start" x="21.5" y="-29.5" font-family="Helvetica,sans-Serif" font-size="10.00">+ Serial()</text>
<text text-anchor="start" x="21.5" y="-18.5" font-family="Helvetica,sans-Serif" font-size="10.00">+ ~Serial()</text>
<text text-anchor="start" x="21.5" y="-7.5" font-family="Helvetica,sans-Serif" font-size="10.00">+ print()</text>
</a>
</g>
</g>
<!-- Node2 -->
<g id="node2" class="node">
<title>Node2</title>
<g id="a_node2"><a xlink:title=" ">
<polygon fill="none" stroke="black" points="0,-127.5 0,-195.5 136,-195.5 136,-127.5 0,-127.5"/>
<text text-anchor="start" x="8" y="-183.5" font-family="Helvetica,sans-Serif" font-size="10.00">Endpoint::Registrar</text>
<text text-anchor="middle" x="68" y="-172.5" font-family="Helvetica,sans-Serif" font-size="10.00">&lt; Serial, config::Serial &gt;</text>
<polyline fill="none" stroke="black" points="0,-165.5 136,-165.5 "/>
<text text-anchor="middle" x="68" y="-153.5" font-family="Helvetica,sans-Serif" font-size="10.00"> </text>
<polyline fill="none" stroke="black" points="0,-146.5 136,-146.5 "/>
<text text-anchor="middle" x="68" y="-134.5" font-family="Helvetica,sans-Serif" font-size="10.00"> </text>
</a>
</g>
</g>
<!-- Node2&#45;&gt;Node1 -->
<g id="edge1" class="edge">
<title>Node2&#45;&gt;Node1</title>
<path fill="none" stroke="midnightblue" d="M68,-116.97C68,-108.35 68,-99.28 68,-90.64"/>
<polygon fill="none" stroke="midnightblue" points="64.5,-117.22 68,-127.22 71.5,-117.22 64.5,-117.22"/>
</g>
</g>
</svg>
