<?xml version="1.0" encoding="UTF-8" standalone="no"?>
<!DOCTYPE svg PUBLIC "-//W3C//DTD SVG 1.1//EN"
 "http://www.w3.org/Graphics/SVG/1.1/DTD/svg11.dtd">
<!-- Generated by graphviz version 2.43.0 (0)
 -->
<!-- Title: Graphical Class Hierarchy Pages: 1 -->
<svg width="150pt" height="218pt"
 viewBox="0.00 0.00 150.00 218.00" xmlns="http://www.w3.org/2000/svg" xmlns:xlink="http://www.w3.org/1999/xlink">
<g id="graph0" class="graph" transform="scale(1 1) rotate(0) translate(4 214)">
<title>Graphical Class Hierarchy</title>
<!-- Node0 -->
<g id="node1" class="node">
<title>Node0</title>
<g id="a_node1"><a target="_parent" xlink:href="../libpalliate/classplugin.html" xlink:title=" ">
<polygon fill="none" stroke="black" points="0,-95.5 0,-114.5 47,-114.5 47,-95.5 0,-95.5"/>
<text text-anchor="middle" x="23.5" y="-102.5" font-family="Helvetica,sans-Serif" font-size="10.00">plugin</text>
</a>
</g>
</g>
<!-- Node1 -->
<g id="node2" class="node">
<title>Node1</title>
<g id="a_node2"><a xlink:href="classcapture.html" target="_top" xlink:title=" ">
<polygon fill="none" stroke="black" points="86,-190.5 86,-209.5 139,-209.5 139,-190.5 86,-190.5"/>
<text text-anchor="middle" x="112.5" y="-197.5" font-family="Helvetica,sans-Serif" font-size="10.00">capture</text>
</a>
</g>
</g>
<!-- Node0&#45;&gt;Node1 -->
<g id="edge1" class="edge">
<title>Node0&#45;&gt;Node1</title>
<path fill="none" stroke="midnightblue" d="M36.08,-123.3C46.94,-139.61 64.29,-163.52 83,-181 86.65,-184.41 90.97,-187.63 95.14,-190.41"/>
<polygon fill="midnightblue" stroke="midnightblue" points="38.86,-121.16 30.47,-114.69 32.99,-124.98 38.86,-121.16"/>
</g>
<!-- Node2 -->
<g id="node3" class="node">
<title>Node2</title>
<g id="a_node3"><a xlink:href="classinput.html" target="_top" xlink:title=" ">
<polygon fill="none" stroke="black" points="92,-152.5 92,-171.5 133,-171.5 133,-152.5 92,-152.5"/>
<text text-anchor="middle" x="112.5" y="-159.5" font-family="Helvetica,sans-Serif" font-size="10.00">input</text>
</a>
</g>
</g>
<!-- Node0&#45;&gt;Node2 -->
<g id="edge2" class="edge">
<title>Node0&#45;&gt;Node2</title>
<path fill="none" stroke="midnightblue" d="M47.86,-120.31C63.49,-130.55 83.58,-143.71 96.96,-152.47"/>
<polygon fill="midnightblue" stroke="midnightblue" points="49.54,-117.22 39.26,-114.67 45.7,-123.08 49.54,-117.22"/>
</g>
<!-- Node3 -->
<g id="node4" class="node">
<title>Node3</title>
<g id="a_node4"><a xlink:href="classsystemd.html" target="_top" xlink:title=" ">
<polygon fill="none" stroke="black" points="83,-114.5 83,-133.5 142,-133.5 142,-114.5 83,-114.5"/>
<text text-anchor="middle" x="112.5" y="-121.5" font-family="Helvetica,sans-Serif" font-size="10.00">systemd</text>
</a>
</g>
</g>
<!-- Node0&#45;&gt;Node3 -->
<g id="edge3" class="edge">
<title>Node0&#45;&gt;Node3</title>
<path fill="none" stroke="midnightblue" d="M57.26,-112.15C65.68,-113.99 74.68,-115.96 82.88,-117.75"/>
<polygon fill="midnightblue" stroke="midnightblue" points="57.87,-108.71 47.36,-109.99 56.38,-115.55 57.87,-108.71"/>
</g>
<!-- Node4 -->
<g id="node5" class="node">
<title>Node4</title>
<g id="a_node5"><a xlink:href="classtestmod.html" target="_top" xlink:title=" ">
<polygon fill="none" stroke="black" points="84,-76.5 84,-95.5 141,-95.5 141,-76.5 84,-76.5"/>
<text text-anchor="middle" x="112.5" y="-83.5" font-family="Helvetica,sans-Serif" font-size="10.00">testmod</text>
</a>
</g>
</g>
<!-- Node0&#45;&gt;Node4 -->
<g id="edge4" class="edge">
<title>Node0&#45;&gt;Node4</title>
<path fill="none" stroke="midnightblue" d="M57.26,-97.85C66.01,-95.93 75.38,-93.89 83.83,-92.04"/>
<polygon fill="midnightblue" stroke="midnightblue" points="56.38,-94.45 47.36,-100.01 57.87,-101.29 56.38,-94.45"/>
</g>
<!-- Node5 -->
<g id="node6" class="node">
<title>Node5</title>
<g id="a_node6"><a xlink:href="classvtty.html" target="_top" xlink:title=" ">
<polygon fill="none" stroke="black" points="94.5,-38.5 94.5,-57.5 130.5,-57.5 130.5,-38.5 94.5,-38.5"/>
<text text-anchor="middle" x="112.5" y="-45.5" font-family="Helvetica,sans-Serif" font-size="10.00">vtty</text>
</a>
</g>
</g>
<!-- Node0&#45;&gt;Node5 -->
<g id="edge5" class="edge">
<title>Node0&#45;&gt;Node5</title>
<path fill="none" stroke="midnightblue" d="M47.86,-89.69C63.49,-79.45 83.58,-66.29 96.96,-57.53"/>
<polygon fill="midnightblue" stroke="midnightblue" points="45.7,-86.92 39.26,-95.33 49.54,-92.78 45.7,-86.92"/>
</g>
<!-- Node6 -->
<g id="node7" class="node">
<title>Node6</title>
<g id="a_node7"><a xlink:href="classwm.html" target="_top" xlink:title=" ">
<polygon fill="none" stroke="black" points="95,-0.5 95,-19.5 130,-19.5 130,-0.5 95,-0.5"/>
<text text-anchor="middle" x="112.5" y="-7.5" font-family="Helvetica,sans-Serif" font-size="10.00">wm</text>
</a>
</g>
</g>
<!-- Node0&#45;&gt;Node6 -->
<g id="edge6" class="edge">
<title>Node0&#45;&gt;Node6</title>
<path fill="none" stroke="midnightblue" d="M36.08,-86.7C46.94,-70.39 64.29,-46.48 83,-29 86.65,-25.59 90.97,-22.37 95.14,-19.59"/>
<polygon fill="midnightblue" stroke="midnightblue" points="32.99,-85.02 30.47,-95.31 38.86,-88.84 32.99,-85.02"/>
</g>
</g>
</svg>
