<?xml version="1.0" encoding="UTF-8" standalone="no"?>
<!DOCTYPE svg PUBLIC "-//W3C//DTD SVG 1.1//EN"
 "http://www.w3.org/Graphics/SVG/1.1/DTD/svg11.dtd">
<!-- Generated by graphviz version 2.43.0 (0)
 -->
<!-- Title: Graphical Class Hierarchy Pages: 1 -->
<svg width="273pt" height="225pt"
 viewBox="0.00 0.00 273.00 225.00" xmlns="http://www.w3.org/2000/svg" xmlns:xlink="http://www.w3.org/1999/xlink">
<g id="graph0" class="graph" transform="scale(1 1) rotate(0) translate(4 221)">
<title>Graphical Class Hierarchy</title>
<!-- Node0 -->
<g id="node1" class="node">
<title>Node0</title>
<g id="a_node1"><a xlink:title=" ">
<polygon fill="none" stroke="#bfbfbf" points="0,-99 0,-118 107,-118 107,-99 0,-99"/>
<text text-anchor="middle" x="53.5" y="-106" font-family="Helvetica,sans-Serif" font-size="10.00">Endpoint::registrar</text>
</a>
</g>
</g>
<!-- Node1 -->
<g id="node2" class="node">
<title>Node1</title>
<g id="a_node2"><a xlink:href="classlogging_1_1endpoint_1_1Bridge.html" target="_top" xlink:title=" ">
<polygon fill="none" stroke="black" points="150.5,-186.5 150.5,-216.5 257.5,-216.5 257.5,-186.5 150.5,-186.5"/>
<text text-anchor="start" x="158.5" y="-204.5" font-family="Helvetica,sans-Serif" font-size="10.00">logging::endpoint::</text>
<text text-anchor="middle" x="204" y="-193.5" font-family="Helvetica,sans-Serif" font-size="10.00">Bridge</text>
</a>
</g>
</g>
<!-- Node0&#45;&gt;Node1 -->
<g id="edge1" class="edge">
<title>Node0&#45;&gt;Node1</title>
<path fill="none" stroke="midnightblue" d="M72.26,-124.81C89.41,-139.94 116.58,-162.32 143,-177.5 148.64,-180.74 154.81,-183.75 160.97,-186.45"/>
<polygon fill="midnightblue" stroke="midnightblue" points="74.48,-122.1 64.7,-118.04 69.81,-127.32 74.48,-122.1"/>
</g>
<!-- Node2 -->
<g id="node3" class="node">
<title>Node2</title>
<g id="a_node3"><a xlink:href="classlogging_1_1endpoint_1_1Systemd.html" target="_top" xlink:title=" ">
<polygon fill="none" stroke="black" points="150.5,-137.5 150.5,-167.5 257.5,-167.5 257.5,-137.5 150.5,-137.5"/>
<text text-anchor="start" x="158.5" y="-155.5" font-family="Helvetica,sans-Serif" font-size="10.00">logging::endpoint::</text>
<text text-anchor="middle" x="204" y="-144.5" font-family="Helvetica,sans-Serif" font-size="10.00">Systemd</text>
</a>
</g>
</g>
<!-- Node0&#45;&gt;Node2 -->
<g id="edge2" class="edge">
<title>Node0&#45;&gt;Node2</title>
<path fill="none" stroke="midnightblue" d="M96.54,-120.96C113.84,-126.08 134.03,-132.06 152.15,-137.43"/>
<polygon fill="midnightblue" stroke="midnightblue" points="97.3,-117.53 86.72,-118.05 95.32,-124.24 97.3,-117.53"/>
</g>
<!-- Node3 -->
<g id="node4" class="node">
<title>Node3</title>
<g id="a_node4"><a xlink:href="classlogging_1_1endpoint_1_1file.html" target="_top" xlink:title=" ">
<polygon fill="none" stroke="black" points="143,-99 143,-118 265,-118 265,-99 143,-99"/>
<text text-anchor="middle" x="204" y="-106" font-family="Helvetica,sans-Serif" font-size="10.00">logging::endpoint::file</text>
</a>
</g>
</g>
<!-- Node0&#45;&gt;Node3 -->
<g id="edge3" class="edge">
<title>Node0&#45;&gt;Node3</title>
<path fill="none" stroke="midnightblue" d="M117.41,-108.5C125.82,-108.5 134.44,-108.5 142.8,-108.5"/>
<polygon fill="midnightblue" stroke="midnightblue" points="117.27,-105 107.27,-108.5 117.27,-112 117.27,-105"/>
</g>
<!-- Node4 -->
<g id="node5" class="node">
<title>Node4</title>
<g id="a_node5"><a xlink:href="classlogging_1_1endpoint_1_1serial.html" target="_top" xlink:title=" ">
<polygon fill="none" stroke="black" points="150.5,-49.5 150.5,-79.5 257.5,-79.5 257.5,-49.5 150.5,-49.5"/>
<text text-anchor="start" x="158.5" y="-67.5" font-family="Helvetica,sans-Serif" font-size="10.00">logging::endpoint::</text>
<text text-anchor="middle" x="204" y="-56.5" font-family="Helvetica,sans-Serif" font-size="10.00">serial</text>
</a>
</g>
</g>
<!-- Node0&#45;&gt;Node4 -->
<g id="edge4" class="edge">
<title>Node0&#45;&gt;Node4</title>
<path fill="none" stroke="midnightblue" d="M96.54,-96.04C113.84,-90.92 134.03,-84.94 152.15,-79.57"/>
<polygon fill="midnightblue" stroke="midnightblue" points="95.32,-92.76 86.72,-98.95 97.3,-99.47 95.32,-92.76"/>
</g>
<!-- Node5 -->
<g id="node6" class="node">
<title>Node5</title>
<g id="a_node6"><a xlink:href="classlogging_1_1endpoint_1_1terminal.html" target="_top" xlink:title=" ">
<polygon fill="none" stroke="black" points="150.5,-0.5 150.5,-30.5 257.5,-30.5 257.5,-0.5 150.5,-0.5"/>
<text text-anchor="start" x="158.5" y="-18.5" font-family="Helvetica,sans-Serif" font-size="10.00">logging::endpoint::</text>
<text text-anchor="middle" x="204" y="-7.5" font-family="Helvetica,sans-Serif" font-size="10.00">terminal</text>
</a>
</g>
</g>
<!-- Node0&#45;&gt;Node5 -->
<g id="edge5" class="edge">
<title>Node0&#45;&gt;Node5</title>
<path fill="none" stroke="midnightblue" d="M72.64,-92.28C89.86,-77.46 116.92,-55.61 143,-40.5 149.15,-36.94 155.91,-33.61 162.6,-30.63"/>
<polygon fill="midnightblue" stroke="midnightblue" points="70.25,-89.72 65.02,-98.94 74.86,-94.99 70.25,-89.72"/>
</g>
</g>
</svg>
