<?xml version="1.0" encoding="UTF-8" standalone="no"?>
<!DOCTYPE svg PUBLIC "-//W3C//DTD SVG 1.1//EN"
 "http://www.w3.org/Graphics/SVG/1.1/DTD/svg11.dtd">
<!-- Generated by graphviz version 2.43.0 (0)
 -->
<!-- Title: Graphical Class Hierarchy Pages: 1 -->
<svg width="244pt" height="116pt"
 viewBox="0.00 0.00 244.00 115.50" xmlns="http://www.w3.org/2000/svg" xmlns:xlink="http://www.w3.org/1999/xlink">
<g id="graph0" class="graph" transform="scale(1 1) rotate(0) translate(4 111.5)">
<title>Graphical Class Hierarchy</title>
<!-- Node0 -->
<g id="node1" class="node">
<title>Node0</title>
<g id="a_node1"><a target="_parent" xlink:href="../libpalliate/classUtil_1_1Configurable.html" xlink:title=" ">
<polygon fill="none" stroke="black" points="0,-77 0,-107 129,-107 129,-77 0,-77"/>
<text text-anchor="start" x="8" y="-95" font-family="Helvetica,sans-Serif" font-size="10.00">Util::Configurable</text>
<text text-anchor="middle" x="64.5" y="-84" font-family="Helvetica,sans-Serif" font-size="10.00">&lt; config::Application &gt;</text>
</a>
</g>
</g>
<!-- Node1 -->
<g id="node2" class="node">
<title>Node1</title>
<g id="a_node2"><a xlink:href="classApplication.html" target="_top" xlink:title=" ">
<polygon fill="none" stroke="black" points="165,-38.5 165,-57.5 236,-57.5 236,-38.5 165,-38.5"/>
<text text-anchor="middle" x="200.5" y="-45.5" font-family="Helvetica,sans-Serif" font-size="10.00">Application</text>
</a>
</g>
</g>
<!-- Node0&#45;&gt;Node1 -->
<g id="edge1" class="edge">
<title>Node0&#45;&gt;Node1</title>
<path fill="none" stroke="midnightblue" d="M121.05,-73.76C137.97,-68.2 155.89,-62.32 170.33,-57.58"/>
<polygon fill="midnightblue" stroke="midnightblue" points="119.65,-70.54 111.24,-76.98 121.83,-77.19 119.65,-70.54"/>
</g>
<!-- Node2 -->
<g id="node3" class="node">
<title>Node2</title>
<g id="a_node3"><a xlink:title=" ">
<polygon fill="none" stroke="#bfbfbf" points="28,-38.5 28,-57.5 101,-57.5 101,-38.5 28,-38.5"/>
<text text-anchor="middle" x="64.5" y="-45.5" font-family="Helvetica,sans-Serif" font-size="10.00">App::Server</text>
</a>
</g>
</g>
<!-- Node2&#45;&gt;Node1 -->
<g id="edge2" class="edge">
<title>Node2&#45;&gt;Node1</title>
<path fill="none" stroke="midnightblue" d="M111.09,-48C128.62,-48 148.34,-48 164.7,-48"/>
<polygon fill="midnightblue" stroke="midnightblue" points="111.06,-44.5 101.06,-48 111.06,-51.5 111.06,-44.5"/>
</g>
<!-- Node3 -->
<g id="node4" class="node">
<title>Node3</title>
<g id="a_node4"><a target="_parent" xlink:href="../libpalliate/structThreading_1_1Worker.html" xlink:title=" ">
<polygon fill="none" stroke="black" points="12,-0.5 12,-19.5 117,-19.5 117,-0.5 12,-0.5"/>
<text text-anchor="middle" x="64.5" y="-7.5" font-family="Helvetica,sans-Serif" font-size="10.00">Threading::Worker</text>
</a>
</g>
</g>
<!-- Node3&#45;&gt;Node1 -->
<g id="edge3" class="edge">
<title>Node3&#45;&gt;Node1</title>
<path fill="none" stroke="midnightblue" d="M108.94,-22.32C127.35,-27.54 148.48,-33.53 165.7,-38.41"/>
<polygon fill="midnightblue" stroke="midnightblue" points="109.89,-18.95 99.31,-19.59 107.98,-25.68 109.89,-18.95"/>
</g>
<!-- Node4 -->
<g id="node5" class="node">
<title>Node4</title>
<g id="a_node5"><a target="_parent" xlink:href="../libpalliate/classUI_1_1Control.html" xlink:title=" ">
<polygon fill="none" stroke="black" points="166.5,-0.5 166.5,-19.5 234.5,-19.5 234.5,-0.5 166.5,-0.5"/>
<text text-anchor="middle" x="200.5" y="-7.5" font-family="Helvetica,sans-Serif" font-size="10.00">UI::Control</text>
</a>
</g>
</g>
<!-- Node3&#45;&gt;Node4 -->
<g id="edge4" class="edge">
<title>Node3&#45;&gt;Node4</title>
<path fill="none" stroke="midnightblue" d="M127.49,-10C140.91,-10 154.61,-10 166.4,-10"/>
<polygon fill="midnightblue" stroke="midnightblue" points="127.31,-6.5 117.31,-10 127.31,-13.5 127.31,-6.5"/>
</g>
</g>
</svg>
