<?xml version="1.0" encoding="UTF-8" standalone="no"?>
<!DOCTYPE svg PUBLIC "-//W3C//DTD SVG 1.1//EN"
 "http://www.w3.org/Graphics/SVG/1.1/DTD/svg11.dtd">
<!-- Generated by graphviz version 2.43.0 (0)
 -->
<!-- Title: Graphical Class Hierarchy Pages: 1 -->
<svg width="260pt" height="235pt"
 viewBox="0.00 0.00 260.00 235.00" xmlns="http://www.w3.org/2000/svg" xmlns:xlink="http://www.w3.org/1999/xlink">
<g id="graph0" class="graph" transform="scale(1 1) rotate(0) translate(4 231)">
<title>Graphical Class Hierarchy</title>
<!-- Node0 -->
<g id="node1" class="node">
<title>Node0</title>
<g id="a_node1"><a xlink:title=" ">
<polygon fill="none" stroke="#bfbfbf" points="0,-104 0,-123 107,-123 107,-104 0,-104"/>
<text text-anchor="middle" x="53.5" y="-111" font-family="Helvetica,sans-Serif" font-size="10.00">Endpoint::registrar</text>
</a>
</g>
</g>
<!-- Node1 -->
<g id="node2" class="node">
<title>Node1</title>
<g id="a_node2"><a xlink:href="classLogging_1_1Endpoints_1_1Bridge.html" target="_top" xlink:title=" ">
<polygon fill="none" stroke="black" points="143,-196.5 143,-226.5 252,-226.5 252,-196.5 143,-196.5"/>
<text text-anchor="start" x="151" y="-214.5" font-family="Helvetica,sans-Serif" font-size="10.00">Logging::Endpoints</text>
<text text-anchor="middle" x="197.5" y="-203.5" font-family="Helvetica,sans-Serif" font-size="10.00">::Bridge</text>
</a>
</g>
</g>
<!-- Node0&#45;&gt;Node1 -->
<g id="edge1" class="edge">
<title>Node0&#45;&gt;Node1</title>
<path fill="none" stroke="midnightblue" d="M71.64,-130.31C88.71,-146.42 116.15,-170.7 143,-187.5 148.09,-190.69 153.68,-193.68 159.26,-196.4"/>
<polygon fill="midnightblue" stroke="midnightblue" points="73.79,-127.52 64.15,-123.13 68.95,-132.58 73.79,-127.52"/>
</g>
<!-- Node2 -->
<g id="node3" class="node">
<title>Node2</title>
<g id="a_node3"><a xlink:href="classLogging_1_1Endpoints_1_1Systemd.html" target="_top" xlink:title=" ">
<polygon fill="none" stroke="black" points="143,-147.5 143,-177.5 252,-177.5 252,-147.5 143,-147.5"/>
<text text-anchor="start" x="151" y="-165.5" font-family="Helvetica,sans-Serif" font-size="10.00">Logging::Endpoints</text>
<text text-anchor="middle" x="197.5" y="-154.5" font-family="Helvetica,sans-Serif" font-size="10.00">::Systemd</text>
</a>
</g>
</g>
<!-- Node0&#45;&gt;Node2 -->
<g id="edge2" class="edge">
<title>Node0&#45;&gt;Node2</title>
<path fill="none" stroke="midnightblue" d="M91.88,-126.4C110.61,-132.86 133.4,-140.73 152.92,-147.46"/>
<polygon fill="midnightblue" stroke="midnightblue" points="92.81,-123.02 82.22,-123.06 90.53,-129.63 92.81,-123.02"/>
</g>
<!-- Node3 -->
<g id="node4" class="node">
<title>Node3</title>
<g id="a_node4"><a xlink:href="classLogging_1_1Endpoints_1_1file.html" target="_top" xlink:title=" ">
<polygon fill="none" stroke="black" points="143,-98.5 143,-128.5 252,-128.5 252,-98.5 143,-98.5"/>
<text text-anchor="start" x="151" y="-116.5" font-family="Helvetica,sans-Serif" font-size="10.00">Logging::Endpoints</text>
<text text-anchor="middle" x="197.5" y="-105.5" font-family="Helvetica,sans-Serif" font-size="10.00">::file</text>
</a>
</g>
</g>
<!-- Node0&#45;&gt;Node3 -->
<g id="edge3" class="edge">
<title>Node0&#45;&gt;Node3</title>
<path fill="none" stroke="midnightblue" d="M117.5,-113.5C125.88,-113.5 134.42,-113.5 142.63,-113.5"/>
<polygon fill="midnightblue" stroke="midnightblue" points="117.38,-110 107.38,-113.5 117.38,-117 117.38,-110"/>
</g>
<!-- Node4 -->
<g id="node5" class="node">
<title>Node4</title>
<g id="a_node5"><a xlink:href="classLogging_1_1Endpoints_1_1serial.html" target="_top" xlink:title=" ">
<polygon fill="none" stroke="black" points="143,-49.5 143,-79.5 252,-79.5 252,-49.5 143,-49.5"/>
<text text-anchor="start" x="151" y="-67.5" font-family="Helvetica,sans-Serif" font-size="10.00">Logging::Endpoints</text>
<text text-anchor="middle" x="197.5" y="-56.5" font-family="Helvetica,sans-Serif" font-size="10.00">::serial</text>
</a>
</g>
</g>
<!-- Node0&#45;&gt;Node4 -->
<g id="edge4" class="edge">
<title>Node0&#45;&gt;Node4</title>
<path fill="none" stroke="midnightblue" d="M91.88,-100.6C110.61,-94.14 133.4,-86.27 152.92,-79.54"/>
<polygon fill="midnightblue" stroke="midnightblue" points="90.53,-97.37 82.22,-103.94 92.81,-103.98 90.53,-97.37"/>
</g>
<!-- Node5 -->
<g id="node6" class="node">
<title>Node5</title>
<g id="a_node6"><a xlink:href="classLogging_1_1Endpoints_1_1terminal.html" target="_top" xlink:title=" ">
<polygon fill="none" stroke="black" points="143,-0.5 143,-30.5 252,-30.5 252,-0.5 143,-0.5"/>
<text text-anchor="start" x="151" y="-18.5" font-family="Helvetica,sans-Serif" font-size="10.00">Logging::Endpoints</text>
<text text-anchor="middle" x="197.5" y="-7.5" font-family="Helvetica,sans-Serif" font-size="10.00">::terminal</text>
</a>
</g>
</g>
<!-- Node0&#45;&gt;Node5 -->
<g id="edge5" class="edge">
<title>Node0&#45;&gt;Node5</title>
<path fill="none" stroke="midnightblue" d="M72.02,-96.77C89.17,-80.95 116.52,-57.23 143,-40.5 148.63,-36.94 154.86,-33.58 161,-30.54"/>
<polygon fill="midnightblue" stroke="midnightblue" points="69.38,-94.44 64.47,-103.83 74.16,-99.55 69.38,-94.44"/>
</g>
</g>
</svg>
