<?xml version="1.0" encoding="UTF-8" standalone="no"?>
<!DOCTYPE svg PUBLIC "-//W3C//DTD SVG 1.1//EN"
 "http://www.w3.org/Graphics/SVG/1.1/DTD/svg11.dtd">
<!-- Generated by graphviz version 2.43.0 (0)
 -->
<!-- Title: Graphical Class Hierarchy Pages: 1 -->
<svg width="428pt" height="284pt"
 viewBox="0.00 0.00 428.00 283.50" xmlns="http://www.w3.org/2000/svg" xmlns:xlink="http://www.w3.org/1999/xlink">
<g id="graph0" class="graph" transform="scale(1 1) rotate(0) translate(4 279.5)">
<title>Graphical Class Hierarchy</title>
<!-- Node0 -->
<g id="node1" class="node">
<title>Node0</title>
<g id="a_node1"><a target="_parent" xlink:href="../libpalliate/classutil_1_1configurable.html" xlink:title=" ">
<polygon fill="none" stroke="black" points="0,-245 0,-275 128,-275 128,-245 0,-245"/>
<text text-anchor="start" x="8" y="-263" font-family="Helvetica,sans-Serif" font-size="10.00">util::configurable</text>
<text text-anchor="middle" x="64" y="-252" font-family="Helvetica,sans-Serif" font-size="10.00">&lt; config::application &gt;</text>
</a>
</g>
</g>
<!-- Node1 -->
<g id="node2" class="node">
<title>Node1</title>
<g id="a_node2"><a xlink:href="classControl.html" target="_top" xlink:title=" ">
<polygon fill="none" stroke="black" points="187,-228.5 187,-247.5 239,-247.5 239,-228.5 187,-228.5"/>
<text text-anchor="middle" x="213" y="-235.5" font-family="Helvetica,sans-Serif" font-size="10.00">Control</text>
</a>
</g>
</g>
<!-- Node0&#45;&gt;Node1 -->
<g id="edge1" class="edge">
<title>Node0&#45;&gt;Node1</title>
<path fill="none" stroke="midnightblue" d="M138.44,-249.01C155.9,-246.4 173.36,-243.78 186.89,-241.76"/>
<polygon fill="midnightblue" stroke="midnightblue" points="137.57,-245.6 128.19,-250.54 138.6,-252.52 137.57,-245.6"/>
</g>
<!-- Node2 -->
<g id="node3" class="node">
<title>Node2</title>
<g id="a_node3"><a target="_parent" xlink:href="../libpalliate/classrunnable.html" xlink:title=" ">
<polygon fill="none" stroke="black" points="34.5,-114.5 34.5,-133.5 93.5,-133.5 93.5,-114.5 34.5,-114.5"/>
<text text-anchor="middle" x="64" y="-121.5" font-family="Helvetica,sans-Serif" font-size="10.00">runnable</text>
</a>
</g>
</g>
<!-- Node2&#45;&gt;Node1 -->
<g id="edge2" class="edge">
<title>Node2&#45;&gt;Node1</title>
<path fill="none" stroke="midnightblue" d="M79.31,-141.37C97.26,-162.2 129.82,-197.05 164,-219 170.94,-223.46 179.09,-227.16 186.68,-230.08"/>
<polygon fill="midnightblue" stroke="midnightblue" points="81.9,-139 72.77,-133.62 76.55,-143.52 81.9,-139"/>
</g>
<!-- Node3 -->
<g id="node4" class="node">
<title>Node3</title>
<g id="a_node4"><a target="_parent" xlink:href="../libpalliate/classconsumer.html" xlink:title=" ">
<polygon fill="none" stroke="black" points="180.5,-190.5 180.5,-209.5 245.5,-209.5 245.5,-190.5 180.5,-190.5"/>
<text text-anchor="middle" x="213" y="-197.5" font-family="Helvetica,sans-Serif" font-size="10.00">consumer</text>
</a>
</g>
</g>
<!-- Node2&#45;&gt;Node3 -->
<g id="edge3" class="edge">
<title>Node2&#45;&gt;Node3</title>
<path fill="none" stroke="midnightblue" d="M88.69,-138.94C108.42,-151.07 137.48,-168.2 164,-181 170.94,-184.35 178.64,-187.59 185.79,-190.42"/>
<polygon fill="midnightblue" stroke="midnightblue" points="90.4,-135.89 80.06,-133.59 86.71,-141.84 90.4,-135.89"/>
</g>
<!-- Node4 -->
<g id="node5" class="node">
<title>Node4</title>
<g id="a_node5"><a target="_parent" xlink:href="../libpalliate/classproducer.html" xlink:title=" ">
<polygon fill="none" stroke="black" points="183.5,-152.5 183.5,-171.5 242.5,-171.5 242.5,-152.5 183.5,-152.5"/>
<text text-anchor="middle" x="213" y="-159.5" font-family="Helvetica,sans-Serif" font-size="10.00">producer</text>
</a>
</g>
</g>
<!-- Node2&#45;&gt;Node4 -->
<g id="edge4" class="edge">
<title>Node2&#45;&gt;Node4</title>
<path fill="none" stroke="midnightblue" d="M103.59,-133.97C128.6,-140.44 160.63,-148.72 183.38,-154.6"/>
<polygon fill="midnightblue" stroke="midnightblue" points="104.25,-130.53 93.69,-131.42 102.5,-137.31 104.25,-130.53"/>
</g>
<!-- Node5 -->
<g id="node6" class="node">
<title>Node5</title>
<g id="a_node6"><a target="_parent" xlink:href="../libpalliate/classrpc_1_1Server.html" xlink:title=" ">
<polygon fill="none" stroke="black" points="178.5,-114.5 178.5,-133.5 247.5,-133.5 247.5,-114.5 178.5,-114.5"/>
<text text-anchor="middle" x="213" y="-121.5" font-family="Helvetica,sans-Serif" font-size="10.00">rpc::Server</text>
</a>
</g>
</g>
<!-- Node2&#45;&gt;Node5 -->
<g id="edge5" class="edge">
<title>Node2&#45;&gt;Node5</title>
<path fill="none" stroke="midnightblue" d="M103.89,-124C127.11,-124 156.3,-124 178.49,-124"/>
<polygon fill="midnightblue" stroke="midnightblue" points="103.69,-120.5 93.69,-124 103.69,-127.5 103.69,-120.5"/>
</g>
<!-- Node6 -->
<g id="node7" class="node">
<title>Node6</title>
<g id="a_node7"><a target="_parent" xlink:href="../libpalliate/classtransport_1_1Client.html" xlink:title=" ">
<polygon fill="none" stroke="black" points="165.5,-76.5 165.5,-95.5 260.5,-95.5 260.5,-76.5 165.5,-76.5"/>
<text text-anchor="middle" x="213" y="-83.5" font-family="Helvetica,sans-Serif" font-size="10.00">transport::Client</text>
</a>
</g>
</g>
<!-- Node2&#45;&gt;Node6 -->
<g id="edge6" class="edge">
<title>Node2&#45;&gt;Node6</title>
<path fill="none" stroke="midnightblue" d="M103.42,-114.07C125.52,-108.36 153.15,-101.21 175.01,-95.56"/>
<polygon fill="midnightblue" stroke="midnightblue" points="102.5,-110.69 93.69,-116.58 104.25,-117.47 102.5,-110.69"/>
</g>
<!-- Node8 -->
<g id="node9" class="node">
<title>Node8</title>
<g id="a_node9"><a target="_parent" xlink:href="../libpalliate/classtransport_1_1Server.html" xlink:title=" ">
<polygon fill="none" stroke="black" points="164,-38.5 164,-57.5 262,-57.5 262,-38.5 164,-38.5"/>
<text text-anchor="middle" x="213" y="-45.5" font-family="Helvetica,sans-Serif" font-size="10.00">transport::Server</text>
</a>
</g>
</g>
<!-- Node2&#45;&gt;Node8 -->
<g id="edge8" class="edge">
<title>Node2&#45;&gt;Node8</title>
<path fill="none" stroke="midnightblue" d="M88.69,-109.06C108.42,-96.93 137.48,-79.8 164,-67 170.94,-63.65 178.64,-60.41 185.79,-57.58"/>
<polygon fill="midnightblue" stroke="midnightblue" points="86.71,-106.16 80.06,-114.41 90.4,-112.11 86.71,-106.16"/>
</g>
<!-- Node10 -->
<g id="node11" class="node">
<title>Node10</title>
<g id="a_node11"><a target="_parent" xlink:href="../libpalliate/classui.html" xlink:title=" ">
<polygon fill="none" stroke="black" points="198.5,-0.5 198.5,-19.5 227.5,-19.5 227.5,-0.5 198.5,-0.5"/>
<text text-anchor="middle" x="213" y="-7.5" font-family="Helvetica,sans-Serif" font-size="10.00">ui</text>
</a>
</g>
</g>
<!-- Node2&#45;&gt;Node10 -->
<g id="edge10" class="edge">
<title>Node2&#45;&gt;Node10</title>
<path fill="none" stroke="midnightblue" d="M79.31,-106.63C97.26,-85.8 129.82,-50.95 164,-29 174.71,-22.12 188.31,-17.03 198.29,-13.86"/>
<polygon fill="midnightblue" stroke="midnightblue" points="76.55,-104.48 72.77,-114.38 81.9,-109 76.55,-104.48"/>
</g>
<!-- Node7 -->
<g id="node8" class="node">
<title>Node7</title>
<g id="a_node8"><a target="_parent" xlink:href="../libpalliate/classtransport_1_1TCP_1_1Client.html" xlink:title=" ">
<polygon fill="none" stroke="black" points="299.5,-76.5 299.5,-95.5 418.5,-95.5 418.5,-76.5 299.5,-76.5"/>
<text text-anchor="middle" x="359" y="-83.5" font-family="Helvetica,sans-Serif" font-size="10.00">transport::TCP::Client</text>
</a>
</g>
</g>
<!-- Node6&#45;&gt;Node7 -->
<g id="edge7" class="edge">
<title>Node6&#45;&gt;Node7</title>
<path fill="none" stroke="midnightblue" d="M270.78,-86C280.17,-86 289.93,-86 299.38,-86"/>
<polygon fill="midnightblue" stroke="midnightblue" points="270.75,-82.5 260.75,-86 270.75,-89.5 270.75,-82.5"/>
</g>
<!-- Node9 -->
<g id="node10" class="node">
<title>Node9</title>
<g id="a_node10"><a target="_parent" xlink:href="../libpalliate/classtransport_1_1TCP_1_1Server.html" xlink:title=" ">
<polygon fill="none" stroke="black" points="298,-38.5 298,-57.5 420,-57.5 420,-38.5 298,-38.5"/>
<text text-anchor="middle" x="359" y="-45.5" font-family="Helvetica,sans-Serif" font-size="10.00">transport::TCP::Server</text>
</a>
</g>
</g>
<!-- Node8&#45;&gt;Node9 -->
<g id="edge9" class="edge">
<title>Node8&#45;&gt;Node9</title>
<path fill="none" stroke="midnightblue" d="M272.39,-48C280.75,-48 289.36,-48 297.75,-48"/>
<polygon fill="midnightblue" stroke="midnightblue" points="272.35,-44.5 262.35,-48 272.35,-51.5 272.35,-44.5"/>
</g>
<!-- Node11 -->
<g id="node12" class="node">
<title>Node11</title>
<g id="a_node12"><a xlink:title=" ">
<polygon fill="none" stroke="#bfbfbf" points="27.5,-206.5 27.5,-225.5 100.5,-225.5 100.5,-206.5 27.5,-206.5"/>
<text text-anchor="middle" x="64" y="-213.5" font-family="Helvetica,sans-Serif" font-size="10.00">App::Server</text>
</a>
</g>
</g>
<!-- Node11&#45;&gt;Node1 -->
<g id="edge11" class="edge">
<title>Node11&#45;&gt;Node1</title>
<path fill="none" stroke="midnightblue" d="M110.64,-222.83C135.77,-226.59 166,-231.12 186.87,-234.24"/>
<polygon fill="midnightblue" stroke="midnightblue" points="110.99,-219.34 100.58,-221.33 109.96,-226.27 110.99,-219.34"/>
</g>
</g>
</svg>
