<?xml version="1.0" encoding="UTF-8" standalone="no"?>
<!DOCTYPE svg PUBLIC "-//W3C//DTD SVG 1.1//EN"
 "http://www.w3.org/Graphics/SVG/1.1/DTD/svg11.dtd">
<!-- Generated by graphviz version 2.43.0 (0)
 -->
<!-- Title: Graphical Class Hierarchy Pages: 1 -->
<svg width="429pt" height="284pt"
 viewBox="0.00 0.00 429.00 283.50" xmlns="http://www.w3.org/2000/svg" xmlns:xlink="http://www.w3.org/1999/xlink">
<g id="graph0" class="graph" transform="scale(1 1) rotate(0) translate(4 279.5)">
<title>Graphical Class Hierarchy</title>
<!-- Node0 -->
<g id="node1" class="node">
<title>Node0</title>
<g id="a_node1"><a target="_parent" xlink:href="../libpalliate/classUtil_1_1configurable.html" xlink:title=" ">
<polygon fill="none" stroke="black" points="0,-245 0,-275 129,-275 129,-245 0,-245"/>
<text text-anchor="start" x="8" y="-263" font-family="Helvetica,sans-Serif" font-size="10.00">Util::configurable</text>
<text text-anchor="middle" x="64.5" y="-252" font-family="Helvetica,sans-Serif" font-size="10.00">&lt; config::Application &gt;</text>
</a>
</g>
</g>
<!-- Node1 -->
<g id="node2" class="node">
<title>Node1</title>
<g id="a_node2"><a xlink:href="classApplication.html" target="_top" xlink:title=" ">
<polygon fill="none" stroke="black" points="178.5,-228.5 178.5,-247.5 249.5,-247.5 249.5,-228.5 178.5,-228.5"/>
<text text-anchor="middle" x="214" y="-235.5" font-family="Helvetica,sans-Serif" font-size="10.00">Application</text>
</a>
</g>
</g>
<!-- Node0&#45;&gt;Node1 -->
<g id="edge1" class="edge">
<title>Node0&#45;&gt;Node1</title>
<path fill="none" stroke="midnightblue" d="M139.25,-249C152.89,-246.97 166.53,-244.93 178.31,-243.17"/>
<polygon fill="midnightblue" stroke="midnightblue" points="138.71,-245.54 129.34,-250.48 139.74,-252.46 138.71,-245.54"/>
</g>
<!-- Node2 -->
<g id="node3" class="node">
<title>Node2</title>
<g id="a_node3"><a target="_parent" xlink:href="../libpalliate/classrunnable.html" xlink:title=" ">
<polygon fill="none" stroke="black" points="35,-114.5 35,-133.5 94,-133.5 94,-114.5 35,-114.5"/>
<text text-anchor="middle" x="64.5" y="-121.5" font-family="Helvetica,sans-Serif" font-size="10.00">runnable</text>
</a>
</g>
</g>
<!-- Node2&#45;&gt;Node1 -->
<g id="edge2" class="edge">
<title>Node2&#45;&gt;Node1</title>
<path fill="none" stroke="midnightblue" d="M79.9,-141.36C97.95,-162.19 130.71,-197.04 165,-219 170.74,-222.67 177.3,-225.84 183.69,-228.48"/>
<polygon fill="midnightblue" stroke="midnightblue" points="82.46,-138.97 73.32,-133.62 77.13,-143.5 82.46,-138.97"/>
</g>
<!-- Node3 -->
<g id="node4" class="node">
<title>Node3</title>
<g id="a_node4"><a target="_parent" xlink:href="../libpalliate/classRPC_1_1Server.html" xlink:title=" ">
<polygon fill="none" stroke="black" points="177,-190.5 177,-209.5 251,-209.5 251,-190.5 177,-190.5"/>
<text text-anchor="middle" x="214" y="-197.5" font-family="Helvetica,sans-Serif" font-size="10.00">RPC::Server</text>
</a>
</g>
</g>
<!-- Node2&#45;&gt;Node3 -->
<g id="edge3" class="edge">
<title>Node2&#45;&gt;Node3</title>
<path fill="none" stroke="midnightblue" d="M89.31,-138.93C109.15,-151.06 138.36,-168.18 165,-181 171.95,-184.34 179.64,-187.58 186.8,-190.41"/>
<polygon fill="midnightblue" stroke="midnightblue" points="90.99,-135.86 80.64,-133.59 87.32,-141.81 90.99,-135.86"/>
</g>
<!-- Node4 -->
<g id="node5" class="node">
<title>Node4</title>
<g id="a_node5"><a target="_parent" xlink:href="../libpalliate/classUI_1_1Control.html" xlink:title=" ">
<polygon fill="none" stroke="black" points="180,-152.5 180,-171.5 248,-171.5 248,-152.5 180,-152.5"/>
<text text-anchor="middle" x="214" y="-159.5" font-family="Helvetica,sans-Serif" font-size="10.00">UI::Control</text>
</a>
</g>
</g>
<!-- Node2&#45;&gt;Node4 -->
<g id="edge4" class="edge">
<title>Node2&#45;&gt;Node4</title>
<path fill="none" stroke="midnightblue" d="M104.28,-133.99C127.8,-140.05 157.5,-147.7 179.91,-153.47"/>
<polygon fill="midnightblue" stroke="midnightblue" points="104.85,-130.52 94.29,-131.42 103.1,-137.3 104.85,-130.52"/>
</g>
<!-- Node5 -->
<g id="node6" class="node">
<title>Node5</title>
<g id="a_node6"><a target="_parent" xlink:href="../libpalliate/classconsumer.html" xlink:title=" ">
<polygon fill="none" stroke="black" points="181.5,-114.5 181.5,-133.5 246.5,-133.5 246.5,-114.5 181.5,-114.5"/>
<text text-anchor="middle" x="214" y="-121.5" font-family="Helvetica,sans-Serif" font-size="10.00">consumer</text>
</a>
</g>
</g>
<!-- Node2&#45;&gt;Node5 -->
<g id="edge5" class="edge">
<title>Node2&#45;&gt;Node5</title>
<path fill="none" stroke="midnightblue" d="M104.5,-124C128.54,-124 158.96,-124 181.47,-124"/>
<polygon fill="midnightblue" stroke="midnightblue" points="104.29,-120.5 94.29,-124 104.29,-127.5 104.29,-120.5"/>
</g>
<!-- Node6 -->
<g id="node7" class="node">
<title>Node6</title>
<g id="a_node7"><a target="_parent" xlink:href="../libpalliate/classproducer.html" xlink:title=" ">
<polygon fill="none" stroke="black" points="184.5,-76.5 184.5,-95.5 243.5,-95.5 243.5,-76.5 184.5,-76.5"/>
<text text-anchor="middle" x="214" y="-83.5" font-family="Helvetica,sans-Serif" font-size="10.00">producer</text>
</a>
</g>
</g>
<!-- Node2&#45;&gt;Node6 -->
<g id="edge6" class="edge">
<title>Node2&#45;&gt;Node6</title>
<path fill="none" stroke="midnightblue" d="M104.22,-114.03C129.31,-107.56 161.46,-99.28 184.28,-93.4"/>
<polygon fill="midnightblue" stroke="midnightblue" points="103.1,-110.7 94.29,-116.58 104.85,-117.48 103.1,-110.7"/>
</g>
<!-- Node7 -->
<g id="node8" class="node">
<title>Node7</title>
<g id="a_node8"><a target="_parent" xlink:href="../libpalliate/classtransport_1_1Client.html" xlink:title=" ">
<polygon fill="none" stroke="black" points="166.5,-38.5 166.5,-57.5 261.5,-57.5 261.5,-38.5 166.5,-38.5"/>
<text text-anchor="middle" x="214" y="-45.5" font-family="Helvetica,sans-Serif" font-size="10.00">transport::Client</text>
</a>
</g>
</g>
<!-- Node2&#45;&gt;Node7 -->
<g id="edge7" class="edge">
<title>Node2&#45;&gt;Node7</title>
<path fill="none" stroke="midnightblue" d="M89.31,-109.07C109.15,-96.94 138.36,-79.82 165,-67 171.95,-63.66 179.64,-60.42 186.8,-57.59"/>
<polygon fill="midnightblue" stroke="midnightblue" points="87.32,-106.19 80.64,-114.41 90.99,-112.14 87.32,-106.19"/>
</g>
<!-- Node9 -->
<g id="node10" class="node">
<title>Node9</title>
<g id="a_node10"><a target="_parent" xlink:href="../libpalliate/classtransport_1_1Server.html" xlink:title=" ">
<polygon fill="none" stroke="black" points="165,-0.5 165,-19.5 263,-19.5 263,-0.5 165,-0.5"/>
<text text-anchor="middle" x="214" y="-7.5" font-family="Helvetica,sans-Serif" font-size="10.00">transport::Server</text>
</a>
</g>
</g>
<!-- Node2&#45;&gt;Node9 -->
<g id="edge9" class="edge">
<title>Node2&#45;&gt;Node9</title>
<path fill="none" stroke="midnightblue" d="M79.9,-106.64C97.95,-85.81 130.71,-50.96 165,-29 170.74,-25.33 177.3,-22.16 183.69,-19.52"/>
<polygon fill="midnightblue" stroke="midnightblue" points="77.13,-104.5 73.32,-114.38 82.46,-109.03 77.13,-104.5"/>
</g>
<!-- Node8 -->
<g id="node9" class="node">
<title>Node8</title>
<g id="a_node9"><a target="_parent" xlink:href="../libpalliate/classtransport_1_1TCP_1_1Client.html" xlink:title=" ">
<polygon fill="none" stroke="black" points="300.5,-38.5 300.5,-57.5 419.5,-57.5 419.5,-38.5 300.5,-38.5"/>
<text text-anchor="middle" x="360" y="-45.5" font-family="Helvetica,sans-Serif" font-size="10.00">transport::TCP::Client</text>
</a>
</g>
</g>
<!-- Node7&#45;&gt;Node8 -->
<g id="edge8" class="edge">
<title>Node7&#45;&gt;Node8</title>
<path fill="none" stroke="midnightblue" d="M271.78,-48C281.17,-48 290.93,-48 300.38,-48"/>
<polygon fill="midnightblue" stroke="midnightblue" points="271.75,-44.5 261.75,-48 271.75,-51.5 271.75,-44.5"/>
</g>
<!-- Node10 -->
<g id="node11" class="node">
<title>Node10</title>
<g id="a_node11"><a target="_parent" xlink:href="../libpalliate/classtransport_1_1TCP_1_1Server.html" xlink:title=" ">
<polygon fill="none" stroke="black" points="299,-0.5 299,-19.5 421,-19.5 421,-0.5 299,-0.5"/>
<text text-anchor="middle" x="360" y="-7.5" font-family="Helvetica,sans-Serif" font-size="10.00">transport::TCP::Server</text>
</a>
</g>
</g>
<!-- Node9&#45;&gt;Node10 -->
<g id="edge10" class="edge">
<title>Node9&#45;&gt;Node10</title>
<path fill="none" stroke="midnightblue" d="M273.39,-10C281.75,-10 290.36,-10 298.75,-10"/>
<polygon fill="midnightblue" stroke="midnightblue" points="273.35,-6.5 263.35,-10 273.35,-13.5 273.35,-6.5"/>
</g>
<!-- Node11 -->
<g id="node12" class="node">
<title>Node11</title>
<g id="a_node12"><a xlink:title=" ">
<polygon fill="none" stroke="#bfbfbf" points="28,-206.5 28,-225.5 101,-225.5 101,-206.5 28,-206.5"/>
<text text-anchor="middle" x="64.5" y="-213.5" font-family="Helvetica,sans-Serif" font-size="10.00">App::Server</text>
</a>
</g>
</g>
<!-- Node11&#45;&gt;Node1 -->
<g id="edge11" class="edge">
<title>Node11&#45;&gt;Node1</title>
<path fill="none" stroke="midnightblue" d="M111.18,-222.81C132.86,-226.05 158.34,-229.85 178.39,-232.84"/>
<polygon fill="midnightblue" stroke="midnightblue" points="111.61,-219.34 101.21,-221.33 110.58,-226.26 111.61,-219.34"/>
</g>
</g>
</svg>
