<?xml version="1.0" encoding="UTF-8" standalone="no"?>
<!DOCTYPE svg PUBLIC "-//W3C//DTD SVG 1.1//EN"
 "http://www.w3.org/Graphics/SVG/1.1/DTD/svg11.dtd">
<!-- Generated by graphviz version 2.43.0 (0)
 -->
<!-- Title: Graphical Class Hierarchy Pages: 1 -->
<svg width="237pt" height="104pt"
 viewBox="0.00 0.00 237.00 104.00" xmlns="http://www.w3.org/2000/svg" xmlns:xlink="http://www.w3.org/1999/xlink">
<g id="graph0" class="graph" transform="scale(1 1) rotate(0) translate(4 100)">
<title>Graphical Class Hierarchy</title>
<!-- Node0 -->
<g id="node1" class="node">
<title>Node0</title>
<g id="a_node1"><a xlink:title=" ">
<polygon fill="none" stroke="#bfbfbf" points="0,-0.5 0,-19.5 98,-19.5 98,-0.5 0,-0.5"/>
<text text-anchor="middle" x="49" y="-7.5" font-family="Helvetica,sans-Serif" font-size="10.00">util::configurable</text>
</a>
</g>
</g>
<!-- Node1 -->
<g id="node2" class="node">
<title>Node1</title>
<g id="a_node2"><a xlink:href="classControl.html" target="_top" xlink:title=" ">
<polygon fill="none" stroke="black" points="155.5,-38.5 155.5,-57.5 207.5,-57.5 207.5,-38.5 155.5,-38.5"/>
<text text-anchor="middle" x="181.5" y="-45.5" font-family="Helvetica,sans-Serif" font-size="10.00">Control</text>
</a>
</g>
</g>
<!-- Node0&#45;&gt;Node1 -->
<g id="edge1" class="edge">
<title>Node0&#45;&gt;Node1</title>
<path fill="none" stroke="midnightblue" d="M92.79,-22.46C113.52,-28.5 137.69,-35.53 155.41,-40.69"/>
<polygon fill="midnightblue" stroke="midnightblue" points="93.51,-19.02 82.93,-19.59 91.55,-25.75 93.51,-19.02"/>
</g>
<!-- Node4 -->
<g id="node3" class="node">
<title>Node4</title>
<g id="a_node3"><a xlink:href="classplugin__manager.html" target="_top" xlink:title=" ">
<polygon fill="none" stroke="black" points="134,-0.5 134,-19.5 229,-19.5 229,-0.5 134,-0.5"/>
<text text-anchor="middle" x="181.5" y="-7.5" font-family="Helvetica,sans-Serif" font-size="10.00">plugin_manager</text>
</a>
</g>
</g>
<!-- Node0&#45;&gt;Node4 -->
<g id="edge2" class="edge">
<title>Node0&#45;&gt;Node4</title>
<path fill="none" stroke="midnightblue" d="M108.45,-10C116.93,-10 125.57,-10 133.78,-10"/>
<polygon fill="midnightblue" stroke="midnightblue" points="108.22,-6.5 98.22,-10 108.22,-13.5 108.22,-6.5"/>
</g>
<!-- Node2 -->
<g id="node4" class="node">
<title>Node2</title>
<g id="a_node4"><a xlink:title=" ">
<polygon fill="none" stroke="#bfbfbf" points="19.5,-76.5 19.5,-95.5 78.5,-95.5 78.5,-76.5 19.5,-76.5"/>
<text text-anchor="middle" x="49" y="-83.5" font-family="Helvetica,sans-Serif" font-size="10.00">runnable</text>
</a>
</g>
</g>
<!-- Node2&#45;&gt;Node1 -->
<g id="edge3" class="edge">
<title>Node2&#45;&gt;Node1</title>
<path fill="none" stroke="midnightblue" d="M88.51,-74.79C110.13,-68.49 136.5,-60.81 155.45,-55.29"/>
<polygon fill="midnightblue" stroke="midnightblue" points="87.26,-71.5 78.64,-77.66 89.22,-78.23 87.26,-71.5"/>
</g>
<!-- Node3 -->
<g id="node5" class="node">
<title>Node3</title>
<g id="a_node5"><a xlink:title=" ">
<polygon fill="none" stroke="#bfbfbf" points="12.5,-38.5 12.5,-57.5 85.5,-57.5 85.5,-38.5 12.5,-38.5"/>
<text text-anchor="middle" x="49" y="-45.5" font-family="Helvetica,sans-Serif" font-size="10.00">App::Server</text>
</a>
</g>
</g>
<!-- Node3&#45;&gt;Node1 -->
<g id="edge4" class="edge">
<title>Node3&#45;&gt;Node1</title>
<path fill="none" stroke="midnightblue" d="M95.81,-48C115.76,-48 138.38,-48 155.22,-48"/>
<polygon fill="midnightblue" stroke="midnightblue" points="95.66,-44.5 85.66,-48 95.66,-51.5 95.66,-44.5"/>
</g>
</g>
</svg>
