<?xml version="1.0" encoding="UTF-8" standalone="no"?>
<!DOCTYPE svg PUBLIC "-//W3C//DTD SVG 1.1//EN"
 "http://www.w3.org/Graphics/SVG/1.1/DTD/svg11.dtd">
<!-- Generated by graphviz version 2.43.0 (0)
 -->
<!-- Title: Graphical Class Hierarchy Pages: 1 -->
<svg width="326pt" height="66pt"
 viewBox="0.00 0.00 326.00 66.00" xmlns="http://www.w3.org/2000/svg" xmlns:xlink="http://www.w3.org/1999/xlink">
<g id="graph0" class="graph" transform="scale(1 1) rotate(0) translate(4 62)">
<title>Graphical Class Hierarchy</title>
<!-- Node0 -->
<g id="node1" class="node">
<title>Node0</title>
<g id="a_node1"><a target="_parent" xlink:href="../libpalliate/classAuthentication_1_1Authenticator.html" xlink:title=" ">
<polygon fill="none" stroke="black" points="0,-19.5 0,-38.5 160,-38.5 160,-19.5 0,-19.5"/>
<text text-anchor="middle" x="80" y="-26.5" font-family="Helvetica,sans-Serif" font-size="10.00">Authentication::Authenticator</text>
</a>
</g>
</g>
<!-- Node1 -->
<g id="node2" class="node">
<title>Node1</title>
<g id="a_node2"><a target="_parent" xlink:href="../libpalliate/classAuthentication_1_1PSK.html" xlink:title=" ">
<polygon fill="none" stroke="black" points="200.5,-38.5 200.5,-57.5 313.5,-57.5 313.5,-38.5 200.5,-38.5"/>
<text text-anchor="middle" x="257" y="-45.5" font-family="Helvetica,sans-Serif" font-size="10.00">Authentication::PSK</text>
</a>
</g>
</g>
<!-- Node0&#45;&gt;Node1 -->
<g id="edge1" class="edge">
<title>Node0&#45;&gt;Node1</title>
<path fill="none" stroke="midnightblue" d="M170.27,-38.69C180.5,-39.8 190.7,-40.91 200.31,-41.95"/>
<polygon fill="midnightblue" stroke="midnightblue" points="170.37,-35.18 160.05,-37.58 169.62,-42.14 170.37,-35.18"/>
</g>
<!-- Node2 -->
<g id="node3" class="node">
<title>Node2</title>
<g id="a_node3"><a target="_parent" xlink:href="../libpalliate/classAuthentication_1_1Token.html" xlink:title=" ">
<polygon fill="none" stroke="black" points="196,-0.5 196,-19.5 318,-19.5 318,-0.5 196,-0.5"/>
<text text-anchor="middle" x="257" y="-7.5" font-family="Helvetica,sans-Serif" font-size="10.00">Authentication::Token</text>
</a>
</g>
</g>
<!-- Node0&#45;&gt;Node2 -->
<g id="edge2" class="edge">
<title>Node0&#45;&gt;Node2</title>
<path fill="none" stroke="midnightblue" d="M170.25,-19.31C178.94,-18.37 187.61,-17.43 195.92,-16.52"/>
<polygon fill="midnightblue" stroke="midnightblue" points="169.62,-15.86 160.05,-20.42 170.37,-22.82 169.62,-15.86"/>
</g>
</g>
</svg>
