<?xml version="1.0" encoding="UTF-8" standalone="no"?>
<!DOCTYPE svg PUBLIC "-//W3C//DTD SVG 1.1//EN"
 "http://www.w3.org/Graphics/SVG/1.1/DTD/svg11.dtd">
<!-- Generated by graphviz version 2.43.0 (0)
 -->
<!-- Title: Graphical Class Hierarchy Pages: 1 -->
<svg width="398pt" height="104pt"
 viewBox="0.00 0.00 398.00 104.00" xmlns="http://www.w3.org/2000/svg" xmlns:xlink="http://www.w3.org/1999/xlink">
<g id="graph0" class="graph" transform="scale(1 1) rotate(0) translate(4 100)">
<title>Graphical Class Hierarchy</title>
<!-- Node0 -->
<g id="node1" class="node">
<title>Node0</title>
<g id="a_node1"><a target="_parent" xlink:href="../libpalliate/structmemory_1_1element__t.html" xlink:title=" ">
<polygon fill="none" stroke="black" points="145,-76.5 145,-95.5 258,-95.5 258,-76.5 145,-76.5"/>
<text text-anchor="middle" x="201.5" y="-83.5" font-family="Helvetica,sans-Serif" font-size="10.00">memory::element_t</text>
</a>
</g>
</g>
<!-- Node1 -->
<g id="node2" class="node">
<title>Node1</title>
<g id="a_node2"><a target="_parent" xlink:href="../libpalliate/structmemory_1_1bin__t.html" xlink:title=" ">
<polygon fill="none" stroke="black" points="298.5,-76.5 298.5,-95.5 385.5,-95.5 385.5,-76.5 298.5,-76.5"/>
<text text-anchor="middle" x="342" y="-83.5" font-family="Helvetica,sans-Serif" font-size="10.00">memory::bin_t</text>
</a>
</g>
</g>
<!-- Node0&#45;&gt;Node1 -->
<g id="edge1" class="edge">
<title>Node0&#45;&gt;Node1</title>
<path fill="none" stroke="midnightblue" d="M268.18,-86C278.4,-86 288.72,-86 298.25,-86"/>
<polygon fill="midnightblue" stroke="midnightblue" points="268.04,-82.5 258.04,-86 268.04,-89.5 268.04,-82.5"/>
</g>
<!-- Node2 -->
<g id="node3" class="node">
<title>Node2</title>
<g id="a_node3"><a target="_parent" xlink:href="../libpalliate/structmemory_1_1node__t.html" xlink:title=" ">
<polygon fill="none" stroke="black" points="294,-38.5 294,-57.5 390,-57.5 390,-38.5 294,-38.5"/>
<text text-anchor="middle" x="342" y="-45.5" font-family="Helvetica,sans-Serif" font-size="10.00">memory::node_t</text>
</a>
</g>
</g>
<!-- Node0&#45;&gt;Node2 -->
<g id="edge2" class="edge">
<title>Node0&#45;&gt;Node2</title>
<path fill="none" stroke="midnightblue" d="M247.13,-73.75C266.22,-68.52 288.18,-62.49 306.06,-57.59"/>
<polygon fill="midnightblue" stroke="midnightblue" points="246.17,-70.39 237.45,-76.41 248.02,-77.14 246.17,-70.39"/>
</g>
<!-- Node4 -->
<g id="node4" class="node">
<title>Node4</title>
<g id="a_node4"><a target="_parent" xlink:href="../libpalliate/structpatricia_1_1element__t.html" xlink:title=" ">
<polygon fill="none" stroke="black" points="0,-19.5 0,-38.5 109,-38.5 109,-19.5 0,-19.5"/>
<text text-anchor="middle" x="54.5" y="-26.5" font-family="Helvetica,sans-Serif" font-size="10.00">patricia::element_t</text>
</a>
</g>
</g>
<!-- Node3 -->
<g id="node5" class="node">
<title>Node3</title>
<g id="a_node5"><a target="_parent" xlink:href="../libpalliate/structpatricia_1_1leaf__t.html" xlink:title=" ">
<polygon fill="none" stroke="black" points="158,-38.5 158,-57.5 245,-57.5 245,-38.5 158,-38.5"/>
<text text-anchor="middle" x="201.5" y="-45.5" font-family="Helvetica,sans-Serif" font-size="10.00">patricia::leaf_t</text>
</a>
</g>
</g>
<!-- Node4&#45;&gt;Node3 -->
<g id="edge3" class="edge">
<title>Node4&#45;&gt;Node3</title>
<path fill="none" stroke="midnightblue" d="M119.33,-37.36C132.26,-39.06 145.55,-40.8 157.55,-42.37"/>
<polygon fill="midnightblue" stroke="midnightblue" points="119.45,-33.85 109.08,-36.02 118.54,-40.79 119.45,-33.85"/>
</g>
<!-- Node5 -->
<g id="node6" class="node">
<title>Node5</title>
<g id="a_node6"><a target="_parent" xlink:href="../libpalliate/structpatricia_1_1node__t.html" xlink:title=" ">
<polygon fill="none" stroke="black" points="155.5,-0.5 155.5,-19.5 247.5,-19.5 247.5,-0.5 155.5,-0.5"/>
<text text-anchor="middle" x="201.5" y="-7.5" font-family="Helvetica,sans-Serif" font-size="10.00">patricia::node_t</text>
</a>
</g>
</g>
<!-- Node4&#45;&gt;Node5 -->
<g id="edge5" class="edge">
<title>Node4&#45;&gt;Node5</title>
<path fill="none" stroke="midnightblue" d="M119.17,-20.66C131.32,-19.07 143.8,-17.43 155.23,-15.93"/>
<polygon fill="midnightblue" stroke="midnightblue" points="118.54,-17.21 109.08,-21.98 119.45,-24.15 118.54,-17.21"/>
</g>
<!-- Node3&#45;&gt;Node2 -->
<g id="edge4" class="edge">
<title>Node3&#45;&gt;Node2</title>
<path fill="none" stroke="midnightblue" d="M255.56,-48C268.17,-48 281.55,-48 293.87,-48"/>
<polygon fill="midnightblue" stroke="midnightblue" points="255.18,-44.5 245.18,-48 255.18,-51.5 255.18,-44.5"/>
</g>
</g>
</svg>
