<?xml version="1.0" encoding="UTF-8" standalone="no"?>
<!DOCTYPE svg PUBLIC "-//W3C//DTD SVG 1.1//EN"
 "http://www.w3.org/Graphics/SVG/1.1/DTD/svg11.dtd">
<!-- Generated by graphviz version 2.43.0 (0)
 -->
<!-- Title: Graphical Class Hierarchy Pages: 1 -->
<svg width="283pt" height="225pt"
 viewBox="0.00 0.00 283.00 225.00" xmlns="http://www.w3.org/2000/svg" xmlns:xlink="http://www.w3.org/1999/xlink">
<g id="graph0" class="graph" transform="scale(1 1) rotate(0) translate(4 221)">
<title>Graphical Class Hierarchy</title>
<!-- Node0 -->
<g id="node1" class="node">
<title>Node0</title>
<g id="a_node1"><a xlink:title=" ">
<polygon fill="none" stroke="#bfbfbf" points="5,-99 5,-118 112,-118 112,-99 5,-99"/>
<text text-anchor="middle" x="58.5" y="-106" font-family="Helvetica,sans-Serif" font-size="10.00">Endpoint::registrar</text>
</a>
</g>
</g>
<!-- Node1 -->
<g id="node2" class="node">
<title>Node1</title>
<g id="a_node2"><a xlink:href="classlogging_1_1endpoint_1_1Bridge.html" target="_top" xlink:title=" ">
<polygon fill="none" stroke="black" points="160.5,-186.5 160.5,-216.5 267.5,-216.5 267.5,-186.5 160.5,-186.5"/>
<text text-anchor="start" x="168.5" y="-204.5" font-family="Helvetica,sans-Serif" font-size="10.00">logging::endpoint::</text>
<text text-anchor="middle" x="214" y="-193.5" font-family="Helvetica,sans-Serif" font-size="10.00">Bridge</text>
</a>
</g>
</g>
<!-- Node0&#45;&gt;Node1 -->
<g id="edge1" class="edge">
<title>Node0&#45;&gt;Node1</title>
<path fill="none" stroke="midnightblue" d="M78.82,-124.63C97.12,-139.4 125.78,-161.21 153,-176.5 159.3,-180.04 166.2,-183.37 173,-186.37"/>
<polygon fill="midnightblue" stroke="midnightblue" points="80.67,-121.63 70.72,-118.01 76.24,-127.05 80.67,-121.63"/>
</g>
<!-- Node3 -->
<g id="node3" class="node">
<title>Node3</title>
<g id="a_node3"><a xlink:href="classlogging_1_1endpoint_1_1Systemd.html" target="_top" xlink:title=" ">
<polygon fill="none" stroke="black" points="160.5,-137.5 160.5,-167.5 267.5,-167.5 267.5,-137.5 160.5,-137.5"/>
<text text-anchor="start" x="168.5" y="-155.5" font-family="Helvetica,sans-Serif" font-size="10.00">logging::endpoint::</text>
<text text-anchor="middle" x="214" y="-144.5" font-family="Helvetica,sans-Serif" font-size="10.00">Systemd</text>
</a>
</g>
</g>
<!-- Node0&#45;&gt;Node3 -->
<g id="edge2" class="edge">
<title>Node0&#45;&gt;Node3</title>
<path fill="none" stroke="midnightblue" d="M102.45,-120.81C120.44,-125.97 141.53,-132.01 160.44,-137.43"/>
<polygon fill="midnightblue" stroke="midnightblue" points="103.38,-117.44 92.81,-118.05 101.46,-124.17 103.38,-117.44"/>
</g>
<!-- Node4 -->
<g id="node4" class="node">
<title>Node4</title>
<g id="a_node4"><a xlink:href="classlogging_1_1endpoint_1_1file.html" target="_top" xlink:title=" ">
<polygon fill="none" stroke="black" points="153,-99 153,-118 275,-118 275,-99 153,-99"/>
<text text-anchor="middle" x="214" y="-106" font-family="Helvetica,sans-Serif" font-size="10.00">logging::endpoint::file</text>
</a>
</g>
</g>
<!-- Node0&#45;&gt;Node4 -->
<g id="edge3" class="edge">
<title>Node0&#45;&gt;Node4</title>
<path fill="none" stroke="midnightblue" d="M122.63,-108.5C132.66,-108.5 143.01,-108.5 152.96,-108.5"/>
<polygon fill="midnightblue" stroke="midnightblue" points="122.33,-105 112.33,-108.5 122.33,-112 122.33,-105"/>
</g>
<!-- Node5 -->
<g id="node5" class="node">
<title>Node5</title>
<g id="a_node5"><a xlink:href="classlogging_1_1endpoint_1_1serial.html" target="_top" xlink:title=" ">
<polygon fill="none" stroke="black" points="160.5,-49.5 160.5,-79.5 267.5,-79.5 267.5,-49.5 160.5,-49.5"/>
<text text-anchor="start" x="168.5" y="-67.5" font-family="Helvetica,sans-Serif" font-size="10.00">logging::endpoint::</text>
<text text-anchor="middle" x="214" y="-56.5" font-family="Helvetica,sans-Serif" font-size="10.00">serial</text>
</a>
</g>
</g>
<!-- Node0&#45;&gt;Node5 -->
<g id="edge4" class="edge">
<title>Node0&#45;&gt;Node5</title>
<path fill="none" stroke="midnightblue" d="M102.45,-96.19C120.44,-91.03 141.53,-84.99 160.44,-79.57"/>
<polygon fill="midnightblue" stroke="midnightblue" points="101.46,-92.83 92.81,-98.95 103.38,-99.56 101.46,-92.83"/>
</g>
<!-- Node6 -->
<g id="node6" class="node">
<title>Node6</title>
<g id="a_node6"><a xlink:href="classlogging_1_1endpoint_1_1terminal.html" target="_top" xlink:title=" ">
<polygon fill="none" stroke="black" points="160.5,-0.5 160.5,-30.5 267.5,-30.5 267.5,-0.5 160.5,-0.5"/>
<text text-anchor="start" x="168.5" y="-18.5" font-family="Helvetica,sans-Serif" font-size="10.00">logging::endpoint::</text>
<text text-anchor="middle" x="214" y="-7.5" font-family="Helvetica,sans-Serif" font-size="10.00">terminal</text>
</a>
</g>
</g>
<!-- Node0&#45;&gt;Node6 -->
<g id="edge5" class="edge">
<title>Node0&#45;&gt;Node6</title>
<path fill="none" stroke="midnightblue" d="M78.73,-92.02C96.97,-76.96 125.58,-54.77 153,-39.5 158.78,-36.28 165.09,-33.27 171.37,-30.54"/>
<polygon fill="midnightblue" stroke="midnightblue" points="76.08,-89.67 70.66,-98.78 80.57,-95.04 76.08,-89.67"/>
</g>
<!-- Node2 -->
<g id="node7" class="node">
<title>Node2</title>
<g id="a_node7"><a xlink:title=" ">
<polygon fill="none" stroke="#bfbfbf" points="0,-192 0,-211 117,-211 117,-192 0,-192"/>
<text text-anchor="middle" x="58.5" y="-199" font-family="Helvetica,sans-Serif" font-size="10.00">DataChannel::Server</text>
</a>
</g>
</g>
<!-- Node2&#45;&gt;Node1 -->
<g id="edge6" class="edge">
<title>Node2&#45;&gt;Node1</title>
<path fill="none" stroke="midnightblue" d="M127.21,-201.5C138.33,-201.5 149.71,-201.5 160.4,-201.5"/>
<polygon fill="midnightblue" stroke="midnightblue" points="127.09,-198 117.09,-201.5 127.09,-205 127.09,-198"/>
</g>
</g>
</svg>
