<?xml version="1.0" encoding="UTF-8" standalone="no"?>
<!DOCTYPE svg PUBLIC "-//W3C//DTD SVG 1.1//EN"
 "http://www.w3.org/Graphics/SVG/1.1/DTD/svg11.dtd">
<!-- Generated by graphviz version 2.43.0 (0)
 -->
<!-- Title: Graphical Class Hierarchy Pages: 1 -->
<svg width="267pt" height="235pt"
 viewBox="0.00 0.00 267.00 235.00" xmlns="http://www.w3.org/2000/svg" xmlns:xlink="http://www.w3.org/1999/xlink">
<g id="graph0" class="graph" transform="scale(1 1) rotate(0) translate(4 231)">
<title>Graphical Class Hierarchy</title>
<!-- Node0 -->
<g id="node1" class="node">
<title>Node0</title>
<g id="a_node1"><a xlink:title=" ">
<polygon fill="none" stroke="#bfbfbf" points="0,-104 0,-123 110,-123 110,-104 0,-104"/>
<text text-anchor="middle" x="55" y="-111" font-family="Helvetica,sans-Serif" font-size="10.00">Endpoint::Registrar</text>
</a>
</g>
</g>
<!-- Node1 -->
<g id="node2" class="node">
<title>Node1</title>
<g id="a_node2"><a xlink:href="classLogging_1_1Endpoints_1_1Bridge.html" target="_top" xlink:title=" ">
<polygon fill="none" stroke="black" points="148,-196.5 148,-226.5 257,-226.5 257,-196.5 148,-196.5"/>
<text text-anchor="start" x="156" y="-214.5" font-family="Helvetica,sans-Serif" font-size="10.00">Logging::Endpoints</text>
<text text-anchor="middle" x="202.5" y="-203.5" font-family="Helvetica,sans-Serif" font-size="10.00">::Bridge</text>
</a>
</g>
</g>
<!-- Node0&#45;&gt;Node1 -->
<g id="edge1" class="edge">
<title>Node0&#45;&gt;Node1</title>
<path fill="none" stroke="midnightblue" d="M73.44,-130.37C90.79,-146.52 118.7,-170.83 146,-187.5 151.29,-190.73 157.08,-193.74 162.88,-196.47"/>
<polygon fill="midnightblue" stroke="midnightblue" points="75.49,-127.49 65.81,-123.17 70.68,-132.58 75.49,-127.49"/>
</g>
<!-- Node2 -->
<g id="node3" class="node">
<title>Node2</title>
<g id="a_node3"><a xlink:href="classLogging_1_1Endpoints_1_1File.html" target="_top" xlink:title=" ">
<polygon fill="none" stroke="black" points="148,-147.5 148,-177.5 257,-177.5 257,-147.5 148,-147.5"/>
<text text-anchor="start" x="156" y="-165.5" font-family="Helvetica,sans-Serif" font-size="10.00">Logging::Endpoints</text>
<text text-anchor="middle" x="202.5" y="-154.5" font-family="Helvetica,sans-Serif" font-size="10.00">::File</text>
</a>
</g>
</g>
<!-- Node0&#45;&gt;Node2 -->
<g id="edge2" class="edge">
<title>Node0&#45;&gt;Node2</title>
<path fill="none" stroke="midnightblue" d="M94.04,-126.31C113.28,-132.79 136.75,-140.7 156.85,-147.46"/>
<polygon fill="midnightblue" stroke="midnightblue" points="94.99,-122.94 84.4,-123.06 92.76,-129.57 94.99,-122.94"/>
</g>
<!-- Node3 -->
<g id="node4" class="node">
<title>Node3</title>
<g id="a_node4"><a xlink:href="classLogging_1_1Endpoints_1_1Serial.html" target="_top" xlink:title=" ">
<polygon fill="none" stroke="black" points="148,-98.5 148,-128.5 257,-128.5 257,-98.5 148,-98.5"/>
<text text-anchor="start" x="156" y="-116.5" font-family="Helvetica,sans-Serif" font-size="10.00">Logging::Endpoints</text>
<text text-anchor="middle" x="202.5" y="-105.5" font-family="Helvetica,sans-Serif" font-size="10.00">::Serial</text>
</a>
</g>
</g>
<!-- Node0&#45;&gt;Node3 -->
<g id="edge3" class="edge">
<title>Node0&#45;&gt;Node3</title>
<path fill="none" stroke="midnightblue" d="M120.39,-113.5C129.53,-113.5 138.85,-113.5 147.76,-113.5"/>
<polygon fill="midnightblue" stroke="midnightblue" points="120.18,-110 110.18,-113.5 120.18,-117 120.18,-110"/>
</g>
<!-- Node4 -->
<g id="node5" class="node">
<title>Node4</title>
<g id="a_node5"><a xlink:href="classLogging_1_1Endpoints_1_1Systemd.html" target="_top" xlink:title=" ">
<polygon fill="none" stroke="black" points="148,-49.5 148,-79.5 257,-79.5 257,-49.5 148,-49.5"/>
<text text-anchor="start" x="156" y="-67.5" font-family="Helvetica,sans-Serif" font-size="10.00">Logging::Endpoints</text>
<text text-anchor="middle" x="202.5" y="-56.5" font-family="Helvetica,sans-Serif" font-size="10.00">::Systemd</text>
</a>
</g>
</g>
<!-- Node0&#45;&gt;Node4 -->
<g id="edge4" class="edge">
<title>Node0&#45;&gt;Node4</title>
<path fill="none" stroke="midnightblue" d="M94.04,-100.69C113.28,-94.21 136.75,-86.3 156.85,-79.54"/>
<polygon fill="midnightblue" stroke="midnightblue" points="92.76,-97.43 84.4,-103.94 94.99,-104.06 92.76,-97.43"/>
</g>
<!-- Node5 -->
<g id="node6" class="node">
<title>Node5</title>
<g id="a_node6"><a xlink:href="classpalliate_1_1Logging_1_1Endpoints_1_1Terminal.html" target="_top" xlink:title=" ">
<polygon fill="none" stroke="black" points="146,-0.5 146,-30.5 259,-30.5 259,-0.5 146,-0.5"/>
<text text-anchor="start" x="154" y="-18.5" font-family="Helvetica,sans-Serif" font-size="10.00">palliate::Logging::</text>
<text text-anchor="middle" x="202.5" y="-7.5" font-family="Helvetica,sans-Serif" font-size="10.00">Endpoints::Terminal</text>
</a>
</g>
</g>
<!-- Node0&#45;&gt;Node5 -->
<g id="edge5" class="edge">
<title>Node0&#45;&gt;Node5</title>
<path fill="none" stroke="midnightblue" d="M73.82,-96.71C91.26,-80.85 119.07,-57.1 146,-40.5 151.76,-36.95 158.11,-33.61 164.39,-30.61"/>
<polygon fill="midnightblue" stroke="midnightblue" points="71.11,-94.44 66.14,-103.79 75.86,-99.58 71.11,-94.44"/>
</g>
</g>
</svg>
