<?xml version="1.0" encoding="UTF-8" standalone="no"?>
<!DOCTYPE svg PUBLIC "-//W3C//DTD SVG 1.1//EN"
 "http://www.w3.org/Graphics/SVG/1.1/DTD/svg11.dtd">
<!-- Generated by graphviz version 2.43.0 (0)
 -->
<!-- Title: Graphical Class Hierarchy Pages: 1 -->
<svg width="263pt" height="235pt"
 viewBox="0.00 0.00 263.00 235.00" xmlns="http://www.w3.org/2000/svg" xmlns:xlink="http://www.w3.org/1999/xlink">
<g id="graph0" class="graph" transform="scale(1 1) rotate(0) translate(4 231)">
<title>Graphical Class Hierarchy</title>
<!-- Node0 -->
<g id="node1" class="node">
<title>Node0</title>
<g id="a_node1"><a xlink:title=" ">
<polygon fill="none" stroke="#bfbfbf" points="0,-104 0,-123 110,-123 110,-104 0,-104"/>
<text text-anchor="middle" x="55" y="-111" font-family="Helvetica,sans-Serif" font-size="10.00">Endpoint::Registrar</text>
</a>
</g>
</g>
<!-- Node1 -->
<g id="node2" class="node">
<title>Node1</title>
<g id="a_node2"><a xlink:href="classLogging_1_1Endpoints_1_1Bridge.html" target="_top" xlink:title=" ">
<polygon fill="none" stroke="black" points="146,-196.5 146,-226.5 255,-226.5 255,-196.5 146,-196.5"/>
<text text-anchor="start" x="154" y="-214.5" font-family="Helvetica,sans-Serif" font-size="10.00">Logging::Endpoints</text>
<text text-anchor="middle" x="200.5" y="-203.5" font-family="Helvetica,sans-Serif" font-size="10.00">::Bridge</text>
</a>
</g>
</g>
<!-- Node0&#45;&gt;Node1 -->
<g id="edge1" class="edge">
<title>Node0&#45;&gt;Node1</title>
<path fill="none" stroke="midnightblue" d="M73.49,-130.29C90.87,-146.38 118.81,-170.65 146,-187.5 151.19,-190.72 156.89,-193.75 162.57,-196.5"/>
<polygon fill="midnightblue" stroke="midnightblue" points="75.53,-127.41 65.85,-123.11 70.74,-132.51 75.53,-127.41"/>
</g>
<!-- Node2 -->
<g id="node3" class="node">
<title>Node2</title>
<g id="a_node3"><a xlink:href="classLogging_1_1Endpoints_1_1File.html" target="_top" xlink:title=" ">
<polygon fill="none" stroke="black" points="146,-147.5 146,-177.5 255,-177.5 255,-147.5 146,-147.5"/>
<text text-anchor="start" x="154" y="-165.5" font-family="Helvetica,sans-Serif" font-size="10.00">Logging::Endpoints</text>
<text text-anchor="middle" x="200.5" y="-154.5" font-family="Helvetica,sans-Serif" font-size="10.00">::File</text>
</a>
</g>
</g>
<!-- Node0&#45;&gt;Node2 -->
<g id="edge2" class="edge">
<title>Node0&#45;&gt;Node2</title>
<path fill="none" stroke="midnightblue" d="M93.51,-126.31C112.49,-132.79 135.64,-140.7 155.46,-147.46"/>
<polygon fill="midnightblue" stroke="midnightblue" points="94.6,-122.98 84.01,-123.06 92.34,-129.61 94.6,-122.98"/>
</g>
<!-- Node3 -->
<g id="node4" class="node">
<title>Node3</title>
<g id="a_node4"><a xlink:href="classLogging_1_1Endpoints_1_1Serial.html" target="_top" xlink:title=" ">
<polygon fill="none" stroke="black" points="146,-98.5 146,-128.5 255,-128.5 255,-98.5 146,-98.5"/>
<text text-anchor="start" x="154" y="-116.5" font-family="Helvetica,sans-Serif" font-size="10.00">Logging::Endpoints</text>
<text text-anchor="middle" x="200.5" y="-105.5" font-family="Helvetica,sans-Serif" font-size="10.00">::Serial</text>
</a>
</g>
</g>
<!-- Node0&#45;&gt;Node3 -->
<g id="edge3" class="edge">
<title>Node0&#45;&gt;Node3</title>
<path fill="none" stroke="midnightblue" d="M120.43,-113.5C128.86,-113.5 137.42,-113.5 145.65,-113.5"/>
<polygon fill="midnightblue" stroke="midnightblue" points="120.25,-110 110.25,-113.5 120.25,-117 120.25,-110"/>
</g>
<!-- Node4 -->
<g id="node5" class="node">
<title>Node4</title>
<g id="a_node5"><a xlink:href="classLogging_1_1Endpoints_1_1Systemd.html" target="_top" xlink:title=" ">
<polygon fill="none" stroke="black" points="146,-49.5 146,-79.5 255,-79.5 255,-49.5 146,-49.5"/>
<text text-anchor="start" x="154" y="-67.5" font-family="Helvetica,sans-Serif" font-size="10.00">Logging::Endpoints</text>
<text text-anchor="middle" x="200.5" y="-56.5" font-family="Helvetica,sans-Serif" font-size="10.00">::Systemd</text>
</a>
</g>
</g>
<!-- Node0&#45;&gt;Node4 -->
<g id="edge4" class="edge">
<title>Node0&#45;&gt;Node4</title>
<path fill="none" stroke="midnightblue" d="M93.51,-100.69C112.49,-94.21 135.64,-86.3 155.46,-79.54"/>
<polygon fill="midnightblue" stroke="midnightblue" points="92.34,-97.39 84.01,-103.94 94.6,-104.02 92.34,-97.39"/>
</g>
<!-- Node5 -->
<g id="node6" class="node">
<title>Node5</title>
<g id="a_node6"><a xlink:href="classLogging_1_1Endpoints_1_1Terminal.html" target="_top" xlink:title=" ">
<polygon fill="none" stroke="black" points="146,-0.5 146,-30.5 255,-30.5 255,-0.5 146,-0.5"/>
<text text-anchor="start" x="154" y="-18.5" font-family="Helvetica,sans-Serif" font-size="10.00">Logging::Endpoints</text>
<text text-anchor="middle" x="200.5" y="-7.5" font-family="Helvetica,sans-Serif" font-size="10.00">::Terminal</text>
</a>
</g>
</g>
<!-- Node0&#45;&gt;Node5 -->
<g id="edge5" class="edge">
<title>Node0&#45;&gt;Node5</title>
<path fill="none" stroke="midnightblue" d="M73.87,-96.79C91.35,-81 119.18,-57.29 146,-40.5 151.65,-36.96 157.88,-33.61 164.03,-30.58"/>
<polygon fill="midnightblue" stroke="midnightblue" points="71.18,-94.51 66.17,-103.84 75.91,-99.67 71.18,-94.51"/>
</g>
</g>
</svg>
