<?xml version="1.0" encoding="UTF-8" standalone="no"?>
<!DOCTYPE svg PUBLIC "-//W3C//DTD SVG 1.1//EN"
 "http://www.w3.org/Graphics/SVG/1.1/DTD/svg11.dtd">
<!-- Generated by graphviz version 2.43.0 (0)
 -->
<!-- Title: RPC::TCP::Client Pages: 1 -->
<svg width="145pt" height="193pt"
 viewBox="0.00 0.00 145.00 193.00" xmlns="http://www.w3.org/2000/svg" xmlns:xlink="http://www.w3.org/1999/xlink">
<g id="graph0" class="graph" transform="scale(1 1) rotate(0) translate(4 189)">
<title>RPC::TCP::Client</title>
<!-- Node1 -->
<g id="node1" class="node">
<title>Node1</title>
<g id="a_node1"><a xlink:title=" ">
<polygon fill="#bfbfbf" stroke="black" points="21,-0.5 21,-79.5 116,-79.5 116,-0.5 21,-0.5"/>
<text text-anchor="middle" x="68.5" y="-67.5" font-family="Helvetica,sans-Serif" font-size="10.00">RPC::TCP::Client</text>
<polyline fill="none" stroke="black" points="21,-60.5 116,-60.5 "/>
<text text-anchor="middle" x="68.5" y="-48.5" font-family="Helvetica,sans-Serif" font-size="10.00"> </text>
<polyline fill="none" stroke="black" points="21,-41.5 116,-41.5 "/>
<text text-anchor="start" x="29" y="-29.5" font-family="Helvetica,sans-Serif" font-size="10.00">+ Client()</text>
<text text-anchor="start" x="29" y="-18.5" font-family="Helvetica,sans-Serif" font-size="10.00">+ ~Client()</text>
<text text-anchor="start" x="29" y="-7.5" font-family="Helvetica,sans-Serif" font-size="10.00">+ wait_scope()</text>
</a>
</g>
</g>
<!-- Node2 -->
<g id="node2" class="node">
<title>Node2</title>
<g id="a_node2"><a xlink:title=" ">
<polygon fill="none" stroke="black" points="0,-116.5 0,-184.5 137,-184.5 137,-116.5 0,-116.5"/>
<text text-anchor="start" x="8" y="-172.5" font-family="Helvetica,sans-Serif" font-size="10.00">RPC::Client::Registrar</text>
<text text-anchor="middle" x="68.5" y="-161.5" font-family="Helvetica,sans-Serif" font-size="10.00">&lt; Client, config::Client &gt;</text>
<polyline fill="none" stroke="black" points="0,-154.5 137,-154.5 "/>
<text text-anchor="middle" x="68.5" y="-142.5" font-family="Helvetica,sans-Serif" font-size="10.00"> </text>
<polyline fill="none" stroke="black" points="0,-135.5 137,-135.5 "/>
<text text-anchor="middle" x="68.5" y="-123.5" font-family="Helvetica,sans-Serif" font-size="10.00"> </text>
</a>
</g>
</g>
<!-- Node2&#45;&gt;Node1 -->
<g id="edge1" class="edge">
<title>Node2&#45;&gt;Node1</title>
<path fill="none" stroke="midnightblue" d="M68.5,-106.27C68.5,-97.48 68.5,-88.28 68.5,-79.65"/>
<polygon fill="none" stroke="midnightblue" points="65,-106.36 68.5,-116.36 72,-106.36 65,-106.36"/>
</g>
</g>
</svg>
