<?xml version="1.0" encoding="UTF-8" standalone="no"?>
<!DOCTYPE svg PUBLIC "-//W3C//DTD SVG 1.1//EN"
 "http://www.w3.org/Graphics/SVG/1.1/DTD/svg11.dtd">
<!-- Generated by graphviz version 2.43.0 (0)
 -->
<!-- Title: runnable Pages: 1 -->
<svg width="730pt" height="518pt"
 viewBox="0.00 0.00 730.00 518.00" xmlns="http://www.w3.org/2000/svg" xmlns:xlink="http://www.w3.org/1999/xlink">
<g id="graph0" class="graph" transform="scale(1 1) rotate(0) translate(4 514)">
<title>runnable</title>
<!-- Node1 -->
<g id="node1" class="node">
<title>Node1</title>
<g id="a_node1"><a xlink:title=" ">
<polygon fill="#bfbfbf" stroke="black" points="297,-331.5 297,-509.5 398,-509.5 398,-331.5 297,-331.5"/>
<text text-anchor="middle" x="347.5" y="-497.5" font-family="Helvetica,sans-Serif" font-size="10.00">runnable</text>
<polyline fill="none" stroke="black" points="297,-490.5 398,-490.5 "/>
<text text-anchor="start" x="305" y="-478.5" font-family="Helvetica,sans-Serif" font-size="10.00"># thread</text>
<text text-anchor="start" x="305" y="-467.5" font-family="Helvetica,sans-Serif" font-size="10.00"># callback</text>
<polyline fill="none" stroke="black" points="297,-460.5 398,-460.5 "/>
<text text-anchor="start" x="305" y="-448.5" font-family="Helvetica,sans-Serif" font-size="10.00">+ runnable()</text>
<text text-anchor="start" x="305" y="-437.5" font-family="Helvetica,sans-Serif" font-size="10.00">+ ~runnable()</text>
<text text-anchor="start" x="305" y="-426.5" font-family="Helvetica,sans-Serif" font-size="10.00">+ operator()()</text>
<text text-anchor="start" x="305" y="-415.5" font-family="Helvetica,sans-Serif" font-size="10.00">+ run()</text>
<text text-anchor="start" x="305" y="-404.5" font-family="Helvetica,sans-Serif" font-size="10.00">+ run()</text>
<text text-anchor="start" x="305" y="-393.5" font-family="Helvetica,sans-Serif" font-size="10.00">+ run()</text>
<text text-anchor="start" x="305" y="-382.5" font-family="Helvetica,sans-Serif" font-size="10.00">+ run()</text>
<text text-anchor="start" x="305" y="-371.5" font-family="Helvetica,sans-Serif" font-size="10.00">+ stop()</text>
<text text-anchor="start" x="305" y="-360.5" font-family="Helvetica,sans-Serif" font-size="10.00">+ operator&lt;=&gt;()</text>
<text text-anchor="start" x="305" y="-349.5" font-family="Helvetica,sans-Serif" font-size="10.00"># setup()</text>
<text text-anchor="start" x="305" y="-338.5" font-family="Helvetica,sans-Serif" font-size="10.00"># loop()</text>
</a>
</g>
</g>
<!-- Node2 -->
<g id="node2" class="node">
<title>Node2</title>
<g id="a_node2"><a xlink:href="classconsumer.html" target="_top" xlink:title=" ">
<polygon fill="none" stroke="black" points="0,-171.5 0,-261.5 93,-261.5 93,-171.5 0,-171.5"/>
<text text-anchor="middle" x="46.5" y="-249.5" font-family="Helvetica,sans-Serif" font-size="10.00">consumer</text>
<polyline fill="none" stroke="black" points="0,-242.5 93,-242.5 "/>
<text text-anchor="start" x="8" y="-230.5" font-family="Helvetica,sans-Serif" font-size="10.00"># client_handle</text>
<polyline fill="none" stroke="black" points="0,-223.5 93,-223.5 "/>
<text text-anchor="start" x="8" y="-211.5" font-family="Helvetica,sans-Serif" font-size="10.00">+ ~consumer()</text>
<text text-anchor="start" x="8" y="-200.5" font-family="Helvetica,sans-Serif" font-size="10.00">+ consumer()</text>
<text text-anchor="start" x="8" y="-189.5" font-family="Helvetica,sans-Serif" font-size="10.00">+ loop()</text>
<text text-anchor="start" x="8" y="-178.5" font-family="Helvetica,sans-Serif" font-size="10.00">+ handle()</text>
</a>
</g>
</g>
<!-- Node1&#45;&gt;Node2 -->
<g id="edge1" class="edge">
<title>Node1&#45;&gt;Node2</title>
<path fill="none" stroke="midnightblue" d="M287.35,-398.29C234.63,-377.64 157.96,-342.44 102.5,-295 91.4,-285.5 81.31,-273.38 72.86,-261.55"/>
<polygon fill="none" stroke="midnightblue" points="286.32,-401.64 296.9,-401.98 288.83,-395.11 286.32,-401.64"/>
</g>
<!-- Node3 -->
<g id="node3" class="node">
<title>Node3</title>
<g id="a_node3"><a xlink:href="classproducer.html" target="_top" xlink:title=" ">
<polygon fill="none" stroke="black" points="111.5,-171.5 111.5,-261.5 213.5,-261.5 213.5,-171.5 111.5,-171.5"/>
<text text-anchor="middle" x="162.5" y="-249.5" font-family="Helvetica,sans-Serif" font-size="10.00">producer</text>
<polyline fill="none" stroke="black" points="111.5,-242.5 213.5,-242.5 "/>
<text text-anchor="start" x="119.5" y="-230.5" font-family="Helvetica,sans-Serif" font-size="10.00"># data</text>
<text text-anchor="start" x="119.5" y="-219.5" font-family="Helvetica,sans-Serif" font-size="10.00"># control</text>
<polyline fill="none" stroke="black" points="111.5,-212.5 213.5,-212.5 "/>
<text text-anchor="start" x="119.5" y="-200.5" font-family="Helvetica,sans-Serif" font-size="10.00">+ producer()</text>
<text text-anchor="start" x="119.5" y="-189.5" font-family="Helvetica,sans-Serif" font-size="10.00">+ ~producer()</text>
<text text-anchor="start" x="119.5" y="-178.5" font-family="Helvetica,sans-Serif" font-size="10.00"># control_event()</text>
</a>
</g>
</g>
<!-- Node1&#45;&gt;Node3 -->
<g id="edge2" class="edge">
<title>Node1&#45;&gt;Node3</title>
<path fill="none" stroke="midnightblue" d="M289.49,-364.79C267.84,-343.58 243.44,-318.73 222.5,-295 213.27,-284.54 203.79,-272.83 195.18,-261.74"/>
<polygon fill="none" stroke="midnightblue" points="287.12,-367.36 296.72,-371.83 292,-362.35 287.12,-367.36"/>
</g>
<!-- Node4 -->
<g id="node4" class="node">
<title>Node4</title>
<g id="a_node4"><a xlink:href="classrpc_1_1Server.html" target="_top" xlink:title=" ">
<polygon fill="none" stroke="black" points="232,-138.5 232,-294.5 339,-294.5 339,-138.5 232,-138.5"/>
<text text-anchor="middle" x="285.5" y="-282.5" font-family="Helvetica,sans-Serif" font-size="10.00">rpc::Server</text>
<polyline fill="none" stroke="black" points="232,-275.5 339,-275.5 "/>
<text text-anchor="start" x="240" y="-263.5" font-family="Helvetica,sans-Serif" font-size="10.00"># interface</text>
<text text-anchor="start" x="240" y="-252.5" font-family="Helvetica,sans-Serif" font-size="10.00"># contexts_mutex</text>
<text text-anchor="start" x="240" y="-241.5" font-family="Helvetica,sans-Serif" font-size="10.00"># contexts</text>
<text text-anchor="start" x="240" y="-230.5" font-family="Helvetica,sans-Serif" font-size="10.00"># io</text>
<polyline fill="none" stroke="black" points="232,-223.5 339,-223.5 "/>
<text text-anchor="start" x="240" y="-211.5" font-family="Helvetica,sans-Serif" font-size="10.00">+ Server()</text>
<text text-anchor="start" x="240" y="-200.5" font-family="Helvetica,sans-Serif" font-size="10.00">+ ~Server()</text>
<text text-anchor="start" x="240" y="-189.5" font-family="Helvetica,sans-Serif" font-size="10.00">+ broadcast()</text>
<text text-anchor="start" x="240" y="-178.5" font-family="Helvetica,sans-Serif" font-size="10.00">+ datachannel()</text>
<text text-anchor="start" x="240" y="-167.5" font-family="Helvetica,sans-Serif" font-size="10.00"># accept()</text>
<text text-anchor="start" x="240" y="-156.5" font-family="Helvetica,sans-Serif" font-size="10.00"># remove()</text>
<text text-anchor="start" x="240" y="-145.5" font-family="Helvetica,sans-Serif" font-size="10.00"># authenticate()</text>
</a>
</g>
</g>
<!-- Node1&#45;&gt;Node4 -->
<g id="edge3" class="edge">
<title>Node1&#45;&gt;Node4</title>
<path fill="none" stroke="midnightblue" d="M317.48,-321.7C314.71,-312.66 311.92,-303.59 309.22,-294.77"/>
<polygon fill="none" stroke="midnightblue" points="314.21,-322.95 320.49,-331.49 320.9,-320.9 314.21,-322.95"/>
</g>
<!-- Node5 -->
<g id="node5" class="node">
<title>Node5</title>
<g id="a_node5"><a xlink:href="classtransport_1_1Client.html" target="_top" xlink:title=" ">
<polygon fill="none" stroke="black" points="357,-160.5 357,-272.5 462,-272.5 462,-160.5 357,-160.5"/>
<text text-anchor="middle" x="409.5" y="-260.5" font-family="Helvetica,sans-Serif" font-size="10.00">transport::Client</text>
<polyline fill="none" stroke="black" points="357,-253.5 462,-253.5 "/>
<text text-anchor="start" x="365" y="-241.5" font-family="Helvetica,sans-Serif" font-size="10.00">+ message_event</text>
<text text-anchor="start" x="365" y="-230.5" font-family="Helvetica,sans-Serif" font-size="10.00"># packed</text>
<polyline fill="none" stroke="black" points="357,-223.5 462,-223.5 "/>
<text text-anchor="start" x="365" y="-211.5" font-family="Helvetica,sans-Serif" font-size="10.00">+ Client()</text>
<text text-anchor="start" x="365" y="-200.5" font-family="Helvetica,sans-Serif" font-size="10.00">+ ~Client()</text>
<text text-anchor="start" x="365" y="-189.5" font-family="Helvetica,sans-Serif" font-size="10.00">+ loop()</text>
<text text-anchor="start" x="365" y="-178.5" font-family="Helvetica,sans-Serif" font-size="10.00">+ send()</text>
<text text-anchor="start" x="365" y="-167.5" font-family="Helvetica,sans-Serif" font-size="10.00">+ recv()</text>
</a>
</g>
</g>
<!-- Node1&#45;&gt;Node5 -->
<g id="edge4" class="edge">
<title>Node1&#45;&gt;Node5</title>
<path fill="none" stroke="midnightblue" d="M377.55,-321.61C382.71,-304.78 387.91,-287.84 392.57,-272.66"/>
<polygon fill="none" stroke="midnightblue" points="374.1,-320.9 374.51,-331.49 380.79,-322.95 374.1,-320.9"/>
</g>
<!-- Node7 -->
<g id="node7" class="node">
<title>Node7</title>
<g id="a_node7"><a xlink:href="classtransport_1_1Server.html" target="_top" xlink:title=" ">
<polygon fill="none" stroke="black" points="480,-138.5 480,-294.5 585,-294.5 585,-138.5 480,-138.5"/>
<text text-anchor="middle" x="532.5" y="-282.5" font-family="Helvetica,sans-Serif" font-size="10.00">transport::Server</text>
<polyline fill="none" stroke="black" points="480,-275.5 585,-275.5 "/>
<text text-anchor="start" x="488" y="-263.5" font-family="Helvetica,sans-Serif" font-size="10.00"># clients</text>
<text text-anchor="start" x="488" y="-252.5" font-family="Helvetica,sans-Serif" font-size="10.00"># clients_mutex</text>
<text text-anchor="start" x="488" y="-241.5" font-family="Helvetica,sans-Serif" font-size="10.00"># packed</text>
<text text-anchor="start" x="488" y="-230.5" font-family="Helvetica,sans-Serif" font-size="10.00"># message_event</text>
<polyline fill="none" stroke="black" points="480,-223.5 585,-223.5 "/>
<text text-anchor="start" x="488" y="-211.5" font-family="Helvetica,sans-Serif" font-size="10.00">+ ~Server()</text>
<text text-anchor="start" x="488" y="-200.5" font-family="Helvetica,sans-Serif" font-size="10.00">+ Server()</text>
<text text-anchor="start" x="488" y="-189.5" font-family="Helvetica,sans-Serif" font-size="10.00">+ prepare()</text>
<text text-anchor="start" x="488" y="-178.5" font-family="Helvetica,sans-Serif" font-size="10.00">+ broadcast()</text>
<text text-anchor="start" x="488" y="-167.5" font-family="Helvetica,sans-Serif" font-size="10.00">+ set_event()</text>
<text text-anchor="start" x="488" y="-156.5" font-family="Helvetica,sans-Serif" font-size="10.00">+ add()</text>
<text text-anchor="start" x="488" y="-145.5" font-family="Helvetica,sans-Serif" font-size="10.00">+ remove()</text>
</a>
</g>
</g>
<!-- Node1&#45;&gt;Node7 -->
<g id="edge6" class="edge">
<title>Node1&#45;&gt;Node7</title>
<path fill="none" stroke="midnightblue" d="M405.18,-364.37C426.58,-343.2 450.69,-318.49 471.5,-295 474.23,-291.92 476.98,-288.74 479.72,-285.51"/>
<polygon fill="none" stroke="midnightblue" points="402.71,-361.89 398.04,-371.4 407.62,-366.88 402.71,-361.89"/>
</g>
<!-- Node9 -->
<g id="node9" class="node">
<title>Node9</title>
<g id="a_node9"><a xlink:href="classui.html" target="_top" xlink:title=" ">
<polygon fill="none" stroke="black" points="603,-160.5 603,-272.5 722,-272.5 722,-160.5 603,-160.5"/>
<text text-anchor="middle" x="662.5" y="-260.5" font-family="Helvetica,sans-Serif" font-size="10.00">ui</text>
<polyline fill="none" stroke="black" points="603,-253.5 722,-253.5 "/>
<text text-anchor="middle" x="662.5" y="-241.5" font-family="Helvetica,sans-Serif" font-size="10.00"> </text>
<polyline fill="none" stroke="black" points="603,-234.5 722,-234.5 "/>
<text text-anchor="start" x="611" y="-222.5" font-family="Helvetica,sans-Serif" font-size="10.00">+ ui()</text>
<text text-anchor="start" x="611" y="-211.5" font-family="Helvetica,sans-Serif" font-size="10.00">+ operator=()</text>
<text text-anchor="start" x="611" y="-200.5" font-family="Helvetica,sans-Serif" font-size="10.00">+ ~ui()</text>
<text text-anchor="start" x="611" y="-189.5" font-family="Helvetica,sans-Serif" font-size="10.00">+ attach()</text>
<text text-anchor="start" x="611" y="-178.5" font-family="Helvetica,sans-Serif" font-size="10.00">+ Instance()</text>
<text text-anchor="start" x="611" y="-167.5" font-family="Helvetica,sans-Serif" font-size="10.00">+ toggle_fullscreen()</text>
</a>
</g>
</g>
<!-- Node1&#45;&gt;Node9 -->
<g id="edge8" class="edge">
<title>Node1&#45;&gt;Node9</title>
<path fill="none" stroke="midnightblue" d="M407.57,-396.89C460.02,-375.43 536.59,-339.83 594.5,-295 602.99,-288.43 611.24,-280.68 618.89,-272.66"/>
<polygon fill="none" stroke="midnightblue" points="406.03,-393.74 398.07,-400.73 408.65,-400.23 406.03,-393.74"/>
</g>
<!-- Node6 -->
<g id="node6" class="node">
<title>Node6</title>
<g id="a_node6"><a xlink:href="classtransport_1_1TCP_1_1Client.html" target="_top" xlink:title=" ">
<polygon fill="none" stroke="black" points="342,-0.5 342,-101.5 461,-101.5 461,-0.5 342,-0.5"/>
<text text-anchor="middle" x="401.5" y="-89.5" font-family="Helvetica,sans-Serif" font-size="10.00">transport::TCP::Client</text>
<polyline fill="none" stroke="black" points="342,-82.5 461,-82.5 "/>
<text text-anchor="middle" x="401.5" y="-70.5" font-family="Helvetica,sans-Serif" font-size="10.00"> </text>
<polyline fill="none" stroke="black" points="342,-63.5 461,-63.5 "/>
<text text-anchor="start" x="350" y="-51.5" font-family="Helvetica,sans-Serif" font-size="10.00">+ Client()</text>
<text text-anchor="start" x="350" y="-40.5" font-family="Helvetica,sans-Serif" font-size="10.00">+ Client()</text>
<text text-anchor="start" x="350" y="-29.5" font-family="Helvetica,sans-Serif" font-size="10.00">+ ~Client()</text>
<text text-anchor="start" x="350" y="-18.5" font-family="Helvetica,sans-Serif" font-size="10.00">+ send()</text>
<text text-anchor="start" x="350" y="-7.5" font-family="Helvetica,sans-Serif" font-size="10.00">+ recv()</text>
</a>
</g>
</g>
<!-- Node5&#45;&gt;Node6 -->
<g id="edge5" class="edge">
<title>Node5&#45;&gt;Node6</title>
<path fill="none" stroke="midnightblue" d="M406.28,-149.73C405.5,-133.65 404.67,-116.71 403.92,-101.53"/>
<polygon fill="none" stroke="midnightblue" points="402.81,-150.33 406.79,-160.15 409.8,-149.99 402.81,-150.33"/>
</g>
<!-- Node8 -->
<g id="node8" class="node">
<title>Node8</title>
<g id="a_node8"><a xlink:href="classtransport_1_1TCP_1_1Server.html" target="_top" xlink:title=" ">
<polygon fill="none" stroke="black" points="479.5,-17 479.5,-85 601.5,-85 601.5,-17 479.5,-17"/>
<text text-anchor="middle" x="540.5" y="-73" font-family="Helvetica,sans-Serif" font-size="10.00">transport::TCP::Server</text>
<polyline fill="none" stroke="black" points="479.5,-66 601.5,-66 "/>
<text text-anchor="middle" x="540.5" y="-54" font-family="Helvetica,sans-Serif" font-size="10.00"> </text>
<polyline fill="none" stroke="black" points="479.5,-47 601.5,-47 "/>
<text text-anchor="start" x="487.5" y="-35" font-family="Helvetica,sans-Serif" font-size="10.00">+ Server()</text>
<text text-anchor="start" x="487.5" y="-24" font-family="Helvetica,sans-Serif" font-size="10.00">+ loop()</text>
</a>
</g>
</g>
<!-- Node7&#45;&gt;Node8 -->
<g id="edge7" class="edge">
<title>Node7&#45;&gt;Node8</title>
<path fill="none" stroke="midnightblue" d="M536.78,-128C537.53,-112.71 538.26,-97.69 538.88,-85.1"/>
<polygon fill="none" stroke="midnightblue" points="533.28,-127.9 536.29,-138.06 540.27,-128.24 533.28,-127.9"/>
</g>
</g>
</svg>
