<?xml version="1.0" encoding="UTF-8" standalone="no"?>
<!DOCTYPE svg PUBLIC "-//W3C//DTD SVG 1.1//EN"
 "http://www.w3.org/Graphics/SVG/1.1/DTD/svg11.dtd">
<!-- Generated by graphviz version 2.43.0 (0)
 -->
<!-- Title: auth::Token Pages: 1 -->
<svg width="118pt" height="160pt"
 viewBox="0.00 0.00 118.00 160.00" xmlns="http://www.w3.org/2000/svg" xmlns:xlink="http://www.w3.org/1999/xlink">
<g id="graph0" class="graph" transform="scale(1 1) rotate(0) translate(4 156)">
<title>auth::Token</title>
<!-- Node1 -->
<g id="node1" class="node">
<title>Node1</title>
<g id="a_node1"><a xlink:title=" ">
<polygon fill="#bfbfbf" stroke="black" points="19,-0.5 19,-57.5 91,-57.5 91,-0.5 19,-0.5"/>
<text text-anchor="middle" x="55" y="-45.5" font-family="Helvetica,sans-Serif" font-size="10.00">auth::Token</text>
<polyline fill="none" stroke="black" points="19,-38.5 91,-38.5 "/>
<text text-anchor="middle" x="55" y="-26.5" font-family="Helvetica,sans-Serif" font-size="10.00"> </text>
<polyline fill="none" stroke="black" points="19,-19.5 91,-19.5 "/>
<text text-anchor="start" x="27" y="-7.5" font-family="Helvetica,sans-Serif" font-size="10.00">+ check()</text>
</a>
</g>
</g>
<!-- Node2 -->
<g id="node2" class="node">
<title>Node2</title>
<g id="a_node2"><a xlink:href="classauth_1_1Authenticator.html" target="_top" xlink:title=" ">
<polygon fill="none" stroke="black" points="0,-94.5 0,-151.5 110,-151.5 110,-94.5 0,-94.5"/>
<text text-anchor="middle" x="55" y="-139.5" font-family="Helvetica,sans-Serif" font-size="10.00">auth::Authenticator</text>
<polyline fill="none" stroke="black" points="0,-132.5 110,-132.5 "/>
<text text-anchor="middle" x="55" y="-120.5" font-family="Helvetica,sans-Serif" font-size="10.00"> </text>
<polyline fill="none" stroke="black" points="0,-113.5 110,-113.5 "/>
<text text-anchor="start" x="8" y="-101.5" font-family="Helvetica,sans-Serif" font-size="10.00">+ check()</text>
</a>
</g>
</g>
<!-- Node2&#45;&gt;Node1 -->
<g id="edge1" class="edge">
<title>Node2&#45;&gt;Node1</title>
<path fill="none" stroke="midnightblue" d="M55,-84.21C55,-75.29 55,-65.95 55,-57.58"/>
<polygon fill="none" stroke="midnightblue" points="51.5,-84.4 55,-94.4 58.5,-84.4 51.5,-84.4"/>
</g>
</g>
</svg>
