<?xml version="1.0" encoding="UTF-8" standalone="no"?>
<!DOCTYPE svg PUBLIC "-//W3C//DTD SVG 1.1//EN"
 "http://www.w3.org/Graphics/SVG/1.1/DTD/svg11.dtd">
<!-- Generated by graphviz version 2.43.0 (0)
 -->
<!-- Title: Authentication::Authenticator Pages: 1 -->
<svg width="262pt" height="171pt"
 viewBox="0.00 0.00 261.50 171.00" xmlns="http://www.w3.org/2000/svg" xmlns:xlink="http://www.w3.org/1999/xlink">
<g id="graph0" class="graph" transform="scale(1 1) rotate(0) translate(4 167)">
<title>Authentication::Authenticator</title>
<!-- Node1 -->
<g id="node1" class="node">
<title>Node1</title>
<g id="a_node1"><a xlink:title=" ">
<polygon fill="#bfbfbf" stroke="black" points="44.5,-105.5 44.5,-162.5 204.5,-162.5 204.5,-105.5 44.5,-105.5"/>
<text text-anchor="middle" x="124.5" y="-150.5" font-family="Helvetica,sans-Serif" font-size="10.00">Authentication::Authenticator</text>
<polyline fill="none" stroke="black" points="44.5,-143.5 204.5,-143.5 "/>
<text text-anchor="middle" x="124.5" y="-131.5" font-family="Helvetica,sans-Serif" font-size="10.00"> </text>
<polyline fill="none" stroke="black" points="44.5,-124.5 204.5,-124.5 "/>
<text text-anchor="start" x="52.5" y="-112.5" font-family="Helvetica,sans-Serif" font-size="10.00">+ check()</text>
</a>
</g>
</g>
<!-- Node2 -->
<g id="node2" class="node">
<title>Node2</title>
<g id="a_node2"><a xlink:href="classAuthentication_1_1PSK.html" target="_top" xlink:title=" ">
<polygon fill="none" stroke="black" points="0,-0.5 0,-68.5 113,-68.5 113,-0.5 0,-0.5"/>
<text text-anchor="middle" x="56.5" y="-56.5" font-family="Helvetica,sans-Serif" font-size="10.00">Authentication::PSK</text>
<polyline fill="none" stroke="black" points="0,-49.5 113,-49.5 "/>
<text text-anchor="middle" x="56.5" y="-37.5" font-family="Helvetica,sans-Serif" font-size="10.00"> </text>
<polyline fill="none" stroke="black" points="0,-30.5 113,-30.5 "/>
<text text-anchor="start" x="8" y="-18.5" font-family="Helvetica,sans-Serif" font-size="10.00">+ PSK()</text>
<text text-anchor="start" x="8" y="-7.5" font-family="Helvetica,sans-Serif" font-size="10.00">+ check()</text>
</a>
</g>
</g>
<!-- Node1&#45;&gt;Node2 -->
<g id="edge1" class="edge">
<title>Node1&#45;&gt;Node2</title>
<path fill="none" stroke="midnightblue" d="M99.43,-97.05C92.98,-87.81 86.07,-77.89 79.71,-68.79"/>
<polygon fill="none" stroke="midnightblue" points="96.6,-99.12 105.2,-105.32 102.35,-95.12 96.6,-99.12"/>
</g>
<!-- Node3 -->
<g id="node3" class="node">
<title>Node3</title>
<g id="a_node3"><a xlink:href="classAuthentication_1_1Token.html" target="_top" xlink:title=" ">
<polygon fill="none" stroke="black" points="131.5,-6 131.5,-63 253.5,-63 253.5,-6 131.5,-6"/>
<text text-anchor="middle" x="192.5" y="-51" font-family="Helvetica,sans-Serif" font-size="10.00">Authentication::Token</text>
<polyline fill="none" stroke="black" points="131.5,-44 253.5,-44 "/>
<text text-anchor="middle" x="192.5" y="-32" font-family="Helvetica,sans-Serif" font-size="10.00"> </text>
<polyline fill="none" stroke="black" points="131.5,-25 253.5,-25 "/>
<text text-anchor="start" x="139.5" y="-13" font-family="Helvetica,sans-Serif" font-size="10.00">+ check()</text>
</a>
</g>
</g>
<!-- Node1&#45;&gt;Node3 -->
<g id="edge2" class="edge">
<title>Node1&#45;&gt;Node3</title>
<path fill="none" stroke="midnightblue" d="M149.59,-97.02C157.37,-85.87 165.82,-73.75 173.15,-63.25"/>
<polygon fill="none" stroke="midnightblue" points="146.65,-95.12 143.8,-105.32 152.4,-99.12 146.65,-95.12"/>
</g>
</g>
</svg>
