<?xml version="1.0" encoding="UTF-8" standalone="no"?>
<!DOCTYPE svg PUBLIC "-//W3C//DTD SVG 1.1//EN"
 "http://www.w3.org/Graphics/SVG/1.1/DTD/svg11.dtd">
<!-- Generated by graphviz version 2.43.0 (0)
 -->
<!-- Title: runnable Pages: 1 -->
<svg width="604pt" height="496pt"
 viewBox="0.00 0.00 603.50 496.00" xmlns="http://www.w3.org/2000/svg" xmlns:xlink="http://www.w3.org/1999/xlink">
<g id="graph0" class="graph" transform="scale(1 1) rotate(0) translate(4 492)">
<title>runnable</title>
<!-- Node1 -->
<g id="node1" class="node">
<title>Node1</title>
<g id="a_node1"><a xlink:title=" ">
<polygon fill="#bfbfbf" stroke="black" points="227,-331.5 227,-487.5 328,-487.5 328,-331.5 227,-331.5"/>
<text text-anchor="middle" x="277.5" y="-475.5" font-family="Helvetica,sans-Serif" font-size="10.00">runnable</text>
<polyline fill="none" stroke="black" points="227,-468.5 328,-468.5 "/>
<text text-anchor="start" x="235" y="-456.5" font-family="Helvetica,sans-Serif" font-size="10.00"># thread</text>
<text text-anchor="start" x="235" y="-445.5" font-family="Helvetica,sans-Serif" font-size="10.00"># callback</text>
<polyline fill="none" stroke="black" points="227,-438.5 328,-438.5 "/>
<text text-anchor="start" x="235" y="-426.5" font-family="Helvetica,sans-Serif" font-size="10.00">+ runnable()</text>
<text text-anchor="start" x="235" y="-415.5" font-family="Helvetica,sans-Serif" font-size="10.00">+ ~runnable()</text>
<text text-anchor="start" x="235" y="-404.5" font-family="Helvetica,sans-Serif" font-size="10.00">+ operator()()</text>
<text text-anchor="start" x="235" y="-393.5" font-family="Helvetica,sans-Serif" font-size="10.00">+ run()</text>
<text text-anchor="start" x="235" y="-382.5" font-family="Helvetica,sans-Serif" font-size="10.00">+ run()</text>
<text text-anchor="start" x="235" y="-371.5" font-family="Helvetica,sans-Serif" font-size="10.00">+ stop()</text>
<text text-anchor="start" x="235" y="-360.5" font-family="Helvetica,sans-Serif" font-size="10.00">+ operator&lt;=&gt;()</text>
<text text-anchor="start" x="235" y="-349.5" font-family="Helvetica,sans-Serif" font-size="10.00"># setup()</text>
<text text-anchor="start" x="235" y="-338.5" font-family="Helvetica,sans-Serif" font-size="10.00"># loop()</text>
</a>
</g>
</g>
<!-- Node2 -->
<g id="node2" class="node">
<title>Node2</title>
<g id="a_node2"><a xlink:href="classRPC_1_1Server.html" target="_top" xlink:title=" ">
<polygon fill="none" stroke="black" points="0,-144 0,-289 97,-289 97,-144 0,-144"/>
<text text-anchor="middle" x="48.5" y="-277" font-family="Helvetica,sans-Serif" font-size="10.00">RPC::Server</text>
<polyline fill="none" stroke="black" points="0,-270 97,-270 "/>
<text text-anchor="start" x="8" y="-258" font-family="Helvetica,sans-Serif" font-size="10.00"># interface</text>
<text text-anchor="start" x="8" y="-247" font-family="Helvetica,sans-Serif" font-size="10.00"># authenticator</text>
<text text-anchor="start" x="8" y="-236" font-family="Helvetica,sans-Serif" font-size="10.00"># contexts</text>
<text text-anchor="start" x="8" y="-225" font-family="Helvetica,sans-Serif" font-size="10.00"># io</text>
<polyline fill="none" stroke="black" points="0,-218 97,-218 "/>
<text text-anchor="start" x="8" y="-206" font-family="Helvetica,sans-Serif" font-size="10.00">+ Server()</text>
<text text-anchor="start" x="8" y="-195" font-family="Helvetica,sans-Serif" font-size="10.00">+ ~Server()</text>
<text text-anchor="start" x="8" y="-184" font-family="Helvetica,sans-Serif" font-size="10.00">+ broadcast()</text>
<text text-anchor="start" x="8" y="-173" font-family="Helvetica,sans-Serif" font-size="10.00"># accept()</text>
<text text-anchor="start" x="8" y="-162" font-family="Helvetica,sans-Serif" font-size="10.00"># remove()</text>
<text text-anchor="start" x="8" y="-151" font-family="Helvetica,sans-Serif" font-size="10.00"># authenticate()</text>
</a>
</g>
</g>
<!-- Node1&#45;&gt;Node2 -->
<g id="edge1" class="edge">
<title>Node1&#45;&gt;Node2</title>
<path fill="none" stroke="midnightblue" d="M218,-376.36C183.03,-355.8 139.21,-327.04 105.5,-295 102.72,-292.35 99.97,-289.56 97.28,-286.66"/>
<polygon fill="none" stroke="midnightblue" points="216.29,-379.41 226.69,-381.4 219.8,-373.36 216.29,-379.41"/>
</g>
<!-- Node3 -->
<g id="node3" class="node">
<title>Node3</title>
<g id="a_node3"><a xlink:href="classconsumer.html" target="_top" xlink:title=" ">
<polygon fill="none" stroke="black" points="115,-171.5 115,-261.5 208,-261.5 208,-171.5 115,-171.5"/>
<text text-anchor="middle" x="161.5" y="-249.5" font-family="Helvetica,sans-Serif" font-size="10.00">consumer</text>
<polyline fill="none" stroke="black" points="115,-242.5 208,-242.5 "/>
<text text-anchor="start" x="123" y="-230.5" font-family="Helvetica,sans-Serif" font-size="10.00"># client_handle</text>
<polyline fill="none" stroke="black" points="115,-223.5 208,-223.5 "/>
<text text-anchor="start" x="123" y="-211.5" font-family="Helvetica,sans-Serif" font-size="10.00">+ ~consumer()</text>
<text text-anchor="start" x="123" y="-200.5" font-family="Helvetica,sans-Serif" font-size="10.00">+ consumer()</text>
<text text-anchor="start" x="123" y="-189.5" font-family="Helvetica,sans-Serif" font-size="10.00">+ loop()</text>
<text text-anchor="start" x="123" y="-178.5" font-family="Helvetica,sans-Serif" font-size="10.00">+ handle()</text>
</a>
</g>
</g>
<!-- Node1&#45;&gt;Node3 -->
<g id="edge2" class="edge">
<title>Node1&#45;&gt;Node3</title>
<path fill="none" stroke="midnightblue" d="M225.39,-322.69C212.58,-301.6 199.38,-279.87 188.33,-261.67"/>
<polygon fill="none" stroke="midnightblue" points="222.47,-324.63 230.65,-331.36 228.45,-321 222.47,-324.63"/>
</g>
<!-- Node4 -->
<g id="node4" class="node">
<title>Node4</title>
<g id="a_node4"><a xlink:href="classproducer.html" target="_top" xlink:title=" ">
<polygon fill="none" stroke="black" points="226.5,-171.5 226.5,-261.5 328.5,-261.5 328.5,-171.5 226.5,-171.5"/>
<text text-anchor="middle" x="277.5" y="-249.5" font-family="Helvetica,sans-Serif" font-size="10.00">producer</text>
<polyline fill="none" stroke="black" points="226.5,-242.5 328.5,-242.5 "/>
<text text-anchor="start" x="234.5" y="-230.5" font-family="Helvetica,sans-Serif" font-size="10.00"># data</text>
<text text-anchor="start" x="234.5" y="-219.5" font-family="Helvetica,sans-Serif" font-size="10.00"># control</text>
<polyline fill="none" stroke="black" points="226.5,-212.5 328.5,-212.5 "/>
<text text-anchor="start" x="234.5" y="-200.5" font-family="Helvetica,sans-Serif" font-size="10.00">+ producer()</text>
<text text-anchor="start" x="234.5" y="-189.5" font-family="Helvetica,sans-Serif" font-size="10.00">+ ~producer()</text>
<text text-anchor="start" x="234.5" y="-178.5" font-family="Helvetica,sans-Serif" font-size="10.00"># control_event()</text>
</a>
</g>
</g>
<!-- Node1&#45;&gt;Node4 -->
<g id="edge3" class="edge">
<title>Node1&#45;&gt;Node4</title>
<path fill="none" stroke="midnightblue" d="M277.5,-321.29C277.5,-300.64 277.5,-279.46 277.5,-261.67"/>
<polygon fill="none" stroke="midnightblue" points="274,-321.36 277.5,-331.36 281,-321.36 274,-321.36"/>
</g>
<!-- Node5 -->
<g id="node5" class="node">
<title>Node5</title>
<g id="a_node5"><a xlink:href="classtransport_1_1Client.html" target="_top" xlink:title=" ">
<polygon fill="none" stroke="black" points="347,-160.5 347,-272.5 452,-272.5 452,-160.5 347,-160.5"/>
<text text-anchor="middle" x="399.5" y="-260.5" font-family="Helvetica,sans-Serif" font-size="10.00">transport::Client</text>
<polyline fill="none" stroke="black" points="347,-253.5 452,-253.5 "/>
<text text-anchor="start" x="355" y="-241.5" font-family="Helvetica,sans-Serif" font-size="10.00">+ message_event</text>
<text text-anchor="start" x="355" y="-230.5" font-family="Helvetica,sans-Serif" font-size="10.00"># packed</text>
<polyline fill="none" stroke="black" points="347,-223.5 452,-223.5 "/>
<text text-anchor="start" x="355" y="-211.5" font-family="Helvetica,sans-Serif" font-size="10.00">+ Client()</text>
<text text-anchor="start" x="355" y="-200.5" font-family="Helvetica,sans-Serif" font-size="10.00">+ ~Client()</text>
<text text-anchor="start" x="355" y="-189.5" font-family="Helvetica,sans-Serif" font-size="10.00">+ loop()</text>
<text text-anchor="start" x="355" y="-178.5" font-family="Helvetica,sans-Serif" font-size="10.00">+ send()</text>
<text text-anchor="start" x="355" y="-167.5" font-family="Helvetica,sans-Serif" font-size="10.00">+ recv()</text>
</a>
</g>
</g>
<!-- Node1&#45;&gt;Node5 -->
<g id="edge4" class="edge">
<title>Node1&#45;&gt;Node5</title>
<path fill="none" stroke="midnightblue" d="M332.4,-322.54C343.24,-305.58 354.33,-288.22 364.29,-272.62"/>
<polygon fill="none" stroke="midnightblue" points="329.2,-321.05 326.77,-331.36 335.1,-324.82 329.2,-321.05"/>
</g>
<!-- Node7 -->
<g id="node7" class="node">
<title>Node7</title>
<g id="a_node7"><a xlink:href="classtransport_1_1Server.html" target="_top" xlink:title=" ">
<polygon fill="none" stroke="black" points="478,-138.5 478,-294.5 583,-294.5 583,-138.5 478,-138.5"/>
<text text-anchor="middle" x="530.5" y="-282.5" font-family="Helvetica,sans-Serif" font-size="10.00">transport::Server</text>
<polyline fill="none" stroke="black" points="478,-275.5 583,-275.5 "/>
<text text-anchor="start" x="486" y="-263.5" font-family="Helvetica,sans-Serif" font-size="10.00"># clients</text>
<text text-anchor="start" x="486" y="-252.5" font-family="Helvetica,sans-Serif" font-size="10.00"># clients_mutex</text>
<text text-anchor="start" x="486" y="-241.5" font-family="Helvetica,sans-Serif" font-size="10.00"># packed</text>
<text text-anchor="start" x="486" y="-230.5" font-family="Helvetica,sans-Serif" font-size="10.00"># message_event</text>
<polyline fill="none" stroke="black" points="478,-223.5 583,-223.5 "/>
<text text-anchor="start" x="486" y="-211.5" font-family="Helvetica,sans-Serif" font-size="10.00">+ ~Server()</text>
<text text-anchor="start" x="486" y="-200.5" font-family="Helvetica,sans-Serif" font-size="10.00">+ Server()</text>
<text text-anchor="start" x="486" y="-189.5" font-family="Helvetica,sans-Serif" font-size="10.00">+ prepare()</text>
<text text-anchor="start" x="486" y="-178.5" font-family="Helvetica,sans-Serif" font-size="10.00">+ broadcast()</text>
<text text-anchor="start" x="486" y="-167.5" font-family="Helvetica,sans-Serif" font-size="10.00">+ set_event()</text>
<text text-anchor="start" x="486" y="-156.5" font-family="Helvetica,sans-Serif" font-size="10.00">+ add()</text>
<text text-anchor="start" x="486" y="-145.5" font-family="Helvetica,sans-Serif" font-size="10.00">+ remove()</text>
</a>
</g>
</g>
<!-- Node1&#45;&gt;Node7 -->
<g id="edge6" class="edge">
<title>Node1&#45;&gt;Node7</title>
<path fill="none" stroke="midnightblue" d="M336.97,-377.66C374.52,-356.81 423.03,-327.27 461.5,-295 467.02,-290.37 472.5,-285.29 477.82,-280.02"/>
<polygon fill="none" stroke="midnightblue" points="335.24,-374.61 328.16,-382.5 338.61,-380.75 335.24,-374.61"/>
</g>
<!-- Node6 -->
<g id="node6" class="node">
<title>Node6</title>
<g id="a_node6"><a xlink:href="classtransport_1_1TCP_1_1Client.html" target="_top" xlink:title=" ">
<polygon fill="none" stroke="black" points="336,-0.5 336,-101.5 455,-101.5 455,-0.5 336,-0.5"/>
<text text-anchor="middle" x="395.5" y="-89.5" font-family="Helvetica,sans-Serif" font-size="10.00">transport::TCP::Client</text>
<polyline fill="none" stroke="black" points="336,-82.5 455,-82.5 "/>
<text text-anchor="middle" x="395.5" y="-70.5" font-family="Helvetica,sans-Serif" font-size="10.00"> </text>
<polyline fill="none" stroke="black" points="336,-63.5 455,-63.5 "/>
<text text-anchor="start" x="344" y="-51.5" font-family="Helvetica,sans-Serif" font-size="10.00">+ Client()</text>
<text text-anchor="start" x="344" y="-40.5" font-family="Helvetica,sans-Serif" font-size="10.00">+ Client()</text>
<text text-anchor="start" x="344" y="-29.5" font-family="Helvetica,sans-Serif" font-size="10.00">+ ~Client()</text>
<text text-anchor="start" x="344" y="-18.5" font-family="Helvetica,sans-Serif" font-size="10.00">+ send()</text>
<text text-anchor="start" x="344" y="-7.5" font-family="Helvetica,sans-Serif" font-size="10.00">+ recv()</text>
</a>
</g>
</g>
<!-- Node5&#45;&gt;Node6 -->
<g id="edge5" class="edge">
<title>Node5&#45;&gt;Node6</title>
<path fill="none" stroke="midnightblue" d="M397.89,-149.73C397.5,-133.65 397.08,-116.71 396.71,-101.53"/>
<polygon fill="none" stroke="midnightblue" points="394.4,-150.23 398.15,-160.15 401.4,-150.06 394.4,-150.23"/>
</g>
<!-- Node8 -->
<g id="node8" class="node">
<title>Node8</title>
<g id="a_node8"><a xlink:href="classtransport_1_1TCP_1_1Server.html" target="_top" xlink:title=" ">
<polygon fill="none" stroke="black" points="473.5,-17 473.5,-85 595.5,-85 595.5,-17 473.5,-17"/>
<text text-anchor="middle" x="534.5" y="-73" font-family="Helvetica,sans-Serif" font-size="10.00">transport::TCP::Server</text>
<polyline fill="none" stroke="black" points="473.5,-66 595.5,-66 "/>
<text text-anchor="middle" x="534.5" y="-54" font-family="Helvetica,sans-Serif" font-size="10.00"> </text>
<polyline fill="none" stroke="black" points="473.5,-47 595.5,-47 "/>
<text text-anchor="start" x="481.5" y="-35" font-family="Helvetica,sans-Serif" font-size="10.00">+ Server()</text>
<text text-anchor="start" x="481.5" y="-24" font-family="Helvetica,sans-Serif" font-size="10.00">+ loop()</text>
</a>
</g>
</g>
<!-- Node7&#45;&gt;Node8 -->
<g id="edge7" class="edge">
<title>Node7&#45;&gt;Node8</title>
<path fill="none" stroke="midnightblue" d="M532.64,-128C533.01,-112.71 533.38,-97.69 533.69,-85.1"/>
<polygon fill="none" stroke="midnightblue" points="529.14,-127.98 532.39,-138.06 536.14,-128.15 529.14,-127.98"/>
</g>
</g>
</svg>
