<?xml version="1.0" encoding="UTF-8" standalone="no"?>
<!DOCTYPE svg PUBLIC "-//W3C//DTD SVG 1.1//EN"
 "http://www.w3.org/Graphics/SVG/1.1/DTD/svg11.dtd">
<!-- Generated by graphviz version 2.43.0 (0)
 -->
<!-- Title: auth::Authenticator Pages: 1 -->
<svg width="162pt" height="171pt"
 viewBox="0.00 0.00 162.00 171.00" xmlns="http://www.w3.org/2000/svg" xmlns:xlink="http://www.w3.org/1999/xlink">
<g id="graph0" class="graph" transform="scale(1 1) rotate(0) translate(4 167)">
<title>auth::Authenticator</title>
<!-- Node1 -->
<g id="node1" class="node">
<title>Node1</title>
<g id="a_node1"><a xlink:title=" ">
<polygon fill="#bfbfbf" stroke="black" points="20,-105.5 20,-162.5 130,-162.5 130,-105.5 20,-105.5"/>
<text text-anchor="middle" x="75" y="-150.5" font-family="Helvetica,sans-Serif" font-size="10.00">auth::Authenticator</text>
<polyline fill="none" stroke="black" points="20,-143.5 130,-143.5 "/>
<text text-anchor="middle" x="75" y="-131.5" font-family="Helvetica,sans-Serif" font-size="10.00"> </text>
<polyline fill="none" stroke="black" points="20,-124.5 130,-124.5 "/>
<text text-anchor="start" x="28" y="-112.5" font-family="Helvetica,sans-Serif" font-size="10.00">+ check()</text>
</a>
</g>
</g>
<!-- Node2 -->
<g id="node2" class="node">
<title>Node2</title>
<g id="a_node2"><a xlink:href="classauth_1_1PSK.html" target="_top" xlink:title=" ">
<polygon fill="none" stroke="black" points="0,-0.5 0,-68.5 64,-68.5 64,-0.5 0,-0.5"/>
<text text-anchor="middle" x="32" y="-56.5" font-family="Helvetica,sans-Serif" font-size="10.00">auth::PSK</text>
<polyline fill="none" stroke="black" points="0,-49.5 64,-49.5 "/>
<text text-anchor="middle" x="32" y="-37.5" font-family="Helvetica,sans-Serif" font-size="10.00"> </text>
<polyline fill="none" stroke="black" points="0,-30.5 64,-30.5 "/>
<text text-anchor="start" x="8" y="-18.5" font-family="Helvetica,sans-Serif" font-size="10.00">+ PSK()</text>
<text text-anchor="start" x="8" y="-7.5" font-family="Helvetica,sans-Serif" font-size="10.00">+ check()</text>
</a>
</g>
</g>
<!-- Node1&#45;&gt;Node2 -->
<g id="edge1" class="edge">
<title>Node1&#45;&gt;Node2</title>
<path fill="none" stroke="midnightblue" d="M58.65,-95.92C54.71,-87 50.53,-77.52 46.68,-68.79"/>
<polygon fill="none" stroke="midnightblue" points="55.56,-97.58 62.79,-105.32 61.96,-94.76 55.56,-97.58"/>
</g>
<!-- Node3 -->
<g id="node3" class="node">
<title>Node3</title>
<g id="a_node3"><a xlink:href="classauth_1_1Token.html" target="_top" xlink:title=" ">
<polygon fill="none" stroke="black" points="82,-6 82,-63 154,-63 154,-6 82,-6"/>
<text text-anchor="middle" x="118" y="-51" font-family="Helvetica,sans-Serif" font-size="10.00">auth::Token</text>
<polyline fill="none" stroke="black" points="82,-44 154,-44 "/>
<text text-anchor="middle" x="118" y="-32" font-family="Helvetica,sans-Serif" font-size="10.00"> </text>
<polyline fill="none" stroke="black" points="82,-25 154,-25 "/>
<text text-anchor="start" x="90" y="-13" font-family="Helvetica,sans-Serif" font-size="10.00">+ check()</text>
</a>
</g>
</g>
<!-- Node1&#45;&gt;Node3 -->
<g id="edge2" class="edge">
<title>Node1&#45;&gt;Node3</title>
<path fill="none" stroke="midnightblue" d="M91.3,-96.03C96.1,-85.16 101.27,-73.44 105.76,-63.25"/>
<polygon fill="none" stroke="midnightblue" points="88.04,-94.76 87.21,-105.32 94.44,-97.58 88.04,-94.76"/>
</g>
</g>
</svg>
