<?xml version="1.0" encoding="UTF-8" standalone="no"?>
<!DOCTYPE svg PUBLIC "-//W3C//DTD SVG 1.1//EN"
 "http://www.w3.org/Graphics/SVG/1.1/DTD/svg11.dtd">
<!-- Generated by graphviz version 2.43.0 (0)
 -->
<!-- Title: Authentication::PSK Pages: 1 -->
<svg width="168pt" height="171pt"
 viewBox="0.00 0.00 168.00 171.00" xmlns="http://www.w3.org/2000/svg" xmlns:xlink="http://www.w3.org/1999/xlink">
<g id="graph0" class="graph" transform="scale(1 1) rotate(0) translate(4 167)">
<title>Authentication::PSK</title>
<!-- Node1 -->
<g id="node1" class="node">
<title>Node1</title>
<g id="a_node1"><a xlink:title=" ">
<polygon fill="#bfbfbf" stroke="black" points="23.5,-0.5 23.5,-68.5 136.5,-68.5 136.5,-0.5 23.5,-0.5"/>
<text text-anchor="middle" x="80" y="-56.5" font-family="Helvetica,sans-Serif" font-size="10.00">Authentication::PSK</text>
<polyline fill="none" stroke="black" points="23.5,-49.5 136.5,-49.5 "/>
<text text-anchor="middle" x="80" y="-37.5" font-family="Helvetica,sans-Serif" font-size="10.00"> </text>
<polyline fill="none" stroke="black" points="23.5,-30.5 136.5,-30.5 "/>
<text text-anchor="start" x="31.5" y="-18.5" font-family="Helvetica,sans-Serif" font-size="10.00">+ PSK()</text>
<text text-anchor="start" x="31.5" y="-7.5" font-family="Helvetica,sans-Serif" font-size="10.00">+ check()</text>
</a>
</g>
</g>
<!-- Node2 -->
<g id="node2" class="node">
<title>Node2</title>
<g id="a_node2"><a xlink:href="classAuthentication_1_1Authenticator.html" target="_top" xlink:title=" ">
<polygon fill="none" stroke="black" points="0,-105.5 0,-162.5 160,-162.5 160,-105.5 0,-105.5"/>
<text text-anchor="middle" x="80" y="-150.5" font-family="Helvetica,sans-Serif" font-size="10.00">Authentication::Authenticator</text>
<polyline fill="none" stroke="black" points="0,-143.5 160,-143.5 "/>
<text text-anchor="middle" x="80" y="-131.5" font-family="Helvetica,sans-Serif" font-size="10.00"> </text>
<polyline fill="none" stroke="black" points="0,-124.5 160,-124.5 "/>
<text text-anchor="start" x="8" y="-112.5" font-family="Helvetica,sans-Serif" font-size="10.00">+ check()</text>
</a>
</g>
</g>
<!-- Node2&#45;&gt;Node1 -->
<g id="edge1" class="edge">
<title>Node2&#45;&gt;Node1</title>
<path fill="none" stroke="midnightblue" d="M80,-95.06C80,-86.39 80,-77.24 80,-68.79"/>
<polygon fill="none" stroke="midnightblue" points="76.5,-95.32 80,-105.32 83.5,-95.32 76.5,-95.32"/>
</g>
</g>
</svg>
