<?xml version="1.0" encoding="UTF-8" standalone="no"?>
<!DOCTYPE svg PUBLIC "-//W3C//DTD SVG 1.1//EN"
 "http://www.w3.org/Graphics/SVG/1.1/DTD/svg11.dtd">
<!-- Generated by graphviz version 2.43.0 (0)
 -->
<!-- Title: UI::Control Pages: 1 -->
<svg width="325pt" height="226pt"
 viewBox="0.00 0.00 324.50 226.00" xmlns="http://www.w3.org/2000/svg" xmlns:xlink="http://www.w3.org/1999/xlink">
<g id="graph0" class="graph" transform="scale(1 1) rotate(0) translate(4 222)">
<title>UI::Control</title>
<!-- Node1 -->
<g id="node1" class="node">
<title>Node1</title>
<g id="a_node1"><a xlink:title=" ">
<polygon fill="#bfbfbf" stroke="black" points="135.5,-0.5 135.5,-68.5 214.5,-68.5 214.5,-0.5 135.5,-0.5"/>
<text text-anchor="middle" x="175" y="-56.5" font-family="Helvetica,sans-Serif" font-size="10.00">UI::Control</text>
<polyline fill="none" stroke="black" points="135.5,-49.5 214.5,-49.5 "/>
<text text-anchor="middle" x="175" y="-37.5" font-family="Helvetica,sans-Serif" font-size="10.00"> </text>
<polyline fill="none" stroke="black" points="135.5,-30.5 214.5,-30.5 "/>
<text text-anchor="start" x="143.5" y="-18.5" font-family="Helvetica,sans-Serif" font-size="10.00">+ Control()</text>
<text text-anchor="start" x="143.5" y="-7.5" font-family="Helvetica,sans-Serif" font-size="10.00">+ ~Control()</text>
</a>
</g>
</g>
<!-- Node2 -->
<g id="node2" class="node">
<title>Node2</title>
<g id="a_node2"><a xlink:href="classUtil_1_1configurable.html" target="_top" xlink:title=" ">
<polygon fill="none" stroke="black" points="0,-111 0,-212 104,-212 104,-111 0,-111"/>
<text text-anchor="start" x="8" y="-200" font-family="Helvetica,sans-Serif" font-size="10.00">Util::configurable</text>
<text text-anchor="middle" x="52" y="-189" font-family="Helvetica,sans-Serif" font-size="10.00">&lt; config::UI &gt;</text>
<polyline fill="none" stroke="black" points="0,-182 104,-182 "/>
<text text-anchor="start" x="8" y="-170" font-family="Helvetica,sans-Serif" font-size="10.00">+ config</text>
<text text-anchor="start" x="8" y="-159" font-family="Helvetica,sans-Serif" font-size="10.00"># _lock</text>
<polyline fill="none" stroke="black" points="0,-152 104,-152 "/>
<text text-anchor="start" x="8" y="-140" font-family="Helvetica,sans-Serif" font-size="10.00">+ configurable()</text>
<text text-anchor="start" x="8" y="-129" font-family="Helvetica,sans-Serif" font-size="10.00">+ ~configurable()</text>
<text text-anchor="start" x="8" y="-118" font-family="Helvetica,sans-Serif" font-size="10.00">+ lock()</text>
</a>
</g>
</g>
<!-- Node2&#45;&gt;Node1 -->
<g id="edge1" class="edge">
<title>Node2&#45;&gt;Node1</title>
<path fill="none" stroke="midnightblue" d="M108.22,-103.37C119.94,-91.46 131.91,-79.29 142.43,-68.6"/>
<polygon fill="none" stroke="midnightblue" points="105.49,-101.15 100.97,-110.74 110.47,-106.06 105.49,-101.15"/>
</g>
<!-- Node3 -->
<g id="node3" class="node">
<title>Node3</title>
<g id="a_node3"><a xlink:href="structThreading_1_1Worker.html" target="_top" xlink:title=" ">
<polygon fill="none" stroke="black" points="122.5,-105.5 122.5,-217.5 227.5,-217.5 227.5,-105.5 122.5,-105.5"/>
<text text-anchor="middle" x="175" y="-205.5" font-family="Helvetica,sans-Serif" font-size="10.00">Threading::Worker</text>
<polyline fill="none" stroke="black" points="122.5,-198.5 227.5,-198.5 "/>
<text text-anchor="start" x="130.5" y="-186.5" font-family="Helvetica,sans-Serif" font-size="10.00">+ executor</text>
<text text-anchor="start" x="130.5" y="-175.5" font-family="Helvetica,sans-Serif" font-size="10.00"># event_loop</text>
<text text-anchor="start" x="130.5" y="-164.5" font-family="Helvetica,sans-Serif" font-size="10.00"># wait_scope</text>
<polyline fill="none" stroke="black" points="122.5,-157.5 227.5,-157.5 "/>
<text text-anchor="start" x="130.5" y="-145.5" font-family="Helvetica,sans-Serif" font-size="10.00">+ Worker()</text>
<text text-anchor="start" x="130.5" y="-134.5" font-family="Helvetica,sans-Serif" font-size="10.00">+ ~Worker()</text>
<text text-anchor="start" x="130.5" y="-123.5" font-family="Helvetica,sans-Serif" font-size="10.00">+ operator()()</text>
<text text-anchor="start" x="130.5" y="-112.5" font-family="Helvetica,sans-Serif" font-size="10.00">+ loop()</text>
</a>
</g>
</g>
<!-- Node3&#45;&gt;Node1 -->
<g id="edge2" class="edge">
<title>Node3&#45;&gt;Node1</title>
<path fill="none" stroke="midnightblue" d="M175,-95.26C175,-85.99 175,-76.8 175,-68.51"/>
<polygon fill="none" stroke="midnightblue" points="171.5,-95.31 175,-105.31 178.5,-95.31 171.5,-95.31"/>
</g>
<!-- Node4 -->
<g id="node4" class="node">
<title>Node4</title>
<g id="a_node4"><a xlink:title=" ">
<polygon fill="none" stroke="black" points="245.5,-133 245.5,-190 316.5,-190 316.5,-133 245.5,-133"/>
<text text-anchor="middle" x="281" y="-178" font-family="Helvetica,sans-Serif" font-size="10.00">UIC::Server</text>
<polyline fill="none" stroke="black" points="245.5,-171 316.5,-171 "/>
<text text-anchor="middle" x="281" y="-159" font-family="Helvetica,sans-Serif" font-size="10.00"> </text>
<polyline fill="none" stroke="black" points="245.5,-152 316.5,-152 "/>
<text text-anchor="middle" x="281" y="-140" font-family="Helvetica,sans-Serif" font-size="10.00"> </text>
</a>
</g>
</g>
<!-- Node4&#45;&gt;Node1 -->
<g id="edge3" class="edge">
<title>Node4&#45;&gt;Node1</title>
<path fill="none" stroke="midnightblue" d="M253.09,-124.66C247.81,-118.07 242.29,-111.29 237,-105 226.9,-93 215.56,-80.11 205.36,-68.74"/>
<polygon fill="none" stroke="midnightblue" points="250.64,-127.21 259.6,-132.86 256.12,-122.86 250.64,-127.21"/>
</g>
</g>
</svg>
