<?xml version="1.0" encoding="UTF-8" standalone="no"?>
<!DOCTYPE svg PUBLIC "-//W3C//DTD SVG 1.1//EN"
 "http://www.w3.org/Graphics/SVG/1.1/DTD/svg11.dtd">
<!-- Generated by graphviz version 2.43.0 (0)
 -->
<!-- Title: UI::Control Pages: 1 -->
<svg width="321pt" height="270pt"
 viewBox="0.00 0.00 320.50 270.00" xmlns="http://www.w3.org/2000/svg" xmlns:xlink="http://www.w3.org/1999/xlink">
<g id="graph0" class="graph" transform="scale(1 1) rotate(0) translate(4 266)">
<title>UI::Control</title>
<!-- Node1 -->
<g id="node1" class="node">
<title>Node1</title>
<g id="a_node1"><a xlink:title=" ">
<polygon fill="#bfbfbf" stroke="black" points="133.5,-0.5 133.5,-68.5 212.5,-68.5 212.5,-0.5 133.5,-0.5"/>
<text text-anchor="middle" x="173" y="-56.5" font-family="Helvetica,sans-Serif" font-size="10.00">UI::Control</text>
<polyline fill="none" stroke="black" points="133.5,-49.5 212.5,-49.5 "/>
<text text-anchor="middle" x="173" y="-37.5" font-family="Helvetica,sans-Serif" font-size="10.00"> </text>
<polyline fill="none" stroke="black" points="133.5,-30.5 212.5,-30.5 "/>
<text text-anchor="start" x="141.5" y="-18.5" font-family="Helvetica,sans-Serif" font-size="10.00">+ Control()</text>
<text text-anchor="start" x="141.5" y="-7.5" font-family="Helvetica,sans-Serif" font-size="10.00">+ ~Control()</text>
</a>
</g>
</g>
<!-- Node2 -->
<g id="node2" class="node">
<title>Node2</title>
<g id="a_node2"><a xlink:href="classutil_1_1configurable.html" target="_top" xlink:title=" ">
<polygon fill="none" stroke="black" points="0,-133 0,-234 104,-234 104,-133 0,-133"/>
<text text-anchor="start" x="8" y="-222" font-family="Helvetica,sans-Serif" font-size="10.00">util::configurable</text>
<text text-anchor="middle" x="52" y="-211" font-family="Helvetica,sans-Serif" font-size="10.00">&lt; config::UI &gt;</text>
<polyline fill="none" stroke="black" points="0,-204 104,-204 "/>
<text text-anchor="start" x="8" y="-192" font-family="Helvetica,sans-Serif" font-size="10.00">+ config</text>
<text text-anchor="start" x="8" y="-181" font-family="Helvetica,sans-Serif" font-size="10.00"># _lock</text>
<polyline fill="none" stroke="black" points="0,-174 104,-174 "/>
<text text-anchor="start" x="8" y="-162" font-family="Helvetica,sans-Serif" font-size="10.00">+ configurable()</text>
<text text-anchor="start" x="8" y="-151" font-family="Helvetica,sans-Serif" font-size="10.00">+ ~configurable()</text>
<text text-anchor="start" x="8" y="-140" font-family="Helvetica,sans-Serif" font-size="10.00">+ lock()</text>
</a>
</g>
</g>
<!-- Node2&#45;&gt;Node1 -->
<g id="edge1" class="edge">
<title>Node2&#45;&gt;Node1</title>
<path fill="none" stroke="midnightblue" d="M96.96,-124.78C102.32,-118.07 107.75,-111.36 113,-105 122.84,-93.07 133.83,-80.2 143.7,-68.82"/>
<polygon fill="none" stroke="midnightblue" points="94.21,-122.62 90.72,-132.62 99.69,-126.98 94.21,-122.62"/>
</g>
<!-- Node3 -->
<g id="node3" class="node">
<title>Node3</title>
<g id="a_node3"><a xlink:href="classrunnable.html" target="_top" xlink:title=" ">
<polygon fill="none" stroke="black" points="122.5,-105.5 122.5,-261.5 223.5,-261.5 223.5,-105.5 122.5,-105.5"/>
<text text-anchor="middle" x="173" y="-249.5" font-family="Helvetica,sans-Serif" font-size="10.00">runnable</text>
<polyline fill="none" stroke="black" points="122.5,-242.5 223.5,-242.5 "/>
<text text-anchor="start" x="130.5" y="-230.5" font-family="Helvetica,sans-Serif" font-size="10.00"># thread</text>
<text text-anchor="start" x="130.5" y="-219.5" font-family="Helvetica,sans-Serif" font-size="10.00"># callback</text>
<polyline fill="none" stroke="black" points="122.5,-212.5 223.5,-212.5 "/>
<text text-anchor="start" x="130.5" y="-200.5" font-family="Helvetica,sans-Serif" font-size="10.00">+ runnable()</text>
<text text-anchor="start" x="130.5" y="-189.5" font-family="Helvetica,sans-Serif" font-size="10.00">+ ~runnable()</text>
<text text-anchor="start" x="130.5" y="-178.5" font-family="Helvetica,sans-Serif" font-size="10.00">+ operator()()</text>
<text text-anchor="start" x="130.5" y="-167.5" font-family="Helvetica,sans-Serif" font-size="10.00">+ run()</text>
<text text-anchor="start" x="130.5" y="-156.5" font-family="Helvetica,sans-Serif" font-size="10.00">+ run()</text>
<text text-anchor="start" x="130.5" y="-145.5" font-family="Helvetica,sans-Serif" font-size="10.00">+ stop()</text>
<text text-anchor="start" x="130.5" y="-134.5" font-family="Helvetica,sans-Serif" font-size="10.00">+ operator&lt;=&gt;()</text>
<text text-anchor="start" x="130.5" y="-123.5" font-family="Helvetica,sans-Serif" font-size="10.00"># setup()</text>
<text text-anchor="start" x="130.5" y="-112.5" font-family="Helvetica,sans-Serif" font-size="10.00"># loop()</text>
</a>
</g>
</g>
<!-- Node3&#45;&gt;Node1 -->
<g id="edge2" class="edge">
<title>Node3&#45;&gt;Node1</title>
<path fill="none" stroke="midnightblue" d="M173,-94.94C173,-85.63 173,-76.64 173,-68.59"/>
<polygon fill="none" stroke="midnightblue" points="169.5,-95.13 173,-105.13 176.5,-95.13 169.5,-95.13"/>
</g>
<!-- Node4 -->
<g id="node4" class="node">
<title>Node4</title>
<g id="a_node4"><a xlink:title=" ">
<polygon fill="none" stroke="black" points="241.5,-155 241.5,-212 312.5,-212 312.5,-155 241.5,-155"/>
<text text-anchor="middle" x="277" y="-200" font-family="Helvetica,sans-Serif" font-size="10.00">UIC::Server</text>
<polyline fill="none" stroke="black" points="241.5,-193 312.5,-193 "/>
<text text-anchor="middle" x="277" y="-181" font-family="Helvetica,sans-Serif" font-size="10.00"> </text>
<polyline fill="none" stroke="black" points="241.5,-174 312.5,-174 "/>
<text text-anchor="middle" x="277" y="-162" font-family="Helvetica,sans-Serif" font-size="10.00"> </text>
</a>
</g>
</g>
<!-- Node4&#45;&gt;Node1 -->
<g id="edge3" class="edge">
<title>Node4&#45;&gt;Node1</title>
<path fill="none" stroke="midnightblue" d="M258.17,-145.94C250.85,-132.69 242.06,-117.84 233,-105 224.27,-92.62 213.76,-79.86 203.99,-68.71"/>
<polygon fill="none" stroke="midnightblue" points="255.14,-147.68 262.98,-154.8 261.29,-144.35 255.14,-147.68"/>
</g>
</g>
</svg>
