<?xml version="1.0" encoding="UTF-8" standalone="no"?>
<!DOCTYPE svg PUBLIC "-//W3C//DTD SVG 1.1//EN"
 "http://www.w3.org/Graphics/SVG/1.1/DTD/svg11.dtd">
<!-- Generated by graphviz version 2.43.0 (0)
 -->
<!-- Title: ui Pages: 1 -->
<svg width="127pt" height="336pt"
 viewBox="0.00 0.00 127.00 336.00" xmlns="http://www.w3.org/2000/svg" xmlns:xlink="http://www.w3.org/1999/xlink">
<g id="graph0" class="graph" transform="scale(1 1) rotate(0) translate(4 332)">
<title>ui</title>
<!-- Node1 -->
<g id="node1" class="node">
<title>Node1</title>
<g id="a_node1"><a xlink:title=" ">
<polygon fill="#bfbfbf" stroke="black" points="0,-0.5 0,-112.5 119,-112.5 119,-0.5 0,-0.5"/>
<text text-anchor="middle" x="59.5" y="-100.5" font-family="Helvetica,sans-Serif" font-size="10.00">ui</text>
<polyline fill="none" stroke="black" points="0,-93.5 119,-93.5 "/>
<text text-anchor="middle" x="59.5" y="-81.5" font-family="Helvetica,sans-Serif" font-size="10.00"> </text>
<polyline fill="none" stroke="black" points="0,-74.5 119,-74.5 "/>
<text text-anchor="start" x="8" y="-62.5" font-family="Helvetica,sans-Serif" font-size="10.00">+ ui()</text>
<text text-anchor="start" x="8" y="-51.5" font-family="Helvetica,sans-Serif" font-size="10.00">+ operator=()</text>
<text text-anchor="start" x="8" y="-40.5" font-family="Helvetica,sans-Serif" font-size="10.00">+ ~ui()</text>
<text text-anchor="start" x="8" y="-29.5" font-family="Helvetica,sans-Serif" font-size="10.00">+ attach()</text>
<text text-anchor="start" x="8" y="-18.5" font-family="Helvetica,sans-Serif" font-size="10.00">+ Instance()</text>
<text text-anchor="start" x="8" y="-7.5" font-family="Helvetica,sans-Serif" font-size="10.00">+ toggle_fullscreen()</text>
</a>
</g>
</g>
<!-- Node2 -->
<g id="node2" class="node">
<title>Node2</title>
<g id="a_node2"><a xlink:href="classrunnable.html" target="_top" xlink:title=" ">
<polygon fill="none" stroke="black" points="9,-149.5 9,-327.5 110,-327.5 110,-149.5 9,-149.5"/>
<text text-anchor="middle" x="59.5" y="-315.5" font-family="Helvetica,sans-Serif" font-size="10.00">runnable</text>
<polyline fill="none" stroke="black" points="9,-308.5 110,-308.5 "/>
<text text-anchor="start" x="17" y="-296.5" font-family="Helvetica,sans-Serif" font-size="10.00"># thread</text>
<text text-anchor="start" x="17" y="-285.5" font-family="Helvetica,sans-Serif" font-size="10.00"># callback</text>
<polyline fill="none" stroke="black" points="9,-278.5 110,-278.5 "/>
<text text-anchor="start" x="17" y="-266.5" font-family="Helvetica,sans-Serif" font-size="10.00">+ runnable()</text>
<text text-anchor="start" x="17" y="-255.5" font-family="Helvetica,sans-Serif" font-size="10.00">+ ~runnable()</text>
<text text-anchor="start" x="17" y="-244.5" font-family="Helvetica,sans-Serif" font-size="10.00">+ operator()()</text>
<text text-anchor="start" x="17" y="-233.5" font-family="Helvetica,sans-Serif" font-size="10.00">+ run()</text>
<text text-anchor="start" x="17" y="-222.5" font-family="Helvetica,sans-Serif" font-size="10.00">+ run()</text>
<text text-anchor="start" x="17" y="-211.5" font-family="Helvetica,sans-Serif" font-size="10.00">+ run()</text>
<text text-anchor="start" x="17" y="-200.5" font-family="Helvetica,sans-Serif" font-size="10.00">+ run()</text>
<text text-anchor="start" x="17" y="-189.5" font-family="Helvetica,sans-Serif" font-size="10.00">+ stop()</text>
<text text-anchor="start" x="17" y="-178.5" font-family="Helvetica,sans-Serif" font-size="10.00">+ operator&lt;=&gt;()</text>
<text text-anchor="start" x="17" y="-167.5" font-family="Helvetica,sans-Serif" font-size="10.00"># setup()</text>
<text text-anchor="start" x="17" y="-156.5" font-family="Helvetica,sans-Serif" font-size="10.00"># loop()</text>
</a>
</g>
</g>
<!-- Node2&#45;&gt;Node1 -->
<g id="edge1" class="edge">
<title>Node2&#45;&gt;Node1</title>
<path fill="none" stroke="midnightblue" d="M59.5,-139.12C59.5,-130.1 59.5,-121.18 59.5,-112.75"/>
<polygon fill="none" stroke="midnightblue" points="56,-139.35 59.5,-149.35 63,-139.35 56,-139.35"/>
</g>
</g>
</svg>
