<?xml version="1.0" encoding="UTF-8" standalone="no"?>
<!DOCTYPE svg PUBLIC "-//W3C//DTD SVG 1.1//EN"
 "http://www.w3.org/Graphics/SVG/1.1/DTD/svg11.dtd">
<!-- Generated by graphviz version 2.43.0 (0)
 -->
<!-- Title: rpc::Server Pages: 1 -->
<svg width="276pt" height="380pt"
 viewBox="0.00 0.00 276.00 380.00" xmlns="http://www.w3.org/2000/svg" xmlns:xlink="http://www.w3.org/1999/xlink">
<g id="graph0" class="graph" transform="scale(1 1) rotate(0) translate(4 376)">
<title>rpc::Server</title>
<!-- Node1 -->
<g id="node1" class="node">
<title>Node1</title>
<g id="a_node1"><a xlink:title=" ">
<polygon fill="#bfbfbf" stroke="black" points="68,-0.5 68,-156.5 175,-156.5 175,-0.5 68,-0.5"/>
<text text-anchor="middle" x="121.5" y="-144.5" font-family="Helvetica,sans-Serif" font-size="10.00">rpc::Server</text>
<polyline fill="none" stroke="black" points="68,-137.5 175,-137.5 "/>
<text text-anchor="start" x="76" y="-125.5" font-family="Helvetica,sans-Serif" font-size="10.00"># interface</text>
<text text-anchor="start" x="76" y="-114.5" font-family="Helvetica,sans-Serif" font-size="10.00"># contexts_mutex</text>
<text text-anchor="start" x="76" y="-103.5" font-family="Helvetica,sans-Serif" font-size="10.00"># contexts</text>
<text text-anchor="start" x="76" y="-92.5" font-family="Helvetica,sans-Serif" font-size="10.00"># io</text>
<polyline fill="none" stroke="black" points="68,-85.5 175,-85.5 "/>
<text text-anchor="start" x="76" y="-73.5" font-family="Helvetica,sans-Serif" font-size="10.00">+ Server()</text>
<text text-anchor="start" x="76" y="-62.5" font-family="Helvetica,sans-Serif" font-size="10.00">+ ~Server()</text>
<text text-anchor="start" x="76" y="-51.5" font-family="Helvetica,sans-Serif" font-size="10.00">+ broadcast()</text>
<text text-anchor="start" x="76" y="-40.5" font-family="Helvetica,sans-Serif" font-size="10.00">+ datachannel()</text>
<text text-anchor="start" x="76" y="-29.5" font-family="Helvetica,sans-Serif" font-size="10.00"># accept()</text>
<text text-anchor="start" x="76" y="-18.5" font-family="Helvetica,sans-Serif" font-size="10.00"># remove()</text>
<text text-anchor="start" x="76" y="-7.5" font-family="Helvetica,sans-Serif" font-size="10.00"># authenticate()</text>
</a>
</g>
</g>
<!-- Node2 -->
<g id="node2" class="node">
<title>Node2</title>
<g id="a_node2"><a xlink:href="classrunnable.html" target="_top" xlink:title=" ">
<polygon fill="none" stroke="black" points="0,-193.5 0,-371.5 101,-371.5 101,-193.5 0,-193.5"/>
<text text-anchor="middle" x="50.5" y="-359.5" font-family="Helvetica,sans-Serif" font-size="10.00">runnable</text>
<polyline fill="none" stroke="black" points="0,-352.5 101,-352.5 "/>
<text text-anchor="start" x="8" y="-340.5" font-family="Helvetica,sans-Serif" font-size="10.00"># thread</text>
<text text-anchor="start" x="8" y="-329.5" font-family="Helvetica,sans-Serif" font-size="10.00"># callback</text>
<polyline fill="none" stroke="black" points="0,-322.5 101,-322.5 "/>
<text text-anchor="start" x="8" y="-310.5" font-family="Helvetica,sans-Serif" font-size="10.00">+ runnable()</text>
<text text-anchor="start" x="8" y="-299.5" font-family="Helvetica,sans-Serif" font-size="10.00">+ ~runnable()</text>
<text text-anchor="start" x="8" y="-288.5" font-family="Helvetica,sans-Serif" font-size="10.00">+ operator()()</text>
<text text-anchor="start" x="8" y="-277.5" font-family="Helvetica,sans-Serif" font-size="10.00">+ run()</text>
<text text-anchor="start" x="8" y="-266.5" font-family="Helvetica,sans-Serif" font-size="10.00">+ run()</text>
<text text-anchor="start" x="8" y="-255.5" font-family="Helvetica,sans-Serif" font-size="10.00">+ run()</text>
<text text-anchor="start" x="8" y="-244.5" font-family="Helvetica,sans-Serif" font-size="10.00">+ run()</text>
<text text-anchor="start" x="8" y="-233.5" font-family="Helvetica,sans-Serif" font-size="10.00">+ stop()</text>
<text text-anchor="start" x="8" y="-222.5" font-family="Helvetica,sans-Serif" font-size="10.00">+ operator&lt;=&gt;()</text>
<text text-anchor="start" x="8" y="-211.5" font-family="Helvetica,sans-Serif" font-size="10.00"># setup()</text>
<text text-anchor="start" x="8" y="-200.5" font-family="Helvetica,sans-Serif" font-size="10.00"># loop()</text>
</a>
</g>
</g>
<!-- Node2&#45;&gt;Node1 -->
<g id="edge1" class="edge">
<title>Node2&#45;&gt;Node1</title>
<path fill="none" stroke="midnightblue" d="M84.77,-183.99C87.98,-174.85 91.21,-165.68 94.34,-156.77"/>
<polygon fill="none" stroke="midnightblue" points="81.45,-182.89 81.44,-193.49 88.05,-185.21 81.45,-182.89"/>
</g>
<!-- Node3 -->
<g id="node3" class="node">
<title>Node3</title>
<g id="a_node3"><a xlink:href="classutil_1_1Factory.html" target="_top" xlink:title=" ">
<polygon fill="none" stroke="black" points="119,-243 119,-322 268,-322 268,-243 119,-243"/>
<text text-anchor="start" x="127" y="-310" font-family="Helvetica,sans-Serif" font-size="10.00">util::Factory&lt; Server,</text>
<text text-anchor="middle" x="193.5" y="-299" font-family="Helvetica,sans-Serif" font-size="10.00"> capnp::Capability::Client &gt;</text>
<polyline fill="none" stroke="black" points="119,-292 268,-292 "/>
<text text-anchor="start" x="127" y="-280" font-family="Helvetica,sans-Serif" font-size="10.00">+ base_t</text>
<polyline fill="none" stroke="black" points="119,-273 268,-273 "/>
<text text-anchor="start" x="127" y="-261" font-family="Helvetica,sans-Serif" font-size="10.00">+ make()</text>
<text text-anchor="start" x="127" y="-250" font-family="Helvetica,sans-Serif" font-size="10.00">+ map()</text>
</a>
</g>
</g>
<!-- Node3&#45;&gt;Node1 -->
<g id="edge2" class="edge">
<title>Node3&#45;&gt;Node1</title>
<path fill="none" stroke="midnightblue" d="M176.25,-233.09C168.11,-210.26 158.2,-182.45 149.05,-156.8"/>
<polygon fill="none" stroke="midnightblue" points="172.96,-234.31 179.62,-242.55 179.56,-231.96 172.96,-234.31"/>
</g>
</g>
</svg>
