<?xml version="1.0" encoding="UTF-8" standalone="no"?>
<!DOCTYPE svg PUBLIC "-//W3C//DTD SVG 1.1//EN"
 "http://www.w3.org/Graphics/SVG/1.1/DTD/svg11.dtd">
<!-- Generated by graphviz version 2.43.0 (0)
 -->
<!-- Title: rpc::Server Pages: 1 -->
<svg width="276pt" height="347pt"
 viewBox="0.00 0.00 276.00 347.00" xmlns="http://www.w3.org/2000/svg" xmlns:xlink="http://www.w3.org/1999/xlink">
<g id="graph0" class="graph" transform="scale(1 1) rotate(0) translate(4 343)">
<title>rpc::Server</title>
<!-- Node1 -->
<g id="node1" class="node">
<title>Node1</title>
<g id="a_node1"><a xlink:title=" ">
<polygon fill="#bfbfbf" stroke="black" points="68,-0.5 68,-145.5 175,-145.5 175,-0.5 68,-0.5"/>
<text text-anchor="middle" x="121.5" y="-133.5" font-family="Helvetica,sans-Serif" font-size="10.00">rpc::Server</text>
<polyline fill="none" stroke="black" points="68,-126.5 175,-126.5 "/>
<text text-anchor="start" x="76" y="-114.5" font-family="Helvetica,sans-Serif" font-size="10.00"># err_handler</text>
<text text-anchor="start" x="76" y="-103.5" font-family="Helvetica,sans-Serif" font-size="10.00"># tasks</text>
<text text-anchor="start" x="76" y="-92.5" font-family="Helvetica,sans-Serif" font-size="10.00"># interface</text>
<text text-anchor="start" x="76" y="-81.5" font-family="Helvetica,sans-Serif" font-size="10.00"># contexts_mutex</text>
<text text-anchor="start" x="76" y="-70.5" font-family="Helvetica,sans-Serif" font-size="10.00"># contexts</text>
<polyline fill="none" stroke="black" points="68,-63.5 175,-63.5 "/>
<text text-anchor="start" x="76" y="-51.5" font-family="Helvetica,sans-Serif" font-size="10.00">+ Server()</text>
<text text-anchor="start" x="76" y="-40.5" font-family="Helvetica,sans-Serif" font-size="10.00">+ ~Server()</text>
<text text-anchor="start" x="76" y="-29.5" font-family="Helvetica,sans-Serif" font-size="10.00">+ broadcast()</text>
<text text-anchor="start" x="76" y="-18.5" font-family="Helvetica,sans-Serif" font-size="10.00"># accept()</text>
<text text-anchor="start" x="76" y="-7.5" font-family="Helvetica,sans-Serif" font-size="10.00"># remove()</text>
</a>
</g>
</g>
<!-- Node2 -->
<g id="node2" class="node">
<title>Node2</title>
<g id="a_node2"><a xlink:href="classrunnable.html" target="_top" xlink:title=" ">
<polygon fill="none" stroke="black" points="0,-182.5 0,-338.5 101,-338.5 101,-182.5 0,-182.5"/>
<text text-anchor="middle" x="50.5" y="-326.5" font-family="Helvetica,sans-Serif" font-size="10.00">runnable</text>
<polyline fill="none" stroke="black" points="0,-319.5 101,-319.5 "/>
<text text-anchor="start" x="8" y="-307.5" font-family="Helvetica,sans-Serif" font-size="10.00"># thread</text>
<text text-anchor="start" x="8" y="-296.5" font-family="Helvetica,sans-Serif" font-size="10.00"># callback</text>
<polyline fill="none" stroke="black" points="0,-289.5 101,-289.5 "/>
<text text-anchor="start" x="8" y="-277.5" font-family="Helvetica,sans-Serif" font-size="10.00">+ runnable()</text>
<text text-anchor="start" x="8" y="-266.5" font-family="Helvetica,sans-Serif" font-size="10.00">+ ~runnable()</text>
<text text-anchor="start" x="8" y="-255.5" font-family="Helvetica,sans-Serif" font-size="10.00">+ operator()()</text>
<text text-anchor="start" x="8" y="-244.5" font-family="Helvetica,sans-Serif" font-size="10.00">+ run()</text>
<text text-anchor="start" x="8" y="-233.5" font-family="Helvetica,sans-Serif" font-size="10.00">+ run()</text>
<text text-anchor="start" x="8" y="-222.5" font-family="Helvetica,sans-Serif" font-size="10.00">+ stop()</text>
<text text-anchor="start" x="8" y="-211.5" font-family="Helvetica,sans-Serif" font-size="10.00">+ operator&lt;=&gt;()</text>
<text text-anchor="start" x="8" y="-200.5" font-family="Helvetica,sans-Serif" font-size="10.00"># setup()</text>
<text text-anchor="start" x="8" y="-189.5" font-family="Helvetica,sans-Serif" font-size="10.00"># loop()</text>
</a>
</g>
</g>
<!-- Node2&#45;&gt;Node1 -->
<g id="edge1" class="edge">
<title>Node2&#45;&gt;Node1</title>
<path fill="none" stroke="midnightblue" d="M83.61,-172.99C87.1,-163.88 90.62,-154.69 94.03,-145.77"/>
<polygon fill="none" stroke="midnightblue" points="80.3,-171.85 79.99,-182.44 86.84,-174.35 80.3,-171.85"/>
</g>
<!-- Node3 -->
<g id="node3" class="node">
<title>Node3</title>
<g id="a_node3"><a xlink:href="classutil_1_1Factory.html" target="_top" xlink:title=" ">
<polygon fill="none" stroke="black" points="119,-221 119,-300 268,-300 268,-221 119,-221"/>
<text text-anchor="start" x="127" y="-288" font-family="Helvetica,sans-Serif" font-size="10.00">util::Factory&lt; Server,</text>
<text text-anchor="middle" x="193.5" y="-277" font-family="Helvetica,sans-Serif" font-size="10.00"> capnp::Capability::Client &gt;</text>
<polyline fill="none" stroke="black" points="119,-270 268,-270 "/>
<text text-anchor="start" x="127" y="-258" font-family="Helvetica,sans-Serif" font-size="10.00">+ base_t</text>
<polyline fill="none" stroke="black" points="119,-251 268,-251 "/>
<text text-anchor="start" x="127" y="-239" font-family="Helvetica,sans-Serif" font-size="10.00">+ make()</text>
<text text-anchor="start" x="127" y="-228" font-family="Helvetica,sans-Serif" font-size="10.00">+ map()</text>
</a>
</g>
</g>
<!-- Node3&#45;&gt;Node1 -->
<g id="edge2" class="edge">
<title>Node3&#45;&gt;Node1</title>
<path fill="none" stroke="midnightblue" d="M174.73,-211.14C166.99,-191.2 157.86,-167.68 149.37,-145.81"/>
<polygon fill="none" stroke="midnightblue" points="171.53,-212.56 178.41,-220.61 178.05,-210.02 171.53,-212.56"/>
</g>
</g>
</svg>
