<?xml version="1.0" encoding="UTF-8" standalone="no"?>
<!DOCTYPE svg PUBLIC "-//W3C//DTD SVG 1.1//EN"
 "http://www.w3.org/Graphics/SVG/1.1/DTD/svg11.dtd">
<!-- Generated by graphviz version 2.43.0 (0)
 -->
<!-- Title: UI::Renderer Pages: 1 -->
<svg width="169pt" height="204pt"
 viewBox="0.00 0.00 169.00 204.00" xmlns="http://www.w3.org/2000/svg" xmlns:xlink="http://www.w3.org/1999/xlink">
<g id="graph0" class="graph" transform="scale(1 1) rotate(0) translate(4 200)">
<title>UI::Renderer</title>
<!-- Node1 -->
<g id="node1" class="node">
<title>Node1</title>
<g id="a_node1"><a xlink:title=" ">
<polygon fill="#bfbfbf" stroke="black" points="36.5,-0.5 36.5,-79.5 124.5,-79.5 124.5,-0.5 36.5,-0.5"/>
<text text-anchor="middle" x="80.5" y="-67.5" font-family="Helvetica,sans-Serif" font-size="10.00">UI::Renderer</text>
<polyline fill="none" stroke="black" points="36.5,-60.5 124.5,-60.5 "/>
<text text-anchor="middle" x="80.5" y="-48.5" font-family="Helvetica,sans-Serif" font-size="10.00"> </text>
<polyline fill="none" stroke="black" points="36.5,-41.5 124.5,-41.5 "/>
<text text-anchor="start" x="44.5" y="-29.5" font-family="Helvetica,sans-Serif" font-size="10.00">+ Renderer()</text>
<text text-anchor="start" x="44.5" y="-18.5" font-family="Helvetica,sans-Serif" font-size="10.00">+ ~Renderer()</text>
<text text-anchor="start" x="44.5" y="-7.5" font-family="Helvetica,sans-Serif" font-size="10.00">+ render()</text>
</a>
</g>
</g>
<!-- Node2 -->
<g id="node2" class="node">
<title>Node2</title>
<g id="a_node2"><a xlink:href="classModule_1_1Factory.html" target="_top" xlink:title=" ">
<polygon fill="none" stroke="black" points="0,-116.5 0,-195.5 161,-195.5 161,-116.5 0,-116.5"/>
<text text-anchor="middle" x="80.5" y="-183.5" font-family="Helvetica,sans-Serif" font-size="10.00">Module::Factory&lt; Renderer &gt;</text>
<polyline fill="none" stroke="black" points="0,-176.5 161,-176.5 "/>
<text text-anchor="start" x="8" y="-164.5" font-family="Helvetica,sans-Serif" font-size="10.00">+ Base</text>
<polyline fill="none" stroke="black" points="0,-157.5 161,-157.5 "/>
<text text-anchor="start" x="8" y="-145.5" font-family="Helvetica,sans-Serif" font-size="10.00">+ make()</text>
<text text-anchor="start" x="8" y="-134.5" font-family="Helvetica,sans-Serif" font-size="10.00">+ make()</text>
<text text-anchor="start" x="8" y="-123.5" font-family="Helvetica,sans-Serif" font-size="10.00">+ map()</text>
</a>
</g>
</g>
<!-- Node2&#45;&gt;Node1 -->
<g id="edge1" class="edge">
<title>Node2&#45;&gt;Node1</title>
<path fill="none" stroke="midnightblue" d="M80.5,-106.15C80.5,-97.26 80.5,-88.1 80.5,-79.56"/>
<polygon fill="none" stroke="midnightblue" points="77,-106.4 80.5,-116.4 84,-106.4 77,-106.4"/>
</g>
</g>
</svg>
