<?xml version="1.0" encoding="UTF-8" standalone="no"?>
<!DOCTYPE svg PUBLIC "-//W3C//DTD SVG 1.1//EN"
 "http://www.w3.org/Graphics/SVG/1.1/DTD/svg11.dtd">
<!-- Generated by graphviz version 2.43.0 (0)
 -->
<!-- Title: UI::UI Pages: 1 -->
<svg width="258pt" height="270pt"
 viewBox="0.00 0.00 257.50 270.00" xmlns="http://www.w3.org/2000/svg" xmlns:xlink="http://www.w3.org/1999/xlink">
<g id="graph0" class="graph" transform="scale(1 1) rotate(0) translate(4 266)">
<title>UI::UI</title>
<!-- Node1 -->
<g id="node1" class="node">
<title>Node1</title>
<g id="a_node1"><a xlink:title=" ">
<polygon fill="#bfbfbf" stroke="black" points="107,-0.5 107,-57.5 153,-57.5 153,-0.5 107,-0.5"/>
<text text-anchor="middle" x="130" y="-45.5" font-family="Helvetica,sans-Serif" font-size="10.00">UI::UI</text>
<polyline fill="none" stroke="black" points="107,-38.5 153,-38.5 "/>
<text text-anchor="middle" x="130" y="-26.5" font-family="Helvetica,sans-Serif" font-size="10.00"> </text>
<polyline fill="none" stroke="black" points="107,-19.5 153,-19.5 "/>
<text text-anchor="start" x="115" y="-7.5" font-family="Helvetica,sans-Serif" font-size="10.00">+ UI()</text>
</a>
</g>
</g>
<!-- Node2 -->
<g id="node2" class="node">
<title>Node2</title>
<g id="a_node2"><a xlink:href="structThreading_1_1Runnable.html" target="_top" xlink:title=" ">
<polygon fill="none" stroke="black" points="0,-94.5 0,-261.5 126,-261.5 126,-94.5 0,-94.5"/>
<text text-anchor="start" x="8" y="-249.5" font-family="Helvetica,sans-Serif" font-size="10.00">Threading::Runnable</text>
<text text-anchor="middle" x="63" y="-238.5" font-family="Helvetica,sans-Serif" font-size="10.00">&lt; Control, config::UI &gt;</text>
<polyline fill="none" stroke="black" points="0,-231.5 126,-231.5 "/>
<text text-anchor="start" x="8" y="-219.5" font-family="Helvetica,sans-Serif" font-size="10.00">+ worker</text>
<text text-anchor="start" x="8" y="-208.5" font-family="Helvetica,sans-Serif" font-size="10.00"># thread</text>
<text text-anchor="start" x="8" y="-197.5" font-family="Helvetica,sans-Serif" font-size="10.00"># name</text>
<polyline fill="none" stroke="black" points="0,-190.5 126,-190.5 "/>
<text text-anchor="start" x="8" y="-178.5" font-family="Helvetica,sans-Serif" font-size="10.00">+ Runnable()</text>
<text text-anchor="start" x="8" y="-167.5" font-family="Helvetica,sans-Serif" font-size="10.00">+ Runnable()</text>
<text text-anchor="start" x="8" y="-156.5" font-family="Helvetica,sans-Serif" font-size="10.00">+ ~Runnable()</text>
<text text-anchor="start" x="8" y="-145.5" font-family="Helvetica,sans-Serif" font-size="10.00">+ run()</text>
<text text-anchor="start" x="8" y="-134.5" font-family="Helvetica,sans-Serif" font-size="10.00">+ get_executor()</text>
<text text-anchor="start" x="8" y="-123.5" font-family="Helvetica,sans-Serif" font-size="10.00">+ stop()</text>
<text text-anchor="start" x="8" y="-112.5" font-family="Helvetica,sans-Serif" font-size="10.00">+ operator&lt;=&gt;()</text>
<text text-anchor="start" x="8" y="-101.5" font-family="Helvetica,sans-Serif" font-size="10.00"># on_stop()</text>
</a>
</g>
</g>
<!-- Node2&#45;&gt;Node1 -->
<g id="edge1" class="edge">
<title>Node2&#45;&gt;Node1</title>
<path fill="none" stroke="midnightblue" d="M104.81,-85.27C109.32,-75.36 113.62,-65.93 117.35,-57.75"/>
<polygon fill="none" stroke="midnightblue" points="101.58,-83.93 100.61,-94.48 107.95,-86.83 101.58,-83.93"/>
</g>
<!-- Node3 -->
<g id="node3" class="node">
<title>Node3</title>
<g id="a_node3"><a xlink:href="classUtil_1_1Configurable.html" target="_top" xlink:title=" ">
<polygon fill="none" stroke="black" points="144.5,-127.5 144.5,-228.5 249.5,-228.5 249.5,-127.5 144.5,-127.5"/>
<text text-anchor="start" x="152.5" y="-216.5" font-family="Helvetica,sans-Serif" font-size="10.00">Util::Configurable</text>
<text text-anchor="middle" x="197" y="-205.5" font-family="Helvetica,sans-Serif" font-size="10.00">&lt; config::UI &gt;</text>
<polyline fill="none" stroke="black" points="144.5,-198.5 249.5,-198.5 "/>
<text text-anchor="start" x="152.5" y="-186.5" font-family="Helvetica,sans-Serif" font-size="10.00">+ config</text>
<text text-anchor="start" x="152.5" y="-175.5" font-family="Helvetica,sans-Serif" font-size="10.00"># _lock</text>
<polyline fill="none" stroke="black" points="144.5,-168.5 249.5,-168.5 "/>
<text text-anchor="start" x="152.5" y="-156.5" font-family="Helvetica,sans-Serif" font-size="10.00">+ Configurable()</text>
<text text-anchor="start" x="152.5" y="-145.5" font-family="Helvetica,sans-Serif" font-size="10.00">+ ~Configurable()</text>
<text text-anchor="start" x="152.5" y="-134.5" font-family="Helvetica,sans-Serif" font-size="10.00">+ lock()</text>
</a>
</g>
</g>
<!-- Node3&#45;&gt;Node1 -->
<g id="edge2" class="edge">
<title>Node3&#45;&gt;Node1</title>
<path fill="none" stroke="midnightblue" d="M170.17,-118.13C160.68,-97.32 150.46,-74.88 142.7,-57.85"/>
<polygon fill="none" stroke="midnightblue" points="166.98,-119.58 174.32,-127.23 173.35,-116.68 166.98,-119.58"/>
</g>
</g>
</svg>
