<?xml version="1.0" encoding="UTF-8" standalone="no"?>
<!DOCTYPE svg PUBLIC "-//W3C//DTD SVG 1.1//EN"
 "http://www.w3.org/Graphics/SVG/1.1/DTD/svg11.dtd">
<!-- Generated by graphviz version 2.43.0 (0)
 -->
<!-- Title: memory::manager Pages: 1 -->
<svg width="210pt" height="347pt"
 viewBox="0.00 0.00 210.00 347.00" xmlns="http://www.w3.org/2000/svg" xmlns:xlink="http://www.w3.org/1999/xlink">
<g id="graph0" class="graph" transform="scale(1 1) rotate(0) translate(4 343)">
<title>memory::manager</title>
<!-- Node1 -->
<g id="node1" class="node">
<title>Node1</title>
<g id="a_node1"><a xlink:title=" ">
<polygon fill="#bfbfbf" stroke="black" points="46.5,-149.5 46.5,-338.5 153.5,-338.5 153.5,-149.5 46.5,-149.5"/>
<text text-anchor="middle" x="100" y="-326.5" font-family="Helvetica,sans-Serif" font-size="10.00">memory::manager</text>
<polyline fill="none" stroke="black" points="46.5,-319.5 153.5,-319.5 "/>
<text text-anchor="start" x="54.5" y="-307.5" font-family="Helvetica,sans-Serif" font-size="10.00"># base</text>
<text text-anchor="start" x="54.5" y="-296.5" font-family="Helvetica,sans-Serif" font-size="10.00"># size</text>
<text text-anchor="start" x="54.5" y="-285.5" font-family="Helvetica,sans-Serif" font-size="10.00"># queue</text>
<text text-anchor="start" x="54.5" y="-274.5" font-family="Helvetica,sans-Serif" font-size="10.00"># PAGE_SIZE</text>
<polyline fill="none" stroke="black" points="46.5,-267.5 153.5,-267.5 "/>
<text text-anchor="start" x="54.5" y="-255.5" font-family="Helvetica,sans-Serif" font-size="10.00">+ manager()</text>
<text text-anchor="start" x="54.5" y="-244.5" font-family="Helvetica,sans-Serif" font-size="10.00">+ ~manager()</text>
<text text-anchor="start" x="54.5" y="-233.5" font-family="Helvetica,sans-Serif" font-size="10.00">+ alloc()</text>
<text text-anchor="start" x="54.5" y="-222.5" font-family="Helvetica,sans-Serif" font-size="10.00">+ free()</text>
<text text-anchor="start" x="54.5" y="-211.5" font-family="Helvetica,sans-Serif" font-size="10.00">+ print()</text>
<text text-anchor="start" x="54.5" y="-200.5" font-family="Helvetica,sans-Serif" font-size="10.00">+ to_offset()</text>
<text text-anchor="start" x="54.5" y="-189.5" font-family="Helvetica,sans-Serif" font-size="10.00"># to_ptr()</text>
<text text-anchor="start" x="54.5" y="-178.5" font-family="Helvetica,sans-Serif" font-size="10.00"># size_to_pages()</text>
<text text-anchor="start" x="54.5" y="-167.5" font-family="Helvetica,sans-Serif" font-size="10.00"># _alloc()</text>
<text text-anchor="start" x="54.5" y="-156.5" font-family="Helvetica,sans-Serif" font-size="10.00"># _free()</text>
</a>
</g>
</g>
<!-- Node2 -->
<g id="node2" class="node">
<title>Node2</title>
<g id="a_node2"><a xlink:href="classmemory_1_1client.html" target="_top" xlink:title=" ">
<polygon fill="none" stroke="black" points="0,-6 0,-107 90,-107 90,-6 0,-6"/>
<text text-anchor="middle" x="45" y="-95" font-family="Helvetica,sans-Serif" font-size="10.00">memory::client</text>
<polyline fill="none" stroke="black" points="0,-88 90,-88 "/>
<text text-anchor="middle" x="45" y="-76" font-family="Helvetica,sans-Serif" font-size="10.00"> </text>
<polyline fill="none" stroke="black" points="0,-69 90,-69 "/>
<text text-anchor="start" x="8" y="-57" font-family="Helvetica,sans-Serif" font-size="10.00">+ client()</text>
<text text-anchor="start" x="8" y="-46" font-family="Helvetica,sans-Serif" font-size="10.00">+ ~client()</text>
<text text-anchor="start" x="8" y="-35" font-family="Helvetica,sans-Serif" font-size="10.00">+ print()</text>
<text text-anchor="start" x="8" y="-24" font-family="Helvetica,sans-Serif" font-size="10.00"># _alloc()</text>
<text text-anchor="start" x="8" y="-13" font-family="Helvetica,sans-Serif" font-size="10.00"># _free()</text>
</a>
</g>
</g>
<!-- Node1&#45;&gt;Node2 -->
<g id="edge1" class="edge">
<title>Node1&#45;&gt;Node2</title>
<path fill="none" stroke="midnightblue" d="M69.32,-139.54C66,-128.33 62.74,-117.32 59.74,-107.2"/>
<polygon fill="none" stroke="midnightblue" points="66.06,-140.84 72.26,-149.43 72.77,-138.85 66.06,-140.84"/>
</g>
<!-- Node3 -->
<g id="node3" class="node">
<title>Node3</title>
<g id="a_node3"><a xlink:href="classmemory_1_1server.html" target="_top" xlink:title=" ">
<polygon fill="none" stroke="black" points="108,-0.5 108,-112.5 202,-112.5 202,-0.5 108,-0.5"/>
<text text-anchor="middle" x="155" y="-100.5" font-family="Helvetica,sans-Serif" font-size="10.00">memory::server</text>
<polyline fill="none" stroke="black" points="108,-93.5 202,-93.5 "/>
<text text-anchor="middle" x="155" y="-81.5" font-family="Helvetica,sans-Serif" font-size="10.00"> </text>
<polyline fill="none" stroke="black" points="108,-74.5 202,-74.5 "/>
<text text-anchor="start" x="116" y="-62.5" font-family="Helvetica,sans-Serif" font-size="10.00">+ server()</text>
<text text-anchor="start" x="116" y="-51.5" font-family="Helvetica,sans-Serif" font-size="10.00">+ ~server()</text>
<text text-anchor="start" x="116" y="-40.5" font-family="Helvetica,sans-Serif" font-size="10.00">+ run()</text>
<text text-anchor="start" x="116" y="-29.5" font-family="Helvetica,sans-Serif" font-size="10.00">+ print()</text>
<text text-anchor="start" x="116" y="-18.5" font-family="Helvetica,sans-Serif" font-size="10.00"># _alloc()</text>
<text text-anchor="start" x="116" y="-7.5" font-family="Helvetica,sans-Serif" font-size="10.00"># _free()</text>
</a>
</g>
</g>
<!-- Node1&#45;&gt;Node3 -->
<g id="edge2" class="edge">
<title>Node1&#45;&gt;Node3</title>
<path fill="none" stroke="midnightblue" d="M130.63,-139.7C133.38,-130.4 136.1,-121.24 138.66,-112.61"/>
<polygon fill="none" stroke="midnightblue" points="127.23,-138.85 127.74,-149.43 133.94,-140.84 127.23,-138.85"/>
</g>
</g>
</svg>
