<?xml version="1.0" encoding="UTF-8" standalone="no"?>
<!DOCTYPE svg PUBLIC "-//W3C//DTD SVG 1.1//EN"
 "http://www.w3.org/Graphics/SVG/1.1/DTD/svg11.dtd">
<!-- Generated by graphviz version 2.43.0 (0)
 -->
<!-- Title: Logging::Endpoint Pages: 1 -->
<svg width="147pt" height="193pt"
 viewBox="0.00 0.00 147.00 193.00" xmlns="http://www.w3.org/2000/svg" xmlns:xlink="http://www.w3.org/1999/xlink">
<g id="graph0" class="graph" transform="scale(1 1) rotate(0) translate(4 189)">
<title>Logging::Endpoint</title>
<!-- Node1 -->
<g id="node1" class="node">
<title>Node1</title>
<g id="a_node1"><a xlink:title=" ">
<polygon fill="#bfbfbf" stroke="black" points="17.5,-0.5 17.5,-79.5 121.5,-79.5 121.5,-0.5 17.5,-0.5"/>
<text text-anchor="middle" x="69.5" y="-67.5" font-family="Helvetica,sans-Serif" font-size="10.00">Logging::Endpoint</text>
<polyline fill="none" stroke="black" points="17.5,-60.5 121.5,-60.5 "/>
<text text-anchor="middle" x="69.5" y="-48.5" font-family="Helvetica,sans-Serif" font-size="10.00"> </text>
<polyline fill="none" stroke="black" points="17.5,-41.5 121.5,-41.5 "/>
<text text-anchor="start" x="25.5" y="-29.5" font-family="Helvetica,sans-Serif" font-size="10.00">+ Endpoint()</text>
<text text-anchor="start" x="25.5" y="-18.5" font-family="Helvetica,sans-Serif" font-size="10.00">+ ~Endpoint()</text>
<text text-anchor="start" x="25.5" y="-7.5" font-family="Helvetica,sans-Serif" font-size="10.00">+ print()</text>
</a>
</g>
</g>
<!-- Node2 -->
<g id="node2" class="node">
<title>Node2</title>
<g id="a_node2"><a xlink:href="classutil_1_1Factory.html" target="_top" xlink:title=" ">
<polygon fill="none" stroke="black" points="0,-116.5 0,-184.5 139,-184.5 139,-116.5 0,-116.5"/>
<text text-anchor="middle" x="69.5" y="-172.5" font-family="Helvetica,sans-Serif" font-size="10.00">util::Factory&lt; Endpoint &gt;</text>
<polyline fill="none" stroke="black" points="0,-165.5 139,-165.5 "/>
<text text-anchor="start" x="8" y="-153.5" font-family="Helvetica,sans-Serif" font-size="10.00">+ base_t</text>
<polyline fill="none" stroke="black" points="0,-146.5 139,-146.5 "/>
<text text-anchor="start" x="8" y="-134.5" font-family="Helvetica,sans-Serif" font-size="10.00">+ make()</text>
<text text-anchor="start" x="8" y="-123.5" font-family="Helvetica,sans-Serif" font-size="10.00">+ map()</text>
</a>
</g>
</g>
<!-- Node2&#45;&gt;Node1 -->
<g id="edge1" class="edge">
<title>Node2&#45;&gt;Node1</title>
<path fill="none" stroke="midnightblue" d="M69.5,-106.27C69.5,-97.48 69.5,-88.28 69.5,-79.65"/>
<polygon fill="none" stroke="midnightblue" points="66,-106.36 69.5,-116.36 73,-106.36 66,-106.36"/>
</g>
</g>
</svg>
