<?xml version="1.0" encoding="UTF-8" standalone="no"?>
<!DOCTYPE svg PUBLIC "-//W3C//DTD SVG 1.1//EN"
 "http://www.w3.org/Graphics/SVG/1.1/DTD/svg11.dtd">
<!-- Generated by graphviz version 2.43.0 (0)
 -->
<!-- Title: Authentication::Token Pages: 1 -->
<svg width="168pt" height="204pt"
 viewBox="0.00 0.00 168.00 204.00" xmlns="http://www.w3.org/2000/svg" xmlns:xlink="http://www.w3.org/1999/xlink">
<g id="graph0" class="graph" transform="scale(1 1) rotate(0) translate(4 200)">
<title>Authentication::Token</title>
<!-- Node1 -->
<g id="node1" class="node">
<title>Node1</title>
<g id="a_node1"><a xlink:title=" ">
<polygon fill="#bfbfbf" stroke="black" points="19,-0.5 19,-101.5 141,-101.5 141,-0.5 19,-0.5"/>
<text text-anchor="middle" x="80" y="-89.5" font-family="Helvetica,sans-Serif" font-size="10.00">Authentication::Token</text>
<polyline fill="none" stroke="black" points="19,-82.5 141,-82.5 "/>
<text text-anchor="middle" x="80" y="-70.5" font-family="Helvetica,sans-Serif" font-size="10.00"> </text>
<polyline fill="none" stroke="black" points="19,-63.5 141,-63.5 "/>
<text text-anchor="start" x="27" y="-51.5" font-family="Helvetica,sans-Serif" font-size="10.00">+ Token()</text>
<text text-anchor="start" x="27" y="-40.5" font-family="Helvetica,sans-Serif" font-size="10.00">+ check()</text>
<text text-anchor="start" x="27" y="-29.5" font-family="Helvetica,sans-Serif" font-size="10.00">+ add()</text>
<text text-anchor="start" x="27" y="-18.5" font-family="Helvetica,sans-Serif" font-size="10.00">+ clear()</text>
<text text-anchor="start" x="27" y="-7.5" font-family="Helvetica,sans-Serif" font-size="10.00">+ count()</text>
</a>
</g>
</g>
<!-- Node2 -->
<g id="node2" class="node">
<title>Node2</title>
<g id="a_node2"><a xlink:href="classAuthentication_1_1Authenticator.html" target="_top" xlink:title=" ">
<polygon fill="none" stroke="black" points="0,-138.5 0,-195.5 160,-195.5 160,-138.5 0,-138.5"/>
<text text-anchor="middle" x="80" y="-183.5" font-family="Helvetica,sans-Serif" font-size="10.00">Authentication::Authenticator</text>
<polyline fill="none" stroke="black" points="0,-176.5 160,-176.5 "/>
<text text-anchor="middle" x="80" y="-164.5" font-family="Helvetica,sans-Serif" font-size="10.00"> </text>
<polyline fill="none" stroke="black" points="0,-157.5 160,-157.5 "/>
<text text-anchor="start" x="8" y="-145.5" font-family="Helvetica,sans-Serif" font-size="10.00">+ check()</text>
</a>
</g>
</g>
<!-- Node2&#45;&gt;Node1 -->
<g id="edge1" class="edge">
<title>Node2&#45;&gt;Node1</title>
<path fill="none" stroke="midnightblue" d="M80,-128.35C80,-119.8 80,-110.58 80,-101.61"/>
<polygon fill="none" stroke="midnightblue" points="76.5,-128.4 80,-138.4 83.5,-128.4 76.5,-128.4"/>
</g>
</g>
</svg>
