<?xml version="1.0" encoding="UTF-8" standalone="no"?>
<!DOCTYPE svg PUBLIC "-//W3C//DTD SVG 1.1//EN"
 "http://www.w3.org/Graphics/SVG/1.1/DTD/svg11.dtd">
<!-- Generated by graphviz version 2.43.0 (0)
 -->
<!-- Title: Authentication::Authenticator Pages: 1 -->
<svg width="262pt" height="204pt"
 viewBox="0.00 0.00 261.50 204.00" xmlns="http://www.w3.org/2000/svg" xmlns:xlink="http://www.w3.org/1999/xlink">
<g id="graph0" class="graph" transform="scale(1 1) rotate(0) translate(4 200)">
<title>Authentication::Authenticator</title>
<!-- Node1 -->
<g id="node1" class="node">
<title>Node1</title>
<g id="a_node1"><a xlink:title=" ">
<polygon fill="#bfbfbf" stroke="black" points="44.5,-138.5 44.5,-195.5 204.5,-195.5 204.5,-138.5 44.5,-138.5"/>
<text text-anchor="middle" x="124.5" y="-183.5" font-family="Helvetica,sans-Serif" font-size="10.00">Authentication::Authenticator</text>
<polyline fill="none" stroke="black" points="44.5,-176.5 204.5,-176.5 "/>
<text text-anchor="middle" x="124.5" y="-164.5" font-family="Helvetica,sans-Serif" font-size="10.00"> </text>
<polyline fill="none" stroke="black" points="44.5,-157.5 204.5,-157.5 "/>
<text text-anchor="start" x="52.5" y="-145.5" font-family="Helvetica,sans-Serif" font-size="10.00">+ check()</text>
</a>
</g>
</g>
<!-- Node2 -->
<g id="node2" class="node">
<title>Node2</title>
<g id="a_node2"><a xlink:href="classAuthentication_1_1PSK.html" target="_top" xlink:title=" ">
<polygon fill="none" stroke="black" points="0,-17 0,-85 113,-85 113,-17 0,-17"/>
<text text-anchor="middle" x="56.5" y="-73" font-family="Helvetica,sans-Serif" font-size="10.00">Authentication::PSK</text>
<polyline fill="none" stroke="black" points="0,-66 113,-66 "/>
<text text-anchor="middle" x="56.5" y="-54" font-family="Helvetica,sans-Serif" font-size="10.00"> </text>
<polyline fill="none" stroke="black" points="0,-47 113,-47 "/>
<text text-anchor="start" x="8" y="-35" font-family="Helvetica,sans-Serif" font-size="10.00">+ PSK()</text>
<text text-anchor="start" x="8" y="-24" font-family="Helvetica,sans-Serif" font-size="10.00">+ check()</text>
</a>
</g>
</g>
<!-- Node1&#45;&gt;Node2 -->
<g id="edge1" class="edge">
<title>Node1&#45;&gt;Node2</title>
<path fill="none" stroke="midnightblue" d="M102.89,-129.77C94.33,-115.42 84.56,-99.04 76.2,-85.02"/>
<polygon fill="none" stroke="midnightblue" points="99.91,-131.61 108.04,-138.4 105.92,-128.02 99.91,-131.61"/>
</g>
<!-- Node3 -->
<g id="node3" class="node">
<title>Node3</title>
<g id="a_node3"><a xlink:href="classAuthentication_1_1Token.html" target="_top" xlink:title=" ">
<polygon fill="none" stroke="black" points="131.5,-0.5 131.5,-101.5 253.5,-101.5 253.5,-0.5 131.5,-0.5"/>
<text text-anchor="middle" x="192.5" y="-89.5" font-family="Helvetica,sans-Serif" font-size="10.00">Authentication::Token</text>
<polyline fill="none" stroke="black" points="131.5,-82.5 253.5,-82.5 "/>
<text text-anchor="middle" x="192.5" y="-70.5" font-family="Helvetica,sans-Serif" font-size="10.00"> </text>
<polyline fill="none" stroke="black" points="131.5,-63.5 253.5,-63.5 "/>
<text text-anchor="start" x="139.5" y="-51.5" font-family="Helvetica,sans-Serif" font-size="10.00">+ Token()</text>
<text text-anchor="start" x="139.5" y="-40.5" font-family="Helvetica,sans-Serif" font-size="10.00">+ check()</text>
<text text-anchor="start" x="139.5" y="-29.5" font-family="Helvetica,sans-Serif" font-size="10.00">+ add()</text>
<text text-anchor="start" x="139.5" y="-18.5" font-family="Helvetica,sans-Serif" font-size="10.00">+ clear()</text>
<text text-anchor="start" x="139.5" y="-7.5" font-family="Helvetica,sans-Serif" font-size="10.00">+ count()</text>
</a>
</g>
</g>
<!-- Node1&#45;&gt;Node3 -->
<g id="edge2" class="edge">
<title>Node1&#45;&gt;Node3</title>
<path fill="none" stroke="midnightblue" d="M146.12,-129.76C151.46,-120.81 157.26,-111.07 162.91,-101.61"/>
<polygon fill="none" stroke="midnightblue" points="143.08,-128.02 140.96,-138.4 149.09,-131.61 143.08,-128.02"/>
</g>
</g>
</svg>
