<?xml version="1.0" encoding="UTF-8" standalone="no"?>
<!DOCTYPE svg PUBLIC "-//W3C//DTD SVG 1.1//EN"
 "http://www.w3.org/Graphics/SVG/1.1/DTD/svg11.dtd">
<!-- Generated by graphviz version 2.43.0 (0)
 -->
<!-- Title: runnable Pages: 1 -->
<svg width="720pt" height="496pt"
 viewBox="0.00 0.00 720.00 496.00" xmlns="http://www.w3.org/2000/svg" xmlns:xlink="http://www.w3.org/1999/xlink">
<g id="graph0" class="graph" transform="scale(1 1) rotate(0) translate(4 492)">
<title>runnable</title>
<!-- Node1 -->
<g id="node1" class="node">
<title>Node1</title>
<g id="a_node1"><a xlink:title=" ">
<polygon fill="#bfbfbf" stroke="black" points="289,-331.5 289,-487.5 390,-487.5 390,-331.5 289,-331.5"/>
<text text-anchor="middle" x="339.5" y="-475.5" font-family="Helvetica,sans-Serif" font-size="10.00">runnable</text>
<polyline fill="none" stroke="black" points="289,-468.5 390,-468.5 "/>
<text text-anchor="start" x="297" y="-456.5" font-family="Helvetica,sans-Serif" font-size="10.00"># thread</text>
<text text-anchor="start" x="297" y="-445.5" font-family="Helvetica,sans-Serif" font-size="10.00"># callback</text>
<polyline fill="none" stroke="black" points="289,-438.5 390,-438.5 "/>
<text text-anchor="start" x="297" y="-426.5" font-family="Helvetica,sans-Serif" font-size="10.00">+ runnable()</text>
<text text-anchor="start" x="297" y="-415.5" font-family="Helvetica,sans-Serif" font-size="10.00">+ ~runnable()</text>
<text text-anchor="start" x="297" y="-404.5" font-family="Helvetica,sans-Serif" font-size="10.00">+ operator()()</text>
<text text-anchor="start" x="297" y="-393.5" font-family="Helvetica,sans-Serif" font-size="10.00">+ run()</text>
<text text-anchor="start" x="297" y="-382.5" font-family="Helvetica,sans-Serif" font-size="10.00">+ run()</text>
<text text-anchor="start" x="297" y="-371.5" font-family="Helvetica,sans-Serif" font-size="10.00">+ stop()</text>
<text text-anchor="start" x="297" y="-360.5" font-family="Helvetica,sans-Serif" font-size="10.00">+ operator&lt;=&gt;()</text>
<text text-anchor="start" x="297" y="-349.5" font-family="Helvetica,sans-Serif" font-size="10.00"># setup()</text>
<text text-anchor="start" x="297" y="-338.5" font-family="Helvetica,sans-Serif" font-size="10.00"># loop()</text>
</a>
</g>
</g>
<!-- Node2 -->
<g id="node2" class="node">
<title>Node2</title>
<g id="a_node2"><a xlink:href="classconsumer.html" target="_top" xlink:title=" ">
<polygon fill="none" stroke="black" points="0,-171.5 0,-261.5 93,-261.5 93,-171.5 0,-171.5"/>
<text text-anchor="middle" x="46.5" y="-249.5" font-family="Helvetica,sans-Serif" font-size="10.00">consumer</text>
<polyline fill="none" stroke="black" points="0,-242.5 93,-242.5 "/>
<text text-anchor="start" x="8" y="-230.5" font-family="Helvetica,sans-Serif" font-size="10.00"># client_handle</text>
<polyline fill="none" stroke="black" points="0,-223.5 93,-223.5 "/>
<text text-anchor="start" x="8" y="-211.5" font-family="Helvetica,sans-Serif" font-size="10.00">+ ~consumer()</text>
<text text-anchor="start" x="8" y="-200.5" font-family="Helvetica,sans-Serif" font-size="10.00">+ consumer()</text>
<text text-anchor="start" x="8" y="-189.5" font-family="Helvetica,sans-Serif" font-size="10.00">+ loop()</text>
<text text-anchor="start" x="8" y="-178.5" font-family="Helvetica,sans-Serif" font-size="10.00">+ handle()</text>
</a>
</g>
</g>
<!-- Node1&#45;&gt;Node2 -->
<g id="edge1" class="edge">
<title>Node1&#45;&gt;Node2</title>
<path fill="none" stroke="midnightblue" d="M279.06,-389.09C228.12,-370.62 155.3,-339.1 102.5,-295 91.29,-285.64 81.17,-273.55 72.71,-261.72"/>
<polygon fill="none" stroke="midnightblue" points="278.03,-392.44 288.62,-392.5 280.38,-385.84 278.03,-392.44"/>
</g>
<!-- Node3 -->
<g id="node3" class="node">
<title>Node3</title>
<g id="a_node3"><a xlink:href="classproducer.html" target="_top" xlink:title=" ">
<polygon fill="none" stroke="black" points="111.5,-171.5 111.5,-261.5 213.5,-261.5 213.5,-171.5 111.5,-171.5"/>
<text text-anchor="middle" x="162.5" y="-249.5" font-family="Helvetica,sans-Serif" font-size="10.00">producer</text>
<polyline fill="none" stroke="black" points="111.5,-242.5 213.5,-242.5 "/>
<text text-anchor="start" x="119.5" y="-230.5" font-family="Helvetica,sans-Serif" font-size="10.00"># data</text>
<text text-anchor="start" x="119.5" y="-219.5" font-family="Helvetica,sans-Serif" font-size="10.00"># control</text>
<polyline fill="none" stroke="black" points="111.5,-212.5 213.5,-212.5 "/>
<text text-anchor="start" x="119.5" y="-200.5" font-family="Helvetica,sans-Serif" font-size="10.00">+ producer()</text>
<text text-anchor="start" x="119.5" y="-189.5" font-family="Helvetica,sans-Serif" font-size="10.00">+ ~producer()</text>
<text text-anchor="start" x="119.5" y="-178.5" font-family="Helvetica,sans-Serif" font-size="10.00"># control_event()</text>
</a>
</g>
</g>
<!-- Node1&#45;&gt;Node3 -->
<g id="edge2" class="edge">
<title>Node1&#45;&gt;Node3</title>
<path fill="none" stroke="midnightblue" d="M281.66,-355.52C262.27,-336.95 240.9,-315.57 222.5,-295 213.2,-284.6 203.7,-272.91 195.08,-261.83"/>
<polygon fill="none" stroke="midnightblue" points="279.33,-358.14 288.99,-362.5 284.16,-353.07 279.33,-358.14"/>
</g>
<!-- Node4 -->
<g id="node4" class="node">
<title>Node4</title>
<g id="a_node4"><a xlink:href="classrpc_1_1Server.html" target="_top" xlink:title=" ">
<polygon fill="none" stroke="black" points="232,-144 232,-289 329,-289 329,-144 232,-144"/>
<text text-anchor="middle" x="280.5" y="-277" font-family="Helvetica,sans-Serif" font-size="10.00">rpc::Server</text>
<polyline fill="none" stroke="black" points="232,-270 329,-270 "/>
<text text-anchor="start" x="240" y="-258" font-family="Helvetica,sans-Serif" font-size="10.00"># interface</text>
<text text-anchor="start" x="240" y="-247" font-family="Helvetica,sans-Serif" font-size="10.00"># authenticator</text>
<text text-anchor="start" x="240" y="-236" font-family="Helvetica,sans-Serif" font-size="10.00"># contexts</text>
<text text-anchor="start" x="240" y="-225" font-family="Helvetica,sans-Serif" font-size="10.00"># io</text>
<polyline fill="none" stroke="black" points="232,-218 329,-218 "/>
<text text-anchor="start" x="240" y="-206" font-family="Helvetica,sans-Serif" font-size="10.00">+ Server()</text>
<text text-anchor="start" x="240" y="-195" font-family="Helvetica,sans-Serif" font-size="10.00">+ ~Server()</text>
<text text-anchor="start" x="240" y="-184" font-family="Helvetica,sans-Serif" font-size="10.00">+ broadcast()</text>
<text text-anchor="start" x="240" y="-173" font-family="Helvetica,sans-Serif" font-size="10.00"># accept()</text>
<text text-anchor="start" x="240" y="-162" font-family="Helvetica,sans-Serif" font-size="10.00"># remove()</text>
<text text-anchor="start" x="240" y="-151" font-family="Helvetica,sans-Serif" font-size="10.00"># authenticate()</text>
</a>
</g>
</g>
<!-- Node1&#45;&gt;Node4 -->
<g id="edge3" class="edge">
<title>Node1&#45;&gt;Node4</title>
<path fill="none" stroke="midnightblue" d="M312.72,-321.79C309.33,-310.84 305.9,-299.74 302.6,-289.06"/>
<polygon fill="none" stroke="midnightblue" points="309.38,-322.84 315.67,-331.36 316.07,-320.78 309.38,-322.84"/>
</g>
<!-- Node5 -->
<g id="node5" class="node">
<title>Node5</title>
<g id="a_node5"><a xlink:href="classtransport_1_1Client.html" target="_top" xlink:title=" ">
<polygon fill="none" stroke="black" points="347,-160.5 347,-272.5 452,-272.5 452,-160.5 347,-160.5"/>
<text text-anchor="middle" x="399.5" y="-260.5" font-family="Helvetica,sans-Serif" font-size="10.00">transport::Client</text>
<polyline fill="none" stroke="black" points="347,-253.5 452,-253.5 "/>
<text text-anchor="start" x="355" y="-241.5" font-family="Helvetica,sans-Serif" font-size="10.00">+ message_event</text>
<text text-anchor="start" x="355" y="-230.5" font-family="Helvetica,sans-Serif" font-size="10.00"># packed</text>
<polyline fill="none" stroke="black" points="347,-223.5 452,-223.5 "/>
<text text-anchor="start" x="355" y="-211.5" font-family="Helvetica,sans-Serif" font-size="10.00">+ Client()</text>
<text text-anchor="start" x="355" y="-200.5" font-family="Helvetica,sans-Serif" font-size="10.00">+ ~Client()</text>
<text text-anchor="start" x="355" y="-189.5" font-family="Helvetica,sans-Serif" font-size="10.00">+ loop()</text>
<text text-anchor="start" x="355" y="-178.5" font-family="Helvetica,sans-Serif" font-size="10.00">+ send()</text>
<text text-anchor="start" x="355" y="-167.5" font-family="Helvetica,sans-Serif" font-size="10.00">+ recv()</text>
</a>
</g>
</g>
<!-- Node1&#45;&gt;Node5 -->
<g id="edge4" class="edge">
<title>Node1&#45;&gt;Node5</title>
<path fill="none" stroke="midnightblue" d="M366.8,-321.61C372.03,-304.95 377.37,-287.93 382.19,-272.62"/>
<polygon fill="none" stroke="midnightblue" points="363.39,-320.77 363.73,-331.36 370.07,-322.87 363.39,-320.77"/>
</g>
<!-- Node7 -->
<g id="node7" class="node">
<title>Node7</title>
<g id="a_node7"><a xlink:href="classtransport_1_1Server.html" target="_top" xlink:title=" ">
<polygon fill="none" stroke="black" points="470,-138.5 470,-294.5 575,-294.5 575,-138.5 470,-138.5"/>
<text text-anchor="middle" x="522.5" y="-282.5" font-family="Helvetica,sans-Serif" font-size="10.00">transport::Server</text>
<polyline fill="none" stroke="black" points="470,-275.5 575,-275.5 "/>
<text text-anchor="start" x="478" y="-263.5" font-family="Helvetica,sans-Serif" font-size="10.00"># clients</text>
<text text-anchor="start" x="478" y="-252.5" font-family="Helvetica,sans-Serif" font-size="10.00"># clients_mutex</text>
<text text-anchor="start" x="478" y="-241.5" font-family="Helvetica,sans-Serif" font-size="10.00"># packed</text>
<text text-anchor="start" x="478" y="-230.5" font-family="Helvetica,sans-Serif" font-size="10.00"># message_event</text>
<polyline fill="none" stroke="black" points="470,-223.5 575,-223.5 "/>
<text text-anchor="start" x="478" y="-211.5" font-family="Helvetica,sans-Serif" font-size="10.00">+ ~Server()</text>
<text text-anchor="start" x="478" y="-200.5" font-family="Helvetica,sans-Serif" font-size="10.00">+ Server()</text>
<text text-anchor="start" x="478" y="-189.5" font-family="Helvetica,sans-Serif" font-size="10.00">+ prepare()</text>
<text text-anchor="start" x="478" y="-178.5" font-family="Helvetica,sans-Serif" font-size="10.00">+ broadcast()</text>
<text text-anchor="start" x="478" y="-167.5" font-family="Helvetica,sans-Serif" font-size="10.00">+ set_event()</text>
<text text-anchor="start" x="478" y="-156.5" font-family="Helvetica,sans-Serif" font-size="10.00">+ add()</text>
<text text-anchor="start" x="478" y="-145.5" font-family="Helvetica,sans-Serif" font-size="10.00">+ remove()</text>
</a>
</g>
</g>
<!-- Node1&#45;&gt;Node7 -->
<g id="edge6" class="edge">
<title>Node1&#45;&gt;Node7</title>
<path fill="none" stroke="midnightblue" d="M397.7,-357.75C418.5,-338.73 441.69,-316.51 461.5,-295 464.28,-291.98 467.08,-288.84 469.87,-285.64"/>
<polygon fill="none" stroke="midnightblue" points="395.2,-355.29 390.15,-364.6 399.9,-360.47 395.2,-355.29"/>
</g>
<!-- Node9 -->
<g id="node9" class="node">
<title>Node9</title>
<g id="a_node9"><a xlink:href="classui.html" target="_top" xlink:title=" ">
<polygon fill="none" stroke="black" points="593,-160.5 593,-272.5 712,-272.5 712,-160.5 593,-160.5"/>
<text text-anchor="middle" x="652.5" y="-260.5" font-family="Helvetica,sans-Serif" font-size="10.00">ui</text>
<polyline fill="none" stroke="black" points="593,-253.5 712,-253.5 "/>
<text text-anchor="middle" x="652.5" y="-241.5" font-family="Helvetica,sans-Serif" font-size="10.00"> </text>
<polyline fill="none" stroke="black" points="593,-234.5 712,-234.5 "/>
<text text-anchor="start" x="601" y="-222.5" font-family="Helvetica,sans-Serif" font-size="10.00">+ ui()</text>
<text text-anchor="start" x="601" y="-211.5" font-family="Helvetica,sans-Serif" font-size="10.00">+ operator=()</text>
<text text-anchor="start" x="601" y="-200.5" font-family="Helvetica,sans-Serif" font-size="10.00">+ ~ui()</text>
<text text-anchor="start" x="601" y="-189.5" font-family="Helvetica,sans-Serif" font-size="10.00">+ attach()</text>
<text text-anchor="start" x="601" y="-178.5" font-family="Helvetica,sans-Serif" font-size="10.00">+ Instance()</text>
<text text-anchor="start" x="601" y="-167.5" font-family="Helvetica,sans-Serif" font-size="10.00">+ toggle_fullscreen()</text>
</a>
</g>
</g>
<!-- Node1&#45;&gt;Node9 -->
<g id="edge8" class="edge">
<title>Node1&#45;&gt;Node9</title>
<path fill="none" stroke="midnightblue" d="M399.66,-388.67C451.73,-369.71 527.43,-337.69 584.5,-295 593.24,-288.46 601.68,-280.64 609.46,-272.51"/>
<polygon fill="none" stroke="midnightblue" points="398.45,-385.38 390.22,-392.06 400.82,-391.97 398.45,-385.38"/>
</g>
<!-- Node6 -->
<g id="node6" class="node">
<title>Node6</title>
<g id="a_node6"><a xlink:href="classtransport_1_1TCP_1_1Client.html" target="_top" xlink:title=" ">
<polygon fill="none" stroke="black" points="332,-0.5 332,-101.5 451,-101.5 451,-0.5 332,-0.5"/>
<text text-anchor="middle" x="391.5" y="-89.5" font-family="Helvetica,sans-Serif" font-size="10.00">transport::TCP::Client</text>
<polyline fill="none" stroke="black" points="332,-82.5 451,-82.5 "/>
<text text-anchor="middle" x="391.5" y="-70.5" font-family="Helvetica,sans-Serif" font-size="10.00"> </text>
<polyline fill="none" stroke="black" points="332,-63.5 451,-63.5 "/>
<text text-anchor="start" x="340" y="-51.5" font-family="Helvetica,sans-Serif" font-size="10.00">+ Client()</text>
<text text-anchor="start" x="340" y="-40.5" font-family="Helvetica,sans-Serif" font-size="10.00">+ Client()</text>
<text text-anchor="start" x="340" y="-29.5" font-family="Helvetica,sans-Serif" font-size="10.00">+ ~Client()</text>
<text text-anchor="start" x="340" y="-18.5" font-family="Helvetica,sans-Serif" font-size="10.00">+ send()</text>
<text text-anchor="start" x="340" y="-7.5" font-family="Helvetica,sans-Serif" font-size="10.00">+ recv()</text>
</a>
</g>
</g>
<!-- Node5&#45;&gt;Node6 -->
<g id="edge5" class="edge">
<title>Node5&#45;&gt;Node6</title>
<path fill="none" stroke="midnightblue" d="M396.28,-149.73C395.5,-133.65 394.67,-116.71 393.92,-101.53"/>
<polygon fill="none" stroke="midnightblue" points="392.81,-150.33 396.79,-160.15 399.8,-149.99 392.81,-150.33"/>
</g>
<!-- Node8 -->
<g id="node8" class="node">
<title>Node8</title>
<g id="a_node8"><a xlink:href="classtransport_1_1TCP_1_1Server.html" target="_top" xlink:title=" ">
<polygon fill="none" stroke="black" points="469.5,-17 469.5,-85 591.5,-85 591.5,-17 469.5,-17"/>
<text text-anchor="middle" x="530.5" y="-73" font-family="Helvetica,sans-Serif" font-size="10.00">transport::TCP::Server</text>
<polyline fill="none" stroke="black" points="469.5,-66 591.5,-66 "/>
<text text-anchor="middle" x="530.5" y="-54" font-family="Helvetica,sans-Serif" font-size="10.00"> </text>
<polyline fill="none" stroke="black" points="469.5,-47 591.5,-47 "/>
<text text-anchor="start" x="477.5" y="-35" font-family="Helvetica,sans-Serif" font-size="10.00">+ Server()</text>
<text text-anchor="start" x="477.5" y="-24" font-family="Helvetica,sans-Serif" font-size="10.00">+ loop()</text>
</a>
</g>
</g>
<!-- Node7&#45;&gt;Node8 -->
<g id="edge7" class="edge">
<title>Node7&#45;&gt;Node8</title>
<path fill="none" stroke="midnightblue" d="M526.78,-128C527.53,-112.71 528.26,-97.69 528.88,-85.1"/>
<polygon fill="none" stroke="midnightblue" points="523.28,-127.9 526.29,-138.06 530.27,-128.24 523.28,-127.9"/>
</g>
</g>
</svg>
