<?xml version="1.0" encoding="UTF-8" standalone="no"?>
<!DOCTYPE svg PUBLIC "-//W3C//DTD SVG 1.1//EN"
 "http://www.w3.org/Graphics/SVG/1.1/DTD/svg11.dtd">
<!-- Generated by graphviz version 2.43.0 (0)
 -->
<!-- Title: LoggingTest Pages: 1 -->
<svg width="91pt" height="171pt"
 viewBox="0.00 0.00 91.00 171.00" xmlns="http://www.w3.org/2000/svg" xmlns:xlink="http://www.w3.org/1999/xlink">
<g id="graph0" class="graph" transform="scale(1 1) rotate(0) translate(4 167)">
<title>LoggingTest</title>
<!-- Node1 -->
<g id="node1" class="node">
<title>Node1</title>
<g id="a_node1"><a xlink:title=" ">
<polygon fill="#bfbfbf" stroke="black" points="0,-0.5 0,-68.5 83,-68.5 83,-0.5 0,-0.5"/>
<text text-anchor="middle" x="41.5" y="-56.5" font-family="Helvetica,sans-Serif" font-size="10.00">LoggingTest</text>
<polyline fill="none" stroke="black" points="0,-49.5 83,-49.5 "/>
<text text-anchor="start" x="8" y="-37.5" font-family="Helvetica,sans-Serif" font-size="10.00"># dummy</text>
<polyline fill="none" stroke="black" points="0,-30.5 83,-30.5 "/>
<text text-anchor="start" x="8" y="-18.5" font-family="Helvetica,sans-Serif" font-size="10.00"># SetUp()</text>
<text text-anchor="start" x="8" y="-7.5" font-family="Helvetica,sans-Serif" font-size="10.00"># TearDown()</text>
</a>
</g>
</g>
<!-- Node2 -->
<g id="node2" class="node">
<title>Node2</title>
<g id="a_node2"><a xlink:title=" ">
<polygon fill="none" stroke="black" points="3.5,-105.5 3.5,-162.5 79.5,-162.5 79.5,-105.5 3.5,-105.5"/>
<text text-anchor="middle" x="41.5" y="-150.5" font-family="Helvetica,sans-Serif" font-size="10.00">testing::Test</text>
<polyline fill="none" stroke="black" points="3.5,-143.5 79.5,-143.5 "/>
<text text-anchor="middle" x="41.5" y="-131.5" font-family="Helvetica,sans-Serif" font-size="10.00"> </text>
<polyline fill="none" stroke="black" points="3.5,-124.5 79.5,-124.5 "/>
<text text-anchor="middle" x="41.5" y="-112.5" font-family="Helvetica,sans-Serif" font-size="10.00"> </text>
</a>
</g>
</g>
<!-- Node2&#45;&gt;Node1 -->
<g id="edge1" class="edge">
<title>Node2&#45;&gt;Node1</title>
<path fill="none" stroke="midnightblue" d="M41.5,-95.06C41.5,-86.39 41.5,-77.24 41.5,-68.79"/>
<polygon fill="none" stroke="midnightblue" points="38,-95.32 41.5,-105.32 45,-95.32 38,-95.32"/>
</g>
</g>
</svg>
