<?xml version="1.0" encoding="UTF-8" standalone="no"?>
<!DOCTYPE svg PUBLIC "-//W3C//DTD SVG 1.1//EN"
 "http://www.w3.org/Graphics/SVG/1.1/DTD/svg11.dtd">
<!-- Generated by graphviz version 2.43.0 (0)
 -->
<!-- Title: RPC::Client Pages: 1 -->
<svg width="133pt" height="215pt"
 viewBox="0.00 0.00 133.00 215.00" xmlns="http://www.w3.org/2000/svg" xmlns:xlink="http://www.w3.org/1999/xlink">
<g id="graph0" class="graph" transform="scale(1 1) rotate(0) translate(4 211)">
<title>RPC::Client</title>
<!-- Node1 -->
<g id="node1" class="node">
<title>Node1</title>
<g id="a_node1"><a xlink:title=" ">
<polygon fill="#bfbfbf" stroke="black" points="17.5,-0.5 17.5,-101.5 107.5,-101.5 107.5,-0.5 17.5,-0.5"/>
<text text-anchor="middle" x="62.5" y="-89.5" font-family="Helvetica,sans-Serif" font-size="10.00">RPC::Client</text>
<polyline fill="none" stroke="black" points="17.5,-82.5 107.5,-82.5 "/>
<text text-anchor="start" x="25.5" y="-70.5" font-family="Helvetica,sans-Serif" font-size="10.00">+ callback</text>
<text text-anchor="start" x="25.5" y="-59.5" font-family="Helvetica,sans-Serif" font-size="10.00"># context</text>
<polyline fill="none" stroke="black" points="17.5,-52.5 107.5,-52.5 "/>
<text text-anchor="start" x="25.5" y="-40.5" font-family="Helvetica,sans-Serif" font-size="10.00">+ Client()</text>
<text text-anchor="start" x="25.5" y="-29.5" font-family="Helvetica,sans-Serif" font-size="10.00">+ ~Client()</text>
<text text-anchor="start" x="25.5" y="-18.5" font-family="Helvetica,sans-Serif" font-size="10.00">+ wait_scope()</text>
<text text-anchor="start" x="25.5" y="-7.5" font-family="Helvetica,sans-Serif" font-size="10.00">+ recv()</text>
</a>
</g>
</g>
<!-- Node2 -->
<g id="node2" class="node">
<title>Node2</title>
<g id="a_node2"><a xlink:href="classutil_1_1Factory.html" target="_top" xlink:title=" ">
<polygon fill="none" stroke="black" points="0,-138.5 0,-206.5 125,-206.5 125,-138.5 0,-138.5"/>
<text text-anchor="middle" x="62.5" y="-194.5" font-family="Helvetica,sans-Serif" font-size="10.00">util::Factory&lt; Client &gt;</text>
<polyline fill="none" stroke="black" points="0,-187.5 125,-187.5 "/>
<text text-anchor="start" x="8" y="-175.5" font-family="Helvetica,sans-Serif" font-size="10.00">+ base_t</text>
<polyline fill="none" stroke="black" points="0,-168.5 125,-168.5 "/>
<text text-anchor="start" x="8" y="-156.5" font-family="Helvetica,sans-Serif" font-size="10.00">+ make()</text>
<text text-anchor="start" x="8" y="-145.5" font-family="Helvetica,sans-Serif" font-size="10.00">+ map()</text>
</a>
</g>
</g>
<!-- Node2&#45;&gt;Node1 -->
<g id="edge1" class="edge">
<title>Node2&#45;&gt;Node1</title>
<path fill="none" stroke="midnightblue" d="M62.5,-128.05C62.5,-119.47 62.5,-110.41 62.5,-101.65"/>
<polygon fill="none" stroke="midnightblue" points="59,-128.21 62.5,-138.21 66,-128.21 59,-128.21"/>
</g>
</g>
</svg>
