<?xml version="1.0" encoding="UTF-8" standalone="no"?>
<!DOCTYPE svg PUBLIC "-//W3C//DTD SVG 1.1//EN"
 "http://www.w3.org/Graphics/SVG/1.1/DTD/svg11.dtd">
<!-- Generated by graphviz version 2.43.0 (0)
 -->
<!-- Title: Logging::Endpoints::Dummy Pages: 1 -->
<svg width="162pt" height="215pt"
 viewBox="0.00 0.00 162.00 215.00" xmlns="http://www.w3.org/2000/svg" xmlns:xlink="http://www.w3.org/1999/xlink">
<g id="graph0" class="graph" transform="scale(1 1) rotate(0) translate(4 211)">
<title>Logging::Endpoints::Dummy</title>
<!-- Node1 -->
<g id="node1" class="node">
<title>Node1</title>
<g id="a_node1"><a xlink:title=" ">
<polygon fill="#bfbfbf" stroke="black" points="22.5,-0.5 22.5,-101.5 131.5,-101.5 131.5,-0.5 22.5,-0.5"/>
<text text-anchor="start" x="30.5" y="-89.5" font-family="Helvetica,sans-Serif" font-size="10.00">Logging::Endpoints</text>
<text text-anchor="middle" x="77" y="-78.5" font-family="Helvetica,sans-Serif" font-size="10.00">::Dummy</text>
<polyline fill="none" stroke="black" points="22.5,-71.5 131.5,-71.5 "/>
<text text-anchor="start" x="30.5" y="-59.5" font-family="Helvetica,sans-Serif" font-size="10.00">+ messages</text>
<polyline fill="none" stroke="black" points="22.5,-52.5 131.5,-52.5 "/>
<text text-anchor="start" x="30.5" y="-40.5" font-family="Helvetica,sans-Serif" font-size="10.00">+ Dummy()</text>
<text text-anchor="start" x="30.5" y="-29.5" font-family="Helvetica,sans-Serif" font-size="10.00">+ ~Dummy()</text>
<text text-anchor="start" x="30.5" y="-18.5" font-family="Helvetica,sans-Serif" font-size="10.00">+ print()</text>
<text text-anchor="start" x="30.5" y="-7.5" font-family="Helvetica,sans-Serif" font-size="10.00">+ flush()</text>
</a>
</g>
</g>
<!-- Node2 -->
<g id="node2" class="node">
<title>Node2</title>
<g id="a_node2"><a xlink:title=" ">
<polygon fill="none" stroke="black" points="0,-138.5 0,-206.5 154,-206.5 154,-138.5 0,-138.5"/>
<text text-anchor="start" x="8" y="-194.5" font-family="Helvetica,sans-Serif" font-size="10.00">Endpoint::Registrar</text>
<text text-anchor="middle" x="77" y="-183.5" font-family="Helvetica,sans-Serif" font-size="10.00">&lt; Dummy, DummyConfig &gt;</text>
<polyline fill="none" stroke="black" points="0,-176.5 154,-176.5 "/>
<text text-anchor="middle" x="77" y="-164.5" font-family="Helvetica,sans-Serif" font-size="10.00"> </text>
<polyline fill="none" stroke="black" points="0,-157.5 154,-157.5 "/>
<text text-anchor="middle" x="77" y="-145.5" font-family="Helvetica,sans-Serif" font-size="10.00"> </text>
</a>
</g>
</g>
<!-- Node2&#45;&gt;Node1 -->
<g id="edge1" class="edge">
<title>Node2&#45;&gt;Node1</title>
<path fill="none" stroke="midnightblue" d="M77,-128.05C77,-119.47 77,-110.41 77,-101.65"/>
<polygon fill="none" stroke="midnightblue" points="73.5,-128.21 77,-138.21 80.5,-128.21 73.5,-128.21"/>
</g>
</g>
</svg>
