<?xml version="1.0" encoding="UTF-8" standalone="no"?>
<!DOCTYPE svg PUBLIC "-//W3C//DTD SVG 1.1//EN"
 "http://www.w3.org/Graphics/SVG/1.1/DTD/svg11.dtd">
<!-- Generated by graphviz version 2.43.0 (0)
 -->
<!-- Title: Token Pages: 1 -->
<svg width="91pt" height="204pt"
 viewBox="0.00 0.00 91.00 204.00" xmlns="http://www.w3.org/2000/svg" xmlns:xlink="http://www.w3.org/1999/xlink">
<g id="graph0" class="graph" transform="scale(1 1) rotate(0) translate(4 200)">
<title>Token</title>
<!-- Node1 -->
<g id="node1" class="node">
<title>Node1</title>
<g id="a_node1"><a xlink:title=" ">
<polygon fill="#bfbfbf" stroke="black" points="0,-0.5 0,-101.5 83,-101.5 83,-0.5 0,-0.5"/>
<text text-anchor="middle" x="41.5" y="-89.5" font-family="Helvetica,sans-Serif" font-size="10.00">Token</text>
<polyline fill="none" stroke="black" points="0,-82.5 83,-82.5 "/>
<text text-anchor="start" x="8" y="-70.5" font-family="Helvetica,sans-Serif" font-size="10.00"># event_loop</text>
<text text-anchor="start" x="8" y="-59.5" font-family="Helvetica,sans-Serif" font-size="10.00"># wait_scope</text>
<text text-anchor="start" x="8" y="-48.5" font-family="Helvetica,sans-Serif" font-size="10.00"># executor</text>
<polyline fill="none" stroke="black" points="0,-41.5 83,-41.5 "/>
<text text-anchor="start" x="8" y="-29.5" font-family="Helvetica,sans-Serif" font-size="10.00"># ~Token()</text>
<text text-anchor="start" x="8" y="-18.5" font-family="Helvetica,sans-Serif" font-size="10.00"># SetUp()</text>
<text text-anchor="start" x="8" y="-7.5" font-family="Helvetica,sans-Serif" font-size="10.00"># TearDown()</text>
</a>
</g>
</g>
<!-- Node2 -->
<g id="node2" class="node">
<title>Node2</title>
<g id="a_node2"><a xlink:title=" ">
<polygon fill="none" stroke="black" points="3.5,-138.5 3.5,-195.5 79.5,-195.5 79.5,-138.5 3.5,-138.5"/>
<text text-anchor="middle" x="41.5" y="-183.5" font-family="Helvetica,sans-Serif" font-size="10.00">testing::Test</text>
<polyline fill="none" stroke="black" points="3.5,-176.5 79.5,-176.5 "/>
<text text-anchor="middle" x="41.5" y="-164.5" font-family="Helvetica,sans-Serif" font-size="10.00"> </text>
<polyline fill="none" stroke="black" points="3.5,-157.5 79.5,-157.5 "/>
<text text-anchor="middle" x="41.5" y="-145.5" font-family="Helvetica,sans-Serif" font-size="10.00"> </text>
</a>
</g>
</g>
<!-- Node2&#45;&gt;Node1 -->
<g id="edge1" class="edge">
<title>Node2&#45;&gt;Node1</title>
<path fill="none" stroke="midnightblue" d="M41.5,-128.35C41.5,-119.8 41.5,-110.58 41.5,-101.61"/>
<polygon fill="none" stroke="midnightblue" points="38,-128.4 41.5,-138.4 45,-128.4 38,-128.4"/>
</g>
</g>
</svg>
