<?xml version="1.0" encoding="UTF-8" standalone="no"?>
<!DOCTYPE svg PUBLIC "-//W3C//DTD SVG 1.1//EN"
 "http://www.w3.org/Graphics/SVG/1.1/DTD/svg11.dtd">
<!-- Generated by graphviz version 2.43.0 (0)
 -->
<!-- Title: runnable Pages: 1 -->
<svg width="701pt" height="496pt"
 viewBox="0.00 0.00 700.50 496.00" xmlns="http://www.w3.org/2000/svg" xmlns:xlink="http://www.w3.org/1999/xlink">
<g id="graph0" class="graph" transform="scale(1 1) rotate(0) translate(4 492)">
<title>runnable</title>
<!-- Node1 -->
<g id="node1" class="node">
<title>Node1</title>
<g id="a_node1"><a xlink:title=" ">
<polygon fill="#bfbfbf" stroke="black" points="266,-331.5 266,-487.5 367,-487.5 367,-331.5 266,-331.5"/>
<text text-anchor="middle" x="316.5" y="-475.5" font-family="Helvetica,sans-Serif" font-size="10.00">runnable</text>
<polyline fill="none" stroke="black" points="266,-468.5 367,-468.5 "/>
<text text-anchor="start" x="274" y="-456.5" font-family="Helvetica,sans-Serif" font-size="10.00"># thread</text>
<text text-anchor="start" x="274" y="-445.5" font-family="Helvetica,sans-Serif" font-size="10.00"># callback</text>
<polyline fill="none" stroke="black" points="266,-438.5 367,-438.5 "/>
<text text-anchor="start" x="274" y="-426.5" font-family="Helvetica,sans-Serif" font-size="10.00">+ runnable()</text>
<text text-anchor="start" x="274" y="-415.5" font-family="Helvetica,sans-Serif" font-size="10.00">+ ~runnable()</text>
<text text-anchor="start" x="274" y="-404.5" font-family="Helvetica,sans-Serif" font-size="10.00">+ operator()()</text>
<text text-anchor="start" x="274" y="-393.5" font-family="Helvetica,sans-Serif" font-size="10.00">+ run()</text>
<text text-anchor="start" x="274" y="-382.5" font-family="Helvetica,sans-Serif" font-size="10.00">+ run()</text>
<text text-anchor="start" x="274" y="-371.5" font-family="Helvetica,sans-Serif" font-size="10.00">+ stop()</text>
<text text-anchor="start" x="274" y="-360.5" font-family="Helvetica,sans-Serif" font-size="10.00">+ operator&lt;=&gt;()</text>
<text text-anchor="start" x="274" y="-349.5" font-family="Helvetica,sans-Serif" font-size="10.00"># setup()</text>
<text text-anchor="start" x="274" y="-338.5" font-family="Helvetica,sans-Serif" font-size="10.00"># loop()</text>
</a>
</g>
</g>
<!-- Node2 -->
<g id="node2" class="node">
<title>Node2</title>
<g id="a_node2"><a xlink:href="classRPC_1_1Server.html" target="_top" xlink:title=" ">
<polygon fill="none" stroke="black" points="0,-144 0,-289 97,-289 97,-144 0,-144"/>
<text text-anchor="middle" x="48.5" y="-277" font-family="Helvetica,sans-Serif" font-size="10.00">RPC::Server</text>
<polyline fill="none" stroke="black" points="0,-270 97,-270 "/>
<text text-anchor="start" x="8" y="-258" font-family="Helvetica,sans-Serif" font-size="10.00"># interface</text>
<text text-anchor="start" x="8" y="-247" font-family="Helvetica,sans-Serif" font-size="10.00"># authenticator</text>
<text text-anchor="start" x="8" y="-236" font-family="Helvetica,sans-Serif" font-size="10.00"># contexts</text>
<text text-anchor="start" x="8" y="-225" font-family="Helvetica,sans-Serif" font-size="10.00"># io</text>
<polyline fill="none" stroke="black" points="0,-218 97,-218 "/>
<text text-anchor="start" x="8" y="-206" font-family="Helvetica,sans-Serif" font-size="10.00">+ Server()</text>
<text text-anchor="start" x="8" y="-195" font-family="Helvetica,sans-Serif" font-size="10.00">+ ~Server()</text>
<text text-anchor="start" x="8" y="-184" font-family="Helvetica,sans-Serif" font-size="10.00">+ broadcast()</text>
<text text-anchor="start" x="8" y="-173" font-family="Helvetica,sans-Serif" font-size="10.00"># accept()</text>
<text text-anchor="start" x="8" y="-162" font-family="Helvetica,sans-Serif" font-size="10.00"># remove()</text>
<text text-anchor="start" x="8" y="-151" font-family="Helvetica,sans-Serif" font-size="10.00"># authenticate()</text>
</a>
</g>
</g>
<!-- Node1&#45;&gt;Node2 -->
<g id="edge1" class="edge">
<title>Node1&#45;&gt;Node2</title>
<path fill="none" stroke="midnightblue" d="M256.44,-384.79C211.64,-365.18 150.65,-334.21 105.5,-295 102.73,-292.59 100.01,-290.02 97.36,-287.34"/>
<polygon fill="none" stroke="midnightblue" points="255.17,-388.06 265.74,-388.81 257.94,-381.63 255.17,-388.06"/>
</g>
<!-- Node3 -->
<g id="node3" class="node">
<title>Node3</title>
<g id="a_node3"><a xlink:href="classUI_1_1Control.html" target="_top" xlink:title=" ">
<polygon fill="none" stroke="black" points="115,-182.5 115,-250.5 194,-250.5 194,-182.5 115,-182.5"/>
<text text-anchor="middle" x="154.5" y="-238.5" font-family="Helvetica,sans-Serif" font-size="10.00">UI::Control</text>
<polyline fill="none" stroke="black" points="115,-231.5 194,-231.5 "/>
<text text-anchor="middle" x="154.5" y="-219.5" font-family="Helvetica,sans-Serif" font-size="10.00"> </text>
<polyline fill="none" stroke="black" points="115,-212.5 194,-212.5 "/>
<text text-anchor="start" x="123" y="-200.5" font-family="Helvetica,sans-Serif" font-size="10.00">+ Control()</text>
<text text-anchor="start" x="123" y="-189.5" font-family="Helvetica,sans-Serif" font-size="10.00">+ ~Control()</text>
</a>
</g>
</g>
<!-- Node1&#45;&gt;Node3 -->
<g id="edge2" class="edge">
<title>Node1&#45;&gt;Node3</title>
<path fill="none" stroke="midnightblue" d="M258.5,-355.9C239.65,-337.5 219.29,-316.14 202.5,-295 191.58,-281.24 181.1,-264.84 172.74,-250.68"/>
<polygon fill="none" stroke="midnightblue" points="256.29,-358.63 265.91,-363.06 261.15,-353.6 256.29,-358.63"/>
</g>
<!-- Node4 -->
<g id="node4" class="node">
<title>Node4</title>
<g id="a_node4"><a xlink:href="classconsumer.html" target="_top" xlink:title=" ">
<polygon fill="none" stroke="black" points="212,-171.5 212,-261.5 305,-261.5 305,-171.5 212,-171.5"/>
<text text-anchor="middle" x="258.5" y="-249.5" font-family="Helvetica,sans-Serif" font-size="10.00">consumer</text>
<polyline fill="none" stroke="black" points="212,-242.5 305,-242.5 "/>
<text text-anchor="start" x="220" y="-230.5" font-family="Helvetica,sans-Serif" font-size="10.00"># client_handle</text>
<polyline fill="none" stroke="black" points="212,-223.5 305,-223.5 "/>
<text text-anchor="start" x="220" y="-211.5" font-family="Helvetica,sans-Serif" font-size="10.00">+ ~consumer()</text>
<text text-anchor="start" x="220" y="-200.5" font-family="Helvetica,sans-Serif" font-size="10.00">+ consumer()</text>
<text text-anchor="start" x="220" y="-189.5" font-family="Helvetica,sans-Serif" font-size="10.00">+ loop()</text>
<text text-anchor="start" x="220" y="-178.5" font-family="Helvetica,sans-Serif" font-size="10.00">+ handle()</text>
</a>
</g>
</g>
<!-- Node1&#45;&gt;Node4 -->
<g id="edge3" class="edge">
<title>Node1&#45;&gt;Node4</title>
<path fill="none" stroke="midnightblue" d="M290.1,-321.57C283.8,-300.83 277.34,-279.55 271.91,-261.67"/>
<polygon fill="none" stroke="midnightblue" points="286.82,-322.81 293.08,-331.36 293.52,-320.78 286.82,-322.81"/>
</g>
<!-- Node5 -->
<g id="node5" class="node">
<title>Node5</title>
<g id="a_node5"><a xlink:href="classproducer.html" target="_top" xlink:title=" ">
<polygon fill="none" stroke="black" points="323.5,-171.5 323.5,-261.5 425.5,-261.5 425.5,-171.5 323.5,-171.5"/>
<text text-anchor="middle" x="374.5" y="-249.5" font-family="Helvetica,sans-Serif" font-size="10.00">producer</text>
<polyline fill="none" stroke="black" points="323.5,-242.5 425.5,-242.5 "/>
<text text-anchor="start" x="331.5" y="-230.5" font-family="Helvetica,sans-Serif" font-size="10.00"># data</text>
<text text-anchor="start" x="331.5" y="-219.5" font-family="Helvetica,sans-Serif" font-size="10.00"># control</text>
<polyline fill="none" stroke="black" points="323.5,-212.5 425.5,-212.5 "/>
<text text-anchor="start" x="331.5" y="-200.5" font-family="Helvetica,sans-Serif" font-size="10.00">+ producer()</text>
<text text-anchor="start" x="331.5" y="-189.5" font-family="Helvetica,sans-Serif" font-size="10.00">+ ~producer()</text>
<text text-anchor="start" x="331.5" y="-178.5" font-family="Helvetica,sans-Serif" font-size="10.00"># control_event()</text>
</a>
</g>
</g>
<!-- Node1&#45;&gt;Node5 -->
<g id="edge4" class="edge">
<title>Node1&#45;&gt;Node5</title>
<path fill="none" stroke="midnightblue" d="M342.9,-321.57C349.2,-300.83 355.66,-279.55 361.09,-261.67"/>
<polygon fill="none" stroke="midnightblue" points="339.48,-320.78 339.92,-331.36 346.18,-322.81 339.48,-320.78"/>
</g>
<!-- Node6 -->
<g id="node6" class="node">
<title>Node6</title>
<g id="a_node6"><a xlink:href="classtransport_1_1Client.html" target="_top" xlink:title=" ">
<polygon fill="none" stroke="black" points="444,-160.5 444,-272.5 549,-272.5 549,-160.5 444,-160.5"/>
<text text-anchor="middle" x="496.5" y="-260.5" font-family="Helvetica,sans-Serif" font-size="10.00">transport::Client</text>
<polyline fill="none" stroke="black" points="444,-253.5 549,-253.5 "/>
<text text-anchor="start" x="452" y="-241.5" font-family="Helvetica,sans-Serif" font-size="10.00">+ message_event</text>
<text text-anchor="start" x="452" y="-230.5" font-family="Helvetica,sans-Serif" font-size="10.00"># packed</text>
<polyline fill="none" stroke="black" points="444,-223.5 549,-223.5 "/>
<text text-anchor="start" x="452" y="-211.5" font-family="Helvetica,sans-Serif" font-size="10.00">+ Client()</text>
<text text-anchor="start" x="452" y="-200.5" font-family="Helvetica,sans-Serif" font-size="10.00">+ ~Client()</text>
<text text-anchor="start" x="452" y="-189.5" font-family="Helvetica,sans-Serif" font-size="10.00">+ loop()</text>
<text text-anchor="start" x="452" y="-178.5" font-family="Helvetica,sans-Serif" font-size="10.00">+ send()</text>
<text text-anchor="start" x="452" y="-167.5" font-family="Helvetica,sans-Serif" font-size="10.00">+ recv()</text>
</a>
</g>
</g>
<!-- Node1&#45;&gt;Node6 -->
<g id="edge5" class="edge">
<title>Node1&#45;&gt;Node6</title>
<path fill="none" stroke="midnightblue" d="M374.41,-355.67C394.04,-337.02 415.72,-315.57 434.5,-295 440.89,-288 447.39,-280.43 453.67,-272.86"/>
<polygon fill="none" stroke="midnightblue" points="371.87,-353.25 367,-362.67 376.68,-358.34 371.87,-353.25"/>
</g>
<!-- Node8 -->
<g id="node8" class="node">
<title>Node8</title>
<g id="a_node8"><a xlink:href="classtransport_1_1Server.html" target="_top" xlink:title=" ">
<polygon fill="none" stroke="black" points="575,-138.5 575,-294.5 680,-294.5 680,-138.5 575,-138.5"/>
<text text-anchor="middle" x="627.5" y="-282.5" font-family="Helvetica,sans-Serif" font-size="10.00">transport::Server</text>
<polyline fill="none" stroke="black" points="575,-275.5 680,-275.5 "/>
<text text-anchor="start" x="583" y="-263.5" font-family="Helvetica,sans-Serif" font-size="10.00"># clients</text>
<text text-anchor="start" x="583" y="-252.5" font-family="Helvetica,sans-Serif" font-size="10.00"># clients_mutex</text>
<text text-anchor="start" x="583" y="-241.5" font-family="Helvetica,sans-Serif" font-size="10.00"># packed</text>
<text text-anchor="start" x="583" y="-230.5" font-family="Helvetica,sans-Serif" font-size="10.00"># message_event</text>
<polyline fill="none" stroke="black" points="575,-223.5 680,-223.5 "/>
<text text-anchor="start" x="583" y="-211.5" font-family="Helvetica,sans-Serif" font-size="10.00">+ ~Server()</text>
<text text-anchor="start" x="583" y="-200.5" font-family="Helvetica,sans-Serif" font-size="10.00">+ Server()</text>
<text text-anchor="start" x="583" y="-189.5" font-family="Helvetica,sans-Serif" font-size="10.00">+ prepare()</text>
<text text-anchor="start" x="583" y="-178.5" font-family="Helvetica,sans-Serif" font-size="10.00">+ broadcast()</text>
<text text-anchor="start" x="583" y="-167.5" font-family="Helvetica,sans-Serif" font-size="10.00">+ set_event()</text>
<text text-anchor="start" x="583" y="-156.5" font-family="Helvetica,sans-Serif" font-size="10.00">+ add()</text>
<text text-anchor="start" x="583" y="-145.5" font-family="Helvetica,sans-Serif" font-size="10.00">+ remove()</text>
</a>
</g>
</g>
<!-- Node1&#45;&gt;Node8 -->
<g id="edge7" class="edge">
<title>Node1&#45;&gt;Node8</title>
<path fill="none" stroke="midnightblue" d="M376.64,-388.12C427.98,-368.97 502.24,-336.97 558.5,-295 564.13,-290.8 569.65,-286.08 574.96,-281.1"/>
<polygon fill="none" stroke="midnightblue" points="375.18,-384.93 367,-391.67 377.6,-391.5 375.18,-384.93"/>
</g>
<!-- Node7 -->
<g id="node7" class="node">
<title>Node7</title>
<g id="a_node7"><a xlink:href="classtransport_1_1TCP_1_1Client.html" target="_top" xlink:title=" ">
<polygon fill="none" stroke="black" points="433,-0.5 433,-101.5 552,-101.5 552,-0.5 433,-0.5"/>
<text text-anchor="middle" x="492.5" y="-89.5" font-family="Helvetica,sans-Serif" font-size="10.00">transport::TCP::Client</text>
<polyline fill="none" stroke="black" points="433,-82.5 552,-82.5 "/>
<text text-anchor="middle" x="492.5" y="-70.5" font-family="Helvetica,sans-Serif" font-size="10.00"> </text>
<polyline fill="none" stroke="black" points="433,-63.5 552,-63.5 "/>
<text text-anchor="start" x="441" y="-51.5" font-family="Helvetica,sans-Serif" font-size="10.00">+ Client()</text>
<text text-anchor="start" x="441" y="-40.5" font-family="Helvetica,sans-Serif" font-size="10.00">+ Client()</text>
<text text-anchor="start" x="441" y="-29.5" font-family="Helvetica,sans-Serif" font-size="10.00">+ ~Client()</text>
<text text-anchor="start" x="441" y="-18.5" font-family="Helvetica,sans-Serif" font-size="10.00">+ send()</text>
<text text-anchor="start" x="441" y="-7.5" font-family="Helvetica,sans-Serif" font-size="10.00">+ recv()</text>
</a>
</g>
</g>
<!-- Node6&#45;&gt;Node7 -->
<g id="edge6" class="edge">
<title>Node6&#45;&gt;Node7</title>
<path fill="none" stroke="midnightblue" d="M494.89,-149.73C494.5,-133.65 494.08,-116.71 493.71,-101.53"/>
<polygon fill="none" stroke="midnightblue" points="491.4,-150.23 495.15,-160.15 498.4,-150.06 491.4,-150.23"/>
</g>
<!-- Node9 -->
<g id="node9" class="node">
<title>Node9</title>
<g id="a_node9"><a xlink:href="classtransport_1_1TCP_1_1Server.html" target="_top" xlink:title=" ">
<polygon fill="none" stroke="black" points="570.5,-17 570.5,-85 692.5,-85 692.5,-17 570.5,-17"/>
<text text-anchor="middle" x="631.5" y="-73" font-family="Helvetica,sans-Serif" font-size="10.00">transport::TCP::Server</text>
<polyline fill="none" stroke="black" points="570.5,-66 692.5,-66 "/>
<text text-anchor="middle" x="631.5" y="-54" font-family="Helvetica,sans-Serif" font-size="10.00"> </text>
<polyline fill="none" stroke="black" points="570.5,-47 692.5,-47 "/>
<text text-anchor="start" x="578.5" y="-35" font-family="Helvetica,sans-Serif" font-size="10.00">+ Server()</text>
<text text-anchor="start" x="578.5" y="-24" font-family="Helvetica,sans-Serif" font-size="10.00">+ loop()</text>
</a>
</g>
</g>
<!-- Node8&#45;&gt;Node9 -->
<g id="edge8" class="edge">
<title>Node8&#45;&gt;Node9</title>
<path fill="none" stroke="midnightblue" d="M629.64,-128C630.01,-112.71 630.38,-97.69 630.69,-85.1"/>
<polygon fill="none" stroke="midnightblue" points="626.14,-127.98 629.39,-138.06 633.14,-128.15 626.14,-127.98"/>
</g>
</g>
</svg>
