<?xml version="1.0" encoding="UTF-8" standalone="no"?>
<!DOCTYPE svg PUBLIC "-//W3C//DTD SVG 1.1//EN"
 "http://www.w3.org/Graphics/SVG/1.1/DTD/svg11.dtd">
<!-- Generated by graphviz version 2.43.0 (0)
 -->
<!-- Title: transport::TCP::Server Pages: 1 -->
<svg width="130pt" height="463pt"
 viewBox="0.00 0.00 130.00 463.00" xmlns="http://www.w3.org/2000/svg" xmlns:xlink="http://www.w3.org/1999/xlink">
<g id="graph0" class="graph" transform="scale(1 1) rotate(0) translate(4 459)">
<title>transport::TCP::Server</title>
<!-- Node1 -->
<g id="node1" class="node">
<title>Node1</title>
<g id="a_node1"><a xlink:title=" ">
<polygon fill="#bfbfbf" stroke="black" points="0,-0.5 0,-68.5 122,-68.5 122,-0.5 0,-0.5"/>
<text text-anchor="middle" x="61" y="-56.5" font-family="Helvetica,sans-Serif" font-size="10.00">transport::TCP::Server</text>
<polyline fill="none" stroke="black" points="0,-49.5 122,-49.5 "/>
<text text-anchor="middle" x="61" y="-37.5" font-family="Helvetica,sans-Serif" font-size="10.00"> </text>
<polyline fill="none" stroke="black" points="0,-30.5 122,-30.5 "/>
<text text-anchor="start" x="8" y="-18.5" font-family="Helvetica,sans-Serif" font-size="10.00">+ Server()</text>
<text text-anchor="start" x="8" y="-7.5" font-family="Helvetica,sans-Serif" font-size="10.00">+ loop()</text>
</a>
</g>
</g>
<!-- Node2 -->
<g id="node2" class="node">
<title>Node2</title>
<g id="a_node2"><a xlink:href="classtransport_1_1Server.html" target="_top" xlink:title=" ">
<polygon fill="none" stroke="black" points="8.5,-105.5 8.5,-261.5 113.5,-261.5 113.5,-105.5 8.5,-105.5"/>
<text text-anchor="middle" x="61" y="-249.5" font-family="Helvetica,sans-Serif" font-size="10.00">transport::Server</text>
<polyline fill="none" stroke="black" points="8.5,-242.5 113.5,-242.5 "/>
<text text-anchor="start" x="16.5" y="-230.5" font-family="Helvetica,sans-Serif" font-size="10.00"># clients</text>
<text text-anchor="start" x="16.5" y="-219.5" font-family="Helvetica,sans-Serif" font-size="10.00"># clients_mutex</text>
<text text-anchor="start" x="16.5" y="-208.5" font-family="Helvetica,sans-Serif" font-size="10.00"># packed</text>
<text text-anchor="start" x="16.5" y="-197.5" font-family="Helvetica,sans-Serif" font-size="10.00"># message_event</text>
<polyline fill="none" stroke="black" points="8.5,-190.5 113.5,-190.5 "/>
<text text-anchor="start" x="16.5" y="-178.5" font-family="Helvetica,sans-Serif" font-size="10.00">+ ~Server()</text>
<text text-anchor="start" x="16.5" y="-167.5" font-family="Helvetica,sans-Serif" font-size="10.00">+ Server()</text>
<text text-anchor="start" x="16.5" y="-156.5" font-family="Helvetica,sans-Serif" font-size="10.00">+ prepare()</text>
<text text-anchor="start" x="16.5" y="-145.5" font-family="Helvetica,sans-Serif" font-size="10.00">+ broadcast()</text>
<text text-anchor="start" x="16.5" y="-134.5" font-family="Helvetica,sans-Serif" font-size="10.00">+ set_event()</text>
<text text-anchor="start" x="16.5" y="-123.5" font-family="Helvetica,sans-Serif" font-size="10.00">+ add()</text>
<text text-anchor="start" x="16.5" y="-112.5" font-family="Helvetica,sans-Serif" font-size="10.00">+ remove()</text>
</a>
</g>
</g>
<!-- Node2&#45;&gt;Node1 -->
<g id="edge1" class="edge">
<title>Node2&#45;&gt;Node1</title>
<path fill="none" stroke="midnightblue" d="M61,-94.94C61,-85.63 61,-76.64 61,-68.59"/>
<polygon fill="none" stroke="midnightblue" points="57.5,-95.13 61,-105.13 64.5,-95.13 57.5,-95.13"/>
</g>
<!-- Node3 -->
<g id="node3" class="node">
<title>Node3</title>
<g id="a_node3"><a xlink:href="classrunnable.html" target="_top" xlink:title=" ">
<polygon fill="none" stroke="black" points="10.5,-298.5 10.5,-454.5 111.5,-454.5 111.5,-298.5 10.5,-298.5"/>
<text text-anchor="middle" x="61" y="-442.5" font-family="Helvetica,sans-Serif" font-size="10.00">runnable</text>
<polyline fill="none" stroke="black" points="10.5,-435.5 111.5,-435.5 "/>
<text text-anchor="start" x="18.5" y="-423.5" font-family="Helvetica,sans-Serif" font-size="10.00"># thread</text>
<text text-anchor="start" x="18.5" y="-412.5" font-family="Helvetica,sans-Serif" font-size="10.00"># callback</text>
<polyline fill="none" stroke="black" points="10.5,-405.5 111.5,-405.5 "/>
<text text-anchor="start" x="18.5" y="-393.5" font-family="Helvetica,sans-Serif" font-size="10.00">+ runnable()</text>
<text text-anchor="start" x="18.5" y="-382.5" font-family="Helvetica,sans-Serif" font-size="10.00">+ ~runnable()</text>
<text text-anchor="start" x="18.5" y="-371.5" font-family="Helvetica,sans-Serif" font-size="10.00">+ operator()()</text>
<text text-anchor="start" x="18.5" y="-360.5" font-family="Helvetica,sans-Serif" font-size="10.00">+ run()</text>
<text text-anchor="start" x="18.5" y="-349.5" font-family="Helvetica,sans-Serif" font-size="10.00">+ run()</text>
<text text-anchor="start" x="18.5" y="-338.5" font-family="Helvetica,sans-Serif" font-size="10.00">+ stop()</text>
<text text-anchor="start" x="18.5" y="-327.5" font-family="Helvetica,sans-Serif" font-size="10.00">+ operator&lt;=&gt;()</text>
<text text-anchor="start" x="18.5" y="-316.5" font-family="Helvetica,sans-Serif" font-size="10.00"># setup()</text>
<text text-anchor="start" x="18.5" y="-305.5" font-family="Helvetica,sans-Serif" font-size="10.00"># loop()</text>
</a>
</g>
</g>
<!-- Node3&#45;&gt;Node2 -->
<g id="edge2" class="edge">
<title>Node3&#45;&gt;Node2</title>
<path fill="none" stroke="midnightblue" d="M61,-288.35C61,-279.43 61,-270.41 61,-261.61"/>
<polygon fill="none" stroke="midnightblue" points="57.5,-288.36 61,-298.36 64.5,-288.36 57.5,-288.36"/>
</g>
</g>
</svg>
