<?xml version="1.0" encoding="UTF-8" standalone="no"?>
<!DOCTYPE svg PUBLIC "-//W3C//DTD SVG 1.1//EN"
 "http://www.w3.org/Graphics/SVG/1.1/DTD/svg11.dtd">
<!-- Generated by graphviz version 2.43.0 (0)
 -->
<!-- Title: Graphical Class Hierarchy Pages: 1 -->
<svg width="229pt" height="165pt"
 viewBox="0.00 0.00 229.00 164.50" xmlns="http://www.w3.org/2000/svg" xmlns:xlink="http://www.w3.org/1999/xlink">
<g id="graph0" class="graph" transform="scale(1 1) rotate(0) translate(4 160.5)">
<title>Graphical Class Hierarchy</title>
<!-- Node0 -->
<g id="node1" class="node">
<title>Node0</title>
<g id="a_node1"><a xlink:href="classUtil_1_1configurable.html" target="_top" xlink:title=" ">
<polygon fill="none" stroke="black" points="8.5,-49.5 8.5,-79.5 108.5,-79.5 108.5,-49.5 8.5,-49.5"/>
<text text-anchor="start" x="16.5" y="-67.5" font-family="Helvetica,sans-Serif" font-size="10.00">Util::configurable</text>
<text text-anchor="middle" x="58.5" y="-56.5" font-family="Helvetica,sans-Serif" font-size="10.00">&lt; config::UI &gt;</text>
</a>
</g>
</g>
<!-- Node1 -->
<g id="node2" class="node">
<title>Node1</title>
<g id="a_node2"><a xlink:href="classUI_1_1Control.html" target="_top" xlink:title=" ">
<polygon fill="none" stroke="black" points="153,-99 153,-118 221,-118 221,-99 153,-99"/>
<text text-anchor="middle" x="187" y="-106" font-family="Helvetica,sans-Serif" font-size="10.00">UI::Control</text>
</a>
</g>
</g>
<!-- Node0&#45;&gt;Node1 -->
<g id="edge1" class="edge">
<title>Node0&#45;&gt;Node1</title>
<path fill="none" stroke="midnightblue" d="M112.39,-82.9C128.23,-88.41 144.96,-94.23 158.46,-98.92"/>
<polygon fill="midnightblue" stroke="midnightblue" points="113.28,-79.5 102.68,-79.52 110.98,-86.11 113.28,-79.5"/>
</g>
<!-- Node4 -->
<g id="node3" class="node">
<title>Node4</title>
<g id="a_node3"><a xlink:href="classUI_1_1UI.html" target="_top" xlink:title=" ">
<polygon fill="none" stroke="black" points="165,-31 165,-50 209,-50 209,-31 165,-31"/>
<text text-anchor="middle" x="187" y="-38" font-family="Helvetica,sans-Serif" font-size="10.00">UI::UI</text>
</a>
</g>
</g>
<!-- Node0&#45;&gt;Node4 -->
<g id="edge2" class="edge">
<title>Node0&#45;&gt;Node4</title>
<path fill="none" stroke="midnightblue" d="M118.91,-53.23C135.33,-50.11 152.1,-46.93 164.76,-44.53"/>
<polygon fill="midnightblue" stroke="midnightblue" points="117.94,-49.85 108.77,-55.15 119.25,-56.73 117.94,-49.85"/>
</g>
<!-- Node5 -->
<g id="node4" class="node">
<title>Node5</title>
<g id="a_node4"><a xlink:href="structThreading_1_1Runnable.html" target="_top" xlink:title=" ">
<polygon fill="none" stroke="black" points="0,-0.5 0,-30.5 117,-30.5 117,-0.5 0,-0.5"/>
<text text-anchor="start" x="8" y="-18.5" font-family="Helvetica,sans-Serif" font-size="10.00">Threading::Runnable</text>
<text text-anchor="middle" x="58.5" y="-7.5" font-family="Helvetica,sans-Serif" font-size="10.00">&lt; Control &gt;</text>
</a>
</g>
</g>
<!-- Node5&#45;&gt;Node4 -->
<g id="edge3" class="edge">
<title>Node5&#45;&gt;Node4</title>
<path fill="none" stroke="midnightblue" d="M127.15,-28.87C140.8,-31.57 154.18,-34.21 164.72,-36.29"/>
<polygon fill="midnightblue" stroke="midnightblue" points="127.69,-25.41 117.2,-26.9 126.33,-32.28 127.69,-25.41"/>
</g>
<!-- Node2 -->
<g id="node5" class="node">
<title>Node2</title>
<g id="a_node5"><a xlink:title=" ">
<polygon fill="none" stroke="#bfbfbf" points="23,-137 23,-156 94,-156 94,-137 23,-137"/>
<text text-anchor="middle" x="58.5" y="-144" font-family="Helvetica,sans-Serif" font-size="10.00">UIC::Server</text>
</a>
</g>
</g>
<!-- Node2&#45;&gt;Node1 -->
<g id="edge4" class="edge">
<title>Node2&#45;&gt;Node1</title>
<path fill="none" stroke="midnightblue" d="M101.23,-133.96C118.44,-128.8 138.06,-122.9 154.09,-118.09"/>
<polygon fill="midnightblue" stroke="midnightblue" points="99.99,-130.68 91.42,-136.91 102.01,-137.39 99.99,-130.68"/>
</g>
<!-- Node3 -->
<g id="node6" class="node">
<title>Node3</title>
<g id="a_node6"><a xlink:href="structThreading_1_1Worker.html" target="_top" xlink:title=" ">
<polygon fill="none" stroke="black" points="6,-99 6,-118 111,-118 111,-99 6,-99"/>
<text text-anchor="middle" x="58.5" y="-106" font-family="Helvetica,sans-Serif" font-size="10.00">Threading::Worker</text>
</a>
</g>
</g>
<!-- Node3&#45;&gt;Node1 -->
<g id="edge5" class="edge">
<title>Node3&#45;&gt;Node1</title>
<path fill="none" stroke="midnightblue" d="M121.63,-108.5C132.43,-108.5 143.29,-108.5 152.92,-108.5"/>
<polygon fill="midnightblue" stroke="midnightblue" points="121.32,-105 111.32,-108.5 121.32,-112 121.32,-105"/>
</g>
</g>
</svg>
