<?xml version="1.0" encoding="UTF-8" standalone="no"?>
<!DOCTYPE svg PUBLIC "-//W3C//DTD SVG 1.1//EN"
 "http://www.w3.org/Graphics/SVG/1.1/DTD/svg11.dtd">
<!-- Generated by graphviz version 2.43.0 (0)
 -->
<!-- Title: Graphical Class Hierarchy Pages: 1 -->
<svg width="394pt" height="218pt"
 viewBox="0.00 0.00 394.00 218.00" xmlns="http://www.w3.org/2000/svg" xmlns:xlink="http://www.w3.org/1999/xlink">
<g id="graph0" class="graph" transform="scale(1 1) rotate(0) translate(4 214)">
<title>Graphical Class Hierarchy</title>
<!-- Node0 -->
<g id="node1" class="node">
<title>Node0</title>
<g id="a_node1"><a xlink:title=" ">
<polygon fill="none" stroke="#bfbfbf" points="0,-171.5 0,-190.5 94,-190.5 94,-171.5 0,-171.5"/>
<text text-anchor="middle" x="47" y="-178.5" font-family="Helvetica,sans-Serif" font-size="10.00">Module::Factory</text>
</a>
</g>
</g>
<!-- Node1 -->
<g id="node2" class="node">
<title>Node1</title>
<g id="a_node2"><a xlink:href="classRPC_1_1Client.html" target="_top" xlink:title=" ">
<polygon fill="none" stroke="black" points="143.5,-190.5 143.5,-209.5 214.5,-209.5 214.5,-190.5 143.5,-190.5"/>
<text text-anchor="middle" x="179" y="-197.5" font-family="Helvetica,sans-Serif" font-size="10.00">RPC::Client</text>
</a>
</g>
</g>
<!-- Node0&#45;&gt;Node1 -->
<g id="edge1" class="edge">
<title>Node0&#45;&gt;Node1</title>
<path fill="none" stroke="midnightblue" d="M104.25,-189.22C117.56,-191.17 131.37,-193.19 143.39,-194.94"/>
<polygon fill="midnightblue" stroke="midnightblue" points="104.6,-185.74 94.2,-187.75 103.59,-192.66 104.6,-185.74"/>
</g>
<!-- Node2 -->
<g id="node3" class="node">
<title>Node2</title>
<g id="a_node3"><a xlink:href="classRPC_1_1Server.html" target="_top" xlink:title=" ">
<polygon fill="none" stroke="black" points="142,-152.5 142,-171.5 216,-171.5 216,-152.5 142,-152.5"/>
<text text-anchor="middle" x="179" y="-159.5" font-family="Helvetica,sans-Serif" font-size="10.00">RPC::Server</text>
</a>
</g>
</g>
<!-- Node0&#45;&gt;Node2 -->
<g id="edge2" class="edge">
<title>Node0&#45;&gt;Node2</title>
<path fill="none" stroke="midnightblue" d="M104.26,-172.78C116.96,-170.92 130.13,-169 141.75,-167.3"/>
<polygon fill="midnightblue" stroke="midnightblue" points="103.59,-169.34 94.2,-174.25 104.6,-176.26 103.59,-169.34"/>
</g>
<!-- Node3 -->
<g id="node4" class="node">
<title>Node3</title>
<g id="a_node4"><a xlink:href="classrunnable.html" target="_top" xlink:title=" ">
<polygon fill="none" stroke="black" points="17.5,-76.5 17.5,-95.5 76.5,-95.5 76.5,-76.5 17.5,-76.5"/>
<text text-anchor="middle" x="47" y="-83.5" font-family="Helvetica,sans-Serif" font-size="10.00">runnable</text>
</a>
</g>
</g>
<!-- Node3&#45;&gt;Node2 -->
<g id="edge3" class="edge">
<title>Node3&#45;&gt;Node2</title>
<path fill="none" stroke="midnightblue" d="M68.06,-101.91C84.17,-114.19 107.7,-131.04 130,-143 136.48,-146.47 143.73,-149.67 150.6,-152.41"/>
<polygon fill="midnightblue" stroke="midnightblue" points="69.98,-98.97 59.93,-95.62 65.7,-104.51 69.98,-98.97"/>
</g>
<!-- Node4 -->
<g id="node5" class="node">
<title>Node4</title>
<g id="a_node5"><a xlink:href="classconsumer.html" target="_top" xlink:title=" ">
<polygon fill="none" stroke="black" points="146.5,-114.5 146.5,-133.5 211.5,-133.5 211.5,-114.5 146.5,-114.5"/>
<text text-anchor="middle" x="179" y="-121.5" font-family="Helvetica,sans-Serif" font-size="10.00">consumer</text>
</a>
</g>
</g>
<!-- Node3&#45;&gt;Node4 -->
<g id="edge4" class="edge">
<title>Node3&#45;&gt;Node4</title>
<path fill="none" stroke="midnightblue" d="M86.15,-97.15C105.29,-102.75 128.2,-109.44 146.35,-114.75"/>
<polygon fill="midnightblue" stroke="midnightblue" points="87.11,-93.79 76.53,-94.34 85.15,-100.5 87.11,-93.79"/>
</g>
<!-- Node5 -->
<g id="node6" class="node">
<title>Node5</title>
<g id="a_node6"><a xlink:href="classproducer.html" target="_top" xlink:title=" ">
<polygon fill="none" stroke="black" points="149.5,-76.5 149.5,-95.5 208.5,-95.5 208.5,-76.5 149.5,-76.5"/>
<text text-anchor="middle" x="179" y="-83.5" font-family="Helvetica,sans-Serif" font-size="10.00">producer</text>
</a>
</g>
</g>
<!-- Node3&#45;&gt;Node5 -->
<g id="edge5" class="edge">
<title>Node3&#45;&gt;Node5</title>
<path fill="none" stroke="midnightblue" d="M86.58,-86C106.62,-86 130.68,-86 149.09,-86"/>
<polygon fill="midnightblue" stroke="midnightblue" points="86.53,-82.5 76.53,-86 86.53,-89.5 86.53,-82.5"/>
</g>
<!-- Node6 -->
<g id="node7" class="node">
<title>Node6</title>
<g id="a_node7"><a xlink:href="classtransport_1_1Client.html" target="_top" xlink:title=" ">
<polygon fill="none" stroke="black" points="131.5,-38.5 131.5,-57.5 226.5,-57.5 226.5,-38.5 131.5,-38.5"/>
<text text-anchor="middle" x="179" y="-45.5" font-family="Helvetica,sans-Serif" font-size="10.00">transport::Client</text>
</a>
</g>
</g>
<!-- Node3&#45;&gt;Node6 -->
<g id="edge6" class="edge">
<title>Node3&#45;&gt;Node6</title>
<path fill="none" stroke="midnightblue" d="M86.26,-74.82C105.05,-69.32 127.45,-62.77 145.42,-57.52"/>
<polygon fill="midnightblue" stroke="midnightblue" points="85.15,-71.5 76.53,-77.66 87.11,-78.21 85.15,-71.5"/>
</g>
<!-- Node8 -->
<g id="node9" class="node">
<title>Node8</title>
<g id="a_node9"><a xlink:href="classtransport_1_1Server.html" target="_top" xlink:title=" ">
<polygon fill="none" stroke="black" points="130,-0.5 130,-19.5 228,-19.5 228,-0.5 130,-0.5"/>
<text text-anchor="middle" x="179" y="-7.5" font-family="Helvetica,sans-Serif" font-size="10.00">transport::Server</text>
</a>
</g>
</g>
<!-- Node3&#45;&gt;Node8 -->
<g id="edge8" class="edge">
<title>Node3&#45;&gt;Node8</title>
<path fill="none" stroke="midnightblue" d="M68.06,-70.09C84.17,-57.81 107.7,-40.96 130,-29 136.48,-25.53 143.73,-22.33 150.6,-19.59"/>
<polygon fill="midnightblue" stroke="midnightblue" points="65.7,-67.49 59.93,-76.38 69.98,-73.03 65.7,-67.49"/>
</g>
<!-- Node7 -->
<g id="node8" class="node">
<title>Node7</title>
<g id="a_node8"><a xlink:href="classtransport_1_1TCP_1_1Client.html" target="_top" xlink:title=" ">
<polygon fill="none" stroke="black" points="265.5,-38.5 265.5,-57.5 384.5,-57.5 384.5,-38.5 265.5,-38.5"/>
<text text-anchor="middle" x="325" y="-45.5" font-family="Helvetica,sans-Serif" font-size="10.00">transport::TCP::Client</text>
</a>
</g>
</g>
<!-- Node6&#45;&gt;Node7 -->
<g id="edge7" class="edge">
<title>Node6&#45;&gt;Node7</title>
<path fill="none" stroke="midnightblue" d="M236.78,-48C246.17,-48 255.93,-48 265.38,-48"/>
<polygon fill="midnightblue" stroke="midnightblue" points="236.75,-44.5 226.75,-48 236.75,-51.5 236.75,-44.5"/>
</g>
<!-- Node9 -->
<g id="node10" class="node">
<title>Node9</title>
<g id="a_node10"><a xlink:href="classtransport_1_1TCP_1_1Server.html" target="_top" xlink:title=" ">
<polygon fill="none" stroke="black" points="264,-0.5 264,-19.5 386,-19.5 386,-0.5 264,-0.5"/>
<text text-anchor="middle" x="325" y="-7.5" font-family="Helvetica,sans-Serif" font-size="10.00">transport::TCP::Server</text>
</a>
</g>
</g>
<!-- Node8&#45;&gt;Node9 -->
<g id="edge9" class="edge">
<title>Node8&#45;&gt;Node9</title>
<path fill="none" stroke="midnightblue" d="M238.39,-10C246.75,-10 255.36,-10 263.75,-10"/>
<polygon fill="midnightblue" stroke="midnightblue" points="238.35,-6.5 228.35,-10 238.35,-13.5 238.35,-6.5"/>
</g>
</g>
</svg>
