<?xml version="1.0" encoding="UTF-8" standalone="no"?>
<!DOCTYPE svg PUBLIC "-//W3C//DTD SVG 1.1//EN"
 "http://www.w3.org/Graphics/SVG/1.1/DTD/svg11.dtd">
<!-- Generated by graphviz version 2.43.0 (0)
 -->
<!-- Title: Graphical Class Hierarchy Pages: 1 -->
<svg width="482pt" height="191pt"
 viewBox="0.00 0.00 482.00 191.00" xmlns="http://www.w3.org/2000/svg" xmlns:xlink="http://www.w3.org/1999/xlink">
<g id="graph0" class="graph" transform="scale(1 1) rotate(0) translate(4 187)">
<title>Graphical Class Hierarchy</title>
<!-- Node0 -->
<g id="node1" class="node">
<title>Node0</title>
<g id="a_node1"><a xlink:href="classModule_1_1Factory.html" target="_top" xlink:title=" ">
<polygon fill="none" stroke="black" points="0,-141.5 0,-182.5 182,-182.5 182,-141.5 0,-141.5"/>
<text text-anchor="start" x="8" y="-170.5" font-family="Helvetica,sans-Serif" font-size="10.00">Module::Factory&lt; Server,</text>
<text text-anchor="start" x="8" y="-159.5" font-family="Helvetica,sans-Serif" font-size="10.00"> capnp::Capability::Client,</text>
<text text-anchor="middle" x="91" y="-148.5" font-family="Helvetica,sans-Serif" font-size="10.00"> Authentication::Authenticator * &gt;</text>
</a>
</g>
</g>
<!-- Node1 -->
<g id="node2" class="node">
<title>Node1</title>
<g id="a_node2"><a xlink:href="classRPC_1_1Server.html" target="_top" xlink:title=" ">
<polygon fill="none" stroke="black" points="230,-152.5 230,-171.5 304,-171.5 304,-152.5 230,-152.5"/>
<text text-anchor="middle" x="267" y="-159.5" font-family="Helvetica,sans-Serif" font-size="10.00">RPC::Server</text>
</a>
</g>
</g>
<!-- Node0&#45;&gt;Node1 -->
<g id="edge1" class="edge">
<title>Node0&#45;&gt;Node1</title>
<path fill="none" stroke="midnightblue" d="M192.33,-162C205.67,-162 218.59,-162 229.78,-162"/>
<polygon fill="midnightblue" stroke="midnightblue" points="192.06,-158.5 182.06,-162 192.06,-165.5 192.06,-158.5"/>
</g>
<!-- Node2 -->
<g id="node3" class="node">
<title>Node2</title>
<g id="a_node3"><a xlink:href="classrunnable.html" target="_top" xlink:title=" ">
<polygon fill="none" stroke="black" points="61.5,-76.5 61.5,-95.5 120.5,-95.5 120.5,-76.5 61.5,-76.5"/>
<text text-anchor="middle" x="91" y="-83.5" font-family="Helvetica,sans-Serif" font-size="10.00">runnable</text>
</a>
</g>
</g>
<!-- Node2&#45;&gt;Node1 -->
<g id="edge2" class="edge">
<title>Node2&#45;&gt;Node1</title>
<path fill="none" stroke="midnightblue" d="M121.49,-99.82C146.91,-111.62 184.68,-128.88 218,-143 225.43,-146.15 233.56,-149.43 240.99,-152.36"/>
<polygon fill="midnightblue" stroke="midnightblue" points="122.92,-96.63 112.38,-95.58 119.97,-102.98 122.92,-96.63"/>
</g>
<!-- Node3 -->
<g id="node4" class="node">
<title>Node3</title>
<g id="a_node4"><a xlink:href="classconsumer.html" target="_top" xlink:title=" ">
<polygon fill="none" stroke="black" points="234.5,-114.5 234.5,-133.5 299.5,-133.5 299.5,-114.5 234.5,-114.5"/>
<text text-anchor="middle" x="267" y="-121.5" font-family="Helvetica,sans-Serif" font-size="10.00">consumer</text>
</a>
</g>
</g>
<!-- Node2&#45;&gt;Node3 -->
<g id="edge3" class="edge">
<title>Node2&#45;&gt;Node3</title>
<path fill="none" stroke="midnightblue" d="M130.8,-94.47C161.96,-101.28 205.16,-110.71 234.28,-117.07"/>
<polygon fill="midnightblue" stroke="midnightblue" points="131.25,-90.99 120.73,-92.27 129.76,-97.83 131.25,-90.99"/>
</g>
<!-- Node4 -->
<g id="node5" class="node">
<title>Node4</title>
<g id="a_node5"><a xlink:href="classproducer.html" target="_top" xlink:title=" ">
<polygon fill="none" stroke="black" points="237.5,-76.5 237.5,-95.5 296.5,-95.5 296.5,-76.5 237.5,-76.5"/>
<text text-anchor="middle" x="267" y="-83.5" font-family="Helvetica,sans-Serif" font-size="10.00">producer</text>
</a>
</g>
</g>
<!-- Node2&#45;&gt;Node4 -->
<g id="edge4" class="edge">
<title>Node2&#45;&gt;Node4</title>
<path fill="none" stroke="midnightblue" d="M131.13,-86C163.33,-86 208.24,-86 237.22,-86"/>
<polygon fill="midnightblue" stroke="midnightblue" points="130.73,-82.5 120.73,-86 130.73,-89.5 130.73,-82.5"/>
</g>
<!-- Node5 -->
<g id="node6" class="node">
<title>Node5</title>
<g id="a_node6"><a xlink:href="classtransport_1_1Client.html" target="_top" xlink:title=" ">
<polygon fill="none" stroke="black" points="219.5,-38.5 219.5,-57.5 314.5,-57.5 314.5,-38.5 219.5,-38.5"/>
<text text-anchor="middle" x="267" y="-45.5" font-family="Helvetica,sans-Serif" font-size="10.00">transport::Client</text>
</a>
</g>
</g>
<!-- Node2&#45;&gt;Node5 -->
<g id="edge5" class="edge">
<title>Node2&#45;&gt;Node5</title>
<path fill="none" stroke="midnightblue" d="M130.64,-77.56C157.74,-71.64 194.03,-63.72 222.21,-57.56"/>
<polygon fill="midnightblue" stroke="midnightblue" points="129.76,-74.17 120.73,-79.73 131.25,-81.01 129.76,-74.17"/>
</g>
<!-- Node7 -->
<g id="node8" class="node">
<title>Node7</title>
<g id="a_node8"><a xlink:href="classtransport_1_1Server.html" target="_top" xlink:title=" ">
<polygon fill="none" stroke="black" points="218,-0.5 218,-19.5 316,-19.5 316,-0.5 218,-0.5"/>
<text text-anchor="middle" x="267" y="-7.5" font-family="Helvetica,sans-Serif" font-size="10.00">transport::Server</text>
</a>
</g>
</g>
<!-- Node2&#45;&gt;Node7 -->
<g id="edge7" class="edge">
<title>Node2&#45;&gt;Node7</title>
<path fill="none" stroke="midnightblue" d="M121.49,-72.18C146.91,-60.38 184.68,-43.12 218,-29 225.43,-25.85 233.56,-22.57 240.99,-19.64"/>
<polygon fill="midnightblue" stroke="midnightblue" points="119.97,-69.02 112.38,-76.42 122.92,-75.37 119.97,-69.02"/>
</g>
<!-- Node6 -->
<g id="node7" class="node">
<title>Node6</title>
<g id="a_node7"><a xlink:href="classtransport_1_1TCP_1_1Client.html" target="_top" xlink:title=" ">
<polygon fill="none" stroke="black" points="353.5,-38.5 353.5,-57.5 472.5,-57.5 472.5,-38.5 353.5,-38.5"/>
<text text-anchor="middle" x="413" y="-45.5" font-family="Helvetica,sans-Serif" font-size="10.00">transport::TCP::Client</text>
</a>
</g>
</g>
<!-- Node5&#45;&gt;Node6 -->
<g id="edge6" class="edge">
<title>Node5&#45;&gt;Node6</title>
<path fill="none" stroke="midnightblue" d="M324.78,-48C334.17,-48 343.93,-48 353.38,-48"/>
<polygon fill="midnightblue" stroke="midnightblue" points="324.75,-44.5 314.75,-48 324.75,-51.5 324.75,-44.5"/>
</g>
<!-- Node8 -->
<g id="node9" class="node">
<title>Node8</title>
<g id="a_node9"><a xlink:href="classtransport_1_1TCP_1_1Server.html" target="_top" xlink:title=" ">
<polygon fill="none" stroke="black" points="352,-0.5 352,-19.5 474,-19.5 474,-0.5 352,-0.5"/>
<text text-anchor="middle" x="413" y="-7.5" font-family="Helvetica,sans-Serif" font-size="10.00">transport::TCP::Server</text>
</a>
</g>
</g>
<!-- Node7&#45;&gt;Node8 -->
<g id="edge8" class="edge">
<title>Node7&#45;&gt;Node8</title>
<path fill="none" stroke="midnightblue" d="M326.39,-10C334.75,-10 343.36,-10 351.75,-10"/>
<polygon fill="midnightblue" stroke="midnightblue" points="326.35,-6.5 316.35,-10 326.35,-13.5 326.35,-6.5"/>
</g>
</g>
</svg>
