<?xml version="1.0" encoding="UTF-8" standalone="no"?>
<!DOCTYPE svg PUBLIC "-//W3C//DTD SVG 1.1//EN"
 "http://www.w3.org/Graphics/SVG/1.1/DTD/svg11.dtd">
<!-- Generated by graphviz version 2.43.0 (0)
 -->
<!-- Title: Graphical Class Hierarchy Pages: 1 -->
<svg width="254pt" height="78pt"
 viewBox="0.00 0.00 254.00 77.50" xmlns="http://www.w3.org/2000/svg" xmlns:xlink="http://www.w3.org/1999/xlink">
<g id="graph0" class="graph" transform="scale(1 1) rotate(0) translate(4 73.5)">
<title>Graphical Class Hierarchy</title>
<!-- Node0 -->
<g id="node1" class="node">
<title>Node0</title>
<g id="a_node1"><a xlink:title=" ">
<polygon fill="none" stroke="#bfbfbf" points="24.5,-50 24.5,-69 73.5,-69 73.5,-50 24.5,-50"/>
<text text-anchor="middle" x="49" y="-57" font-family="Helvetica,sans-Serif" font-size="10.00">base_t</text>
</a>
</g>
</g>
<!-- Node1 -->
<g id="node2" class="node">
<title>Node1</title>
<g id="a_node2"><a xlink:href="structutil_1_1Factory_1_1registrar.html" target="_top" xlink:title=" ">
<polygon fill="none" stroke="black" points="134,-17 134,-58 246,-58 246,-17 134,-17"/>
<text text-anchor="start" x="142" y="-46" font-family="Helvetica,sans-Serif" font-size="10.00">util::Factory&lt; base</text>
<text text-anchor="start" x="142" y="-35" font-family="Helvetica,sans-Serif" font-size="10.00">_t, Args &gt;::registrar</text>
<text text-anchor="middle" x="190" y="-24" font-family="Helvetica,sans-Serif" font-size="10.00">&lt; T, Config &gt;</text>
</a>
</g>
</g>
<!-- Node0&#45;&gt;Node1 -->
<g id="edge1" class="edge">
<title>Node0&#45;&gt;Node1</title>
<path fill="none" stroke="midnightblue" d="M83.47,-54.2C98.54,-51.82 116.75,-48.94 133.77,-46.24"/>
<polygon fill="midnightblue" stroke="midnightblue" points="82.91,-50.75 73.58,-55.77 84,-57.66 82.91,-50.75"/>
</g>
<!-- Node2 -->
<g id="node3" class="node">
<title>Node2</title>
<g id="a_node3"><a xlink:href="classutil_1_1configurable.html" target="_top" xlink:title=" ">
<polygon fill="none" stroke="black" points="0,-0.5 0,-30.5 98,-30.5 98,-0.5 0,-0.5"/>
<text text-anchor="start" x="8" y="-18.5" font-family="Helvetica,sans-Serif" font-size="10.00">util::configurable</text>
<text text-anchor="middle" x="49" y="-7.5" font-family="Helvetica,sans-Serif" font-size="10.00">&lt; Config &gt;</text>
</a>
</g>
</g>
<!-- Node2&#45;&gt;Node1 -->
<g id="edge2" class="edge">
<title>Node2&#45;&gt;Node1</title>
<path fill="none" stroke="midnightblue" d="M108.33,-24.73C116.74,-26.06 125.37,-27.43 133.71,-28.75"/>
<polygon fill="midnightblue" stroke="midnightblue" points="108.65,-21.24 98.23,-23.13 107.56,-28.15 108.65,-21.24"/>
</g>
</g>
</svg>
