<?xml version="1.0" encoding="UTF-8" standalone="no"?>
<!DOCTYPE svg PUBLIC "-//W3C//DTD SVG 1.1//EN"
 "http://www.w3.org/Graphics/SVG/1.1/DTD/svg11.dtd">
<!-- Generated by graphviz version 2.43.0 (0)
 -->
<!-- Title: Graphical Class Hierarchy Pages: 1 -->
<svg width="217pt" height="116pt"
 viewBox="0.00 0.00 217.00 115.50" xmlns="http://www.w3.org/2000/svg" xmlns:xlink="http://www.w3.org/1999/xlink">
<g id="graph0" class="graph" transform="scale(1 1) rotate(0) translate(4 111.5)">
<title>Graphical Class Hierarchy</title>
<!-- Node0 -->
<g id="node1" class="node">
<title>Node0</title>
<g id="a_node1"><a xlink:href="classUtil_1_1Configurable.html" target="_top" xlink:title=" ">
<polygon fill="none" stroke="black" points="2,-77 2,-107 103,-107 103,-77 2,-77"/>
<text text-anchor="start" x="10" y="-95" font-family="Helvetica,sans-Serif" font-size="10.00">Util::Configurable</text>
<text text-anchor="middle" x="52.5" y="-84" font-family="Helvetica,sans-Serif" font-size="10.00">&lt; config::UI &gt;</text>
</a>
</g>
</g>
<!-- Node1 -->
<g id="node2" class="node">
<title>Node1</title>
<g id="a_node2"><a xlink:href="classUI_1_1Control.html" target="_top" xlink:title=" ">
<polygon fill="none" stroke="black" points="141,-38.5 141,-57.5 209,-57.5 209,-38.5 141,-38.5"/>
<text text-anchor="middle" x="175" y="-45.5" font-family="Helvetica,sans-Serif" font-size="10.00">UI::Control</text>
</a>
</g>
</g>
<!-- Node0&#45;&gt;Node1 -->
<g id="edge1" class="edge">
<title>Node0&#45;&gt;Node1</title>
<path fill="none" stroke="midnightblue" d="M104.31,-73.45C119.27,-67.98 135.03,-62.23 147.77,-57.58"/>
<polygon fill="midnightblue" stroke="midnightblue" points="102.83,-70.26 94.63,-76.98 105.23,-76.84 102.83,-70.26"/>
</g>
<!-- Node2 -->
<g id="node3" class="node">
<title>Node2</title>
<g id="a_node3"><a xlink:title=" ">
<polygon fill="none" stroke="#bfbfbf" points="17,-38.5 17,-57.5 88,-57.5 88,-38.5 17,-38.5"/>
<text text-anchor="middle" x="52.5" y="-45.5" font-family="Helvetica,sans-Serif" font-size="10.00">UIC::Server</text>
</a>
</g>
</g>
<!-- Node2&#45;&gt;Node1 -->
<g id="edge2" class="edge">
<title>Node2&#45;&gt;Node1</title>
<path fill="none" stroke="midnightblue" d="M98.04,-48C112.17,-48 127.52,-48 140.71,-48"/>
<polygon fill="midnightblue" stroke="midnightblue" points="98.03,-44.5 88.03,-48 98.03,-51.5 98.03,-44.5"/>
</g>
<!-- Node3 -->
<g id="node4" class="node">
<title>Node3</title>
<g id="a_node4"><a xlink:href="structThreading_1_1Worker.html" target="_top" xlink:title=" ">
<polygon fill="none" stroke="black" points="0,-0.5 0,-19.5 105,-19.5 105,-0.5 0,-0.5"/>
<text text-anchor="middle" x="52.5" y="-7.5" font-family="Helvetica,sans-Serif" font-size="10.00">Threading::Worker</text>
</a>
</g>
</g>
<!-- Node3&#45;&gt;Node1 -->
<g id="edge3" class="edge">
<title>Node3&#45;&gt;Node1</title>
<path fill="none" stroke="midnightblue" d="M93.71,-22.68C109.99,-27.81 128.48,-33.64 143.6,-38.41"/>
<polygon fill="midnightblue" stroke="midnightblue" points="94.5,-19.26 83.91,-19.59 92.39,-25.93 94.5,-19.26"/>
</g>
</g>
</svg>
