<?xml version="1.0" encoding="UTF-8" standalone="no"?>
<!DOCTYPE svg PUBLIC "-//W3C//DTD SVG 1.1//EN"
 "http://www.w3.org/Graphics/SVG/1.1/DTD/svg11.dtd">
<!-- Generated by graphviz version 2.43.0 (0)
 -->
<!-- Title: Graphical Class Hierarchy Pages: 1 -->
<svg width="482pt" height="273pt"
 viewBox="0.00 0.00 482.00 272.50" xmlns="http://www.w3.org/2000/svg" xmlns:xlink="http://www.w3.org/1999/xlink">
<g id="graph0" class="graph" transform="scale(1 1) rotate(0) translate(4 268.5)">
<title>Graphical Class Hierarchy</title>
<!-- Node0 -->
<g id="node1" class="node">
<title>Node0</title>
<g id="a_node1"><a xlink:href="classutil_1_1configurable.html" target="_top" xlink:title=" ">
<polygon fill="none" stroke="black" points="42,-234 42,-264 140,-264 140,-234 42,-234"/>
<text text-anchor="start" x="50" y="-252" font-family="Helvetica,sans-Serif" font-size="10.00">util::configurable</text>
<text text-anchor="middle" x="91" y="-241" font-family="Helvetica,sans-Serif" font-size="10.00">&lt; config::UI &gt;</text>
</a>
</g>
</g>
<!-- Node1 -->
<g id="node2" class="node">
<title>Node1</title>
<g id="a_node2"><a xlink:href="classUI_1_1Control.html" target="_top" xlink:title=" ">
<polygon fill="none" stroke="black" points="233,-195.5 233,-214.5 301,-214.5 301,-195.5 233,-195.5"/>
<text text-anchor="middle" x="267" y="-202.5" font-family="Helvetica,sans-Serif" font-size="10.00">UI::Control</text>
</a>
</g>
</g>
<!-- Node0&#45;&gt;Node1 -->
<g id="edge1" class="edge">
<title>Node0&#45;&gt;Node1</title>
<path fill="none" stroke="midnightblue" d="M149.92,-234.35C177.45,-227.39 209.35,-219.32 232.74,-213.41"/>
<polygon fill="midnightblue" stroke="midnightblue" points="148.84,-231.02 140.01,-236.86 150.56,-237.8 148.84,-231.02"/>
</g>
<!-- Node4 -->
<g id="node3" class="node">
<title>Node4</title>
<g id="a_node3"><a xlink:href="classutil_1_1Factory.html" target="_top" xlink:title=" ">
<polygon fill="none" stroke="black" points="0,-135.5 0,-176.5 182,-176.5 182,-135.5 0,-135.5"/>
<text text-anchor="start" x="8" y="-164.5" font-family="Helvetica,sans-Serif" font-size="10.00">util::Factory&lt; Server,</text>
<text text-anchor="start" x="8" y="-153.5" font-family="Helvetica,sans-Serif" font-size="10.00"> capnp::Capability::Client,</text>
<text text-anchor="middle" x="91" y="-142.5" font-family="Helvetica,sans-Serif" font-size="10.00"> Authentication::Authenticator * &gt;</text>
</a>
</g>
</g>
<!-- Node3 -->
<g id="node4" class="node">
<title>Node3</title>
<g id="a_node4"><a xlink:href="classRPC_1_1Server.html" target="_top" xlink:title=" ">
<polygon fill="none" stroke="black" points="230,-152.5 230,-171.5 304,-171.5 304,-152.5 230,-152.5"/>
<text text-anchor="middle" x="267" y="-159.5" font-family="Helvetica,sans-Serif" font-size="10.00">RPC::Server</text>
</a>
</g>
</g>
<!-- Node4&#45;&gt;Node3 -->
<g id="edge2" class="edge">
<title>Node4&#45;&gt;Node3</title>
<path fill="none" stroke="midnightblue" d="M192.33,-159.46C205.67,-159.92 218.59,-160.37 229.78,-160.75"/>
<polygon fill="midnightblue" stroke="midnightblue" points="192.17,-155.95 182.06,-159.11 191.93,-162.95 192.17,-155.95"/>
</g>
<!-- Node2 -->
<g id="node5" class="node">
<title>Node2</title>
<g id="a_node5"><a xlink:href="classrunnable.html" target="_top" xlink:title=" ">
<polygon fill="none" stroke="black" points="61.5,-87.5 61.5,-106.5 120.5,-106.5 120.5,-87.5 61.5,-87.5"/>
<text text-anchor="middle" x="91" y="-94.5" font-family="Helvetica,sans-Serif" font-size="10.00">runnable</text>
</a>
</g>
</g>
<!-- Node2&#45;&gt;Node1 -->
<g id="edge4" class="edge">
<title>Node2&#45;&gt;Node1</title>
<path fill="none" stroke="midnightblue" d="M130.86,-103.46C147.83,-107.73 167.19,-114.71 182,-126 205.23,-143.71 196.18,-161.57 218,-181 224.54,-186.82 232.75,-191.61 240.52,-195.33"/>
<polygon fill="midnightblue" stroke="midnightblue" points="131.2,-99.94 120.67,-101.13 129.64,-106.77 131.2,-99.94"/>
</g>
<!-- Node2&#45;&gt;Node3 -->
<g id="edge3" class="edge">
<title>Node2&#45;&gt;Node3</title>
<path fill="none" stroke="midnightblue" d="M130.35,-108.16C146.47,-113.15 165.31,-119.4 182,-126 198.46,-132.5 201.77,-135.96 218,-143 225.4,-146.21 233.53,-149.51 240.96,-152.44"/>
<polygon fill="midnightblue" stroke="midnightblue" points="131.29,-104.78 120.71,-105.21 129.25,-111.48 131.29,-104.78"/>
</g>
<!-- Node5 -->
<g id="node6" class="node">
<title>Node5</title>
<g id="a_node6"><a xlink:href="classconsumer.html" target="_top" xlink:title=" ">
<polygon fill="none" stroke="black" points="234.5,-38.5 234.5,-57.5 299.5,-57.5 299.5,-38.5 234.5,-38.5"/>
<text text-anchor="middle" x="267" y="-45.5" font-family="Helvetica,sans-Serif" font-size="10.00">consumer</text>
</a>
</g>
</g>
<!-- Node2&#45;&gt;Node5 -->
<g id="edge5" class="edge">
<title>Node2&#45;&gt;Node5</title>
<path fill="none" stroke="midnightblue" d="M130.39,-86.19C161.58,-77.41 205.04,-65.17 234.28,-56.93"/>
<polygon fill="midnightblue" stroke="midnightblue" points="129.41,-82.83 120.73,-88.91 131.31,-89.57 129.41,-82.83"/>
</g>
<!-- Node6 -->
<g id="node7" class="node">
<title>Node6</title>
<g id="a_node7"><a xlink:href="classproducer.html" target="_top" xlink:title=" ">
<polygon fill="none" stroke="black" points="237.5,-0.5 237.5,-19.5 296.5,-19.5 296.5,-0.5 237.5,-0.5"/>
<text text-anchor="middle" x="267" y="-7.5" font-family="Helvetica,sans-Serif" font-size="10.00">producer</text>
</a>
</g>
</g>
<!-- Node2&#45;&gt;Node6 -->
<g id="edge6" class="edge">
<title>Node2&#45;&gt;Node6</title>
<path fill="none" stroke="midnightblue" d="M117.26,-82.22C142.38,-67.8 182.24,-45.66 218,-29 225.15,-25.67 233.06,-22.38 240.35,-19.51"/>
<polygon fill="midnightblue" stroke="midnightblue" points="115.3,-79.31 108.39,-87.34 118.8,-85.37 115.3,-79.31"/>
</g>
<!-- Node7 -->
<g id="node8" class="node">
<title>Node7</title>
<g id="a_node8"><a xlink:href="classtransport_1_1Client.html" target="_top" xlink:title=" ">
<polygon fill="none" stroke="black" points="219.5,-114.5 219.5,-133.5 314.5,-133.5 314.5,-114.5 219.5,-114.5"/>
<text text-anchor="middle" x="267" y="-121.5" font-family="Helvetica,sans-Serif" font-size="10.00">transport::Client</text>
</a>
</g>
</g>
<!-- Node2&#45;&gt;Node7 -->
<g id="edge7" class="edge">
<title>Node2&#45;&gt;Node7</title>
<path fill="none" stroke="midnightblue" d="M130.66,-103C156.8,-107.05 191.47,-112.44 219.18,-116.74"/>
<polygon fill="midnightblue" stroke="midnightblue" points="131.15,-99.53 120.73,-101.46 130.08,-106.45 131.15,-99.53"/>
</g>
<!-- Node9 -->
<g id="node10" class="node">
<title>Node9</title>
<g id="a_node10"><a xlink:href="classtransport_1_1Server.html" target="_top" xlink:title=" ">
<polygon fill="none" stroke="black" points="218,-76.5 218,-95.5 316,-95.5 316,-76.5 218,-76.5"/>
<text text-anchor="middle" x="267" y="-83.5" font-family="Helvetica,sans-Serif" font-size="10.00">transport::Server</text>
</a>
</g>
</g>
<!-- Node2&#45;&gt;Node9 -->
<g id="edge9" class="edge">
<title>Node2&#45;&gt;Node9</title>
<path fill="none" stroke="midnightblue" d="M130.85,-94.54C156.54,-92.92 190.41,-90.78 217.82,-89.05"/>
<polygon fill="midnightblue" stroke="midnightblue" points="130.49,-91.06 120.73,-95.18 130.93,-98.05 130.49,-91.06"/>
</g>
<!-- Node8 -->
<g id="node9" class="node">
<title>Node8</title>
<g id="a_node9"><a xlink:href="classtransport_1_1TCP_1_1Client.html" target="_top" xlink:title=" ">
<polygon fill="none" stroke="black" points="353.5,-114.5 353.5,-133.5 472.5,-133.5 472.5,-114.5 353.5,-114.5"/>
<text text-anchor="middle" x="413" y="-121.5" font-family="Helvetica,sans-Serif" font-size="10.00">transport::TCP::Client</text>
</a>
</g>
</g>
<!-- Node7&#45;&gt;Node8 -->
<g id="edge8" class="edge">
<title>Node7&#45;&gt;Node8</title>
<path fill="none" stroke="midnightblue" d="M324.78,-124C334.17,-124 343.93,-124 353.38,-124"/>
<polygon fill="midnightblue" stroke="midnightblue" points="324.75,-120.5 314.75,-124 324.75,-127.5 324.75,-120.5"/>
</g>
<!-- Node10 -->
<g id="node11" class="node">
<title>Node10</title>
<g id="a_node11"><a xlink:href="classtransport_1_1TCP_1_1Server.html" target="_top" xlink:title=" ">
<polygon fill="none" stroke="black" points="352,-76.5 352,-95.5 474,-95.5 474,-76.5 352,-76.5"/>
<text text-anchor="middle" x="413" y="-83.5" font-family="Helvetica,sans-Serif" font-size="10.00">transport::TCP::Server</text>
</a>
</g>
</g>
<!-- Node9&#45;&gt;Node10 -->
<g id="edge10" class="edge">
<title>Node9&#45;&gt;Node10</title>
<path fill="none" stroke="midnightblue" d="M326.39,-86C334.75,-86 343.36,-86 351.75,-86"/>
<polygon fill="midnightblue" stroke="midnightblue" points="326.35,-82.5 316.35,-86 326.35,-89.5 326.35,-82.5"/>
</g>
<!-- Node11 -->
<g id="node12" class="node">
<title>Node11</title>
<g id="a_node12"><a xlink:title=" ">
<polygon fill="none" stroke="#bfbfbf" points="55.5,-195.5 55.5,-214.5 126.5,-214.5 126.5,-195.5 55.5,-195.5"/>
<text text-anchor="middle" x="91" y="-202.5" font-family="Helvetica,sans-Serif" font-size="10.00">UIC::Server</text>
</a>
</g>
</g>
<!-- Node11&#45;&gt;Node1 -->
<g id="edge11" class="edge">
<title>Node11&#45;&gt;Node1</title>
<path fill="none" stroke="midnightblue" d="M136.98,-205C166.91,-205 205.58,-205 232.74,-205"/>
<polygon fill="midnightblue" stroke="midnightblue" points="136.79,-201.5 126.79,-205 136.79,-208.5 136.79,-201.5"/>
</g>
</g>
</svg>
