<?xml version="1.0" encoding="UTF-8" standalone="no"?>
<!DOCTYPE svg PUBLIC "-//W3C//DTD SVG 1.1//EN"
 "http://www.w3.org/Graphics/SVG/1.1/DTD/svg11.dtd">
<!-- Generated by graphviz version 2.43.0 (0)
 -->
<!-- Title: Graphical Class Hierarchy Pages: 1 -->
<svg width="238pt" height="165pt"
 viewBox="0.00 0.00 238.00 164.50" xmlns="http://www.w3.org/2000/svg" xmlns:xlink="http://www.w3.org/1999/xlink">
<g id="graph0" class="graph" transform="scale(1 1) rotate(0) translate(4 160.5)">
<title>Graphical Class Hierarchy</title>
<!-- Node0 -->
<g id="node1" class="node">
<title>Node0</title>
<g id="a_node1"><a xlink:href="classUtil_1_1configurable.html" target="_top" xlink:title=" ">
<polygon fill="none" stroke="black" points="13,-49.5 13,-79.5 113,-79.5 113,-49.5 13,-49.5"/>
<text text-anchor="start" x="21" y="-67.5" font-family="Helvetica,sans-Serif" font-size="10.00">Util::configurable</text>
<text text-anchor="middle" x="63" y="-56.5" font-family="Helvetica,sans-Serif" font-size="10.00">&lt; config::UI &gt;</text>
</a>
</g>
</g>
<!-- Node1 -->
<g id="node2" class="node">
<title>Node1</title>
<g id="a_node2"><a xlink:href="classUI_1_1Control.html" target="_top" xlink:title=" ">
<polygon fill="none" stroke="black" points="162,-99 162,-118 230,-118 230,-99 162,-99"/>
<text text-anchor="middle" x="196" y="-106" font-family="Helvetica,sans-Serif" font-size="10.00">UI::Control</text>
</a>
</g>
</g>
<!-- Node0&#45;&gt;Node1 -->
<g id="edge1" class="edge">
<title>Node0&#45;&gt;Node1</title>
<path fill="none" stroke="midnightblue" d="M118.31,-82.74C134.85,-88.3 152.37,-94.18 166.48,-98.92"/>
<polygon fill="midnightblue" stroke="midnightblue" points="119.31,-79.39 108.72,-79.52 117.08,-86.02 119.31,-79.39"/>
</g>
<!-- Node4 -->
<g id="node3" class="node">
<title>Node4</title>
<g id="a_node3"><a xlink:href="classUI_1_1UI.html" target="_top" xlink:title=" ">
<polygon fill="none" stroke="black" points="174,-31 174,-50 218,-50 218,-31 174,-31"/>
<text text-anchor="middle" x="196" y="-38" font-family="Helvetica,sans-Serif" font-size="10.00">UI::UI</text>
</a>
</g>
</g>
<!-- Node0&#45;&gt;Node4 -->
<g id="edge2" class="edge">
<title>Node0&#45;&gt;Node4</title>
<path fill="none" stroke="midnightblue" d="M123.09,-53.67C141.17,-50.36 159.9,-46.93 173.72,-44.4"/>
<polygon fill="midnightblue" stroke="midnightblue" points="122.36,-50.25 113.15,-55.5 123.62,-57.14 122.36,-50.25"/>
</g>
<!-- Node5 -->
<g id="node4" class="node">
<title>Node5</title>
<g id="a_node4"><a xlink:href="structThreading_1_1Runnable.html" target="_top" xlink:title=" ">
<polygon fill="none" stroke="black" points="0,-0.5 0,-30.5 126,-30.5 126,-0.5 0,-0.5"/>
<text text-anchor="start" x="8" y="-18.5" font-family="Helvetica,sans-Serif" font-size="10.00">Threading::Runnable</text>
<text text-anchor="middle" x="63" y="-7.5" font-family="Helvetica,sans-Serif" font-size="10.00">&lt; Control, config::UI &gt;</text>
</a>
</g>
</g>
<!-- Node5&#45;&gt;Node4 -->
<g id="edge3" class="edge">
<title>Node5&#45;&gt;Node4</title>
<path fill="none" stroke="midnightblue" d="M136.12,-29.26C149.91,-31.9 163.31,-34.45 173.83,-36.46"/>
<polygon fill="midnightblue" stroke="midnightblue" points="136.53,-25.78 126.05,-27.34 135.21,-32.65 136.53,-25.78"/>
</g>
<!-- Node2 -->
<g id="node5" class="node">
<title>Node2</title>
<g id="a_node5"><a xlink:title=" ">
<polygon fill="none" stroke="#bfbfbf" points="27.5,-137 27.5,-156 98.5,-156 98.5,-137 27.5,-137"/>
<text text-anchor="middle" x="63" y="-144" font-family="Helvetica,sans-Serif" font-size="10.00">UIC::Server</text>
</a>
</g>
</g>
<!-- Node2&#45;&gt;Node1 -->
<g id="edge4" class="edge">
<title>Node2&#45;&gt;Node1</title>
<path fill="none" stroke="midnightblue" d="M106.71,-134.11C124.65,-128.91 145.2,-122.95 161.95,-118.09"/>
<polygon fill="midnightblue" stroke="midnightblue" points="105.69,-130.76 97.06,-136.91 107.64,-137.49 105.69,-130.76"/>
</g>
<!-- Node3 -->
<g id="node6" class="node">
<title>Node3</title>
<g id="a_node6"><a xlink:href="structThreading_1_1Worker.html" target="_top" xlink:title=" ">
<polygon fill="none" stroke="black" points="10.5,-99 10.5,-118 115.5,-118 115.5,-99 10.5,-99"/>
<text text-anchor="middle" x="63" y="-106" font-family="Helvetica,sans-Serif" font-size="10.00">Threading::Worker</text>
</a>
</g>
</g>
<!-- Node3&#45;&gt;Node1 -->
<g id="edge5" class="edge">
<title>Node3&#45;&gt;Node1</title>
<path fill="none" stroke="midnightblue" d="M126.03,-108.5C138.32,-108.5 150.78,-108.5 161.67,-108.5"/>
<polygon fill="midnightblue" stroke="midnightblue" points="125.77,-105 115.77,-108.5 125.77,-112 125.77,-105"/>
</g>
</g>
</svg>
