<?xml version="1.0" encoding="UTF-8" standalone="no"?>
<!DOCTYPE svg PUBLIC "-//W3C//DTD SVG 1.1//EN"
 "http://www.w3.org/Graphics/SVG/1.1/DTD/svg11.dtd">
<!-- Generated by graphviz version 2.43.0 (0)
 -->
<!-- Title: Graphical Class Hierarchy Pages: 1 -->
<svg width="714pt" height="388pt"
 viewBox="0.00 0.00 714.00 387.50" xmlns="http://www.w3.org/2000/svg" xmlns:xlink="http://www.w3.org/1999/xlink">
<g id="graph0" class="graph" transform="scale(1 1) rotate(0) translate(4 383.5)">
<title>Graphical Class Hierarchy</title>
<!-- Node0 -->
<g id="node1" class="node">
<title>Node0</title>
<g id="a_node1"><a xlink:title=" ">
<polygon fill="none" stroke="#bfbfbf" points="0,-96.5 0,-115.5 84,-115.5 84,-96.5 0,-96.5"/>
<text text-anchor="middle" x="42" y="-103.5" font-family="Helvetica,sans-Serif" font-size="10.00">std::true_type</text>
</a>
</g>
</g>
<!-- Node1 -->
<g id="node2" class="node">
<title>Node1</title>
<g id="a_node2"><a xlink:title=" ">
<polygon fill="none" stroke="#bfbfbf" points="120,-199.5 120,-262.5 329,-262.5 329,-199.5 120,-199.5"/>
<text text-anchor="start" x="128" y="-250.5" font-family="Helvetica,sans-Serif" font-size="10.00">toml::detail::conjunction</text>
<text text-anchor="start" x="128" y="-239.5" font-family="Helvetica,sans-Serif" font-size="10.00">&lt; negation&lt; is_map&lt; T &gt;</text>
<text text-anchor="start" x="128" y="-228.5" font-family="Helvetica,sans-Serif" font-size="10.00"> &gt;, negation&lt; std::is_same</text>
<text text-anchor="start" x="128" y="-217.5" font-family="Helvetica,sans-Serif" font-size="10.00">&lt; T, std::string &gt; &gt;, has</text>
<text text-anchor="middle" x="224.5" y="-206.5" font-family="Helvetica,sans-Serif" font-size="10.00">_iterator&lt; T &gt;, has_value_type&lt; T &gt; &gt;</text>
</a>
</g>
</g>
<!-- Node0&#45;&gt;Node1 -->
<g id="edge1" class="edge">
<title>Node0&#45;&gt;Node1</title>
<path fill="none" stroke="midnightblue" d="M60.51,-122.7C75.62,-136.7 98.38,-156.78 120,-172 133.61,-181.58 148.9,-190.97 163.46,-199.35"/>
<polygon fill="midnightblue" stroke="midnightblue" points="62.64,-119.91 52.95,-115.62 57.85,-125.02 62.64,-119.91"/>
</g>
<!-- Node7 -->
<g id="node8" class="node">
<title>Node7</title>
<g id="a_node8"><a xlink:href="structtoml_1_1detail_1_1conjunction.html" target="_top" xlink:title=" ">
<polygon fill="none" stroke="black" points="121,-110 121,-162 328,-162 328,-110 121,-110"/>
<text text-anchor="start" x="129" y="-150" font-family="Helvetica,sans-Serif" font-size="10.00">toml::detail::conjunction</text>
<text text-anchor="start" x="129" y="-139" font-family="Helvetica,sans-Serif" font-size="10.00">&lt; has_iterator&lt; T &gt;, has</text>
<text text-anchor="start" x="129" y="-128" font-family="Helvetica,sans-Serif" font-size="10.00">_value_type&lt; T &gt;, has_key</text>
<text text-anchor="middle" x="224.5" y="-117" font-family="Helvetica,sans-Serif" font-size="10.00">_type&lt; T &gt;, has_mapped_type&lt; T &gt; &gt;</text>
</a>
</g>
</g>
<!-- Node0&#45;&gt;Node7 -->
<g id="edge7" class="edge">
<title>Node0&#45;&gt;Node7</title>
<path fill="none" stroke="midnightblue" d="M94.3,-114.53C102.66,-115.92 111.56,-117.4 120.64,-118.9"/>
<polygon fill="midnightblue" stroke="midnightblue" points="94.85,-111.07 84.41,-112.88 93.7,-117.97 94.85,-111.07"/>
</g>
<!-- Node13 -->
<g id="node14" class="node">
<title>Node13</title>
<g id="a_node14"><a xlink:href="structtoml_1_1detail_1_1conjunction.html" target="_top" xlink:title=" ">
<polygon fill="none" stroke="black" points="157,-61 157,-91 292,-91 292,-61 157,-61"/>
<text text-anchor="start" x="165" y="-79" font-family="Helvetica,sans-Serif" font-size="10.00">toml::detail::conjunction</text>
<text text-anchor="middle" x="224.5" y="-68" font-family="Helvetica,sans-Serif" font-size="10.00">&lt;... &gt;</text>
</a>
</g>
</g>
<!-- Node0&#45;&gt;Node13 -->
<g id="edge13" class="edge">
<title>Node0&#45;&gt;Node13</title>
<path fill="none" stroke="midnightblue" d="M94.28,-97.48C113.72,-94.25 136.16,-90.52 156.82,-87.08"/>
<polygon fill="midnightblue" stroke="midnightblue" points="93.7,-94.03 84.41,-99.12 94.85,-100.93 93.7,-94.03"/>
</g>
<!-- Node14 -->
<g id="node15" class="node">
<title>Node14</title>
<g id="a_node15"><a xlink:href="structtoml_1_1detail_1_1is__basic__value_3_1_1toml_1_1basic__value_3_01C_00_01M_00_01V_01_4_01_4.html" target="_top" xlink:title=" ">
<polygon fill="none" stroke="black" points="150,-0.5 150,-41.5 299,-41.5 299,-0.5 150,-0.5"/>
<text text-anchor="start" x="158" y="-29.5" font-family="Helvetica,sans-Serif" font-size="10.00">toml::detail::is_basic</text>
<text text-anchor="start" x="158" y="-18.5" font-family="Helvetica,sans-Serif" font-size="10.00">_value&lt;::toml::basic_value</text>
<text text-anchor="middle" x="224.5" y="-7.5" font-family="Helvetica,sans-Serif" font-size="10.00">&lt; C, M, V &gt; &gt;</text>
</a>
</g>
</g>
<!-- Node0&#45;&gt;Node14 -->
<g id="edge14" class="edge">
<title>Node0&#45;&gt;Node14</title>
<path fill="none" stroke="midnightblue" d="M62.24,-89.87C77.19,-78.01 98.87,-62.24 120,-52 129.45,-47.42 139.72,-43.36 150,-39.81"/>
<polygon fill="midnightblue" stroke="midnightblue" points="59.83,-87.31 54.27,-96.33 64.24,-92.75 59.83,-87.31"/>
</g>
<!-- Node2 -->
<g id="node3" class="node">
<title>Node2</title>
<g id="a_node3"><a xlink:href="structtoml_1_1detail_1_1is__container.html" target="_top" xlink:title=" ">
<polygon fill="none" stroke="black" points="365,-256.5 365,-275.5 532,-275.5 532,-256.5 365,-256.5"/>
<text text-anchor="middle" x="448.5" y="-263.5" font-family="Helvetica,sans-Serif" font-size="10.00">toml::detail::is_container&lt; T &gt;</text>
</a>
</g>
</g>
<!-- Node1&#45;&gt;Node2 -->
<g id="edge2" class="edge">
<title>Node1&#45;&gt;Node2</title>
<path fill="none" stroke="midnightblue" d="M339.3,-248.94C355.8,-251.54 372.22,-254.13 387.1,-256.48"/>
<polygon fill="midnightblue" stroke="midnightblue" points="339.45,-245.42 329.03,-247.32 338.36,-252.34 339.45,-245.42"/>
</g>
<!-- Node3 -->
<g id="node4" class="node">
<title>Node3</title>
<g id="a_node4"><a xlink:href="structtoml_1_1detail_1_1is__container_3_01T_01_6_01_4.html" target="_top" xlink:title=" ">
<polygon fill="none" stroke="black" points="568,-349 568,-379 706,-379 706,-349 568,-349"/>
<text text-anchor="start" x="576" y="-367" font-family="Helvetica,sans-Serif" font-size="10.00">toml::detail::is_container</text>
<text text-anchor="middle" x="637" y="-356" font-family="Helvetica,sans-Serif" font-size="10.00">&lt; T &amp; &gt;</text>
</a>
</g>
</g>
<!-- Node2&#45;&gt;Node3 -->
<g id="edge3" class="edge">
<title>Node2&#45;&gt;Node3</title>
<path fill="none" stroke="midnightblue" d="M471.19,-281.58C494.34,-297.71 532.5,-322.91 568,-340 574.66,-343.2 581.85,-346.21 588.99,-348.93"/>
<polygon fill="midnightblue" stroke="midnightblue" points="473,-278.57 462.81,-275.67 468.97,-284.29 473,-278.57"/>
</g>
<!-- Node4 -->
<g id="node5" class="node">
<title>Node4</title>
<g id="a_node5"><a xlink:href="structtoml_1_1detail_1_1is__container_3_01T_01const_01_6_01_4.html" target="_top" xlink:title=" ">
<polygon fill="none" stroke="black" points="568,-300 568,-330 706,-330 706,-300 568,-300"/>
<text text-anchor="start" x="576" y="-318" font-family="Helvetica,sans-Serif" font-size="10.00">toml::detail::is_container</text>
<text text-anchor="middle" x="637" y="-307" font-family="Helvetica,sans-Serif" font-size="10.00">&lt; T const &amp; &gt;</text>
</a>
</g>
</g>
<!-- Node2&#45;&gt;Node4 -->
<g id="edge4" class="edge">
<title>Node2&#45;&gt;Node4</title>
<path fill="none" stroke="midnightblue" d="M495.9,-278.19C520.98,-284.78 552.18,-292.98 578.77,-299.96"/>
<polygon fill="midnightblue" stroke="midnightblue" points="496.46,-274.72 485.9,-275.56 494.68,-281.49 496.46,-274.72"/>
</g>
<!-- Node5 -->
<g id="node6" class="node">
<title>Node5</title>
<g id="a_node6"><a xlink:href="structtoml_1_1detail_1_1is__container_3_01T_01const_01volatile_01_6_01_4.html" target="_top" xlink:title=" ">
<polygon fill="none" stroke="black" points="568,-251 568,-281 706,-281 706,-251 568,-251"/>
<text text-anchor="start" x="576" y="-269" font-family="Helvetica,sans-Serif" font-size="10.00">toml::detail::is_container</text>
<text text-anchor="middle" x="637" y="-258" font-family="Helvetica,sans-Serif" font-size="10.00">&lt; T const volatile &amp; &gt;</text>
</a>
</g>
</g>
<!-- Node2&#45;&gt;Node5 -->
<g id="edge5" class="edge">
<title>Node2&#45;&gt;Node5</title>
<path fill="none" stroke="midnightblue" d="M542.27,-266C550.93,-266 559.6,-266 567.98,-266"/>
<polygon fill="midnightblue" stroke="midnightblue" points="542.12,-262.5 532.12,-266 542.12,-269.5 542.12,-262.5"/>
</g>
<!-- Node6 -->
<g id="node7" class="node">
<title>Node6</title>
<g id="a_node7"><a xlink:href="structtoml_1_1detail_1_1is__container_3_01T_01volatile_01_6_01_4.html" target="_top" xlink:title=" ">
<polygon fill="none" stroke="black" points="568,-202 568,-232 706,-232 706,-202 568,-202"/>
<text text-anchor="start" x="576" y="-220" font-family="Helvetica,sans-Serif" font-size="10.00">toml::detail::is_container</text>
<text text-anchor="middle" x="637" y="-209" font-family="Helvetica,sans-Serif" font-size="10.00">&lt; T volatile &amp; &gt;</text>
</a>
</g>
</g>
<!-- Node2&#45;&gt;Node6 -->
<g id="edge6" class="edge">
<title>Node2&#45;&gt;Node6</title>
<path fill="none" stroke="midnightblue" d="M495.9,-253.81C520.98,-247.22 552.18,-239.02 578.77,-232.04"/>
<polygon fill="midnightblue" stroke="midnightblue" points="494.68,-250.51 485.9,-256.44 496.46,-257.28 494.68,-250.51"/>
</g>
<!-- Node8 -->
<g id="node9" class="node">
<title>Node8</title>
<g id="a_node9"><a xlink:href="structtoml_1_1detail_1_1is__map.html" target="_top" xlink:title=" ">
<polygon fill="none" stroke="black" points="377,-109.5 377,-128.5 520,-128.5 520,-109.5 377,-109.5"/>
<text text-anchor="middle" x="448.5" y="-116.5" font-family="Helvetica,sans-Serif" font-size="10.00">toml::detail::is_map&lt; T &gt;</text>
</a>
</g>
</g>
<!-- Node7&#45;&gt;Node8 -->
<g id="edge8" class="edge">
<title>Node7&#45;&gt;Node8</title>
<path fill="none" stroke="midnightblue" d="M338.11,-127.38C351.27,-126.37 364.4,-125.36 376.76,-124.42"/>
<polygon fill="midnightblue" stroke="midnightblue" points="337.76,-123.89 328.05,-128.15 338.29,-130.87 337.76,-123.89"/>
</g>
<!-- Node9 -->
<g id="node10" class="node">
<title>Node9</title>
<g id="a_node10"><a xlink:href="structtoml_1_1detail_1_1is__map_3_01T_01_6_01_4.html" target="_top" xlink:title=" ">
<polygon fill="none" stroke="black" points="580,-153 580,-183 694,-183 694,-153 580,-153"/>
<text text-anchor="start" x="588" y="-171" font-family="Helvetica,sans-Serif" font-size="10.00">toml::detail::is_map</text>
<text text-anchor="middle" x="637" y="-160" font-family="Helvetica,sans-Serif" font-size="10.00">&lt; T &amp; &gt;</text>
</a>
</g>
</g>
<!-- Node8&#45;&gt;Node9 -->
<g id="edge9" class="edge">
<title>Node8&#45;&gt;Node9</title>
<path fill="none" stroke="midnightblue" d="M495.68,-131.13C521.15,-137.82 552.96,-146.18 579.86,-153.25"/>
<polygon fill="midnightblue" stroke="midnightblue" points="496.46,-127.72 485.9,-128.56 494.68,-134.49 496.46,-127.72"/>
</g>
<!-- Node10 -->
<g id="node11" class="node">
<title>Node10</title>
<g id="a_node11"><a xlink:href="structtoml_1_1detail_1_1is__map_3_01T_01const_01_6_01_4.html" target="_top" xlink:title=" ">
<polygon fill="none" stroke="black" points="580,-104 580,-134 694,-134 694,-104 580,-104"/>
<text text-anchor="start" x="588" y="-122" font-family="Helvetica,sans-Serif" font-size="10.00">toml::detail::is_map</text>
<text text-anchor="middle" x="637" y="-111" font-family="Helvetica,sans-Serif" font-size="10.00">&lt; T const &amp; &gt;</text>
</a>
</g>
</g>
<!-- Node8&#45;&gt;Node10 -->
<g id="edge10" class="edge">
<title>Node8&#45;&gt;Node10</title>
<path fill="none" stroke="midnightblue" d="M530.33,-119C547.05,-119 564.31,-119 579.92,-119"/>
<polygon fill="midnightblue" stroke="midnightblue" points="530.01,-115.5 520.01,-119 530.01,-122.5 530.01,-115.5"/>
</g>
<!-- Node11 -->
<g id="node12" class="node">
<title>Node11</title>
<g id="a_node12"><a xlink:href="structtoml_1_1detail_1_1is__map_3_01T_01const_01volatile_01_6_01_4.html" target="_top" xlink:title=" ">
<polygon fill="none" stroke="black" points="574.5,-55 574.5,-85 699.5,-85 699.5,-55 574.5,-55"/>
<text text-anchor="start" x="582.5" y="-73" font-family="Helvetica,sans-Serif" font-size="10.00">toml::detail::is_map</text>
<text text-anchor="middle" x="637" y="-62" font-family="Helvetica,sans-Serif" font-size="10.00">&lt; T const volatile &amp; &gt;</text>
</a>
</g>
</g>
<!-- Node8&#45;&gt;Node11 -->
<g id="edge11" class="edge">
<title>Node8&#45;&gt;Node11</title>
<path fill="none" stroke="midnightblue" d="M495.9,-106.81C520.98,-100.22 552.18,-92.02 578.77,-85.04"/>
<polygon fill="midnightblue" stroke="midnightblue" points="494.68,-103.51 485.9,-109.44 496.46,-110.28 494.68,-103.51"/>
</g>
<!-- Node12 -->
<g id="node13" class="node">
<title>Node12</title>
<g id="a_node13"><a xlink:href="structtoml_1_1detail_1_1is__map_3_01T_01volatile_01_6_01_4.html" target="_top" xlink:title=" ">
<polygon fill="none" stroke="black" points="580,-6 580,-36 694,-36 694,-6 580,-6"/>
<text text-anchor="start" x="588" y="-24" font-family="Helvetica,sans-Serif" font-size="10.00">toml::detail::is_map</text>
<text text-anchor="middle" x="637" y="-13" font-family="Helvetica,sans-Serif" font-size="10.00">&lt; T volatile &amp; &gt;</text>
</a>
</g>
</g>
<!-- Node8&#45;&gt;Node12 -->
<g id="edge12" class="edge">
<title>Node8&#45;&gt;Node12</title>
<path fill="none" stroke="midnightblue" d="M471.65,-103.49C494.9,-87.66 532.89,-63.06 568,-46 575.35,-42.43 583.36,-39.06 591.21,-36.02"/>
<polygon fill="midnightblue" stroke="midnightblue" points="469.47,-100.74 463.21,-109.29 473.43,-106.51 469.47,-100.74"/>
</g>
</g>
</svg>
