<?xml version="1.0" encoding="UTF-8" standalone="no"?>
<!DOCTYPE svg PUBLIC "-//W3C//DTD SVG 1.1//EN"
 "http://www.w3.org/Graphics/SVG/1.1/DTD/svg11.dtd">
<!-- Generated by graphviz version 2.43.0 (0)
 -->
<!-- Title: Graphical Class Hierarchy Pages: 1 -->
<svg width="276pt" height="78pt"
 viewBox="0.00 0.00 276.00 77.50" xmlns="http://www.w3.org/2000/svg" xmlns:xlink="http://www.w3.org/1999/xlink">
<g id="graph0" class="graph" transform="scale(1 1) rotate(0) translate(4 73.5)">
<title>Graphical Class Hierarchy</title>
<!-- Node0 -->
<g id="node1" class="node">
<title>Node0</title>
<g id="a_node1"><a xlink:title=" ">
<polygon fill="none" stroke="#bfbfbf" points="29.5,-50 29.5,-69 70.5,-69 70.5,-50 29.5,-50"/>
<text text-anchor="middle" x="50" y="-57" font-family="Helvetica,sans-Serif" font-size="10.00">Base</text>
</a>
</g>
</g>
<!-- Node1 -->
<g id="node2" class="node">
<title>Node1</title>
<g id="a_node2"><a xlink:href="structModule_1_1Factory_1_1Registrar.html" target="_top" xlink:title=" ">
<polygon fill="none" stroke="black" points="136,-17 136,-58 268,-58 268,-17 136,-17"/>
<text text-anchor="start" x="144" y="-46" font-family="Helvetica,sans-Serif" font-size="10.00">Module::Factory&lt; Base,</text>
<text text-anchor="start" x="144" y="-35" font-family="Helvetica,sans-Serif" font-size="10.00"> Args &gt;::Registrar&lt; T,</text>
<text text-anchor="middle" x="202" y="-24" font-family="Helvetica,sans-Serif" font-size="10.00"> Config &gt;</text>
</a>
</g>
</g>
<!-- Node0&#45;&gt;Node1 -->
<g id="edge1" class="edge">
<title>Node0&#45;&gt;Node1</title>
<path fill="none" stroke="midnightblue" d="M80.8,-55.13C96.59,-52.81 116.65,-49.87 135.83,-47.06"/>
<polygon fill="midnightblue" stroke="midnightblue" points="80,-51.71 70.61,-56.62 81.01,-58.64 80,-51.71"/>
</g>
<!-- Node2 -->
<g id="node3" class="node">
<title>Node2</title>
<g id="a_node3"><a xlink:href="classUtil_1_1configurable.html" target="_top" xlink:title=" ">
<polygon fill="none" stroke="black" points="0,-0.5 0,-30.5 100,-30.5 100,-0.5 0,-0.5"/>
<text text-anchor="start" x="8" y="-18.5" font-family="Helvetica,sans-Serif" font-size="10.00">Util::configurable</text>
<text text-anchor="middle" x="50" y="-7.5" font-family="Helvetica,sans-Serif" font-size="10.00">&lt; Config &gt;</text>
</a>
</g>
</g>
<!-- Node2&#45;&gt;Node1 -->
<g id="edge2" class="edge">
<title>Node2&#45;&gt;Node1</title>
<path fill="none" stroke="midnightblue" d="M110.24,-24.19C118.69,-25.43 127.41,-26.71 135.95,-27.96"/>
<polygon fill="midnightblue" stroke="midnightblue" points="110.52,-20.69 100.12,-22.7 109.5,-27.62 110.52,-20.69"/>
</g>
</g>
</svg>
