<?xml version="1.0" encoding="UTF-8" standalone="no"?>
<!DOCTYPE svg PUBLIC "-//W3C//DTD SVG 1.1//EN"
 "http://www.w3.org/Graphics/SVG/1.1/DTD/svg11.dtd">
<!-- Generated by graphviz version 2.43.0 (0)
 -->
<!-- Title: Graphical Class Hierarchy Pages: 1 -->
<svg width="277pt" height="78pt"
 viewBox="0.00 0.00 277.00 77.50" xmlns="http://www.w3.org/2000/svg" xmlns:xlink="http://www.w3.org/1999/xlink">
<g id="graph0" class="graph" transform="scale(1 1) rotate(0) translate(4 73.5)">
<title>Graphical Class Hierarchy</title>
<!-- Node0 -->
<g id="node1" class="node">
<title>Node0</title>
<g id="a_node1"><a xlink:title=" ">
<polygon fill="none" stroke="#bfbfbf" points="30,-50 30,-69 71,-69 71,-50 30,-50"/>
<text text-anchor="middle" x="50.5" y="-57" font-family="Helvetica,sans-Serif" font-size="10.00">Base</text>
</a>
</g>
</g>
<!-- Node1 -->
<g id="node2" class="node">
<title>Node1</title>
<g id="a_node2"><a xlink:href="structModule_1_1Factory_1_1Registrar.html" target="_top" xlink:title=" ">
<polygon fill="none" stroke="black" points="137,-17 137,-58 269,-58 269,-17 137,-17"/>
<text text-anchor="start" x="145" y="-46" font-family="Helvetica,sans-Serif" font-size="10.00">Module::Factory&lt; Base,</text>
<text text-anchor="start" x="145" y="-35" font-family="Helvetica,sans-Serif" font-size="10.00"> Args &gt;::Registrar&lt; T,</text>
<text text-anchor="middle" x="203" y="-24" font-family="Helvetica,sans-Serif" font-size="10.00"> Config &gt;</text>
</a>
</g>
</g>
<!-- Node0&#45;&gt;Node1 -->
<g id="edge1" class="edge">
<title>Node0&#45;&gt;Node1</title>
<path fill="none" stroke="midnightblue" d="M81.45,-55.12C97.38,-52.79 117.62,-49.83 136.95,-47.01"/>
<polygon fill="midnightblue" stroke="midnightblue" points="80.56,-51.71 71.18,-56.62 81.58,-58.64 80.56,-51.71"/>
</g>
<!-- Node2 -->
<g id="node3" class="node">
<title>Node2</title>
<g id="a_node3"><a xlink:href="classUtil_1_1Configurable.html" target="_top" xlink:title=" ">
<polygon fill="none" stroke="black" points="0,-0.5 0,-30.5 101,-30.5 101,-0.5 0,-0.5"/>
<text text-anchor="start" x="8" y="-18.5" font-family="Helvetica,sans-Serif" font-size="10.00">Util::Configurable</text>
<text text-anchor="middle" x="50.5" y="-7.5" font-family="Helvetica,sans-Serif" font-size="10.00">&lt; Config &gt;</text>
</a>
</g>
</g>
<!-- Node2&#45;&gt;Node1 -->
<g id="edge2" class="edge">
<title>Node2&#45;&gt;Node1</title>
<path fill="none" stroke="midnightblue" d="M111.26,-24.24C119.65,-25.46 128.31,-26.73 136.79,-27.97"/>
<polygon fill="midnightblue" stroke="midnightblue" points="111.6,-20.75 101.2,-22.76 110.58,-27.67 111.6,-20.75"/>
</g>
</g>
</svg>
