<?xml version="1.0" encoding="UTF-8" standalone="no"?>
<!DOCTYPE svg PUBLIC "-//W3C//DTD SVG 1.1//EN"
 "http://www.w3.org/Graphics/SVG/1.1/DTD/svg11.dtd">
<!-- Generated by graphviz version 2.43.0 (0)
 -->
<!-- Title: Graphical Class Hierarchy Pages: 1 -->
<svg width="257pt" height="78pt"
 viewBox="0.00 0.00 257.00 77.50" xmlns="http://www.w3.org/2000/svg" xmlns:xlink="http://www.w3.org/1999/xlink">
<g id="graph0" class="graph" transform="scale(1 1) rotate(0) translate(4 73.5)">
<title>Graphical Class Hierarchy</title>
<!-- Node0 -->
<g id="node1" class="node">
<title>Node0</title>
<g id="a_node1"><a xlink:title=" ">
<polygon fill="none" stroke="#bfbfbf" points="29.5,-50 29.5,-69 70.5,-69 70.5,-50 29.5,-50"/>
<text text-anchor="middle" x="50" y="-57" font-family="Helvetica,sans-Serif" font-size="10.00">Base</text>
</a>
</g>
</g>
<!-- Node1 -->
<g id="node2" class="node">
<title>Node1</title>
<g id="a_node2"><a xlink:href="structUtil_1_1Factory_1_1Registrar.html" target="_top" xlink:title=" ">
<polygon fill="none" stroke="black" points="136,-17 136,-58 249,-58 249,-17 136,-17"/>
<text text-anchor="start" x="144" y="-46" font-family="Helvetica,sans-Serif" font-size="10.00">Util::Factory&lt; Base,</text>
<text text-anchor="start" x="144" y="-35" font-family="Helvetica,sans-Serif" font-size="10.00"> Args &gt;::Registrar&lt;</text>
<text text-anchor="middle" x="192.5" y="-24" font-family="Helvetica,sans-Serif" font-size="10.00"> T, Config &gt;</text>
</a>
</g>
</g>
<!-- Node0&#45;&gt;Node1 -->
<g id="edge1" class="edge">
<title>Node0&#45;&gt;Node1</title>
<path fill="none" stroke="midnightblue" d="M80.85,-54.83C96.82,-52.32 117.02,-49.16 135.77,-46.23"/>
<polygon fill="midnightblue" stroke="midnightblue" points="79.87,-51.44 70.54,-56.44 80.96,-58.35 79.87,-51.44"/>
</g>
<!-- Node2 -->
<g id="node3" class="node">
<title>Node2</title>
<g id="a_node3"><a xlink:href="classUtil_1_1configurable.html" target="_top" xlink:title=" ">
<polygon fill="none" stroke="black" points="0,-0.5 0,-30.5 100,-30.5 100,-0.5 0,-0.5"/>
<text text-anchor="start" x="8" y="-18.5" font-family="Helvetica,sans-Serif" font-size="10.00">Util::configurable</text>
<text text-anchor="middle" x="50" y="-7.5" font-family="Helvetica,sans-Serif" font-size="10.00">&lt; Config &gt;</text>
</a>
</g>
</g>
<!-- Node2&#45;&gt;Node1 -->
<g id="edge2" class="edge">
<title>Node2&#45;&gt;Node1</title>
<path fill="none" stroke="midnightblue" d="M110.06,-24.75C118.62,-26.09 127.41,-27.46 135.9,-28.79"/>
<polygon fill="midnightblue" stroke="midnightblue" points="110.56,-21.28 100.14,-23.19 109.48,-28.2 110.56,-21.28"/>
</g>
</g>
</svg>
