<?xml version="1.0" encoding="UTF-8" standalone="no"?>
<!DOCTYPE svg PUBLIC "-//W3C//DTD SVG 1.1//EN"
 "http://www.w3.org/Graphics/SVG/1.1/DTD/svg11.dtd">
<!-- Generated by graphviz version 2.43.0 (0)
 -->
<!-- Title: Graphical Class Hierarchy Pages: 1 -->
<svg width="449pt" height="224pt"
 viewBox="0.00 0.00 449.00 223.50" xmlns="http://www.w3.org/2000/svg" xmlns:xlink="http://www.w3.org/1999/xlink">
<g id="graph0" class="graph" transform="scale(1 1) rotate(0) translate(4 219.5)">
<title>Graphical Class Hierarchy</title>
<!-- Node0 -->
<g id="node1" class="node">
<title>Node0</title>
<g id="a_node1"><a xlink:href="classutil_1_1Factory.html" target="_top" xlink:title=" ">
<polygon fill="none" stroke="black" points="0,-185 0,-215 149,-215 149,-185 0,-185"/>
<text text-anchor="start" x="8" y="-203" font-family="Helvetica,sans-Serif" font-size="10.00">util::Factory&lt; Server,</text>
<text text-anchor="middle" x="74.5" y="-192" font-family="Helvetica,sans-Serif" font-size="10.00"> capnp::Capability::Client &gt;</text>
</a>
</g>
</g>
<!-- Node1 -->
<g id="node2" class="node">
<title>Node1</title>
<g id="a_node2"><a xlink:href="classrpc_1_1Server.html" target="_top" xlink:title=" ">
<polygon fill="none" stroke="black" points="199.5,-190.5 199.5,-209.5 268.5,-209.5 268.5,-190.5 199.5,-190.5"/>
<text text-anchor="middle" x="234" y="-197.5" font-family="Helvetica,sans-Serif" font-size="10.00">rpc::Server</text>
</a>
</g>
</g>
<!-- Node0&#45;&gt;Node1 -->
<g id="edge1" class="edge">
<title>Node0&#45;&gt;Node1</title>
<path fill="none" stroke="midnightblue" d="M159.51,-200C173.68,-200 187.62,-200 199.49,-200"/>
<polygon fill="midnightblue" stroke="midnightblue" points="159.18,-196.5 149.18,-200 159.18,-203.5 159.18,-196.5"/>
</g>
<!-- Node2 -->
<g id="node3" class="node">
<title>Node2</title>
<g id="a_node3"><a xlink:href="classrunnable.html" target="_top" xlink:title=" ">
<polygon fill="none" stroke="black" points="45,-95.5 45,-114.5 104,-114.5 104,-95.5 45,-95.5"/>
<text text-anchor="middle" x="74.5" y="-102.5" font-family="Helvetica,sans-Serif" font-size="10.00">runnable</text>
</a>
</g>
</g>
<!-- Node2&#45;&gt;Node1 -->
<g id="edge4" class="edge">
<title>Node2&#45;&gt;Node1</title>
<path fill="none" stroke="midnightblue" d="M95.35,-120.87C116.62,-137.38 151.83,-163.23 185,-181 191.48,-184.47 198.73,-187.67 205.6,-190.41"/>
<polygon fill="midnightblue" stroke="midnightblue" points="97.42,-118.05 87.39,-114.63 93.1,-123.56 97.42,-118.05"/>
</g>
<!-- Node3 -->
<g id="node4" class="node">
<title>Node3</title>
<g id="a_node4"><a xlink:href="classconsumer.html" target="_top" xlink:title=" ">
<polygon fill="none" stroke="black" points="201.5,-152.5 201.5,-171.5 266.5,-171.5 266.5,-152.5 201.5,-152.5"/>
<text text-anchor="middle" x="234" y="-159.5" font-family="Helvetica,sans-Serif" font-size="10.00">consumer</text>
</a>
</g>
</g>
<!-- Node2&#45;&gt;Node3 -->
<g id="edge2" class="edge">
<title>Node2&#45;&gt;Node3</title>
<path fill="none" stroke="midnightblue" d="M111.6,-118.07C140.55,-128.54 180.51,-143.01 206.55,-152.43"/>
<polygon fill="midnightblue" stroke="midnightblue" points="112.46,-114.65 101.86,-114.54 110.07,-121.23 112.46,-114.65"/>
</g>
<!-- Node4 -->
<g id="node5" class="node">
<title>Node4</title>
<g id="a_node5"><a xlink:href="classproducer.html" target="_top" xlink:title=" ">
<polygon fill="none" stroke="black" points="204.5,-114.5 204.5,-133.5 263.5,-133.5 263.5,-114.5 204.5,-114.5"/>
<text text-anchor="middle" x="234" y="-121.5" font-family="Helvetica,sans-Serif" font-size="10.00">producer</text>
</a>
</g>
</g>
<!-- Node2&#45;&gt;Node4 -->
<g id="edge3" class="edge">
<title>Node2&#45;&gt;Node4</title>
<path fill="none" stroke="midnightblue" d="M114.23,-109.67C142.13,-113.04 179.18,-117.51 204.42,-120.55"/>
<polygon fill="midnightblue" stroke="midnightblue" points="114.37,-106.16 104.02,-108.44 113.53,-113.11 114.37,-106.16"/>
</g>
<!-- Node5 -->
<g id="node6" class="node">
<title>Node5</title>
<g id="a_node6"><a xlink:href="classtransport_1_1Client.html" target="_top" xlink:title=" ">
<polygon fill="none" stroke="black" points="186.5,-76.5 186.5,-95.5 281.5,-95.5 281.5,-76.5 186.5,-76.5"/>
<text text-anchor="middle" x="234" y="-83.5" font-family="Helvetica,sans-Serif" font-size="10.00">transport::Client</text>
</a>
</g>
</g>
<!-- Node2&#45;&gt;Node5 -->
<g id="edge5" class="edge">
<title>Node2&#45;&gt;Node5</title>
<path fill="none" stroke="midnightblue" d="M114.24,-100.33C136.07,-97.69 163.48,-94.39 186.46,-91.61"/>
<polygon fill="midnightblue" stroke="midnightblue" points="113.53,-96.89 104.02,-101.56 114.37,-103.84 113.53,-96.89"/>
</g>
<!-- Node7 -->
<g id="node8" class="node">
<title>Node7</title>
<g id="a_node8"><a xlink:href="classtransport_1_1Server.html" target="_top" xlink:title=" ">
<polygon fill="none" stroke="black" points="185,-38.5 185,-57.5 283,-57.5 283,-38.5 185,-38.5"/>
<text text-anchor="middle" x="234" y="-45.5" font-family="Helvetica,sans-Serif" font-size="10.00">transport::Server</text>
</a>
</g>
</g>
<!-- Node2&#45;&gt;Node7 -->
<g id="edge7" class="edge">
<title>Node2&#45;&gt;Node7</title>
<path fill="none" stroke="midnightblue" d="M111.6,-91.93C140.55,-81.46 180.51,-66.99 206.55,-57.57"/>
<polygon fill="midnightblue" stroke="midnightblue" points="110.07,-88.77 101.86,-95.46 112.46,-95.35 110.07,-88.77"/>
</g>
<!-- Node9 -->
<g id="node10" class="node">
<title>Node9</title>
<g id="a_node10"><a xlink:href="classui.html" target="_top" xlink:title=" ">
<polygon fill="none" stroke="black" points="219.5,-0.5 219.5,-19.5 248.5,-19.5 248.5,-0.5 219.5,-0.5"/>
<text text-anchor="middle" x="234" y="-7.5" font-family="Helvetica,sans-Serif" font-size="10.00">ui</text>
</a>
</g>
</g>
<!-- Node2&#45;&gt;Node9 -->
<g id="edge9" class="edge">
<title>Node2&#45;&gt;Node9</title>
<path fill="none" stroke="midnightblue" d="M95.35,-89.13C116.62,-72.62 151.83,-46.77 185,-29 196.06,-23.07 209.38,-17.95 219.18,-14.52"/>
<polygon fill="midnightblue" stroke="midnightblue" points="93.1,-86.44 87.39,-95.37 97.42,-91.95 93.1,-86.44"/>
</g>
<!-- Node6 -->
<g id="node7" class="node">
<title>Node6</title>
<g id="a_node7"><a xlink:href="classtransport_1_1TCP_1_1Client.html" target="_top" xlink:title=" ">
<polygon fill="none" stroke="black" points="320.5,-76.5 320.5,-95.5 439.5,-95.5 439.5,-76.5 320.5,-76.5"/>
<text text-anchor="middle" x="380" y="-83.5" font-family="Helvetica,sans-Serif" font-size="10.00">transport::TCP::Client</text>
</a>
</g>
</g>
<!-- Node5&#45;&gt;Node6 -->
<g id="edge6" class="edge">
<title>Node5&#45;&gt;Node6</title>
<path fill="none" stroke="midnightblue" d="M291.78,-86C301.17,-86 310.93,-86 320.38,-86"/>
<polygon fill="midnightblue" stroke="midnightblue" points="291.75,-82.5 281.75,-86 291.75,-89.5 291.75,-82.5"/>
</g>
<!-- Node8 -->
<g id="node9" class="node">
<title>Node8</title>
<g id="a_node9"><a xlink:href="classtransport_1_1TCP_1_1Server.html" target="_top" xlink:title=" ">
<polygon fill="none" stroke="black" points="319,-38.5 319,-57.5 441,-57.5 441,-38.5 319,-38.5"/>
<text text-anchor="middle" x="380" y="-45.5" font-family="Helvetica,sans-Serif" font-size="10.00">transport::TCP::Server</text>
</a>
</g>
</g>
<!-- Node7&#45;&gt;Node8 -->
<g id="edge8" class="edge">
<title>Node7&#45;&gt;Node8</title>
<path fill="none" stroke="midnightblue" d="M293.39,-48C301.75,-48 310.36,-48 318.75,-48"/>
<polygon fill="midnightblue" stroke="midnightblue" points="293.35,-44.5 283.35,-48 293.35,-51.5 293.35,-44.5"/>
</g>
</g>
</svg>
