<?xml version="1.0" encoding="UTF-8" standalone="no"?>
<!DOCTYPE svg PUBLIC "-//W3C//DTD SVG 1.1//EN"
 "http://www.w3.org/Graphics/SVG/1.1/DTD/svg11.dtd">
<!-- Generated by graphviz version 2.43.0 (0)
 -->
<!-- Title: Graphical Class Hierarchy Pages: 1 -->
<svg width="441pt" height="229pt"
 viewBox="0.00 0.00 441.00 229.00" xmlns="http://www.w3.org/2000/svg" xmlns:xlink="http://www.w3.org/1999/xlink">
<g id="graph0" class="graph" transform="scale(1 1) rotate(0) translate(4 225)">
<title>Graphical Class Hierarchy</title>
<!-- Node0 -->
<g id="node1" class="node">
<title>Node0</title>
<g id="a_node1"><a xlink:href="classutil_1_1Factory.html" target="_top" xlink:title=" ">
<polygon fill="none" stroke="black" points="0,-179.5 0,-220.5 141,-220.5 141,-179.5 0,-179.5"/>
<text text-anchor="start" x="8" y="-208.5" font-family="Helvetica,sans-Serif" font-size="10.00">util::Factory&lt; Server,</text>
<text text-anchor="start" x="8" y="-197.5" font-family="Helvetica,sans-Serif" font-size="10.00"> capnp::Capability::Client,</text>
<text text-anchor="middle" x="70.5" y="-186.5" font-family="Helvetica,sans-Serif" font-size="10.00"> auth::Authenticator * &gt;</text>
</a>
</g>
</g>
<!-- Node1 -->
<g id="node2" class="node">
<title>Node1</title>
<g id="a_node2"><a xlink:href="classrpc_1_1Server.html" target="_top" xlink:title=" ">
<polygon fill="none" stroke="black" points="191.5,-190.5 191.5,-209.5 260.5,-209.5 260.5,-190.5 191.5,-190.5"/>
<text text-anchor="middle" x="226" y="-197.5" font-family="Helvetica,sans-Serif" font-size="10.00">rpc::Server</text>
</a>
</g>
</g>
<!-- Node0&#45;&gt;Node1 -->
<g id="edge1" class="edge">
<title>Node0&#45;&gt;Node1</title>
<path fill="none" stroke="midnightblue" d="M151.32,-200C165.41,-200 179.36,-200 191.27,-200"/>
<polygon fill="midnightblue" stroke="midnightblue" points="151.06,-196.5 141.06,-200 151.06,-203.5 151.06,-196.5"/>
</g>
<!-- Node2 -->
<g id="node3" class="node">
<title>Node2</title>
<g id="a_node3"><a xlink:href="classrunnable.html" target="_top" xlink:title=" ">
<polygon fill="none" stroke="black" points="41,-95.5 41,-114.5 100,-114.5 100,-95.5 41,-95.5"/>
<text text-anchor="middle" x="70.5" y="-102.5" font-family="Helvetica,sans-Serif" font-size="10.00">runnable</text>
</a>
</g>
</g>
<!-- Node2&#45;&gt;Node1 -->
<g id="edge4" class="edge">
<title>Node2&#45;&gt;Node1</title>
<path fill="none" stroke="midnightblue" d="M90.8,-121.15C111.24,-137.72 144.94,-163.46 177,-181 183.45,-184.53 190.69,-187.74 197.56,-190.49"/>
<polygon fill="midnightblue" stroke="midnightblue" points="92.84,-118.3 82.89,-114.67 88.4,-123.72 92.84,-118.3"/>
</g>
<!-- Node3 -->
<g id="node4" class="node">
<title>Node3</title>
<g id="a_node4"><a xlink:href="classconsumer.html" target="_top" xlink:title=" ">
<polygon fill="none" stroke="black" points="193.5,-152.5 193.5,-171.5 258.5,-171.5 258.5,-152.5 193.5,-152.5"/>
<text text-anchor="middle" x="226" y="-159.5" font-family="Helvetica,sans-Serif" font-size="10.00">consumer</text>
</a>
</g>
</g>
<!-- Node2&#45;&gt;Node3 -->
<g id="edge2" class="edge">
<title>Node2&#45;&gt;Node3</title>
<path fill="none" stroke="midnightblue" d="M106.69,-118.07C134.9,-128.54 173.85,-143.01 199.22,-152.43"/>
<polygon fill="midnightblue" stroke="midnightblue" points="107.79,-114.74 97.19,-114.54 105.35,-121.3 107.79,-114.74"/>
</g>
<!-- Node4 -->
<g id="node5" class="node">
<title>Node4</title>
<g id="a_node5"><a xlink:href="classproducer.html" target="_top" xlink:title=" ">
<polygon fill="none" stroke="black" points="196.5,-114.5 196.5,-133.5 255.5,-133.5 255.5,-114.5 196.5,-114.5"/>
<text text-anchor="middle" x="226" y="-121.5" font-family="Helvetica,sans-Serif" font-size="10.00">producer</text>
</a>
</g>
</g>
<!-- Node2&#45;&gt;Node4 -->
<g id="edge3" class="edge">
<title>Node2&#45;&gt;Node4</title>
<path fill="none" stroke="midnightblue" d="M110.2,-109.79C137,-113.11 172.08,-117.45 196.38,-120.46"/>
<polygon fill="midnightblue" stroke="midnightblue" points="110.37,-106.28 100.01,-108.53 109.51,-113.23 110.37,-106.28"/>
</g>
<!-- Node5 -->
<g id="node6" class="node">
<title>Node5</title>
<g id="a_node6"><a xlink:href="classtransport_1_1Client.html" target="_top" xlink:title=" ">
<polygon fill="none" stroke="black" points="178.5,-76.5 178.5,-95.5 273.5,-95.5 273.5,-76.5 178.5,-76.5"/>
<text text-anchor="middle" x="226" y="-83.5" font-family="Helvetica,sans-Serif" font-size="10.00">transport::Client</text>
</a>
</g>
</g>
<!-- Node2&#45;&gt;Node5 -->
<g id="edge5" class="edge">
<title>Node2&#45;&gt;Node5</title>
<path fill="none" stroke="midnightblue" d="M110.03,-100.23C130.73,-97.67 156.41,-94.49 178.25,-91.79"/>
<polygon fill="midnightblue" stroke="midnightblue" points="109.51,-96.77 100.01,-101.47 110.37,-103.72 109.51,-96.77"/>
</g>
<!-- Node7 -->
<g id="node8" class="node">
<title>Node7</title>
<g id="a_node8"><a xlink:href="classtransport_1_1Server.html" target="_top" xlink:title=" ">
<polygon fill="none" stroke="black" points="177,-38.5 177,-57.5 275,-57.5 275,-38.5 177,-38.5"/>
<text text-anchor="middle" x="226" y="-45.5" font-family="Helvetica,sans-Serif" font-size="10.00">transport::Server</text>
</a>
</g>
</g>
<!-- Node2&#45;&gt;Node7 -->
<g id="edge7" class="edge">
<title>Node2&#45;&gt;Node7</title>
<path fill="none" stroke="midnightblue" d="M106.69,-91.93C134.9,-81.46 173.85,-66.99 199.22,-57.57"/>
<polygon fill="midnightblue" stroke="midnightblue" points="105.35,-88.7 97.19,-95.46 107.79,-95.26 105.35,-88.7"/>
</g>
<!-- Node9 -->
<g id="node10" class="node">
<title>Node9</title>
<g id="a_node10"><a xlink:href="classui.html" target="_top" xlink:title=" ">
<polygon fill="none" stroke="black" points="211.5,-0.5 211.5,-19.5 240.5,-19.5 240.5,-0.5 211.5,-0.5"/>
<text text-anchor="middle" x="226" y="-7.5" font-family="Helvetica,sans-Serif" font-size="10.00">ui</text>
</a>
</g>
</g>
<!-- Node2&#45;&gt;Node9 -->
<g id="edge9" class="edge">
<title>Node2&#45;&gt;Node9</title>
<path fill="none" stroke="midnightblue" d="M90.8,-88.85C111.24,-72.28 144.94,-46.54 177,-29 188.01,-22.98 201.33,-17.86 211.15,-14.46"/>
<polygon fill="midnightblue" stroke="midnightblue" points="88.4,-86.28 82.89,-95.33 92.84,-91.7 88.4,-86.28"/>
</g>
<!-- Node6 -->
<g id="node7" class="node">
<title>Node6</title>
<g id="a_node7"><a xlink:href="classtransport_1_1TCP_1_1Client.html" target="_top" xlink:title=" ">
<polygon fill="none" stroke="black" points="312.5,-76.5 312.5,-95.5 431.5,-95.5 431.5,-76.5 312.5,-76.5"/>
<text text-anchor="middle" x="372" y="-83.5" font-family="Helvetica,sans-Serif" font-size="10.00">transport::TCP::Client</text>
</a>
</g>
</g>
<!-- Node5&#45;&gt;Node6 -->
<g id="edge6" class="edge">
<title>Node5&#45;&gt;Node6</title>
<path fill="none" stroke="midnightblue" d="M283.78,-86C293.17,-86 302.93,-86 312.38,-86"/>
<polygon fill="midnightblue" stroke="midnightblue" points="283.75,-82.5 273.75,-86 283.75,-89.5 283.75,-82.5"/>
</g>
<!-- Node8 -->
<g id="node9" class="node">
<title>Node8</title>
<g id="a_node9"><a xlink:href="classtransport_1_1TCP_1_1Server.html" target="_top" xlink:title=" ">
<polygon fill="none" stroke="black" points="311,-38.5 311,-57.5 433,-57.5 433,-38.5 311,-38.5"/>
<text text-anchor="middle" x="372" y="-45.5" font-family="Helvetica,sans-Serif" font-size="10.00">transport::TCP::Server</text>
</a>
</g>
</g>
<!-- Node7&#45;&gt;Node8 -->
<g id="edge8" class="edge">
<title>Node7&#45;&gt;Node8</title>
<path fill="none" stroke="midnightblue" d="M285.39,-48C293.75,-48 302.36,-48 310.75,-48"/>
<polygon fill="midnightblue" stroke="midnightblue" points="285.35,-44.5 275.35,-48 285.35,-51.5 285.35,-44.5"/>
</g>
</g>
</svg>
