<?xml version="1.0" encoding="UTF-8" standalone="no"?>
<!DOCTYPE svg PUBLIC "-//W3C//DTD SVG 1.1//EN"
 "http://www.w3.org/Graphics/SVG/1.1/DTD/svg11.dtd">
<!-- Generated by graphviz version 2.43.0 (0)
 -->
<!-- Title: Graphical Class Hierarchy Pages: 1 -->
<svg width="259pt" height="78pt"
 viewBox="0.00 0.00 259.00 77.50" xmlns="http://www.w3.org/2000/svg" xmlns:xlink="http://www.w3.org/1999/xlink">
<g id="graph0" class="graph" transform="scale(1 1) rotate(0) translate(4 73.5)">
<title>Graphical Class Hierarchy</title>
<!-- Node0 -->
<g id="node1" class="node">
<title>Node0</title>
<g id="a_node1"><a xlink:title=" ">
<polygon fill="none" stroke="#bfbfbf" points="25.5,-50 25.5,-69 74.5,-69 74.5,-50 25.5,-50"/>
<text text-anchor="middle" x="50" y="-57" font-family="Helvetica,sans-Serif" font-size="10.00">base_t</text>
</a>
</g>
</g>
<!-- Node1 -->
<g id="node2" class="node">
<title>Node1</title>
<g id="a_node2"><a xlink:href="structUtil_1_1Factory_1_1Registrar.html" target="_top" xlink:title=" ">
<polygon fill="none" stroke="black" points="136,-17 136,-58 251,-58 251,-17 136,-17"/>
<text text-anchor="start" x="144" y="-46" font-family="Helvetica,sans-Serif" font-size="10.00">Util::Factory&lt; base</text>
<text text-anchor="start" x="144" y="-35" font-family="Helvetica,sans-Serif" font-size="10.00">_t, Args &gt;::Registrar</text>
<text text-anchor="middle" x="193.5" y="-24" font-family="Helvetica,sans-Serif" font-size="10.00">&lt; T, Config &gt;</text>
</a>
</g>
</g>
<!-- Node0&#45;&gt;Node1 -->
<g id="edge1" class="edge">
<title>Node0&#45;&gt;Node1</title>
<path fill="none" stroke="midnightblue" d="M84.69,-54.26C99.95,-51.89 118.42,-49.02 135.73,-46.33"/>
<polygon fill="midnightblue" stroke="midnightblue" points="84.03,-50.82 74.68,-55.82 85.1,-57.74 84.03,-50.82"/>
</g>
<!-- Node2 -->
<g id="node3" class="node">
<title>Node2</title>
<g id="a_node3"><a xlink:href="classUtil_1_1configurable.html" target="_top" xlink:title=" ">
<polygon fill="none" stroke="black" points="0,-0.5 0,-30.5 100,-30.5 100,-0.5 0,-0.5"/>
<text text-anchor="start" x="8" y="-18.5" font-family="Helvetica,sans-Serif" font-size="10.00">Util::configurable</text>
<text text-anchor="middle" x="50" y="-7.5" font-family="Helvetica,sans-Serif" font-size="10.00">&lt; Config &gt;</text>
</a>
</g>
</g>
<!-- Node2&#45;&gt;Node1 -->
<g id="edge2" class="edge">
<title>Node2&#45;&gt;Node1</title>
<path fill="none" stroke="midnightblue" d="M110.24,-24.71C118.67,-26.02 127.34,-27.37 135.72,-28.67"/>
<polygon fill="midnightblue" stroke="midnightblue" points="110.51,-21.21 100.09,-23.13 109.44,-28.13 110.51,-21.21"/>
</g>
</g>
</svg>
