<?xml version="1.0" encoding="UTF-8" standalone="no"?>
<!DOCTYPE svg PUBLIC "-//W3C//DTD SVG 1.1//EN"
 "http://www.w3.org/Graphics/SVG/1.1/DTD/svg11.dtd">
<!-- Generated by graphviz version 2.43.0 (0)
 -->
<!-- Title: rpc::ErrorHandler Pages: 1 -->
<svg width="145pt" height="160pt"
 viewBox="0.00 0.00 145.00 160.00" xmlns="http://www.w3.org/2000/svg" xmlns:xlink="http://www.w3.org/1999/xlink">
<g id="graph0" class="graph" transform="scale(1 1) rotate(0) translate(4 156)">
<title>rpc::ErrorHandler</title>
<!-- Node1 -->
<g id="node1" class="node">
<title>Node1</title>
<g id="a_node1"><a xlink:title=" ">
<polygon fill="#bfbfbf" stroke="black" points="19,-0.5 19,-57.5 118,-57.5 118,-0.5 19,-0.5"/>
<text text-anchor="middle" x="68.5" y="-45.5" font-family="Helvetica,sans-Serif" font-size="10.00">rpc::ErrorHandler</text>
<polyline fill="none" stroke="black" points="19,-38.5 118,-38.5 "/>
<text text-anchor="middle" x="68.5" y="-26.5" font-family="Helvetica,sans-Serif" font-size="10.00"> </text>
<polyline fill="none" stroke="black" points="19,-19.5 118,-19.5 "/>
<text text-anchor="start" x="27" y="-7.5" font-family="Helvetica,sans-Serif" font-size="10.00">+ taskFailed()</text>
</a>
</g>
</g>
<!-- Node2 -->
<g id="node2" class="node">
<title>Node2</title>
<g id="a_node2"><a xlink:title=" ">
<polygon fill="none" stroke="black" points="0,-94.5 0,-151.5 137,-151.5 137,-94.5 0,-94.5"/>
<text text-anchor="middle" x="68.5" y="-139.5" font-family="Helvetica,sans-Serif" font-size="10.00">kj::TaskSet::ErrorHandler</text>
<polyline fill="none" stroke="black" points="0,-132.5 137,-132.5 "/>
<text text-anchor="middle" x="68.5" y="-120.5" font-family="Helvetica,sans-Serif" font-size="10.00"> </text>
<polyline fill="none" stroke="black" points="0,-113.5 137,-113.5 "/>
<text text-anchor="middle" x="68.5" y="-101.5" font-family="Helvetica,sans-Serif" font-size="10.00"> </text>
</a>
</g>
</g>
<!-- Node2&#45;&gt;Node1 -->
<g id="edge1" class="edge">
<title>Node2&#45;&gt;Node1</title>
<path fill="none" stroke="midnightblue" d="M68.5,-84.21C68.5,-75.29 68.5,-65.95 68.5,-57.58"/>
<polygon fill="none" stroke="midnightblue" points="65,-84.4 68.5,-94.4 72,-84.4 65,-84.4"/>
</g>
</g>
</svg>
