<?xml version="1.0" encoding="UTF-8" standalone="no"?>
<!DOCTYPE svg PUBLIC "-//W3C//DTD SVG 1.1//EN"
 "http://www.w3.org/Graphics/SVG/1.1/DTD/svg11.dtd">
<!-- Generated by graphviz version 2.43.0 (0)
 -->
<!-- Title: memory::element_t Pages: 1 -->
<svg width="222pt" height="281pt"
 viewBox="0.00 0.00 222.00 281.00" xmlns="http://www.w3.org/2000/svg" xmlns:xlink="http://www.w3.org/1999/xlink">
<g id="graph0" class="graph" transform="scale(1 1) rotate(0) translate(4 277)">
<title>memory::element_t</title>
<!-- Node1 -->
<g id="node1" class="node">
<title>Node1</title>
<g id="a_node1"><a xlink:title=" ">
<polygon fill="#bfbfbf" stroke="black" points="51.5,-193.5 51.5,-272.5 164.5,-272.5 164.5,-193.5 51.5,-193.5"/>
<text text-anchor="middle" x="108" y="-260.5" font-family="Helvetica,sans-Serif" font-size="10.00">memory::element_t</text>
<polyline fill="none" stroke="black" points="51.5,-253.5 164.5,-253.5 "/>
<text text-anchor="start" x="59.5" y="-241.5" font-family="Helvetica,sans-Serif" font-size="10.00">+ pages</text>
<polyline fill="none" stroke="black" points="51.5,-234.5 164.5,-234.5 "/>
<text text-anchor="start" x="59.5" y="-222.5" font-family="Helvetica,sans-Serif" font-size="10.00">+ element_t()</text>
<text text-anchor="start" x="59.5" y="-211.5" font-family="Helvetica,sans-Serif" font-size="10.00">+ ~element_t()</text>
<text text-anchor="start" x="59.5" y="-200.5" font-family="Helvetica,sans-Serif" font-size="10.00">+ print()</text>
</a>
</g>
</g>
<!-- Node2 -->
<g id="node2" class="node">
<title>Node2</title>
<g id="a_node2"><a xlink:href="structmemory_1_1bin__t.html" target="_top" xlink:title=" ">
<polygon fill="none" stroke="black" points="0,-0.5 0,-156.5 100,-156.5 100,-0.5 0,-0.5"/>
<text text-anchor="middle" x="50" y="-144.5" font-family="Helvetica,sans-Serif" font-size="10.00">memory::bin_t</text>
<polyline fill="none" stroke="black" points="0,-137.5 100,-137.5 "/>
<text text-anchor="start" x="8" y="-125.5" font-family="Helvetica,sans-Serif" font-size="10.00">+ next</text>
<text text-anchor="start" x="8" y="-114.5" font-family="Helvetica,sans-Serif" font-size="10.00">+ prev</text>
<text text-anchor="start" x="8" y="-103.5" font-family="Helvetica,sans-Serif" font-size="10.00">+ first</text>
<polyline fill="none" stroke="black" points="0,-96.5 100,-96.5 "/>
<text text-anchor="start" x="8" y="-84.5" font-family="Helvetica,sans-Serif" font-size="10.00">+ bin_t()</text>
<text text-anchor="start" x="8" y="-73.5" font-family="Helvetica,sans-Serif" font-size="10.00">+ bin_t()</text>
<text text-anchor="start" x="8" y="-62.5" font-family="Helvetica,sans-Serif" font-size="10.00">+ ~bin_t()</text>
<text text-anchor="start" x="8" y="-51.5" font-family="Helvetica,sans-Serif" font-size="10.00">+ print()</text>
<text text-anchor="start" x="8" y="-40.5" font-family="Helvetica,sans-Serif" font-size="10.00">+ pop()</text>
<text text-anchor="start" x="8" y="-29.5" font-family="Helvetica,sans-Serif" font-size="10.00">+ push()</text>
<text text-anchor="start" x="8" y="-18.5" font-family="Helvetica,sans-Serif" font-size="10.00">+ insert_after()</text>
<text text-anchor="start" x="8" y="-7.5" font-family="Helvetica,sans-Serif" font-size="10.00">+ insert_before()</text>
</a>
</g>
</g>
<!-- Node1&#45;&gt;Node2 -->
<g id="edge1" class="edge">
<title>Node1&#45;&gt;Node2</title>
<path fill="none" stroke="midnightblue" d="M89.61,-183.64C86.32,-175 82.83,-165.81 79.33,-156.61"/>
<polygon fill="none" stroke="midnightblue" points="86.39,-185.02 93.21,-193.12 92.93,-182.53 86.39,-185.02"/>
</g>
<!-- Node3 -->
<g id="node3" class="node">
<title>Node3</title>
<g id="a_node3"><a xlink:href="structmemory_1_1node__t.html" target="_top" xlink:title=" ">
<polygon fill="none" stroke="black" points="118,-17 118,-140 214,-140 214,-17 118,-17"/>
<text text-anchor="middle" x="166" y="-128" font-family="Helvetica,sans-Serif" font-size="10.00">memory::node_t</text>
<polyline fill="none" stroke="black" points="118,-121 214,-121 "/>
<text text-anchor="start" x="126" y="-109" font-family="Helvetica,sans-Serif" font-size="10.00">+ in_use</text>
<text text-anchor="start" x="126" y="-98" font-family="Helvetica,sans-Serif" font-size="10.00">+ next</text>
<text text-anchor="start" x="126" y="-87" font-family="Helvetica,sans-Serif" font-size="10.00">+ prev</text>
<polyline fill="none" stroke="black" points="118,-80 214,-80 "/>
<text text-anchor="start" x="126" y="-68" font-family="Helvetica,sans-Serif" font-size="10.00">+ node_t()</text>
<text text-anchor="start" x="126" y="-57" font-family="Helvetica,sans-Serif" font-size="10.00">+ ~node_t()</text>
<text text-anchor="start" x="126" y="-46" font-family="Helvetica,sans-Serif" font-size="10.00">+ unlink()</text>
<text text-anchor="start" x="126" y="-35" font-family="Helvetica,sans-Serif" font-size="10.00">+ to_str()</text>
<text text-anchor="start" x="126" y="-24" font-family="Helvetica,sans-Serif" font-size="10.00">+ print()</text>
</a>
</g>
</g>
<!-- Node1&#45;&gt;Node3 -->
<g id="edge2" class="edge">
<title>Node1&#45;&gt;Node3</title>
<path fill="none" stroke="midnightblue" d="M126.48,-183.41C131.7,-169.69 137.44,-154.58 142.9,-140.24"/>
<polygon fill="none" stroke="midnightblue" points="123.07,-182.53 122.79,-193.12 129.61,-185.02 123.07,-182.53"/>
</g>
</g>
</svg>
