<?xml version="1.0" encoding="UTF-8" standalone="no"?>
<!DOCTYPE svg PUBLIC "-//W3C//DTD SVG 1.1//EN"
 "http://www.w3.org/Graphics/SVG/1.1/DTD/svg11.dtd">
<!-- Generated by graphviz version 2.43.0 (0)
 -->
<!-- Title: memory::node_t Pages: 1 -->
<svg width="237pt" height="408pt"
 viewBox="0.00 0.00 237.00 408.00" xmlns="http://www.w3.org/2000/svg" xmlns:xlink="http://www.w3.org/1999/xlink">
<g id="graph0" class="graph" transform="scale(1 1) rotate(0) translate(4 404)">
<title>memory::node_t</title>
<!-- Node1 -->
<g id="node1" class="node">
<title>Node1</title>
<g id="a_node1"><a xlink:title=" ">
<polygon fill="#bfbfbf" stroke="black" points="67.5,-0.5 67.5,-123.5 163.5,-123.5 163.5,-0.5 67.5,-0.5"/>
<text text-anchor="middle" x="115.5" y="-111.5" font-family="Helvetica,sans-Serif" font-size="10.00">memory::node_t</text>
<polyline fill="none" stroke="black" points="67.5,-104.5 163.5,-104.5 "/>
<text text-anchor="start" x="75.5" y="-92.5" font-family="Helvetica,sans-Serif" font-size="10.00">+ in_use</text>
<text text-anchor="start" x="75.5" y="-81.5" font-family="Helvetica,sans-Serif" font-size="10.00">+ next</text>
<text text-anchor="start" x="75.5" y="-70.5" font-family="Helvetica,sans-Serif" font-size="10.00">+ prev</text>
<polyline fill="none" stroke="black" points="67.5,-63.5 163.5,-63.5 "/>
<text text-anchor="start" x="75.5" y="-51.5" font-family="Helvetica,sans-Serif" font-size="10.00">+ node_t()</text>
<text text-anchor="start" x="75.5" y="-40.5" font-family="Helvetica,sans-Serif" font-size="10.00">+ ~node_t()</text>
<text text-anchor="start" x="75.5" y="-29.5" font-family="Helvetica,sans-Serif" font-size="10.00">+ unlink()</text>
<text text-anchor="start" x="75.5" y="-18.5" font-family="Helvetica,sans-Serif" font-size="10.00">+ to_str()</text>
<text text-anchor="start" x="75.5" y="-7.5" font-family="Helvetica,sans-Serif" font-size="10.00">+ print()</text>
</a>
</g>
</g>
<!-- Node2 -->
<g id="node2" class="node">
<title>Node2</title>
<g id="a_node2"><a xlink:href="structmemory_1_1element__t.html" target="_top" xlink:title=" ">
<polygon fill="none" stroke="black" points="0,-171.5 0,-250.5 113,-250.5 113,-171.5 0,-171.5"/>
<text text-anchor="middle" x="56.5" y="-238.5" font-family="Helvetica,sans-Serif" font-size="10.00">memory::element_t</text>
<polyline fill="none" stroke="black" points="0,-231.5 113,-231.5 "/>
<text text-anchor="start" x="8" y="-219.5" font-family="Helvetica,sans-Serif" font-size="10.00">+ pages</text>
<polyline fill="none" stroke="black" points="0,-212.5 113,-212.5 "/>
<text text-anchor="start" x="8" y="-200.5" font-family="Helvetica,sans-Serif" font-size="10.00">+ element_t()</text>
<text text-anchor="start" x="8" y="-189.5" font-family="Helvetica,sans-Serif" font-size="10.00">+ ~element_t()</text>
<text text-anchor="start" x="8" y="-178.5" font-family="Helvetica,sans-Serif" font-size="10.00">+ print()</text>
</a>
</g>
</g>
<!-- Node2&#45;&gt;Node1 -->
<g id="edge1" class="edge">
<title>Node2&#45;&gt;Node1</title>
<path fill="none" stroke="midnightblue" d="M75.83,-161.83C80.74,-149.6 86.08,-136.3 91.2,-123.55"/>
<polygon fill="none" stroke="midnightblue" points="72.48,-160.79 72,-171.38 78.97,-163.4 72.48,-160.79"/>
</g>
<!-- Node3 -->
<g id="node3" class="node">
<title>Node3</title>
<g id="a_node3"><a xlink:href="structpatricia_1_1leaf__t.html" target="_top" xlink:title=" ">
<polygon fill="none" stroke="black" points="131,-160.5 131,-261.5 218,-261.5 218,-160.5 131,-160.5"/>
<text text-anchor="middle" x="174.5" y="-249.5" font-family="Helvetica,sans-Serif" font-size="10.00">patricia::leaf_t</text>
<polyline fill="none" stroke="black" points="131,-242.5 218,-242.5 "/>
<text text-anchor="middle" x="174.5" y="-230.5" font-family="Helvetica,sans-Serif" font-size="10.00"> </text>
<polyline fill="none" stroke="black" points="131,-223.5 218,-223.5 "/>
<text text-anchor="start" x="139" y="-211.5" font-family="Helvetica,sans-Serif" font-size="10.00">+ leaf_t()</text>
<text text-anchor="start" x="139" y="-200.5" font-family="Helvetica,sans-Serif" font-size="10.00">+ ~leaf_t()</text>
<text text-anchor="start" x="139" y="-189.5" font-family="Helvetica,sans-Serif" font-size="10.00">+ find_next()</text>
<text text-anchor="start" x="139" y="-178.5" font-family="Helvetica,sans-Serif" font-size="10.00">+ find_prev()</text>
<text text-anchor="start" x="139" y="-167.5" font-family="Helvetica,sans-Serif" font-size="10.00">+ to_str()</text>
</a>
</g>
</g>
<!-- Node3&#45;&gt;Node1 -->
<g id="edge2" class="edge">
<title>Node3&#45;&gt;Node1</title>
<path fill="none" stroke="midnightblue" d="M150.7,-150.71C147.13,-141.8 143.44,-132.61 139.85,-123.67"/>
<polygon fill="none" stroke="midnightblue" points="147.55,-152.26 154.53,-160.23 154.05,-149.65 147.55,-152.26"/>
</g>
<!-- Node4 -->
<g id="node4" class="node">
<title>Node4</title>
<g id="a_node4"><a xlink:href="structpatricia_1_1element__t.html" target="_top" xlink:title=" ">
<polygon fill="none" stroke="black" points="120,-298.5 120,-399.5 229,-399.5 229,-298.5 120,-298.5"/>
<text text-anchor="middle" x="174.5" y="-387.5" font-family="Helvetica,sans-Serif" font-size="10.00">patricia::element_t</text>
<polyline fill="none" stroke="black" points="120,-380.5 229,-380.5 "/>
<text text-anchor="start" x="128" y="-368.5" font-family="Helvetica,sans-Serif" font-size="10.00">+ key</text>
<text text-anchor="start" x="128" y="-357.5" font-family="Helvetica,sans-Serif" font-size="10.00">+ parent</text>
<text text-anchor="start" x="128" y="-346.5" font-family="Helvetica,sans-Serif" font-size="10.00">+ branchbit</text>
<polyline fill="none" stroke="black" points="120,-339.5 229,-339.5 "/>
<text text-anchor="start" x="128" y="-327.5" font-family="Helvetica,sans-Serif" font-size="10.00">+ mask()</text>
<text text-anchor="start" x="128" y="-316.5" font-family="Helvetica,sans-Serif" font-size="10.00">+ element_t()</text>
<text text-anchor="start" x="128" y="-305.5" font-family="Helvetica,sans-Serif" font-size="10.00">+ ~element_t()</text>
</a>
</g>
</g>
<!-- Node4&#45;&gt;Node3 -->
<g id="edge3" class="edge">
<title>Node4&#45;&gt;Node3</title>
<path fill="none" stroke="midnightblue" d="M174.5,-288C174.5,-279.27 174.5,-270.36 174.5,-261.86"/>
<polygon fill="none" stroke="midnightblue" points="171,-288.13 174.5,-298.13 178,-288.13 171,-288.13"/>
</g>
</g>
</svg>
