<?xml version="1.0" encoding="UTF-8" standalone="no"?>
<!DOCTYPE svg PUBLIC "-//W3C//DTD SVG 1.1//EN"
 "http://www.w3.org/Graphics/SVG/1.1/DTD/svg11.dtd">
<!-- Generated by graphviz version 2.43.0 (0)
 -->
<!-- Title: toml::detail::is_exact_toml_type&lt; T const &amp;, V &gt; Pages: 1 -->
<svg width="212pt" height="480pt"
 viewBox="0.00 0.00 212.00 480.00" xmlns="http://www.w3.org/2000/svg" xmlns:xlink="http://www.w3.org/1999/xlink">
<g id="graph0" class="graph" transform="scale(1 1) rotate(0) translate(4 476)">
<title>toml::detail::is_exact_toml_type&lt; T const &amp;, V &gt;</title>
<!-- Node1 -->
<g id="node1" class="node">
<title>Node1</title>
<g id="a_node1"><a xlink:title=" ">
<polygon fill="#bfbfbf" stroke="black" points="26,-0.5 26,-68.5 178,-68.5 178,-0.5 26,-0.5"/>
<text text-anchor="start" x="34" y="-56.5" font-family="Helvetica,sans-Serif" font-size="10.00">toml::detail::is_exact</text>
<text text-anchor="middle" x="102" y="-45.5" font-family="Helvetica,sans-Serif" font-size="10.00">_toml_type&lt; T const &amp;, V &gt;</text>
<polyline fill="none" stroke="black" points="26,-38.5 178,-38.5 "/>
<text text-anchor="middle" x="102" y="-26.5" font-family="Helvetica,sans-Serif" font-size="10.00"> </text>
<polyline fill="none" stroke="black" points="26,-19.5 178,-19.5 "/>
<text text-anchor="middle" x="102" y="-7.5" font-family="Helvetica,sans-Serif" font-size="10.00"> </text>
</a>
</g>
</g>
<!-- Node2 -->
<g id="node2" class="node">
<title>Node2</title>
<g id="a_node2"><a xlink:href="structtoml_1_1detail_1_1is__exact__toml__type.html" target="_top" xlink:title=" ">
<polygon fill="none" stroke="black" points="42.5,-105.5 42.5,-173.5 161.5,-173.5 161.5,-105.5 42.5,-105.5"/>
<text text-anchor="start" x="50.5" y="-161.5" font-family="Helvetica,sans-Serif" font-size="10.00">toml::detail::is_exact</text>
<text text-anchor="middle" x="102" y="-150.5" font-family="Helvetica,sans-Serif" font-size="10.00">_toml_type&lt; T, V &gt;</text>
<polyline fill="none" stroke="black" points="42.5,-143.5 161.5,-143.5 "/>
<text text-anchor="middle" x="102" y="-131.5" font-family="Helvetica,sans-Serif" font-size="10.00"> </text>
<polyline fill="none" stroke="black" points="42.5,-124.5 161.5,-124.5 "/>
<text text-anchor="middle" x="102" y="-112.5" font-family="Helvetica,sans-Serif" font-size="10.00"> </text>
</a>
</g>
</g>
<!-- Node2&#45;&gt;Node1 -->
<g id="edge1" class="edge">
<title>Node2&#45;&gt;Node1</title>
<path fill="none" stroke="midnightblue" d="M102,-95.14C102,-86.26 102,-77.04 102,-68.59"/>
<polygon fill="none" stroke="midnightblue" points="98.5,-95.34 102,-105.34 105.5,-95.34 98.5,-95.34"/>
</g>
<!-- Node3 -->
<g id="node3" class="node">
<title>Node3</title>
<g id="a_node3"><a xlink:title=" ">
<polygon fill="none" stroke="black" points="0,-210.5 0,-377.5 204,-377.5 204,-210.5 0,-210.5"/>
<text text-anchor="start" x="8" y="-365.5" font-family="Helvetica,sans-Serif" font-size="10.00">toml::detail::disjunction</text>
<text text-anchor="start" x="8" y="-354.5" font-family="Helvetica,sans-Serif" font-size="10.00">&lt; std::is_same&lt; T, boolean</text>
<text text-anchor="start" x="8" y="-343.5" font-family="Helvetica,sans-Serif" font-size="10.00"> &gt;, std::is_same&lt; T, integer</text>
<text text-anchor="start" x="8" y="-332.5" font-family="Helvetica,sans-Serif" font-size="10.00"> &gt;, std::is_same&lt; T, floating</text>
<text text-anchor="start" x="8" y="-321.5" font-family="Helvetica,sans-Serif" font-size="10.00"> &gt;, std::is_same&lt; T, string &gt;,</text>
<text text-anchor="start" x="8" y="-310.5" font-family="Helvetica,sans-Serif" font-size="10.00"> std::is_same&lt; T, offset_datetime</text>
<text text-anchor="start" x="8" y="-299.5" font-family="Helvetica,sans-Serif" font-size="10.00"> &gt;, std::is_same&lt; T, local_datetime</text>
<text text-anchor="start" x="8" y="-288.5" font-family="Helvetica,sans-Serif" font-size="10.00"> &gt;, std::is_same&lt; T, local_date &gt;,</text>
<text text-anchor="start" x="8" y="-277.5" font-family="Helvetica,sans-Serif" font-size="10.00"> std::is_same&lt; T, local_time &gt;, std</text>
<text text-anchor="start" x="8" y="-266.5" font-family="Helvetica,sans-Serif" font-size="10.00">::is_same&lt; T, Value::array_type &gt;, std</text>
<text text-anchor="middle" x="102" y="-255.5" font-family="Helvetica,sans-Serif" font-size="10.00">::is_same&lt; T, Value::table_type &gt; &gt;</text>
<polyline fill="none" stroke="black" points="0,-248.5 204,-248.5 "/>
<text text-anchor="middle" x="102" y="-236.5" font-family="Helvetica,sans-Serif" font-size="10.00"> </text>
<polyline fill="none" stroke="black" points="0,-229.5 204,-229.5 "/>
<text text-anchor="middle" x="102" y="-217.5" font-family="Helvetica,sans-Serif" font-size="10.00"> </text>
</a>
</g>
</g>
<!-- Node3&#45;&gt;Node2 -->
<g id="edge2" class="edge">
<title>Node3&#45;&gt;Node2</title>
<path fill="none" stroke="midnightblue" d="M102,-199.89C102,-190.63 102,-181.72 102,-173.74"/>
<polygon fill="none" stroke="midnightblue" points="98.5,-200.06 102,-210.06 105.5,-200.06 98.5,-200.06"/>
</g>
<!-- Node4 -->
<g id="node4" class="node">
<title>Node4</title>
<g id="a_node4"><a xlink:title=" ">
<polygon fill="none" stroke="black" points="57.5,-414.5 57.5,-471.5 146.5,-471.5 146.5,-414.5 57.5,-414.5"/>
<text text-anchor="middle" x="102" y="-459.5" font-family="Helvetica,sans-Serif" font-size="10.00">std::false_type</text>
<polyline fill="none" stroke="black" points="57.5,-452.5 146.5,-452.5 "/>
<text text-anchor="middle" x="102" y="-440.5" font-family="Helvetica,sans-Serif" font-size="10.00"> </text>
<polyline fill="none" stroke="black" points="57.5,-433.5 146.5,-433.5 "/>
<text text-anchor="middle" x="102" y="-421.5" font-family="Helvetica,sans-Serif" font-size="10.00"> </text>
</a>
</g>
</g>
<!-- Node4&#45;&gt;Node3 -->
<g id="edge3" class="edge">
<title>Node4&#45;&gt;Node3</title>
<path fill="none" stroke="midnightblue" d="M102,-404.35C102,-396.08 102,-387.01 102,-377.74"/>
<polygon fill="none" stroke="midnightblue" points="98.5,-404.35 102,-414.35 105.5,-404.35 98.5,-404.35"/>
</g>
</g>
</svg>
