<?xml version="1.0" encoding="UTF-8" standalone="no"?>
<!DOCTYPE svg PUBLIC "-//W3C//DTD SVG 1.1//EN"
 "http://www.w3.org/Graphics/SVG/1.1/DTD/svg11.dtd">
<!-- Generated by graphviz version 2.43.0 (0)
 -->
<!-- Title: toml::detail::has_specialized_from&lt; T &gt; Pages: 1 -->
<svg width="164pt" height="193pt"
 viewBox="0.00 0.00 164.00 193.00" xmlns="http://www.w3.org/2000/svg" xmlns:xlink="http://www.w3.org/1999/xlink">
<g id="graph0" class="graph" transform="scale(1 1) rotate(0) translate(4 189)">
<title>toml::detail::has_specialized_from&lt; T &gt;</title>
<!-- Node1 -->
<g id="node1" class="node">
<title>Node1</title>
<g id="a_node1"><a xlink:title=" ">
<polygon fill="#bfbfbf" stroke="black" points="0,-0.5 0,-68.5 156,-68.5 156,-0.5 0,-0.5"/>
<text text-anchor="start" x="8" y="-56.5" font-family="Helvetica,sans-Serif" font-size="10.00">toml::detail::has_specialized</text>
<text text-anchor="middle" x="78" y="-45.5" font-family="Helvetica,sans-Serif" font-size="10.00">_from&lt; T &gt;</text>
<polyline fill="none" stroke="black" points="0,-38.5 156,-38.5 "/>
<text text-anchor="middle" x="78" y="-26.5" font-family="Helvetica,sans-Serif" font-size="10.00"> </text>
<polyline fill="none" stroke="black" points="0,-19.5 156,-19.5 "/>
<text text-anchor="middle" x="78" y="-7.5" font-family="Helvetica,sans-Serif" font-size="10.00"> </text>
</a>
</g>
</g>
<!-- Node2 -->
<g id="node2" class="node">
<title>Node2</title>
<g id="a_node2"><a xlink:title=" ">
<polygon fill="none" stroke="black" points="10,-105.5 10,-184.5 146,-184.5 146,-105.5 10,-105.5"/>
<text text-anchor="start" x="18" y="-172.5" font-family="Helvetica,sans-Serif" font-size="10.00">decltypehas_specialized</text>
<text text-anchor="start" x="18" y="-161.5" font-family="Helvetica,sans-Serif" font-size="10.00">_from_impl::check&lt; T &gt;</text>
<text text-anchor="middle" x="78" y="-150.5" font-family="Helvetica,sans-Serif" font-size="10.00">nullptr</text>
<polyline fill="none" stroke="black" points="10,-143.5 146,-143.5 "/>
<text text-anchor="middle" x="78" y="-131.5" font-family="Helvetica,sans-Serif" font-size="10.00"> </text>
<polyline fill="none" stroke="black" points="10,-124.5 146,-124.5 "/>
<text text-anchor="middle" x="78" y="-112.5" font-family="Helvetica,sans-Serif" font-size="10.00"> </text>
</a>
</g>
</g>
<!-- Node2&#45;&gt;Node1 -->
<g id="edge1" class="edge">
<title>Node2&#45;&gt;Node1</title>
<path fill="none" stroke="midnightblue" d="M78,-95.35C78,-86.28 78,-77 78,-68.54"/>
<polygon fill="none" stroke="midnightblue" points="74.5,-95.44 78,-105.44 81.5,-95.44 74.5,-95.44"/>
</g>
</g>
</svg>
