<?xml version="1.0" encoding="UTF-8" standalone="no"?>
<!DOCTYPE svg PUBLIC "-//W3C//DTD SVG 1.1//EN"
 "http://www.w3.org/Graphics/SVG/1.1/DTD/svg11.dtd">
<!-- Generated by graphviz version 2.43.0 (0)
 -->
<!-- Title: toml::detail::has_from_toml_method&lt; T, C, Tb, A &gt; Pages: 1 -->
<svg width="167pt" height="193pt"
 viewBox="0.00 0.00 167.00 193.00" xmlns="http://www.w3.org/2000/svg" xmlns:xlink="http://www.w3.org/1999/xlink">
<g id="graph0" class="graph" transform="scale(1 1) rotate(0) translate(4 189)">
<title>toml::detail::has_from_toml_method&lt; T, C, Tb, A &gt;</title>
<!-- Node1 -->
<g id="node1" class="node">
<title>Node1</title>
<g id="a_node1"><a xlink:title=" ">
<polygon fill="#bfbfbf" stroke="black" points="0,-0.5 0,-68.5 159,-68.5 159,-0.5 0,-0.5"/>
<text text-anchor="start" x="8" y="-56.5" font-family="Helvetica,sans-Serif" font-size="10.00">toml::detail::has_from</text>
<text text-anchor="middle" x="79.5" y="-45.5" font-family="Helvetica,sans-Serif" font-size="10.00">_toml_method&lt; T, C, Tb, A &gt;</text>
<polyline fill="none" stroke="black" points="0,-38.5 159,-38.5 "/>
<text text-anchor="middle" x="79.5" y="-26.5" font-family="Helvetica,sans-Serif" font-size="10.00"> </text>
<polyline fill="none" stroke="black" points="0,-19.5 159,-19.5 "/>
<text text-anchor="middle" x="79.5" y="-7.5" font-family="Helvetica,sans-Serif" font-size="10.00"> </text>
</a>
</g>
</g>
<!-- Node2 -->
<g id="node2" class="node">
<title>Node2</title>
<g id="a_node2"><a xlink:title=" ">
<polygon fill="none" stroke="black" points="13.5,-105.5 13.5,-184.5 145.5,-184.5 145.5,-105.5 13.5,-105.5"/>
<text text-anchor="start" x="21.5" y="-172.5" font-family="Helvetica,sans-Serif" font-size="10.00">decltypehas_from_toml</text>
<text text-anchor="start" x="21.5" y="-161.5" font-family="Helvetica,sans-Serif" font-size="10.00">_method_impl::check&lt;</text>
<text text-anchor="middle" x="79.5" y="-150.5" font-family="Helvetica,sans-Serif" font-size="10.00"> T, C, Tb, A &gt;nullptr</text>
<polyline fill="none" stroke="black" points="13.5,-143.5 145.5,-143.5 "/>
<text text-anchor="middle" x="79.5" y="-131.5" font-family="Helvetica,sans-Serif" font-size="10.00"> </text>
<polyline fill="none" stroke="black" points="13.5,-124.5 145.5,-124.5 "/>
<text text-anchor="middle" x="79.5" y="-112.5" font-family="Helvetica,sans-Serif" font-size="10.00"> </text>
</a>
</g>
</g>
<!-- Node2&#45;&gt;Node1 -->
<g id="edge1" class="edge">
<title>Node2&#45;&gt;Node1</title>
<path fill="none" stroke="midnightblue" d="M79.5,-95.35C79.5,-86.28 79.5,-77 79.5,-68.54"/>
<polygon fill="none" stroke="midnightblue" points="76,-95.44 79.5,-105.44 83,-95.44 76,-95.44"/>
</g>
</g>
</svg>
