<?xml version="1.0" encoding="UTF-8" standalone="no"?>
<!DOCTYPE svg PUBLIC "-//W3C//DTD SVG 1.1//EN"
 "http://www.w3.org/Graphics/SVG/1.1/DTD/svg11.dtd">
<!-- Generated by graphviz version 2.43.0 (0)
 -->
<!-- Title: Threading::Worker Pages: 1 -->
<svg width="113pt" height="226pt"
 viewBox="0.00 0.00 113.00 226.00" xmlns="http://www.w3.org/2000/svg" xmlns:xlink="http://www.w3.org/1999/xlink">
<g id="graph0" class="graph" transform="scale(1 1) rotate(0) translate(4 222)">
<title>Threading::Worker</title>
<!-- Node1 -->
<g id="node1" class="node">
<title>Node1</title>
<g id="a_node1"><a xlink:title=" ">
<polygon fill="#bfbfbf" stroke="black" points="0,-105.5 0,-217.5 105,-217.5 105,-105.5 0,-105.5"/>
<text text-anchor="middle" x="52.5" y="-205.5" font-family="Helvetica,sans-Serif" font-size="10.00">Threading::Worker</text>
<polyline fill="none" stroke="black" points="0,-198.5 105,-198.5 "/>
<text text-anchor="start" x="8" y="-186.5" font-family="Helvetica,sans-Serif" font-size="10.00">+ executor</text>
<text text-anchor="start" x="8" y="-175.5" font-family="Helvetica,sans-Serif" font-size="10.00"># event_loop</text>
<text text-anchor="start" x="8" y="-164.5" font-family="Helvetica,sans-Serif" font-size="10.00"># wait_scope</text>
<polyline fill="none" stroke="black" points="0,-157.5 105,-157.5 "/>
<text text-anchor="start" x="8" y="-145.5" font-family="Helvetica,sans-Serif" font-size="10.00">+ Worker()</text>
<text text-anchor="start" x="8" y="-134.5" font-family="Helvetica,sans-Serif" font-size="10.00">+ ~Worker()</text>
<text text-anchor="start" x="8" y="-123.5" font-family="Helvetica,sans-Serif" font-size="10.00">+ operator()()</text>
<text text-anchor="start" x="8" y="-112.5" font-family="Helvetica,sans-Serif" font-size="10.00">+ loop()</text>
</a>
</g>
</g>
<!-- Node2 -->
<g id="node2" class="node">
<title>Node2</title>
<g id="a_node2"><a xlink:href="classUI_1_1Control.html" target="_top" xlink:title=" ">
<polygon fill="none" stroke="black" points="13,-0.5 13,-68.5 92,-68.5 92,-0.5 13,-0.5"/>
<text text-anchor="middle" x="52.5" y="-56.5" font-family="Helvetica,sans-Serif" font-size="10.00">UI::Control</text>
<polyline fill="none" stroke="black" points="13,-49.5 92,-49.5 "/>
<text text-anchor="middle" x="52.5" y="-37.5" font-family="Helvetica,sans-Serif" font-size="10.00"> </text>
<polyline fill="none" stroke="black" points="13,-30.5 92,-30.5 "/>
<text text-anchor="start" x="21" y="-18.5" font-family="Helvetica,sans-Serif" font-size="10.00">+ Control()</text>
<text text-anchor="start" x="21" y="-7.5" font-family="Helvetica,sans-Serif" font-size="10.00">+ ~Control()</text>
</a>
</g>
</g>
<!-- Node1&#45;&gt;Node2 -->
<g id="edge1" class="edge">
<title>Node1&#45;&gt;Node2</title>
<path fill="none" stroke="midnightblue" d="M52.5,-95.26C52.5,-85.99 52.5,-76.8 52.5,-68.51"/>
<polygon fill="none" stroke="midnightblue" points="49,-95.31 52.5,-105.31 56,-95.31 49,-95.31"/>
</g>
</g>
</svg>
