<?xml version="1.0" encoding="UTF-8" standalone="no"?>
<!DOCTYPE svg PUBLIC "-//W3C//DTD SVG 1.1//EN"
 "http://www.w3.org/Graphics/SVG/1.1/DTD/svg11.dtd">
<!-- Generated by graphviz version 2.43.0 (0)
 -->
<!-- Title: toml::detail::is_string_literal&lt; T &gt; Pages: 1 -->
<svg width="187pt" height="320pt"
 viewBox="0.00 0.00 187.00 320.00" xmlns="http://www.w3.org/2000/svg" xmlns:xlink="http://www.w3.org/1999/xlink">
<g id="graph0" class="graph" transform="scale(1 1) rotate(0) translate(4 316)">
<title>toml::detail::is_string_literal&lt; T &gt;</title>
<!-- Node1 -->
<g id="node1" class="node">
<title>Node1</title>
<g id="a_node1"><a xlink:title=" ">
<polygon fill="#bfbfbf" stroke="black" points="29.5,-0.5 29.5,-68.5 149.5,-68.5 149.5,-0.5 29.5,-0.5"/>
<text text-anchor="start" x="37.5" y="-56.5" font-family="Helvetica,sans-Serif" font-size="10.00">toml::detail::is_string</text>
<text text-anchor="middle" x="89.5" y="-45.5" font-family="Helvetica,sans-Serif" font-size="10.00">_literal&lt; T &gt;</text>
<polyline fill="none" stroke="black" points="29.5,-38.5 149.5,-38.5 "/>
<text text-anchor="middle" x="89.5" y="-26.5" font-family="Helvetica,sans-Serif" font-size="10.00"> </text>
<polyline fill="none" stroke="black" points="29.5,-19.5 149.5,-19.5 "/>
<text text-anchor="middle" x="89.5" y="-7.5" font-family="Helvetica,sans-Serif" font-size="10.00"> </text>
</a>
</g>
</g>
<!-- Node2 -->
<g id="node2" class="node">
<title>Node2</title>
<g id="a_node2"><a xlink:title=" ">
<polygon fill="none" stroke="black" points="0,-105.5 0,-217.5 179,-217.5 179,-105.5 0,-105.5"/>
<text text-anchor="start" x="8" y="-205.5" font-family="Helvetica,sans-Serif" font-size="10.00">toml::detail::disjunction</text>
<text text-anchor="start" x="8" y="-194.5" font-family="Helvetica,sans-Serif" font-size="10.00">&lt; std::is_same&lt; const char</text>
<text text-anchor="start" x="8" y="-183.5" font-family="Helvetica,sans-Serif" font-size="10.00"> *, T &gt;, conjunction&lt; std</text>
<text text-anchor="start" x="8" y="-172.5" font-family="Helvetica,sans-Serif" font-size="10.00">::is_array&lt; T &gt;, std::is_same</text>
<text text-anchor="start" x="8" y="-161.5" font-family="Helvetica,sans-Serif" font-size="10.00">&lt; const char, std::remove_extent</text>
<text text-anchor="middle" x="89.5" y="-150.5" font-family="Helvetica,sans-Serif" font-size="10.00">&lt; T &gt;::type &gt; &gt; &gt;</text>
<polyline fill="none" stroke="black" points="0,-143.5 179,-143.5 "/>
<text text-anchor="middle" x="89.5" y="-131.5" font-family="Helvetica,sans-Serif" font-size="10.00"> </text>
<polyline fill="none" stroke="black" points="0,-124.5 179,-124.5 "/>
<text text-anchor="middle" x="89.5" y="-112.5" font-family="Helvetica,sans-Serif" font-size="10.00"> </text>
</a>
</g>
</g>
<!-- Node2&#45;&gt;Node1 -->
<g id="edge1" class="edge">
<title>Node2&#45;&gt;Node1</title>
<path fill="none" stroke="midnightblue" d="M89.5,-95.26C89.5,-85.99 89.5,-76.8 89.5,-68.51"/>
<polygon fill="none" stroke="midnightblue" points="86,-95.31 89.5,-105.31 93,-95.31 86,-95.31"/>
</g>
<!-- Node3 -->
<g id="node3" class="node">
<title>Node3</title>
<g id="a_node3"><a xlink:title=" ">
<polygon fill="none" stroke="black" points="45,-254.5 45,-311.5 134,-311.5 134,-254.5 45,-254.5"/>
<text text-anchor="middle" x="89.5" y="-299.5" font-family="Helvetica,sans-Serif" font-size="10.00">std::false_type</text>
<polyline fill="none" stroke="black" points="45,-292.5 134,-292.5 "/>
<text text-anchor="middle" x="89.5" y="-280.5" font-family="Helvetica,sans-Serif" font-size="10.00"> </text>
<polyline fill="none" stroke="black" points="45,-273.5 134,-273.5 "/>
<text text-anchor="middle" x="89.5" y="-261.5" font-family="Helvetica,sans-Serif" font-size="10.00"> </text>
</a>
</g>
</g>
<!-- Node3&#45;&gt;Node2 -->
<g id="edge2" class="edge">
<title>Node3&#45;&gt;Node2</title>
<path fill="none" stroke="midnightblue" d="M89.5,-244.11C89.5,-235.75 89.5,-226.73 89.5,-217.83"/>
<polygon fill="none" stroke="midnightblue" points="86,-244.28 89.5,-254.28 93,-244.28 86,-244.28"/>
</g>
</g>
</svg>
