<?xml version="1.0" encoding="UTF-8" standalone="no"?>
<!DOCTYPE svg PUBLIC "-//W3C//DTD SVG 1.1//EN"
 "http://www.w3.org/Graphics/SVG/1.1/DTD/svg11.dtd">
<!-- Generated by graphviz version 2.43.0 (0)
 -->
<!-- Title: Util::Factory&lt; Base, Args &gt;::Registrar&lt; T, Config &gt; Pages: 1 -->
<svg width="172pt" height="248pt"
 viewBox="0.00 0.00 171.50 248.00" xmlns="http://www.w3.org/2000/svg" xmlns:xlink="http://www.w3.org/1999/xlink">
<g id="graph0" class="graph" transform="scale(1 1) rotate(0) translate(4 244)">
<title>Util::Factory&lt; Base, Args &gt;::Registrar&lt; T, Config &gt;</title>
<!-- Node1 -->
<g id="node1" class="node">
<title>Node1</title>
<g id="a_node1"><a xlink:title=" ">
<polygon fill="#bfbfbf" stroke="black" points="9,-0.5 9,-101.5 122,-101.5 122,-0.5 9,-0.5"/>
<text text-anchor="start" x="17" y="-89.5" font-family="Helvetica,sans-Serif" font-size="10.00">Util::Factory&lt; Base,</text>
<text text-anchor="start" x="17" y="-78.5" font-family="Helvetica,sans-Serif" font-size="10.00"> Args &gt;::Registrar&lt;</text>
<text text-anchor="middle" x="65.5" y="-67.5" font-family="Helvetica,sans-Serif" font-size="10.00"> T, Config &gt;</text>
<polyline fill="none" stroke="black" points="9,-60.5 122,-60.5 "/>
<text text-anchor="start" x="17" y="-48.5" font-family="Helvetica,sans-Serif" font-size="10.00">+ T</text>
<text text-anchor="start" x="17" y="-37.5" font-family="Helvetica,sans-Serif" font-size="10.00">+ registered</text>
<polyline fill="none" stroke="black" points="9,-30.5 122,-30.5 "/>
<text text-anchor="start" x="17" y="-18.5" font-family="Helvetica,sans-Serif" font-size="10.00">+ ~Registrar()</text>
<text text-anchor="start" x="17" y="-7.5" font-family="Helvetica,sans-Serif" font-size="10.00">+ register_type()</text>
</a>
</g>
</g>
<!-- Node2 -->
<g id="node2" class="node">
<title>Node2</title>
<g id="a_node2"><a xlink:title=" ">
<polygon fill="none" stroke="black" points="0,-160.5 0,-217.5 41,-217.5 41,-160.5 0,-160.5"/>
<text text-anchor="middle" x="20.5" y="-205.5" font-family="Helvetica,sans-Serif" font-size="10.00">Base</text>
<polyline fill="none" stroke="black" points="0,-198.5 41,-198.5 "/>
<text text-anchor="middle" x="20.5" y="-186.5" font-family="Helvetica,sans-Serif" font-size="10.00"> </text>
<polyline fill="none" stroke="black" points="0,-179.5 41,-179.5 "/>
<text text-anchor="middle" x="20.5" y="-167.5" font-family="Helvetica,sans-Serif" font-size="10.00"> </text>
</a>
</g>
</g>
<!-- Node2&#45;&gt;Node1 -->
<g id="edge1" class="edge">
<title>Node2&#45;&gt;Node1</title>
<path fill="none" stroke="midnightblue" d="M32.76,-150.94C37.78,-135.78 43.65,-118.02 49.03,-101.76"/>
<polygon fill="none" stroke="midnightblue" points="29.42,-149.89 29.61,-160.48 36.07,-152.08 29.42,-149.89"/>
</g>
<!-- Node3 -->
<g id="node3" class="node">
<title>Node3</title>
<g id="a_node3"><a xlink:href="classUtil_1_1configurable.html" target="_top" xlink:title=" ">
<polygon fill="none" stroke="black" points="59.5,-138.5 59.5,-239.5 163.5,-239.5 163.5,-138.5 59.5,-138.5"/>
<text text-anchor="start" x="67.5" y="-227.5" font-family="Helvetica,sans-Serif" font-size="10.00">Util::configurable</text>
<text text-anchor="middle" x="111.5" y="-216.5" font-family="Helvetica,sans-Serif" font-size="10.00">&lt; Config &gt;</text>
<polyline fill="none" stroke="black" points="59.5,-209.5 163.5,-209.5 "/>
<text text-anchor="start" x="67.5" y="-197.5" font-family="Helvetica,sans-Serif" font-size="10.00">+ config</text>
<text text-anchor="start" x="67.5" y="-186.5" font-family="Helvetica,sans-Serif" font-size="10.00"># _lock</text>
<polyline fill="none" stroke="black" points="59.5,-179.5 163.5,-179.5 "/>
<text text-anchor="start" x="67.5" y="-167.5" font-family="Helvetica,sans-Serif" font-size="10.00">+ configurable()</text>
<text text-anchor="start" x="67.5" y="-156.5" font-family="Helvetica,sans-Serif" font-size="10.00">+ ~configurable()</text>
<text text-anchor="start" x="67.5" y="-145.5" font-family="Helvetica,sans-Serif" font-size="10.00">+ lock()</text>
</a>
</g>
</g>
<!-- Node3&#45;&gt;Node1 -->
<g id="edge2" class="edge">
<title>Node3&#45;&gt;Node1</title>
<path fill="none" stroke="midnightblue" d="M91.4,-128.57C88.38,-119.66 85.3,-110.55 82.37,-101.86"/>
<polygon fill="none" stroke="midnightblue" points="88.11,-129.78 94.63,-138.13 94.74,-127.54 88.11,-129.78"/>
</g>
</g>
</svg>
