<?xml version="1.0" encoding="UTF-8" standalone="no"?>
<!DOCTYPE svg PUBLIC "-//W3C//DTD SVG 1.1//EN"
 "http://www.w3.org/Graphics/SVG/1.1/DTD/svg11.dtd">
<!-- Generated by graphviz version 2.43.0 (0)
 -->
<!-- Title: Module::Factory&lt; Base, Args &gt;::Registrar&lt; T, Config &gt; Pages: 1 -->
<svg width="172pt" height="248pt"
 viewBox="0.00 0.00 172.00 248.00" xmlns="http://www.w3.org/2000/svg" xmlns:xlink="http://www.w3.org/1999/xlink">
<g id="graph0" class="graph" transform="scale(1 1) rotate(0) translate(4 244)">
<title>Module::Factory&lt; Base, Args &gt;::Registrar&lt; T, Config &gt;</title>
<!-- Node1 -->
<g id="node1" class="node">
<title>Node1</title>
<g id="a_node1"><a xlink:title=" ">
<polygon fill="#bfbfbf" stroke="black" points="0,-0.5 0,-101.5 132,-101.5 132,-0.5 0,-0.5"/>
<text text-anchor="start" x="8" y="-89.5" font-family="Helvetica,sans-Serif" font-size="10.00">Module::Factory&lt; Base,</text>
<text text-anchor="start" x="8" y="-78.5" font-family="Helvetica,sans-Serif" font-size="10.00"> Args &gt;::Registrar&lt; T,</text>
<text text-anchor="middle" x="66" y="-67.5" font-family="Helvetica,sans-Serif" font-size="10.00"> Config &gt;</text>
<polyline fill="none" stroke="black" points="0,-60.5 132,-60.5 "/>
<text text-anchor="start" x="8" y="-48.5" font-family="Helvetica,sans-Serif" font-size="10.00">+ T</text>
<text text-anchor="start" x="8" y="-37.5" font-family="Helvetica,sans-Serif" font-size="10.00">+ registered</text>
<polyline fill="none" stroke="black" points="0,-30.5 132,-30.5 "/>
<text text-anchor="start" x="8" y="-18.5" font-family="Helvetica,sans-Serif" font-size="10.00">+ ~Registrar()</text>
<text text-anchor="start" x="8" y="-7.5" font-family="Helvetica,sans-Serif" font-size="10.00">+ register_type()</text>
</a>
</g>
</g>
<!-- Node2 -->
<g id="node2" class="node">
<title>Node2</title>
<g id="a_node2"><a xlink:title=" ">
<polygon fill="none" stroke="black" points="0.5,-160.5 0.5,-217.5 41.5,-217.5 41.5,-160.5 0.5,-160.5"/>
<text text-anchor="middle" x="21" y="-205.5" font-family="Helvetica,sans-Serif" font-size="10.00">Base</text>
<polyline fill="none" stroke="black" points="0.5,-198.5 41.5,-198.5 "/>
<text text-anchor="middle" x="21" y="-186.5" font-family="Helvetica,sans-Serif" font-size="10.00"> </text>
<polyline fill="none" stroke="black" points="0.5,-179.5 41.5,-179.5 "/>
<text text-anchor="middle" x="21" y="-167.5" font-family="Helvetica,sans-Serif" font-size="10.00"> </text>
</a>
</g>
</g>
<!-- Node2&#45;&gt;Node1 -->
<g id="edge1" class="edge">
<title>Node2&#45;&gt;Node1</title>
<path fill="none" stroke="midnightblue" d="M33.26,-150.94C38.28,-135.78 44.15,-118.02 49.53,-101.76"/>
<polygon fill="none" stroke="midnightblue" points="29.92,-149.89 30.11,-160.48 36.57,-152.08 29.92,-149.89"/>
</g>
<!-- Node3 -->
<g id="node3" class="node">
<title>Node3</title>
<g id="a_node3"><a xlink:href="classUtil_1_1configurable.html" target="_top" xlink:title=" ">
<polygon fill="none" stroke="black" points="60,-138.5 60,-239.5 164,-239.5 164,-138.5 60,-138.5"/>
<text text-anchor="start" x="68" y="-227.5" font-family="Helvetica,sans-Serif" font-size="10.00">Util::configurable</text>
<text text-anchor="middle" x="112" y="-216.5" font-family="Helvetica,sans-Serif" font-size="10.00">&lt; Config &gt;</text>
<polyline fill="none" stroke="black" points="60,-209.5 164,-209.5 "/>
<text text-anchor="start" x="68" y="-197.5" font-family="Helvetica,sans-Serif" font-size="10.00">+ config</text>
<text text-anchor="start" x="68" y="-186.5" font-family="Helvetica,sans-Serif" font-size="10.00"># _lock</text>
<polyline fill="none" stroke="black" points="60,-179.5 164,-179.5 "/>
<text text-anchor="start" x="68" y="-167.5" font-family="Helvetica,sans-Serif" font-size="10.00">+ configurable()</text>
<text text-anchor="start" x="68" y="-156.5" font-family="Helvetica,sans-Serif" font-size="10.00">+ ~configurable()</text>
<text text-anchor="start" x="68" y="-145.5" font-family="Helvetica,sans-Serif" font-size="10.00">+ lock()</text>
</a>
</g>
</g>
<!-- Node3&#45;&gt;Node1 -->
<g id="edge2" class="edge">
<title>Node3&#45;&gt;Node1</title>
<path fill="none" stroke="midnightblue" d="M91.9,-128.57C88.88,-119.66 85.8,-110.55 82.87,-101.86"/>
<polygon fill="none" stroke="midnightblue" points="88.61,-129.78 95.13,-138.13 95.24,-127.54 88.61,-129.78"/>
</g>
</g>
</svg>
