<?xml version="1.0" encoding="UTF-8" standalone="no"?>
<!DOCTYPE svg PUBLIC "-//W3C//DTD SVG 1.1//EN"
 "http://www.w3.org/Graphics/SVG/1.1/DTD/svg11.dtd">
<!-- Generated by graphviz version 2.43.0 (0)
 -->
<!-- Title: toml::detail::is_basic_value&lt; T &amp; &gt; Pages: 1 -->
<svg width="126pt" height="276pt"
 viewBox="0.00 0.00 126.00 276.00" xmlns="http://www.w3.org/2000/svg" xmlns:xlink="http://www.w3.org/1999/xlink">
<g id="graph0" class="graph" transform="scale(1 1) rotate(0) translate(4 272)">
<title>toml::detail::is_basic_value&lt; T &amp; &gt;</title>
<!-- Node1 -->
<g id="node1" class="node">
<title>Node1</title>
<g id="a_node1"><a xlink:title=" ">
<polygon fill="#bfbfbf" stroke="black" points="0,-0.5 0,-68.5 118,-68.5 118,-0.5 0,-0.5"/>
<text text-anchor="start" x="8" y="-56.5" font-family="Helvetica,sans-Serif" font-size="10.00">toml::detail::is_basic</text>
<text text-anchor="middle" x="59" y="-45.5" font-family="Helvetica,sans-Serif" font-size="10.00">_value&lt; T &amp; &gt;</text>
<polyline fill="none" stroke="black" points="0,-38.5 118,-38.5 "/>
<text text-anchor="middle" x="59" y="-26.5" font-family="Helvetica,sans-Serif" font-size="10.00"> </text>
<polyline fill="none" stroke="black" points="0,-19.5 118,-19.5 "/>
<text text-anchor="middle" x="59" y="-7.5" font-family="Helvetica,sans-Serif" font-size="10.00"> </text>
</a>
</g>
</g>
<!-- Node2 -->
<g id="node2" class="node">
<title>Node2</title>
<g id="a_node2"><a xlink:href="structtoml_1_1detail_1_1is__basic__value.html" target="_top" xlink:title=" ">
<polygon fill="none" stroke="black" points="0,-105.5 0,-173.5 118,-173.5 118,-105.5 0,-105.5"/>
<text text-anchor="start" x="8" y="-161.5" font-family="Helvetica,sans-Serif" font-size="10.00">toml::detail::is_basic</text>
<text text-anchor="middle" x="59" y="-150.5" font-family="Helvetica,sans-Serif" font-size="10.00">_value&lt; T &gt;</text>
<polyline fill="none" stroke="black" points="0,-143.5 118,-143.5 "/>
<text text-anchor="middle" x="59" y="-131.5" font-family="Helvetica,sans-Serif" font-size="10.00"> </text>
<polyline fill="none" stroke="black" points="0,-124.5 118,-124.5 "/>
<text text-anchor="middle" x="59" y="-112.5" font-family="Helvetica,sans-Serif" font-size="10.00"> </text>
</a>
</g>
</g>
<!-- Node2&#45;&gt;Node1 -->
<g id="edge1" class="edge">
<title>Node2&#45;&gt;Node1</title>
<path fill="none" stroke="midnightblue" d="M59,-95.14C59,-86.26 59,-77.04 59,-68.59"/>
<polygon fill="none" stroke="midnightblue" points="55.5,-95.34 59,-105.34 62.5,-95.34 55.5,-95.34"/>
</g>
<!-- Node3 -->
<g id="node3" class="node">
<title>Node3</title>
<g id="a_node3"><a xlink:title=" ">
<polygon fill="none" stroke="black" points="14.5,-210.5 14.5,-267.5 103.5,-267.5 103.5,-210.5 14.5,-210.5"/>
<text text-anchor="middle" x="59" y="-255.5" font-family="Helvetica,sans-Serif" font-size="10.00">std::false_type</text>
<polyline fill="none" stroke="black" points="14.5,-248.5 103.5,-248.5 "/>
<text text-anchor="middle" x="59" y="-236.5" font-family="Helvetica,sans-Serif" font-size="10.00"> </text>
<polyline fill="none" stroke="black" points="14.5,-229.5 103.5,-229.5 "/>
<text text-anchor="middle" x="59" y="-217.5" font-family="Helvetica,sans-Serif" font-size="10.00"> </text>
</a>
</g>
</g>
<!-- Node3&#45;&gt;Node2 -->
<g id="edge2" class="edge">
<title>Node3&#45;&gt;Node2</title>
<path fill="none" stroke="midnightblue" d="M59,-200.06C59,-191.39 59,-182.24 59,-173.79"/>
<polygon fill="none" stroke="midnightblue" points="55.5,-200.32 59,-210.32 62.5,-200.32 55.5,-200.32"/>
</g>
</g>
</svg>
