<?xml version="1.0" encoding="UTF-8" standalone="no"?>
<!DOCTYPE svg PUBLIC "-//W3C//DTD SVG 1.1//EN"
 "http://www.w3.org/Graphics/SVG/1.1/DTD/svg11.dtd">
<!-- Generated by graphviz version 2.43.0 (0)
 -->
<!-- Title: toml::detail::is_container&lt; T &amp; &gt; Pages: 1 -->
<svg width="217pt" height="403pt"
 viewBox="0.00 0.00 217.00 403.00" xmlns="http://www.w3.org/2000/svg" xmlns:xlink="http://www.w3.org/1999/xlink">
<g id="graph0" class="graph" transform="scale(1 1) rotate(0) translate(4 399)">
<title>toml::detail::is_container&lt; T &amp; &gt;</title>
<!-- Node1 -->
<g id="node1" class="node">
<title>Node1</title>
<g id="a_node1"><a xlink:title=" ">
<polygon fill="#bfbfbf" stroke="black" points="35.5,-0.5 35.5,-68.5 173.5,-68.5 173.5,-0.5 35.5,-0.5"/>
<text text-anchor="start" x="43.5" y="-56.5" font-family="Helvetica,sans-Serif" font-size="10.00">toml::detail::is_container</text>
<text text-anchor="middle" x="104.5" y="-45.5" font-family="Helvetica,sans-Serif" font-size="10.00">&lt; T &amp; &gt;</text>
<polyline fill="none" stroke="black" points="35.5,-38.5 173.5,-38.5 "/>
<text text-anchor="middle" x="104.5" y="-26.5" font-family="Helvetica,sans-Serif" font-size="10.00"> </text>
<polyline fill="none" stroke="black" points="35.5,-19.5 173.5,-19.5 "/>
<text text-anchor="middle" x="104.5" y="-7.5" font-family="Helvetica,sans-Serif" font-size="10.00"> </text>
</a>
</g>
</g>
<!-- Node2 -->
<g id="node2" class="node">
<title>Node2</title>
<g id="a_node2"><a xlink:href="structtoml_1_1detail_1_1is__container.html" target="_top" xlink:title=" ">
<polygon fill="none" stroke="black" points="21,-105.5 21,-162.5 188,-162.5 188,-105.5 21,-105.5"/>
<text text-anchor="middle" x="104.5" y="-150.5" font-family="Helvetica,sans-Serif" font-size="10.00">toml::detail::is_container&lt; T &gt;</text>
<polyline fill="none" stroke="black" points="21,-143.5 188,-143.5 "/>
<text text-anchor="middle" x="104.5" y="-131.5" font-family="Helvetica,sans-Serif" font-size="10.00"> </text>
<polyline fill="none" stroke="black" points="21,-124.5 188,-124.5 "/>
<text text-anchor="middle" x="104.5" y="-112.5" font-family="Helvetica,sans-Serif" font-size="10.00"> </text>
</a>
</g>
</g>
<!-- Node2&#45;&gt;Node1 -->
<g id="edge1" class="edge">
<title>Node2&#45;&gt;Node1</title>
<path fill="none" stroke="midnightblue" d="M104.5,-95.06C104.5,-86.39 104.5,-77.24 104.5,-68.79"/>
<polygon fill="none" stroke="midnightblue" points="101,-95.32 104.5,-105.32 108,-95.32 101,-95.32"/>
</g>
<!-- Node3 -->
<g id="node3" class="node">
<title>Node3</title>
<g id="a_node3"><a xlink:title=" ">
<polygon fill="none" stroke="black" points="0,-199.5 0,-300.5 209,-300.5 209,-199.5 0,-199.5"/>
<text text-anchor="start" x="8" y="-288.5" font-family="Helvetica,sans-Serif" font-size="10.00">toml::detail::conjunction</text>
<text text-anchor="start" x="8" y="-277.5" font-family="Helvetica,sans-Serif" font-size="10.00">&lt; negation&lt; is_map&lt; T &gt;</text>
<text text-anchor="start" x="8" y="-266.5" font-family="Helvetica,sans-Serif" font-size="10.00"> &gt;, negation&lt; std::is_same</text>
<text text-anchor="start" x="8" y="-255.5" font-family="Helvetica,sans-Serif" font-size="10.00">&lt; T, std::string &gt; &gt;, has</text>
<text text-anchor="middle" x="104.5" y="-244.5" font-family="Helvetica,sans-Serif" font-size="10.00">_iterator&lt; T &gt;, has_value_type&lt; T &gt; &gt;</text>
<polyline fill="none" stroke="black" points="0,-237.5 209,-237.5 "/>
<text text-anchor="middle" x="104.5" y="-225.5" font-family="Helvetica,sans-Serif" font-size="10.00"> </text>
<polyline fill="none" stroke="black" points="0,-218.5 209,-218.5 "/>
<text text-anchor="middle" x="104.5" y="-206.5" font-family="Helvetica,sans-Serif" font-size="10.00"> </text>
</a>
</g>
</g>
<!-- Node3&#45;&gt;Node2 -->
<g id="edge2" class="edge">
<title>Node3&#45;&gt;Node2</title>
<path fill="none" stroke="midnightblue" d="M104.5,-189.23C104.5,-179.92 104.5,-170.71 104.5,-162.59"/>
<polygon fill="none" stroke="midnightblue" points="101,-189.33 104.5,-199.33 108,-189.33 101,-189.33"/>
</g>
<!-- Node4 -->
<g id="node4" class="node">
<title>Node4</title>
<g id="a_node4"><a xlink:title=" ">
<polygon fill="none" stroke="black" points="62.5,-337.5 62.5,-394.5 146.5,-394.5 146.5,-337.5 62.5,-337.5"/>
<text text-anchor="middle" x="104.5" y="-382.5" font-family="Helvetica,sans-Serif" font-size="10.00">std::true_type</text>
<polyline fill="none" stroke="black" points="62.5,-375.5 146.5,-375.5 "/>
<text text-anchor="middle" x="104.5" y="-363.5" font-family="Helvetica,sans-Serif" font-size="10.00"> </text>
<polyline fill="none" stroke="black" points="62.5,-356.5 146.5,-356.5 "/>
<text text-anchor="middle" x="104.5" y="-344.5" font-family="Helvetica,sans-Serif" font-size="10.00"> </text>
</a>
</g>
</g>
<!-- Node4&#45;&gt;Node3 -->
<g id="edge3" class="edge">
<title>Node4&#45;&gt;Node3</title>
<path fill="none" stroke="midnightblue" d="M104.5,-327.35C104.5,-318.8 104.5,-309.58 104.5,-300.61"/>
<polygon fill="none" stroke="midnightblue" points="101,-327.4 104.5,-337.4 108,-327.4 101,-327.4"/>
</g>
</g>
</svg>
