<?xml version="1.0" encoding="UTF-8" standalone="no"?>
<!DOCTYPE svg PUBLIC "-//W3C//DTD SVG 1.1//EN"
 "http://www.w3.org/Graphics/SVG/1.1/DTD/svg11.dtd">
<!-- Generated by graphviz version 2.43.0 (0)
 -->
<!-- Title: toml::exception Pages: 1 -->
<svg width="357pt" height="309pt"
 viewBox="0.00 0.00 357.00 309.00" xmlns="http://www.w3.org/2000/svg" xmlns:xlink="http://www.w3.org/1999/xlink">
<g id="graph0" class="graph" transform="scale(1 1) rotate(0) translate(4 305)">
<title>toml::exception</title>
<!-- Node1 -->
<g id="node1" class="node">
<title>Node1</title>
<g id="a_node1"><a xlink:title=" ">
<polygon fill="#bfbfbf" stroke="black" points="136,-116.5 136,-206.5 229,-206.5 229,-116.5 136,-116.5"/>
<text text-anchor="middle" x="182.5" y="-194.5" font-family="Helvetica,sans-Serif" font-size="10.00">toml::exception</text>
<polyline fill="none" stroke="black" points="136,-187.5 229,-187.5 "/>
<text text-anchor="start" x="144" y="-175.5" font-family="Helvetica,sans-Serif" font-size="10.00"># loc_</text>
<polyline fill="none" stroke="black" points="136,-168.5 229,-168.5 "/>
<text text-anchor="start" x="144" y="-156.5" font-family="Helvetica,sans-Serif" font-size="10.00">+ exception()</text>
<text text-anchor="start" x="144" y="-145.5" font-family="Helvetica,sans-Serif" font-size="10.00">+ ~exception()</text>
<text text-anchor="start" x="144" y="-134.5" font-family="Helvetica,sans-Serif" font-size="10.00">+ what()</text>
<text text-anchor="start" x="144" y="-123.5" font-family="Helvetica,sans-Serif" font-size="10.00">+ location()</text>
</a>
</g>
</g>
<!-- Node3 -->
<g id="node3" class="node">
<title>Node3</title>
<g id="a_node3"><a xlink:href="structtoml_1_1internal__error.html" target="_top" xlink:title=" ">
<polygon fill="none" stroke="black" points="0,-0.5 0,-79.5 111,-79.5 111,-0.5 0,-0.5"/>
<text text-anchor="middle" x="55.5" y="-67.5" font-family="Helvetica,sans-Serif" font-size="10.00">toml::internal_error</text>
<polyline fill="none" stroke="black" points="0,-60.5 111,-60.5 "/>
<text text-anchor="start" x="8" y="-48.5" font-family="Helvetica,sans-Serif" font-size="10.00"># what_</text>
<polyline fill="none" stroke="black" points="0,-41.5 111,-41.5 "/>
<text text-anchor="start" x="8" y="-29.5" font-family="Helvetica,sans-Serif" font-size="10.00">+ internal_error()</text>
<text text-anchor="start" x="8" y="-18.5" font-family="Helvetica,sans-Serif" font-size="10.00">+ ~internal_error()</text>
<text text-anchor="start" x="8" y="-7.5" font-family="Helvetica,sans-Serif" font-size="10.00">+ what()</text>
</a>
</g>
</g>
<!-- Node1&#45;&gt;Node3 -->
<g id="edge2" class="edge">
<title>Node1&#45;&gt;Node3</title>
<path fill="none" stroke="midnightblue" d="M128.59,-109.78C117.89,-99.7 106.81,-89.28 96.61,-79.68"/>
<polygon fill="none" stroke="midnightblue" points="126.25,-112.38 135.93,-116.68 131.05,-107.28 126.25,-112.38"/>
</g>
<!-- Node4 -->
<g id="node4" class="node">
<title>Node4</title>
<g id="a_node4"><a xlink:href="structtoml_1_1syntax__error.html" target="_top" xlink:title=" ">
<polygon fill="none" stroke="black" points="129,-0.5 129,-79.5 236,-79.5 236,-0.5 129,-0.5"/>
<text text-anchor="middle" x="182.5" y="-67.5" font-family="Helvetica,sans-Serif" font-size="10.00">toml::syntax_error</text>
<polyline fill="none" stroke="black" points="129,-60.5 236,-60.5 "/>
<text text-anchor="start" x="137" y="-48.5" font-family="Helvetica,sans-Serif" font-size="10.00"># what_</text>
<polyline fill="none" stroke="black" points="129,-41.5 236,-41.5 "/>
<text text-anchor="start" x="137" y="-29.5" font-family="Helvetica,sans-Serif" font-size="10.00">+ syntax_error()</text>
<text text-anchor="start" x="137" y="-18.5" font-family="Helvetica,sans-Serif" font-size="10.00">+ ~syntax_error()</text>
<text text-anchor="start" x="137" y="-7.5" font-family="Helvetica,sans-Serif" font-size="10.00">+ what()</text>
</a>
</g>
</g>
<!-- Node1&#45;&gt;Node4 -->
<g id="edge3" class="edge">
<title>Node1&#45;&gt;Node4</title>
<path fill="none" stroke="midnightblue" d="M182.5,-106.08C182.5,-97.23 182.5,-88.23 182.5,-79.86"/>
<polygon fill="none" stroke="midnightblue" points="179,-106.34 182.5,-116.34 186,-106.34 179,-106.34"/>
</g>
<!-- Node5 -->
<g id="node5" class="node">
<title>Node5</title>
<g id="a_node5"><a xlink:href="structtoml_1_1type__error.html" target="_top" xlink:title=" ">
<polygon fill="none" stroke="black" points="254,-0.5 254,-79.5 349,-79.5 349,-0.5 254,-0.5"/>
<text text-anchor="middle" x="301.5" y="-67.5" font-family="Helvetica,sans-Serif" font-size="10.00">toml::type_error</text>
<polyline fill="none" stroke="black" points="254,-60.5 349,-60.5 "/>
<text text-anchor="start" x="262" y="-48.5" font-family="Helvetica,sans-Serif" font-size="10.00"># what_</text>
<polyline fill="none" stroke="black" points="254,-41.5 349,-41.5 "/>
<text text-anchor="start" x="262" y="-29.5" font-family="Helvetica,sans-Serif" font-size="10.00">+ type_error()</text>
<text text-anchor="start" x="262" y="-18.5" font-family="Helvetica,sans-Serif" font-size="10.00">+ ~type_error()</text>
<text text-anchor="start" x="262" y="-7.5" font-family="Helvetica,sans-Serif" font-size="10.00">+ what()</text>
</a>
</g>
</g>
<!-- Node1&#45;&gt;Node5 -->
<g id="edge4" class="edge">
<title>Node1&#45;&gt;Node5</title>
<path fill="none" stroke="midnightblue" d="M233.54,-109.24C243.35,-99.4 253.47,-89.23 262.81,-79.86"/>
<polygon fill="none" stroke="midnightblue" points="231.05,-106.79 226.47,-116.34 236.01,-111.73 231.05,-106.79"/>
</g>
<!-- Node2 -->
<g id="node2" class="node">
<title>Node2</title>
<g id="a_node2"><a xlink:title=" ">
<polygon fill="none" stroke="black" points="139.5,-243.5 139.5,-300.5 225.5,-300.5 225.5,-243.5 139.5,-243.5"/>
<text text-anchor="middle" x="182.5" y="-288.5" font-family="Helvetica,sans-Serif" font-size="10.00">std::exception</text>
<polyline fill="none" stroke="black" points="139.5,-281.5 225.5,-281.5 "/>
<text text-anchor="middle" x="182.5" y="-269.5" font-family="Helvetica,sans-Serif" font-size="10.00"> </text>
<polyline fill="none" stroke="black" points="139.5,-262.5 225.5,-262.5 "/>
<text text-anchor="middle" x="182.5" y="-250.5" font-family="Helvetica,sans-Serif" font-size="10.00"> </text>
</a>
</g>
</g>
<!-- Node2&#45;&gt;Node1 -->
<g id="edge1" class="edge">
<title>Node2&#45;&gt;Node1</title>
<path fill="none" stroke="midnightblue" d="M182.5,-233.21C182.5,-224.61 182.5,-215.39 182.5,-206.55"/>
<polygon fill="none" stroke="midnightblue" points="179,-233.34 182.5,-243.34 186,-233.34 179,-233.34"/>
</g>
</g>
</svg>
