<?xml version="1.0" encoding="UTF-8" standalone="no"?>
<!DOCTYPE svg PUBLIC "-//W3C//DTD SVG 1.1//EN"
 "http://www.w3.org/Graphics/SVG/1.1/DTD/svg11.dtd">
<!-- Generated by graphviz version 2.43.0 (0)
 -->
<!-- Title: patricia::element_t Pages: 1 -->
<svg width="210pt" height="430pt"
 viewBox="0.00 0.00 210.00 430.00" xmlns="http://www.w3.org/2000/svg" xmlns:xlink="http://www.w3.org/1999/xlink">
<g id="graph0" class="graph" transform="scale(1 1) rotate(0) translate(4 426)">
<title>patricia::element_t</title>
<!-- Node1 -->
<g id="node1" class="node">
<title>Node1</title>
<g id="a_node1"><a xlink:title=" ">
<polygon fill="#bfbfbf" stroke="black" points="47.5,-320.5 47.5,-421.5 156.5,-421.5 156.5,-320.5 47.5,-320.5"/>
<text text-anchor="middle" x="102" y="-409.5" font-family="Helvetica,sans-Serif" font-size="10.00">patricia::element_t</text>
<polyline fill="none" stroke="black" points="47.5,-402.5 156.5,-402.5 "/>
<text text-anchor="start" x="55.5" y="-390.5" font-family="Helvetica,sans-Serif" font-size="10.00">+ key</text>
<text text-anchor="start" x="55.5" y="-379.5" font-family="Helvetica,sans-Serif" font-size="10.00">+ parent</text>
<text text-anchor="start" x="55.5" y="-368.5" font-family="Helvetica,sans-Serif" font-size="10.00">+ branchbit</text>
<polyline fill="none" stroke="black" points="47.5,-361.5 156.5,-361.5 "/>
<text text-anchor="start" x="55.5" y="-349.5" font-family="Helvetica,sans-Serif" font-size="10.00">+ mask()</text>
<text text-anchor="start" x="55.5" y="-338.5" font-family="Helvetica,sans-Serif" font-size="10.00">+ element_t()</text>
<text text-anchor="start" x="55.5" y="-327.5" font-family="Helvetica,sans-Serif" font-size="10.00">+ ~element_t()</text>
</a>
</g>
</g>
<!-- Node2 -->
<g id="node2" class="node">
<title>Node2</title>
<g id="a_node2"><a xlink:href="structpatricia_1_1leaf__t.html" target="_top" xlink:title=" ">
<polygon fill="none" stroke="black" points="4.5,-171.5 4.5,-272.5 91.5,-272.5 91.5,-171.5 4.5,-171.5"/>
<text text-anchor="middle" x="48" y="-260.5" font-family="Helvetica,sans-Serif" font-size="10.00">patricia::leaf_t</text>
<polyline fill="none" stroke="black" points="4.5,-253.5 91.5,-253.5 "/>
<text text-anchor="middle" x="48" y="-241.5" font-family="Helvetica,sans-Serif" font-size="10.00"> </text>
<polyline fill="none" stroke="black" points="4.5,-234.5 91.5,-234.5 "/>
<text text-anchor="start" x="12.5" y="-222.5" font-family="Helvetica,sans-Serif" font-size="10.00">+ leaf_t()</text>
<text text-anchor="start" x="12.5" y="-211.5" font-family="Helvetica,sans-Serif" font-size="10.00">+ ~leaf_t()</text>
<text text-anchor="start" x="12.5" y="-200.5" font-family="Helvetica,sans-Serif" font-size="10.00">+ find_next()</text>
<text text-anchor="start" x="12.5" y="-189.5" font-family="Helvetica,sans-Serif" font-size="10.00">+ find_prev()</text>
<text text-anchor="start" x="12.5" y="-178.5" font-family="Helvetica,sans-Serif" font-size="10.00">+ to_str()</text>
</a>
</g>
</g>
<!-- Node1&#45;&gt;Node2 -->
<g id="edge1" class="edge">
<title>Node1&#45;&gt;Node2</title>
<path fill="none" stroke="midnightblue" d="M80.23,-310.73C75.59,-298.12 70.75,-284.93 66.26,-272.72"/>
<polygon fill="none" stroke="midnightblue" points="76.98,-312.05 83.72,-320.23 83.56,-309.64 76.98,-312.05"/>
</g>
<!-- Node4 -->
<g id="node4" class="node">
<title>Node4</title>
<g id="a_node4"><a xlink:href="structpatricia_1_1node__t.html" target="_top" xlink:title=" ">
<polygon fill="none" stroke="black" points="110,-160.5 110,-283.5 202,-283.5 202,-160.5 110,-160.5"/>
<text text-anchor="middle" x="156" y="-271.5" font-family="Helvetica,sans-Serif" font-size="10.00">patricia::node_t</text>
<polyline fill="none" stroke="black" points="110,-264.5 202,-264.5 "/>
<text text-anchor="start" x="118" y="-252.5" font-family="Helvetica,sans-Serif" font-size="10.00">+ children</text>
<polyline fill="none" stroke="black" points="110,-245.5 202,-245.5 "/>
<text text-anchor="start" x="118" y="-233.5" font-family="Helvetica,sans-Serif" font-size="10.00">+ branch()</text>
<text text-anchor="start" x="118" y="-222.5" font-family="Helvetica,sans-Serif" font-size="10.00">+ next()</text>
<text text-anchor="start" x="118" y="-211.5" font-family="Helvetica,sans-Serif" font-size="10.00">+ traverse()</text>
<text text-anchor="start" x="118" y="-200.5" font-family="Helvetica,sans-Serif" font-size="10.00">+ find_last()</text>
<text text-anchor="start" x="118" y="-189.5" font-family="Helvetica,sans-Serif" font-size="10.00">+ find_first()</text>
<text text-anchor="start" x="118" y="-178.5" font-family="Helvetica,sans-Serif" font-size="10.00">+ node_t()</text>
<text text-anchor="start" x="118" y="-167.5" font-family="Helvetica,sans-Serif" font-size="10.00">+ ~node_t()</text>
</a>
</g>
</g>
<!-- Node1&#45;&gt;Node4 -->
<g id="edge3" class="edge">
<title>Node1&#45;&gt;Node4</title>
<path fill="none" stroke="midnightblue" d="M123.78,-310.71C127.05,-301.8 130.43,-292.61 133.71,-283.67"/>
<polygon fill="none" stroke="midnightblue" points="120.44,-309.64 120.28,-320.23 127.02,-312.05 120.44,-309.64"/>
</g>
<!-- Node3 -->
<g id="node3" class="node">
<title>Node3</title>
<g id="a_node3"><a xlink:href="structmemory_1_1node__t.html" target="_top" xlink:title=" ">
<polygon fill="none" stroke="black" points="0,-0.5 0,-123.5 96,-123.5 96,-0.5 0,-0.5"/>
<text text-anchor="middle" x="48" y="-111.5" font-family="Helvetica,sans-Serif" font-size="10.00">memory::node_t</text>
<polyline fill="none" stroke="black" points="0,-104.5 96,-104.5 "/>
<text text-anchor="start" x="8" y="-92.5" font-family="Helvetica,sans-Serif" font-size="10.00">+ in_use</text>
<text text-anchor="start" x="8" y="-81.5" font-family="Helvetica,sans-Serif" font-size="10.00">+ next</text>
<text text-anchor="start" x="8" y="-70.5" font-family="Helvetica,sans-Serif" font-size="10.00">+ prev</text>
<polyline fill="none" stroke="black" points="0,-63.5 96,-63.5 "/>
<text text-anchor="start" x="8" y="-51.5" font-family="Helvetica,sans-Serif" font-size="10.00">+ node_t()</text>
<text text-anchor="start" x="8" y="-40.5" font-family="Helvetica,sans-Serif" font-size="10.00">+ ~node_t()</text>
<text text-anchor="start" x="8" y="-29.5" font-family="Helvetica,sans-Serif" font-size="10.00">+ unlink()</text>
<text text-anchor="start" x="8" y="-18.5" font-family="Helvetica,sans-Serif" font-size="10.00">+ to_str()</text>
<text text-anchor="start" x="8" y="-7.5" font-family="Helvetica,sans-Serif" font-size="10.00">+ print()</text>
</a>
</g>
</g>
<!-- Node2&#45;&gt;Node3 -->
<g id="edge2" class="edge">
<title>Node2&#45;&gt;Node3</title>
<path fill="none" stroke="midnightblue" d="M48,-161.31C48,-149.03 48,-136.09 48,-123.77"/>
<polygon fill="none" stroke="midnightblue" points="44.5,-161.44 48,-171.44 51.5,-161.44 44.5,-161.44"/>
</g>
</g>
</svg>
