<?xml version="1.0" encoding="UTF-8" standalone="no"?>
<!DOCTYPE svg PUBLIC "-//W3C//DTD SVG 1.1//EN"
 "http://www.w3.org/Graphics/SVG/1.1/DTD/svg11.dtd">
<!-- Generated by graphviz version 2.43.0 (0)
 -->
<!-- Title: toml::detail::is_map&lt; T const volatile &amp; &gt; Pages: 1 -->
<svg width="215pt" height="392pt"
 viewBox="0.00 0.00 215.00 392.00" xmlns="http://www.w3.org/2000/svg" xmlns:xlink="http://www.w3.org/1999/xlink">
<g id="graph0" class="graph" transform="scale(1 1) rotate(0) translate(4 388)">
<title>toml::detail::is_map&lt; T const volatile &amp; &gt;</title>
<!-- Node1 -->
<g id="node1" class="node">
<title>Node1</title>
<g id="a_node1"><a xlink:title=" ">
<polygon fill="#bfbfbf" stroke="black" points="41,-0.5 41,-68.5 166,-68.5 166,-0.5 41,-0.5"/>
<text text-anchor="start" x="49" y="-56.5" font-family="Helvetica,sans-Serif" font-size="10.00">toml::detail::is_map</text>
<text text-anchor="middle" x="103.5" y="-45.5" font-family="Helvetica,sans-Serif" font-size="10.00">&lt; T const volatile &amp; &gt;</text>
<polyline fill="none" stroke="black" points="41,-38.5 166,-38.5 "/>
<text text-anchor="middle" x="103.5" y="-26.5" font-family="Helvetica,sans-Serif" font-size="10.00"> </text>
<polyline fill="none" stroke="black" points="41,-19.5 166,-19.5 "/>
<text text-anchor="middle" x="103.5" y="-7.5" font-family="Helvetica,sans-Serif" font-size="10.00"> </text>
</a>
</g>
</g>
<!-- Node2 -->
<g id="node2" class="node">
<title>Node2</title>
<g id="a_node2"><a xlink:href="structtoml_1_1detail_1_1is__map.html" target="_top" xlink:title=" ">
<polygon fill="none" stroke="black" points="32,-105.5 32,-162.5 175,-162.5 175,-105.5 32,-105.5"/>
<text text-anchor="middle" x="103.5" y="-150.5" font-family="Helvetica,sans-Serif" font-size="10.00">toml::detail::is_map&lt; T &gt;</text>
<polyline fill="none" stroke="black" points="32,-143.5 175,-143.5 "/>
<text text-anchor="middle" x="103.5" y="-131.5" font-family="Helvetica,sans-Serif" font-size="10.00"> </text>
<polyline fill="none" stroke="black" points="32,-124.5 175,-124.5 "/>
<text text-anchor="middle" x="103.5" y="-112.5" font-family="Helvetica,sans-Serif" font-size="10.00"> </text>
</a>
</g>
</g>
<!-- Node2&#45;&gt;Node1 -->
<g id="edge1" class="edge">
<title>Node2&#45;&gt;Node1</title>
<path fill="none" stroke="midnightblue" d="M103.5,-95.06C103.5,-86.39 103.5,-77.24 103.5,-68.79"/>
<polygon fill="none" stroke="midnightblue" points="100,-95.32 103.5,-105.32 107,-95.32 100,-95.32"/>
</g>
<!-- Node3 -->
<g id="node3" class="node">
<title>Node3</title>
<g id="a_node3"><a xlink:href="structtoml_1_1detail_1_1conjunction.html" target="_top" xlink:title=" ">
<polygon fill="none" stroke="black" points="0,-199.5 0,-289.5 207,-289.5 207,-199.5 0,-199.5"/>
<text text-anchor="start" x="8" y="-277.5" font-family="Helvetica,sans-Serif" font-size="10.00">toml::detail::conjunction</text>
<text text-anchor="start" x="8" y="-266.5" font-family="Helvetica,sans-Serif" font-size="10.00">&lt; has_iterator&lt; T &gt;, has</text>
<text text-anchor="start" x="8" y="-255.5" font-family="Helvetica,sans-Serif" font-size="10.00">_value_type&lt; T &gt;, has_key</text>
<text text-anchor="middle" x="103.5" y="-244.5" font-family="Helvetica,sans-Serif" font-size="10.00">_type&lt; T &gt;, has_mapped_type&lt; T &gt; &gt;</text>
<polyline fill="none" stroke="black" points="0,-237.5 207,-237.5 "/>
<text text-anchor="middle" x="103.5" y="-225.5" font-family="Helvetica,sans-Serif" font-size="10.00"> </text>
<polyline fill="none" stroke="black" points="0,-218.5 207,-218.5 "/>
<text text-anchor="middle" x="103.5" y="-206.5" font-family="Helvetica,sans-Serif" font-size="10.00"> </text>
</a>
</g>
</g>
<!-- Node3&#45;&gt;Node2 -->
<g id="edge2" class="edge">
<title>Node3&#45;&gt;Node2</title>
<path fill="none" stroke="midnightblue" d="M103.5,-189.35C103.5,-180.07 103.5,-170.79 103.5,-162.59"/>
<polygon fill="none" stroke="midnightblue" points="100,-189.37 103.5,-199.37 107,-189.37 100,-189.37"/>
</g>
<!-- Node4 -->
<g id="node4" class="node">
<title>Node4</title>
<g id="a_node4"><a xlink:title=" ">
<polygon fill="none" stroke="black" points="61.5,-326.5 61.5,-383.5 145.5,-383.5 145.5,-326.5 61.5,-326.5"/>
<text text-anchor="middle" x="103.5" y="-371.5" font-family="Helvetica,sans-Serif" font-size="10.00">std::true_type</text>
<polyline fill="none" stroke="black" points="61.5,-364.5 145.5,-364.5 "/>
<text text-anchor="middle" x="103.5" y="-352.5" font-family="Helvetica,sans-Serif" font-size="10.00"> </text>
<polyline fill="none" stroke="black" points="61.5,-345.5 145.5,-345.5 "/>
<text text-anchor="middle" x="103.5" y="-333.5" font-family="Helvetica,sans-Serif" font-size="10.00"> </text>
</a>
</g>
</g>
<!-- Node4&#45;&gt;Node3 -->
<g id="edge3" class="edge">
<title>Node4&#45;&gt;Node3</title>
<path fill="none" stroke="midnightblue" d="M103.5,-316.21C103.5,-307.61 103.5,-298.39 103.5,-289.55"/>
<polygon fill="none" stroke="midnightblue" points="100,-316.34 103.5,-326.34 107,-316.34 100,-316.34"/>
</g>
</g>
</svg>
