<?xml version="1.0" encoding="UTF-8" standalone="no"?>
<!DOCTYPE svg PUBLIC "-//W3C//DTD SVG 1.1//EN"
 "http://www.w3.org/Graphics/SVG/1.1/DTD/svg11.dtd">
<!-- Generated by graphviz version 2.43.0 (0)
 -->
<!-- Title: patricia::leaf_t Pages: 1 -->
<svg width="117pt" height="408pt"
 viewBox="0.00 0.00 117.00 408.00" xmlns="http://www.w3.org/2000/svg" xmlns:xlink="http://www.w3.org/1999/xlink">
<g id="graph0" class="graph" transform="scale(1 1) rotate(0) translate(4 404)">
<title>patricia::leaf_t</title>
<!-- Node1 -->
<g id="node1" class="node">
<title>Node1</title>
<g id="a_node1"><a xlink:title=" ">
<polygon fill="#bfbfbf" stroke="black" points="11,-160.5 11,-261.5 98,-261.5 98,-160.5 11,-160.5"/>
<text text-anchor="middle" x="54.5" y="-249.5" font-family="Helvetica,sans-Serif" font-size="10.00">patricia::leaf_t</text>
<polyline fill="none" stroke="black" points="11,-242.5 98,-242.5 "/>
<text text-anchor="middle" x="54.5" y="-230.5" font-family="Helvetica,sans-Serif" font-size="10.00"> </text>
<polyline fill="none" stroke="black" points="11,-223.5 98,-223.5 "/>
<text text-anchor="start" x="19" y="-211.5" font-family="Helvetica,sans-Serif" font-size="10.00">+ leaf_t()</text>
<text text-anchor="start" x="19" y="-200.5" font-family="Helvetica,sans-Serif" font-size="10.00">+ ~leaf_t()</text>
<text text-anchor="start" x="19" y="-189.5" font-family="Helvetica,sans-Serif" font-size="10.00">+ find_next()</text>
<text text-anchor="start" x="19" y="-178.5" font-family="Helvetica,sans-Serif" font-size="10.00">+ find_prev()</text>
<text text-anchor="start" x="19" y="-167.5" font-family="Helvetica,sans-Serif" font-size="10.00">+ to_str()</text>
</a>
</g>
</g>
<!-- Node3 -->
<g id="node3" class="node">
<title>Node3</title>
<g id="a_node3"><a xlink:href="structmemory_1_1node__t.html" target="_top" xlink:title=" ">
<polygon fill="none" stroke="black" points="6.5,-0.5 6.5,-123.5 102.5,-123.5 102.5,-0.5 6.5,-0.5"/>
<text text-anchor="middle" x="54.5" y="-111.5" font-family="Helvetica,sans-Serif" font-size="10.00">memory::node_t</text>
<polyline fill="none" stroke="black" points="6.5,-104.5 102.5,-104.5 "/>
<text text-anchor="start" x="14.5" y="-92.5" font-family="Helvetica,sans-Serif" font-size="10.00">+ in_use</text>
<text text-anchor="start" x="14.5" y="-81.5" font-family="Helvetica,sans-Serif" font-size="10.00">+ next</text>
<text text-anchor="start" x="14.5" y="-70.5" font-family="Helvetica,sans-Serif" font-size="10.00">+ prev</text>
<polyline fill="none" stroke="black" points="6.5,-63.5 102.5,-63.5 "/>
<text text-anchor="start" x="14.5" y="-51.5" font-family="Helvetica,sans-Serif" font-size="10.00">+ node_t()</text>
<text text-anchor="start" x="14.5" y="-40.5" font-family="Helvetica,sans-Serif" font-size="10.00">+ ~node_t()</text>
<text text-anchor="start" x="14.5" y="-29.5" font-family="Helvetica,sans-Serif" font-size="10.00">+ unlink()</text>
<text text-anchor="start" x="14.5" y="-18.5" font-family="Helvetica,sans-Serif" font-size="10.00">+ to_str()</text>
<text text-anchor="start" x="14.5" y="-7.5" font-family="Helvetica,sans-Serif" font-size="10.00">+ print()</text>
</a>
</g>
</g>
<!-- Node1&#45;&gt;Node3 -->
<g id="edge2" class="edge">
<title>Node1&#45;&gt;Node3</title>
<path fill="none" stroke="midnightblue" d="M54.5,-150.14C54.5,-141.41 54.5,-132.42 54.5,-123.67"/>
<polygon fill="none" stroke="midnightblue" points="51,-150.23 54.5,-160.23 58,-150.23 51,-150.23"/>
</g>
<!-- Node2 -->
<g id="node2" class="node">
<title>Node2</title>
<g id="a_node2"><a xlink:href="structpatricia_1_1element__t.html" target="_top" xlink:title=" ">
<polygon fill="none" stroke="black" points="0,-298.5 0,-399.5 109,-399.5 109,-298.5 0,-298.5"/>
<text text-anchor="middle" x="54.5" y="-387.5" font-family="Helvetica,sans-Serif" font-size="10.00">patricia::element_t</text>
<polyline fill="none" stroke="black" points="0,-380.5 109,-380.5 "/>
<text text-anchor="start" x="8" y="-368.5" font-family="Helvetica,sans-Serif" font-size="10.00">+ key</text>
<text text-anchor="start" x="8" y="-357.5" font-family="Helvetica,sans-Serif" font-size="10.00">+ parent</text>
<text text-anchor="start" x="8" y="-346.5" font-family="Helvetica,sans-Serif" font-size="10.00">+ branchbit</text>
<polyline fill="none" stroke="black" points="0,-339.5 109,-339.5 "/>
<text text-anchor="start" x="8" y="-327.5" font-family="Helvetica,sans-Serif" font-size="10.00">+ mask()</text>
<text text-anchor="start" x="8" y="-316.5" font-family="Helvetica,sans-Serif" font-size="10.00">+ element_t()</text>
<text text-anchor="start" x="8" y="-305.5" font-family="Helvetica,sans-Serif" font-size="10.00">+ ~element_t()</text>
</a>
</g>
</g>
<!-- Node2&#45;&gt;Node1 -->
<g id="edge1" class="edge">
<title>Node2&#45;&gt;Node1</title>
<path fill="none" stroke="midnightblue" d="M54.5,-288C54.5,-279.27 54.5,-270.36 54.5,-261.86"/>
<polygon fill="none" stroke="midnightblue" points="51,-288.13 54.5,-298.13 58,-288.13 51,-288.13"/>
</g>
</g>
</svg>
