<?xml version="1.0" encoding="UTF-8" standalone="no"?>
<!DOCTYPE svg PUBLIC "-//W3C//DTD SVG 1.1//EN"
 "http://www.w3.org/Graphics/SVG/1.1/DTD/svg11.dtd">
<!-- Generated by graphviz version 2.43.0 (0)
 -->
<!-- Title: toml::detail::is_exact_toml_type&lt; T, Value &gt; Pages: 1 -->
<svg width="212pt" height="375pt"
 viewBox="0.00 0.00 212.00 375.00" xmlns="http://www.w3.org/2000/svg" xmlns:xlink="http://www.w3.org/1999/xlink">
<g id="graph0" class="graph" transform="scale(1 1) rotate(0) translate(4 371)">
<title>toml::detail::is_exact_toml_type&lt; T, Value &gt;</title>
<!-- Node1 -->
<g id="node1" class="node">
<title>Node1</title>
<g id="a_node1"><a xlink:title=" ">
<polygon fill="#bfbfbf" stroke="black" points="35.5,-0.5 35.5,-68.5 168.5,-68.5 168.5,-0.5 35.5,-0.5"/>
<text text-anchor="start" x="43.5" y="-56.5" font-family="Helvetica,sans-Serif" font-size="10.00">toml::detail::is_exact</text>
<text text-anchor="middle" x="102" y="-45.5" font-family="Helvetica,sans-Serif" font-size="10.00">_toml_type&lt; T, Value &gt;</text>
<polyline fill="none" stroke="black" points="35.5,-38.5 168.5,-38.5 "/>
<text text-anchor="middle" x="102" y="-26.5" font-family="Helvetica,sans-Serif" font-size="10.00"> </text>
<polyline fill="none" stroke="black" points="35.5,-19.5 168.5,-19.5 "/>
<text text-anchor="middle" x="102" y="-7.5" font-family="Helvetica,sans-Serif" font-size="10.00"> </text>
</a>
</g>
</g>
<!-- Node2 -->
<g id="node2" class="node">
<title>Node2</title>
<g id="a_node2"><a xlink:title=" ">
<polygon fill="none" stroke="black" points="0,-105.5 0,-272.5 204,-272.5 204,-105.5 0,-105.5"/>
<text text-anchor="start" x="8" y="-260.5" font-family="Helvetica,sans-Serif" font-size="10.00">toml::detail::disjunction</text>
<text text-anchor="start" x="8" y="-249.5" font-family="Helvetica,sans-Serif" font-size="10.00">&lt; std::is_same&lt; T, boolean</text>
<text text-anchor="start" x="8" y="-238.5" font-family="Helvetica,sans-Serif" font-size="10.00"> &gt;, std::is_same&lt; T, integer</text>
<text text-anchor="start" x="8" y="-227.5" font-family="Helvetica,sans-Serif" font-size="10.00"> &gt;, std::is_same&lt; T, floating</text>
<text text-anchor="start" x="8" y="-216.5" font-family="Helvetica,sans-Serif" font-size="10.00"> &gt;, std::is_same&lt; T, string &gt;,</text>
<text text-anchor="start" x="8" y="-205.5" font-family="Helvetica,sans-Serif" font-size="10.00"> std::is_same&lt; T, offset_datetime</text>
<text text-anchor="start" x="8" y="-194.5" font-family="Helvetica,sans-Serif" font-size="10.00"> &gt;, std::is_same&lt; T, local_datetime</text>
<text text-anchor="start" x="8" y="-183.5" font-family="Helvetica,sans-Serif" font-size="10.00"> &gt;, std::is_same&lt; T, local_date &gt;,</text>
<text text-anchor="start" x="8" y="-172.5" font-family="Helvetica,sans-Serif" font-size="10.00"> std::is_same&lt; T, local_time &gt;, std</text>
<text text-anchor="start" x="8" y="-161.5" font-family="Helvetica,sans-Serif" font-size="10.00">::is_same&lt; T, Value::array_type &gt;, std</text>
<text text-anchor="middle" x="102" y="-150.5" font-family="Helvetica,sans-Serif" font-size="10.00">::is_same&lt; T, Value::table_type &gt; &gt;</text>
<polyline fill="none" stroke="black" points="0,-143.5 204,-143.5 "/>
<text text-anchor="middle" x="102" y="-131.5" font-family="Helvetica,sans-Serif" font-size="10.00"> </text>
<polyline fill="none" stroke="black" points="0,-124.5 204,-124.5 "/>
<text text-anchor="middle" x="102" y="-112.5" font-family="Helvetica,sans-Serif" font-size="10.00"> </text>
</a>
</g>
</g>
<!-- Node2&#45;&gt;Node1 -->
<g id="edge1" class="edge">
<title>Node2&#45;&gt;Node1</title>
<path fill="none" stroke="midnightblue" d="M102,-94.89C102,-85.63 102,-76.72 102,-68.74"/>
<polygon fill="none" stroke="midnightblue" points="98.5,-95.06 102,-105.06 105.5,-95.06 98.5,-95.06"/>
</g>
<!-- Node3 -->
<g id="node3" class="node">
<title>Node3</title>
<g id="a_node3"><a xlink:title=" ">
<polygon fill="none" stroke="black" points="57.5,-309.5 57.5,-366.5 146.5,-366.5 146.5,-309.5 57.5,-309.5"/>
<text text-anchor="middle" x="102" y="-354.5" font-family="Helvetica,sans-Serif" font-size="10.00">std::false_type</text>
<polyline fill="none" stroke="black" points="57.5,-347.5 146.5,-347.5 "/>
<text text-anchor="middle" x="102" y="-335.5" font-family="Helvetica,sans-Serif" font-size="10.00"> </text>
<polyline fill="none" stroke="black" points="57.5,-328.5 146.5,-328.5 "/>
<text text-anchor="middle" x="102" y="-316.5" font-family="Helvetica,sans-Serif" font-size="10.00"> </text>
</a>
</g>
</g>
<!-- Node3&#45;&gt;Node2 -->
<g id="edge2" class="edge">
<title>Node3&#45;&gt;Node2</title>
<path fill="none" stroke="midnightblue" d="M102,-299.35C102,-291.08 102,-282.01 102,-272.74"/>
<polygon fill="none" stroke="midnightblue" points="98.5,-299.35 102,-309.35 105.5,-299.35 98.5,-299.35"/>
</g>
</g>
</svg>
