<?xml version="1.0" encoding="UTF-8" standalone="no"?>
<!DOCTYPE svg PUBLIC "-//W3C//DTD SVG 1.1//EN"
 "http://www.w3.org/Graphics/SVG/1.1/DTD/svg11.dtd">
<!-- Generated by graphviz version 2.43.0 (0)
 -->
<!-- Title: rpc::tcp::Server Pages: 1 -->
<svg width="151pt" height="193pt"
 viewBox="0.00 0.00 151.00 193.00" xmlns="http://www.w3.org/2000/svg" xmlns:xlink="http://www.w3.org/1999/xlink">
<g id="graph0" class="graph" transform="scale(1 1) rotate(0) translate(4 189)">
<title>rpc::tcp::Server</title>
<!-- Node1 -->
<g id="node1" class="node">
<title>Node1</title>
<g id="a_node1"><a xlink:title=" ">
<polygon fill="#bfbfbf" stroke="black" points="26.5,-0.5 26.5,-79.5 116.5,-79.5 116.5,-0.5 26.5,-0.5"/>
<text text-anchor="middle" x="71.5" y="-67.5" font-family="Helvetica,sans-Serif" font-size="10.00">rpc::tcp::Server</text>
<polyline fill="none" stroke="black" points="26.5,-60.5 116.5,-60.5 "/>
<text text-anchor="middle" x="71.5" y="-48.5" font-family="Helvetica,sans-Serif" font-size="10.00"> </text>
<polyline fill="none" stroke="black" points="26.5,-41.5 116.5,-41.5 "/>
<text text-anchor="start" x="34.5" y="-29.5" font-family="Helvetica,sans-Serif" font-size="10.00">+ Server()</text>
<text text-anchor="start" x="34.5" y="-18.5" font-family="Helvetica,sans-Serif" font-size="10.00">+ ~Server()</text>
<text text-anchor="start" x="34.5" y="-7.5" font-family="Helvetica,sans-Serif" font-size="10.00">+ run()</text>
</a>
</g>
</g>
<!-- Node2 -->
<g id="node2" class="node">
<title>Node2</title>
<g id="a_node2"><a xlink:title=" ">
<polygon fill="none" stroke="black" points="0,-116.5 0,-184.5 143,-184.5 143,-116.5 0,-116.5"/>
<text text-anchor="start" x="8" y="-172.5" font-family="Helvetica,sans-Serif" font-size="10.00">rpc::Server::registrar</text>
<text text-anchor="middle" x="71.5" y="-161.5" font-family="Helvetica,sans-Serif" font-size="10.00">&lt; Server, config::Server &gt;</text>
<polyline fill="none" stroke="black" points="0,-154.5 143,-154.5 "/>
<text text-anchor="middle" x="71.5" y="-142.5" font-family="Helvetica,sans-Serif" font-size="10.00"> </text>
<polyline fill="none" stroke="black" points="0,-135.5 143,-135.5 "/>
<text text-anchor="middle" x="71.5" y="-123.5" font-family="Helvetica,sans-Serif" font-size="10.00"> </text>
</a>
</g>
</g>
<!-- Node2&#45;&gt;Node1 -->
<g id="edge1" class="edge">
<title>Node2&#45;&gt;Node1</title>
<path fill="none" stroke="midnightblue" d="M71.5,-106.27C71.5,-97.48 71.5,-88.28 71.5,-79.65"/>
<polygon fill="none" stroke="midnightblue" points="68,-106.36 71.5,-116.36 75,-106.36 68,-106.36"/>
</g>
</g>
</svg>
