<?xml version="1.0" encoding="UTF-8" standalone="no"?>
<!DOCTYPE svg PUBLIC "-//W3C//DTD SVG 1.1//EN"
 "http://www.w3.org/Graphics/SVG/1.1/DTD/svg11.dtd">
<!-- Generated by graphviz version 2.43.0 (0)
 -->
<!-- Title: runnable Pages: 1 -->
<svg width="605pt" height="485pt"
 viewBox="0.00 0.00 605.00 485.00" xmlns="http://www.w3.org/2000/svg" xmlns:xlink="http://www.w3.org/1999/xlink">
<g id="graph0" class="graph" transform="scale(1 1) rotate(0) translate(4 481)">
<title>runnable</title>
<!-- Node1 -->
<g id="node1" class="node">
<title>Node1</title>
<g id="a_node1"><a xlink:title=" ">
<polygon fill="#bfbfbf" stroke="black" points="234,-331.5 234,-476.5 335,-476.5 335,-331.5 234,-331.5"/>
<text text-anchor="middle" x="284.5" y="-464.5" font-family="Helvetica,sans-Serif" font-size="10.00">runnable</text>
<polyline fill="none" stroke="black" points="234,-457.5 335,-457.5 "/>
<text text-anchor="start" x="242" y="-445.5" font-family="Helvetica,sans-Serif" font-size="10.00"># thread</text>
<text text-anchor="start" x="242" y="-434.5" font-family="Helvetica,sans-Serif" font-size="10.00"># callback</text>
<polyline fill="none" stroke="black" points="234,-427.5 335,-427.5 "/>
<text text-anchor="start" x="242" y="-415.5" font-family="Helvetica,sans-Serif" font-size="10.00">+ runnable()</text>
<text text-anchor="start" x="242" y="-404.5" font-family="Helvetica,sans-Serif" font-size="10.00">+ ~runnable()</text>
<text text-anchor="start" x="242" y="-393.5" font-family="Helvetica,sans-Serif" font-size="10.00">+ operator()()</text>
<text text-anchor="start" x="242" y="-382.5" font-family="Helvetica,sans-Serif" font-size="10.00">+ run()</text>
<text text-anchor="start" x="242" y="-371.5" font-family="Helvetica,sans-Serif" font-size="10.00">+ run()</text>
<text text-anchor="start" x="242" y="-360.5" font-family="Helvetica,sans-Serif" font-size="10.00">+ stop()</text>
<text text-anchor="start" x="242" y="-349.5" font-family="Helvetica,sans-Serif" font-size="10.00">+ operator&lt;=&gt;()</text>
<text text-anchor="start" x="242" y="-338.5" font-family="Helvetica,sans-Serif" font-size="10.00"># loop()</text>
</a>
</g>
</g>
<!-- Node2 -->
<g id="node2" class="node">
<title>Node2</title>
<g id="a_node2"><a xlink:href="classconsumer.html" target="_top" xlink:title=" ">
<polygon fill="none" stroke="black" points="0,-171.5 0,-261.5 93,-261.5 93,-171.5 0,-171.5"/>
<text text-anchor="middle" x="46.5" y="-249.5" font-family="Helvetica,sans-Serif" font-size="10.00">consumer</text>
<polyline fill="none" stroke="black" points="0,-242.5 93,-242.5 "/>
<text text-anchor="start" x="8" y="-230.5" font-family="Helvetica,sans-Serif" font-size="10.00"># client_handle</text>
<polyline fill="none" stroke="black" points="0,-223.5 93,-223.5 "/>
<text text-anchor="start" x="8" y="-211.5" font-family="Helvetica,sans-Serif" font-size="10.00">+ ~consumer()</text>
<text text-anchor="start" x="8" y="-200.5" font-family="Helvetica,sans-Serif" font-size="10.00">+ consumer()</text>
<text text-anchor="start" x="8" y="-189.5" font-family="Helvetica,sans-Serif" font-size="10.00">+ loop()</text>
<text text-anchor="start" x="8" y="-178.5" font-family="Helvetica,sans-Serif" font-size="10.00">+ handle()</text>
</a>
</g>
</g>
<!-- Node1&#45;&gt;Node2 -->
<g id="edge1" class="edge">
<title>Node1&#45;&gt;Node2</title>
<path fill="none" stroke="midnightblue" d="M224.38,-375.28C186.77,-356.11 138.76,-328.13 102.5,-295 91.96,-285.37 82.18,-273.46 73.84,-261.9"/>
<polygon fill="none" stroke="midnightblue" points="223.2,-378.6 233.71,-379.96 226.34,-372.35 223.2,-378.6"/>
</g>
<!-- Node3 -->
<g id="node3" class="node">
<title>Node3</title>
<g id="a_node3"><a xlink:href="classproducer.html" target="_top" xlink:title=" ">
<polygon fill="none" stroke="black" points="111.5,-171.5 111.5,-261.5 213.5,-261.5 213.5,-171.5 111.5,-171.5"/>
<text text-anchor="middle" x="162.5" y="-249.5" font-family="Helvetica,sans-Serif" font-size="10.00">producer</text>
<polyline fill="none" stroke="black" points="111.5,-242.5 213.5,-242.5 "/>
<text text-anchor="start" x="119.5" y="-230.5" font-family="Helvetica,sans-Serif" font-size="10.00"># data</text>
<text text-anchor="start" x="119.5" y="-219.5" font-family="Helvetica,sans-Serif" font-size="10.00"># control</text>
<polyline fill="none" stroke="black" points="111.5,-212.5 213.5,-212.5 "/>
<text text-anchor="start" x="119.5" y="-200.5" font-family="Helvetica,sans-Serif" font-size="10.00">+ producer()</text>
<text text-anchor="start" x="119.5" y="-189.5" font-family="Helvetica,sans-Serif" font-size="10.00">+ ~producer()</text>
<text text-anchor="start" x="119.5" y="-178.5" font-family="Helvetica,sans-Serif" font-size="10.00"># control_event()</text>
</a>
</g>
</g>
<!-- Node1&#45;&gt;Node3 -->
<g id="edge2" class="edge">
<title>Node1&#45;&gt;Node3</title>
<path fill="none" stroke="midnightblue" d="M231.68,-322.69C217.92,-301.76 203.59,-279.97 191.56,-261.69"/>
<polygon fill="none" stroke="midnightblue" points="228.91,-324.85 237.33,-331.28 234.76,-321 228.91,-324.85"/>
</g>
<!-- Node4 -->
<g id="node4" class="node">
<title>Node4</title>
<g id="a_node4"><a xlink:href="classtransport_1_1Client.html" target="_top" xlink:title=" ">
<polygon fill="none" stroke="black" points="232,-160.5 232,-272.5 337,-272.5 337,-160.5 232,-160.5"/>
<text text-anchor="middle" x="284.5" y="-260.5" font-family="Helvetica,sans-Serif" font-size="10.00">transport::Client</text>
<polyline fill="none" stroke="black" points="232,-253.5 337,-253.5 "/>
<text text-anchor="start" x="240" y="-241.5" font-family="Helvetica,sans-Serif" font-size="10.00">+ message_event</text>
<text text-anchor="start" x="240" y="-230.5" font-family="Helvetica,sans-Serif" font-size="10.00"># packed</text>
<polyline fill="none" stroke="black" points="232,-223.5 337,-223.5 "/>
<text text-anchor="start" x="240" y="-211.5" font-family="Helvetica,sans-Serif" font-size="10.00">+ Client()</text>
<text text-anchor="start" x="240" y="-200.5" font-family="Helvetica,sans-Serif" font-size="10.00">+ ~Client()</text>
<text text-anchor="start" x="240" y="-189.5" font-family="Helvetica,sans-Serif" font-size="10.00">+ loop()</text>
<text text-anchor="start" x="240" y="-178.5" font-family="Helvetica,sans-Serif" font-size="10.00">+ send()</text>
<text text-anchor="start" x="240" y="-167.5" font-family="Helvetica,sans-Serif" font-size="10.00">+ recv()</text>
</a>
</g>
</g>
<!-- Node1&#45;&gt;Node4 -->
<g id="edge3" class="edge">
<title>Node1&#45;&gt;Node4</title>
<path fill="none" stroke="midnightblue" d="M284.5,-321.14C284.5,-304.74 284.5,-287.87 284.5,-272.63"/>
<polygon fill="none" stroke="midnightblue" points="281,-321.28 284.5,-331.28 288,-321.28 281,-321.28"/>
</g>
<!-- Node6 -->
<g id="node6" class="node">
<title>Node6</title>
<g id="a_node6"><a xlink:href="classtransport_1_1Server.html" target="_top" xlink:title=" ">
<polygon fill="none" stroke="black" points="355,-138.5 355,-294.5 460,-294.5 460,-138.5 355,-138.5"/>
<text text-anchor="middle" x="407.5" y="-282.5" font-family="Helvetica,sans-Serif" font-size="10.00">transport::Server</text>
<polyline fill="none" stroke="black" points="355,-275.5 460,-275.5 "/>
<text text-anchor="start" x="363" y="-263.5" font-family="Helvetica,sans-Serif" font-size="10.00"># clients</text>
<text text-anchor="start" x="363" y="-252.5" font-family="Helvetica,sans-Serif" font-size="10.00"># clients_mutex</text>
<text text-anchor="start" x="363" y="-241.5" font-family="Helvetica,sans-Serif" font-size="10.00"># packed</text>
<text text-anchor="start" x="363" y="-230.5" font-family="Helvetica,sans-Serif" font-size="10.00"># message_event</text>
<polyline fill="none" stroke="black" points="355,-223.5 460,-223.5 "/>
<text text-anchor="start" x="363" y="-211.5" font-family="Helvetica,sans-Serif" font-size="10.00">+ ~Server()</text>
<text text-anchor="start" x="363" y="-200.5" font-family="Helvetica,sans-Serif" font-size="10.00">+ Server()</text>
<text text-anchor="start" x="363" y="-189.5" font-family="Helvetica,sans-Serif" font-size="10.00">+ prepare()</text>
<text text-anchor="start" x="363" y="-178.5" font-family="Helvetica,sans-Serif" font-size="10.00">+ broadcast()</text>
<text text-anchor="start" x="363" y="-167.5" font-family="Helvetica,sans-Serif" font-size="10.00">+ set_event()</text>
<text text-anchor="start" x="363" y="-156.5" font-family="Helvetica,sans-Serif" font-size="10.00">+ add()</text>
<text text-anchor="start" x="363" y="-145.5" font-family="Helvetica,sans-Serif" font-size="10.00">+ remove()</text>
</a>
</g>
</g>
<!-- Node1&#45;&gt;Node6 -->
<g id="edge5" class="edge">
<title>Node1&#45;&gt;Node6</title>
<path fill="none" stroke="midnightblue" d="M337.71,-322.75C343.91,-313.4 350.23,-303.87 356.4,-294.56"/>
<polygon fill="none" stroke="midnightblue" points="334.66,-321.01 332.06,-331.28 340.5,-324.88 334.66,-321.01"/>
</g>
<!-- Node8 -->
<g id="node8" class="node">
<title>Node8</title>
<g id="a_node8"><a xlink:href="classui.html" target="_top" xlink:title=" ">
<polygon fill="none" stroke="black" points="478,-160.5 478,-272.5 597,-272.5 597,-160.5 478,-160.5"/>
<text text-anchor="middle" x="537.5" y="-260.5" font-family="Helvetica,sans-Serif" font-size="10.00">ui</text>
<polyline fill="none" stroke="black" points="478,-253.5 597,-253.5 "/>
<text text-anchor="middle" x="537.5" y="-241.5" font-family="Helvetica,sans-Serif" font-size="10.00"> </text>
<polyline fill="none" stroke="black" points="478,-234.5 597,-234.5 "/>
<text text-anchor="start" x="486" y="-222.5" font-family="Helvetica,sans-Serif" font-size="10.00">+ ui()</text>
<text text-anchor="start" x="486" y="-211.5" font-family="Helvetica,sans-Serif" font-size="10.00">+ operator=()</text>
<text text-anchor="start" x="486" y="-200.5" font-family="Helvetica,sans-Serif" font-size="10.00">+ ~ui()</text>
<text text-anchor="start" x="486" y="-189.5" font-family="Helvetica,sans-Serif" font-size="10.00">+ attach()</text>
<text text-anchor="start" x="486" y="-178.5" font-family="Helvetica,sans-Serif" font-size="10.00">+ Instance()</text>
<text text-anchor="start" x="486" y="-167.5" font-family="Helvetica,sans-Serif" font-size="10.00">+ toggle_fullscreen()</text>
</a>
</g>
</g>
<!-- Node1&#45;&gt;Node8 -->
<g id="edge7" class="edge">
<title>Node1&#45;&gt;Node8</title>
<path fill="none" stroke="midnightblue" d="M344.58,-374.25C382.4,-354.67 431.14,-326.63 469.5,-295 477.65,-288.28 485.65,-280.54 493.15,-272.61"/>
<polygon fill="none" stroke="midnightblue" points="342.52,-371.37 335.21,-379.04 345.71,-377.6 342.52,-371.37"/>
</g>
<!-- Node5 -->
<g id="node5" class="node">
<title>Node5</title>
<g id="a_node5"><a xlink:href="classtransport_1_1TCP_1_1Client.html" target="_top" xlink:title=" ">
<polygon fill="none" stroke="black" points="217,-0.5 217,-101.5 336,-101.5 336,-0.5 217,-0.5"/>
<text text-anchor="middle" x="276.5" y="-89.5" font-family="Helvetica,sans-Serif" font-size="10.00">transport::TCP::Client</text>
<polyline fill="none" stroke="black" points="217,-82.5 336,-82.5 "/>
<text text-anchor="middle" x="276.5" y="-70.5" font-family="Helvetica,sans-Serif" font-size="10.00"> </text>
<polyline fill="none" stroke="black" points="217,-63.5 336,-63.5 "/>
<text text-anchor="start" x="225" y="-51.5" font-family="Helvetica,sans-Serif" font-size="10.00">+ Client()</text>
<text text-anchor="start" x="225" y="-40.5" font-family="Helvetica,sans-Serif" font-size="10.00">+ Client()</text>
<text text-anchor="start" x="225" y="-29.5" font-family="Helvetica,sans-Serif" font-size="10.00">+ ~Client()</text>
<text text-anchor="start" x="225" y="-18.5" font-family="Helvetica,sans-Serif" font-size="10.00">+ send()</text>
<text text-anchor="start" x="225" y="-7.5" font-family="Helvetica,sans-Serif" font-size="10.00">+ recv()</text>
</a>
</g>
</g>
<!-- Node4&#45;&gt;Node5 -->
<g id="edge4" class="edge">
<title>Node4&#45;&gt;Node5</title>
<path fill="none" stroke="midnightblue" d="M281.28,-149.73C280.5,-133.65 279.67,-116.71 278.92,-101.53"/>
<polygon fill="none" stroke="midnightblue" points="277.81,-150.33 281.79,-160.15 284.8,-149.99 277.81,-150.33"/>
</g>
<!-- Node7 -->
<g id="node7" class="node">
<title>Node7</title>
<g id="a_node7"><a xlink:href="classtransport_1_1TCP_1_1Server.html" target="_top" xlink:title=" ">
<polygon fill="none" stroke="black" points="354.5,-17 354.5,-85 476.5,-85 476.5,-17 354.5,-17"/>
<text text-anchor="middle" x="415.5" y="-73" font-family="Helvetica,sans-Serif" font-size="10.00">transport::TCP::Server</text>
<polyline fill="none" stroke="black" points="354.5,-66 476.5,-66 "/>
<text text-anchor="middle" x="415.5" y="-54" font-family="Helvetica,sans-Serif" font-size="10.00"> </text>
<polyline fill="none" stroke="black" points="354.5,-47 476.5,-47 "/>
<text text-anchor="start" x="362.5" y="-35" font-family="Helvetica,sans-Serif" font-size="10.00">+ Server()</text>
<text text-anchor="start" x="362.5" y="-24" font-family="Helvetica,sans-Serif" font-size="10.00">+ loop()</text>
</a>
</g>
</g>
<!-- Node6&#45;&gt;Node7 -->
<g id="edge6" class="edge">
<title>Node6&#45;&gt;Node7</title>
<path fill="none" stroke="midnightblue" d="M411.78,-128C412.53,-112.71 413.26,-97.69 413.88,-85.1"/>
<polygon fill="none" stroke="midnightblue" points="408.28,-127.9 411.29,-138.06 415.27,-128.24 408.28,-127.9"/>
</g>
</g>
</svg>
