<?xml version="1.0" encoding="UTF-8" standalone="no"?>
<!DOCTYPE svg PUBLIC "-//W3C//DTD SVG 1.1//EN"
 "http://www.w3.org/Graphics/SVG/1.1/DTD/svg11.dtd">
<!-- Generated by graphviz version 2.43.0 (0)
 -->
<!-- Title: logging::endpoint::serial Pages: 1 -->
<svg width="142pt" height="204pt"
 viewBox="0.00 0.00 142.00 204.00" xmlns="http://www.w3.org/2000/svg" xmlns:xlink="http://www.w3.org/1999/xlink">
<g id="graph0" class="graph" transform="scale(1 1) rotate(0) translate(4 200)">
<title>logging::endpoint::serial</title>
<!-- Node1 -->
<g id="node1" class="node">
<title>Node1</title>
<g id="a_node1"><a xlink:title=" ">
<polygon fill="#bfbfbf" stroke="black" points="13.5,-0.5 13.5,-90.5 120.5,-90.5 120.5,-0.5 13.5,-0.5"/>
<text text-anchor="start" x="21.5" y="-78.5" font-family="Helvetica,sans-Serif" font-size="10.00">logging::endpoint::</text>
<text text-anchor="middle" x="67" y="-67.5" font-family="Helvetica,sans-Serif" font-size="10.00">serial</text>
<polyline fill="none" stroke="black" points="13.5,-60.5 120.5,-60.5 "/>
<text text-anchor="middle" x="67" y="-48.5" font-family="Helvetica,sans-Serif" font-size="10.00"> </text>
<polyline fill="none" stroke="black" points="13.5,-41.5 120.5,-41.5 "/>
<text text-anchor="start" x="21.5" y="-29.5" font-family="Helvetica,sans-Serif" font-size="10.00">+ serial()</text>
<text text-anchor="start" x="21.5" y="-18.5" font-family="Helvetica,sans-Serif" font-size="10.00">+ ~serial()</text>
<text text-anchor="start" x="21.5" y="-7.5" font-family="Helvetica,sans-Serif" font-size="10.00">+ print()</text>
</a>
</g>
</g>
<!-- Node2 -->
<g id="node2" class="node">
<title>Node2</title>
<g id="a_node2"><a xlink:title=" ">
<polygon fill="none" stroke="black" points="0,-127.5 0,-195.5 134,-195.5 134,-127.5 0,-127.5"/>
<text text-anchor="start" x="8" y="-183.5" font-family="Helvetica,sans-Serif" font-size="10.00">endpoint::registrar</text>
<text text-anchor="middle" x="67" y="-172.5" font-family="Helvetica,sans-Serif" font-size="10.00">&lt; serial, config::serial &gt;</text>
<polyline fill="none" stroke="black" points="0,-165.5 134,-165.5 "/>
<text text-anchor="middle" x="67" y="-153.5" font-family="Helvetica,sans-Serif" font-size="10.00"> </text>
<polyline fill="none" stroke="black" points="0,-146.5 134,-146.5 "/>
<text text-anchor="middle" x="67" y="-134.5" font-family="Helvetica,sans-Serif" font-size="10.00"> </text>
</a>
</g>
</g>
<!-- Node2&#45;&gt;Node1 -->
<g id="edge1" class="edge">
<title>Node2&#45;&gt;Node1</title>
<path fill="none" stroke="midnightblue" d="M67,-116.97C67,-108.35 67,-99.28 67,-90.64"/>
<polygon fill="none" stroke="midnightblue" points="63.5,-117.22 67,-127.22 70.5,-117.22 63.5,-117.22"/>
</g>
</g>
</svg>
