<?xml version="1.0" encoding="UTF-8" standalone="no"?>
<!DOCTYPE svg PUBLIC "-//W3C//DTD SVG 1.1//EN"
 "http://www.w3.org/Graphics/SVG/1.1/DTD/svg11.dtd">
<!-- Generated by graphviz version 2.43.0 (0)
 -->
<!-- Title: logging::endpoint::systemd Pages: 1 -->
<svg width="146pt" height="309pt"
 viewBox="0.00 0.00 146.00 309.00" xmlns="http://www.w3.org/2000/svg" xmlns:xlink="http://www.w3.org/1999/xlink">
<g id="graph0" class="graph" transform="scale(1 1) rotate(0) translate(4 305)">
<title>logging::endpoint::systemd</title>
<!-- Node1 -->
<g id="node1" class="node">
<title>Node1</title>
<g id="a_node1"><a xlink:title=" ">
<polygon fill="#bfbfbf" stroke="black" points="15.5,-0.5 15.5,-79.5 122.5,-79.5 122.5,-0.5 15.5,-0.5"/>
<text text-anchor="start" x="23.5" y="-67.5" font-family="Helvetica,sans-Serif" font-size="10.00">logging::endpoint::</text>
<text text-anchor="middle" x="69" y="-56.5" font-family="Helvetica,sans-Serif" font-size="10.00">systemd</text>
<polyline fill="none" stroke="black" points="15.5,-49.5 122.5,-49.5 "/>
<text text-anchor="middle" x="69" y="-37.5" font-family="Helvetica,sans-Serif" font-size="10.00"> </text>
<polyline fill="none" stroke="black" points="15.5,-30.5 122.5,-30.5 "/>
<text text-anchor="start" x="23.5" y="-18.5" font-family="Helvetica,sans-Serif" font-size="10.00">+ systemd()</text>
<text text-anchor="start" x="23.5" y="-7.5" font-family="Helvetica,sans-Serif" font-size="10.00">+ print()</text>
</a>
</g>
</g>
<!-- Node2 -->
<g id="node2" class="node">
<title>Node2</title>
<g id="a_node2"><a xlink:href="structlogging_1_1endpoint_1_1endpoint.html" target="_top" xlink:title=" ">
<polygon fill="none" stroke="black" points="15.5,-116.5 15.5,-206.5 122.5,-206.5 122.5,-116.5 15.5,-116.5"/>
<text text-anchor="start" x="23.5" y="-194.5" font-family="Helvetica,sans-Serif" font-size="10.00">logging::endpoint::</text>
<text text-anchor="middle" x="69" y="-183.5" font-family="Helvetica,sans-Serif" font-size="10.00">endpoint</text>
<polyline fill="none" stroke="black" points="15.5,-176.5 122.5,-176.5 "/>
<text text-anchor="middle" x="69" y="-164.5" font-family="Helvetica,sans-Serif" font-size="10.00"> </text>
<polyline fill="none" stroke="black" points="15.5,-157.5 122.5,-157.5 "/>
<text text-anchor="start" x="23.5" y="-145.5" font-family="Helvetica,sans-Serif" font-size="10.00">+ endpoint()</text>
<text text-anchor="start" x="23.5" y="-134.5" font-family="Helvetica,sans-Serif" font-size="10.00">+ ~endpoint()</text>
<text text-anchor="start" x="23.5" y="-123.5" font-family="Helvetica,sans-Serif" font-size="10.00">+ print()</text>
</a>
</g>
</g>
<!-- Node2&#45;&gt;Node1 -->
<g id="edge1" class="edge">
<title>Node2&#45;&gt;Node1</title>
<path fill="none" stroke="midnightblue" d="M69,-106.08C69,-97.23 69,-88.23 69,-79.86"/>
<polygon fill="none" stroke="midnightblue" points="65.5,-106.34 69,-116.34 72.5,-106.34 65.5,-106.34"/>
</g>
<!-- Node3 -->
<g id="node3" class="node">
<title>Node3</title>
<g id="a_node3"><a xlink:href="classutil_1_1factory.html" target="_top" xlink:title=" ">
<polygon fill="none" stroke="black" points="0,-243.5 0,-300.5 138,-300.5 138,-243.5 0,-243.5"/>
<text text-anchor="middle" x="69" y="-288.5" font-family="Helvetica,sans-Serif" font-size="10.00">util::factory&lt; endpoint &gt;</text>
<polyline fill="none" stroke="black" points="0,-281.5 138,-281.5 "/>
<text text-anchor="start" x="8" y="-269.5" font-family="Helvetica,sans-Serif" font-size="10.00">+ base_t</text>
<polyline fill="none" stroke="black" points="0,-262.5 138,-262.5 "/>
<text text-anchor="start" x="8" y="-250.5" font-family="Helvetica,sans-Serif" font-size="10.00">+ make()</text>
</a>
</g>
</g>
<!-- Node3&#45;&gt;Node2 -->
<g id="edge2" class="edge">
<title>Node3&#45;&gt;Node2</title>
<path fill="none" stroke="midnightblue" d="M69,-233.21C69,-224.61 69,-215.39 69,-206.55"/>
<polygon fill="none" stroke="midnightblue" points="65.5,-233.34 69,-243.34 72.5,-233.34 65.5,-233.34"/>
</g>
</g>
</svg>
