<?xml version="1.0" encoding="UTF-8" standalone="no"?>
<!DOCTYPE svg PUBLIC "-//W3C//DTD SVG 1.1//EN"
 "http://www.w3.org/Graphics/SVG/1.1/DTD/svg11.dtd">
<!-- Generated by graphviz version 2.43.0 (0)
 -->
<!-- Title: RPC::Server Pages: 1 -->
<svg width="136pt" height="259pt"
 viewBox="0.00 0.00 136.00 259.00" xmlns="http://www.w3.org/2000/svg" xmlns:xlink="http://www.w3.org/1999/xlink">
<g id="graph0" class="graph" transform="scale(1 1) rotate(0) translate(4 255)">
<title>RPC::Server</title>
<!-- Node1 -->
<g id="node1" class="node">
<title>Node1</title>
<g id="a_node1"><a xlink:title=" ">
<polygon fill="#bfbfbf" stroke="black" points="22.5,-0.5 22.5,-145.5 105.5,-145.5 105.5,-0.5 22.5,-0.5"/>
<text text-anchor="middle" x="64" y="-133.5" font-family="Helvetica,sans-Serif" font-size="10.00">RPC::Server</text>
<polyline fill="none" stroke="black" points="22.5,-126.5 105.5,-126.5 "/>
<text text-anchor="start" x="30.5" y="-114.5" font-family="Helvetica,sans-Serif" font-size="10.00"># err_handler</text>
<text text-anchor="start" x="30.5" y="-103.5" font-family="Helvetica,sans-Serif" font-size="10.00"># tasks</text>
<text text-anchor="start" x="30.5" y="-92.5" font-family="Helvetica,sans-Serif" font-size="10.00"># interface</text>
<text text-anchor="start" x="30.5" y="-81.5" font-family="Helvetica,sans-Serif" font-size="10.00"># contexts</text>
<polyline fill="none" stroke="black" points="22.5,-74.5 105.5,-74.5 "/>
<text text-anchor="start" x="30.5" y="-62.5" font-family="Helvetica,sans-Serif" font-size="10.00">+ Server()</text>
<text text-anchor="start" x="30.5" y="-51.5" font-family="Helvetica,sans-Serif" font-size="10.00">+ ~Server()</text>
<text text-anchor="start" x="30.5" y="-40.5" font-family="Helvetica,sans-Serif" font-size="10.00">+ enable()</text>
<text text-anchor="start" x="30.5" y="-29.5" font-family="Helvetica,sans-Serif" font-size="10.00">+ run()</text>
<text text-anchor="start" x="30.5" y="-18.5" font-family="Helvetica,sans-Serif" font-size="10.00">+ accept()</text>
<text text-anchor="start" x="30.5" y="-7.5" font-family="Helvetica,sans-Serif" font-size="10.00"># remove()</text>
</a>
</g>
</g>
<!-- Node2 -->
<g id="node2" class="node">
<title>Node2</title>
<g id="a_node2"><a xlink:href="classutil_1_1Factory.html" target="_top" xlink:title=" ">
<polygon fill="none" stroke="black" points="0,-182.5 0,-250.5 128,-250.5 128,-182.5 0,-182.5"/>
<text text-anchor="middle" x="64" y="-238.5" font-family="Helvetica,sans-Serif" font-size="10.00">util::Factory&lt; Server &gt;</text>
<polyline fill="none" stroke="black" points="0,-231.5 128,-231.5 "/>
<text text-anchor="start" x="8" y="-219.5" font-family="Helvetica,sans-Serif" font-size="10.00">+ base_t</text>
<polyline fill="none" stroke="black" points="0,-212.5 128,-212.5 "/>
<text text-anchor="start" x="8" y="-200.5" font-family="Helvetica,sans-Serif" font-size="10.00">+ make()</text>
<text text-anchor="start" x="8" y="-189.5" font-family="Helvetica,sans-Serif" font-size="10.00">+ map()</text>
</a>
</g>
</g>
<!-- Node2&#45;&gt;Node1 -->
<g id="edge1" class="edge">
<title>Node2&#45;&gt;Node1</title>
<path fill="none" stroke="midnightblue" d="M64,-172.09C64,-163.73 64,-154.76 64,-145.77"/>
<polygon fill="none" stroke="midnightblue" points="60.5,-172.32 64,-182.32 67.5,-172.32 60.5,-172.32"/>
</g>
</g>
</svg>
