<?xml version="1.0" encoding="UTF-8" standalone="no"?>
<!DOCTYPE svg PUBLIC "-//W3C//DTD SVG 1.1//EN"
 "http://www.w3.org/Graphics/SVG/1.1/DTD/svg11.dtd">
<!-- Generated by graphviz version 2.43.0 (0)
 -->
<!-- Title: RPC::TCP::Client Pages: 1 -->
<svg width="126pt" height="204pt"
 viewBox="0.00 0.00 126.00 204.00" xmlns="http://www.w3.org/2000/svg" xmlns:xlink="http://www.w3.org/1999/xlink">
<g id="graph0" class="graph" transform="scale(1 1) rotate(0) translate(4 200)">
<title>RPC::TCP::Client</title>
<!-- Node1 -->
<g id="node1" class="node">
<title>Node1</title>
<g id="a_node1"><a xlink:title=" ">
<polygon fill="#bfbfbf" stroke="black" points="11.5,-0.5 11.5,-79.5 106.5,-79.5 106.5,-0.5 11.5,-0.5"/>
<text text-anchor="middle" x="59" y="-67.5" font-family="Helvetica,sans-Serif" font-size="10.00">RPC::TCP::Client</text>
<polyline fill="none" stroke="black" points="11.5,-60.5 106.5,-60.5 "/>
<text text-anchor="middle" x="59" y="-48.5" font-family="Helvetica,sans-Serif" font-size="10.00"> </text>
<polyline fill="none" stroke="black" points="11.5,-41.5 106.5,-41.5 "/>
<text text-anchor="start" x="19.5" y="-29.5" font-family="Helvetica,sans-Serif" font-size="10.00">+ Client()</text>
<text text-anchor="start" x="19.5" y="-18.5" font-family="Helvetica,sans-Serif" font-size="10.00">+ ~Client()</text>
<text text-anchor="start" x="19.5" y="-7.5" font-family="Helvetica,sans-Serif" font-size="10.00">+ wait_scope()</text>
</a>
</g>
</g>
<!-- Node2 -->
<g id="node2" class="node">
<title>Node2</title>
<g id="a_node2"><a xlink:title=" ">
<polygon fill="none" stroke="black" points="0,-116.5 0,-195.5 118,-195.5 118,-116.5 0,-116.5"/>
<text text-anchor="start" x="8" y="-183.5" font-family="Helvetica,sans-Serif" font-size="10.00">RPC::Client::registrar</text>
<text text-anchor="start" x="8" y="-172.5" font-family="Helvetica,sans-Serif" font-size="10.00">&lt; Client, config::rpc</text>
<text text-anchor="middle" x="59" y="-161.5" font-family="Helvetica,sans-Serif" font-size="10.00">_tcp_client &gt;</text>
<polyline fill="none" stroke="black" points="0,-154.5 118,-154.5 "/>
<text text-anchor="middle" x="59" y="-142.5" font-family="Helvetica,sans-Serif" font-size="10.00"> </text>
<polyline fill="none" stroke="black" points="0,-135.5 118,-135.5 "/>
<text text-anchor="middle" x="59" y="-123.5" font-family="Helvetica,sans-Serif" font-size="10.00"> </text>
</a>
</g>
</g>
<!-- Node2&#45;&gt;Node1 -->
<g id="edge1" class="edge">
<title>Node2&#45;&gt;Node1</title>
<path fill="none" stroke="midnightblue" d="M59,-106.15C59,-97.26 59,-88.1 59,-79.56"/>
<polygon fill="none" stroke="midnightblue" points="55.5,-106.4 59,-116.4 62.5,-106.4 55.5,-106.4"/>
</g>
</g>
</svg>
