<?xml version="1.0" encoding="UTF-8" standalone="no"?>
<!DOCTYPE svg PUBLIC "-//W3C//DTD SVG 1.1//EN"
 "http://www.w3.org/Graphics/SVG/1.1/DTD/svg11.dtd">
<!-- Generated by graphviz version 2.43.0 (0)
 -->
<!-- Title: config::parser::parser Pages: 1 -->
<svg width="254pt" height="215pt"
 viewBox="0.00 0.00 254.00 215.00" xmlns="http://www.w3.org/2000/svg" xmlns:xlink="http://www.w3.org/1999/xlink">
<g id="graph0" class="graph" transform="scale(1 1) rotate(0) translate(4 211)">
<title>config::parser::parser</title>
<!-- Node1 -->
<g id="node1" class="node">
<title>Node1</title>
<g id="a_node1"><a xlink:title=" ">
<polygon fill="#bfbfbf" stroke="black" points="56.5,-127.5 56.5,-206.5 175.5,-206.5 175.5,-127.5 56.5,-127.5"/>
<text text-anchor="middle" x="116" y="-194.5" font-family="Helvetica,sans-Serif" font-size="10.00">config::parser::parser</text>
<polyline fill="none" stroke="black" points="56.5,-187.5 175.5,-187.5 "/>
<text text-anchor="start" x="64.5" y="-175.5" font-family="Helvetica,sans-Serif" font-size="10.00"># options</text>
<polyline fill="none" stroke="black" points="56.5,-168.5 175.5,-168.5 "/>
<text text-anchor="start" x="64.5" y="-156.5" font-family="Helvetica,sans-Serif" font-size="10.00">+ ~parser()</text>
<text text-anchor="start" x="64.5" y="-145.5" font-family="Helvetica,sans-Serif" font-size="10.00">+ get()</text>
<text text-anchor="start" x="64.5" y="-134.5" font-family="Helvetica,sans-Serif" font-size="10.00">+ print()</text>
</a>
</g>
</g>
<!-- Node2 -->
<g id="node2" class="node">
<title>Node2</title>
<g id="a_node2"><a xlink:href="classconfig_1_1parser_1_1cli.html" target="_top" xlink:title=" ">
<polygon fill="none" stroke="black" points="0,-0.5 0,-90.5 100,-90.5 100,-0.5 0,-0.5"/>
<text text-anchor="middle" x="50" y="-78.5" font-family="Helvetica,sans-Serif" font-size="10.00">config::parser::cli</text>
<polyline fill="none" stroke="black" points="0,-71.5 100,-71.5 "/>
<text text-anchor="middle" x="50" y="-59.5" font-family="Helvetica,sans-Serif" font-size="10.00"> </text>
<polyline fill="none" stroke="black" points="0,-52.5 100,-52.5 "/>
<text text-anchor="start" x="8" y="-40.5" font-family="Helvetica,sans-Serif" font-size="10.00">+ set_defaults()</text>
<text text-anchor="start" x="8" y="-29.5" font-family="Helvetica,sans-Serif" font-size="10.00">+ parse()</text>
<text text-anchor="start" x="8" y="-18.5" font-family="Helvetica,sans-Serif" font-size="10.00">+ help()</text>
<text text-anchor="start" x="8" y="-7.5" font-family="Helvetica,sans-Serif" font-size="10.00">+ get()</text>
</a>
</g>
</g>
<!-- Node1&#45;&gt;Node2 -->
<g id="edge1" class="edge">
<title>Node1&#45;&gt;Node2</title>
<path fill="none" stroke="midnightblue" d="M89.67,-118.32C84.67,-109.28 79.46,-99.85 74.53,-90.91"/>
<polygon fill="none" stroke="midnightblue" points="86.67,-120.14 94.57,-127.2 92.8,-116.76 86.67,-120.14"/>
</g>
<!-- Node3 -->
<g id="node3" class="node">
<title>Node3</title>
<g id="a_node3"><a xlink:href="classconfig_1_1parser_1_1settings.html" target="_top" xlink:title=" ">
<polygon fill="none" stroke="black" points="118,-6 118,-85 246,-85 246,-6 118,-6"/>
<text text-anchor="middle" x="182" y="-73" font-family="Helvetica,sans-Serif" font-size="10.00">config::parser::settings</text>
<polyline fill="none" stroke="black" points="118,-66 246,-66 "/>
<text text-anchor="middle" x="182" y="-54" font-family="Helvetica,sans-Serif" font-size="10.00"> </text>
<polyline fill="none" stroke="black" points="118,-47 246,-47 "/>
<text text-anchor="start" x="126" y="-35" font-family="Helvetica,sans-Serif" font-size="10.00">+ set_defaults()</text>
<text text-anchor="start" x="126" y="-24" font-family="Helvetica,sans-Serif" font-size="10.00">+ parse()</text>
<text text-anchor="start" x="126" y="-13" font-family="Helvetica,sans-Serif" font-size="10.00">+ get()</text>
</a>
</g>
</g>
<!-- Node1&#45;&gt;Node3 -->
<g id="edge2" class="edge">
<title>Node1&#45;&gt;Node3</title>
<path fill="none" stroke="midnightblue" d="M142.43,-118.15C148.49,-107.17 154.86,-95.63 160.68,-85.1"/>
<polygon fill="none" stroke="midnightblue" points="139.2,-116.76 137.43,-127.2 145.33,-120.14 139.2,-116.76"/>
</g>
</g>
</svg>
