<?xml version="1.0" encoding="UTF-8" standalone="no"?>
<!DOCTYPE svg PUBLIC "-//W3C//DTD SVG 1.1//EN"
 "http://www.w3.org/Graphics/SVG/1.1/DTD/svg11.dtd">
<!-- Generated by graphviz version 2.43.0 (0)
 -->
<!-- Title: transport::server Pages: 1 -->
<svg width="127pt" height="452pt"
 viewBox="0.00 0.00 127.00 452.00" xmlns="http://www.w3.org/2000/svg" xmlns:xlink="http://www.w3.org/1999/xlink">
<g id="graph0" class="graph" transform="scale(1 1) rotate(0) translate(4 448)">
<title>transport::server</title>
<!-- Node1 -->
<g id="node1" class="node">
<title>Node1</title>
<g id="a_node1"><a xlink:title=" ">
<polygon fill="#bfbfbf" stroke="black" points="7,-105.5 7,-261.5 112,-261.5 112,-105.5 7,-105.5"/>
<text text-anchor="middle" x="59.5" y="-249.5" font-family="Helvetica,sans-Serif" font-size="10.00">transport::server</text>
<polyline fill="none" stroke="black" points="7,-242.5 112,-242.5 "/>
<text text-anchor="start" x="15" y="-230.5" font-family="Helvetica,sans-Serif" font-size="10.00"># clients</text>
<text text-anchor="start" x="15" y="-219.5" font-family="Helvetica,sans-Serif" font-size="10.00"># clients_mutex</text>
<text text-anchor="start" x="15" y="-208.5" font-family="Helvetica,sans-Serif" font-size="10.00"># packed</text>
<text text-anchor="start" x="15" y="-197.5" font-family="Helvetica,sans-Serif" font-size="10.00"># message_event</text>
<polyline fill="none" stroke="black" points="7,-190.5 112,-190.5 "/>
<text text-anchor="start" x="15" y="-178.5" font-family="Helvetica,sans-Serif" font-size="10.00">+ ~server()</text>
<text text-anchor="start" x="15" y="-167.5" font-family="Helvetica,sans-Serif" font-size="10.00">+ server()</text>
<text text-anchor="start" x="15" y="-156.5" font-family="Helvetica,sans-Serif" font-size="10.00">+ prepare()</text>
<text text-anchor="start" x="15" y="-145.5" font-family="Helvetica,sans-Serif" font-size="10.00">+ broadcast()</text>
<text text-anchor="start" x="15" y="-134.5" font-family="Helvetica,sans-Serif" font-size="10.00">+ set_event()</text>
<text text-anchor="start" x="15" y="-123.5" font-family="Helvetica,sans-Serif" font-size="10.00">+ add()</text>
<text text-anchor="start" x="15" y="-112.5" font-family="Helvetica,sans-Serif" font-size="10.00">+ remove()</text>
</a>
</g>
</g>
<!-- Node3 -->
<g id="node3" class="node">
<title>Node3</title>
<g id="a_node3"><a xlink:href="classtransport_1_1tcp_1_1server.html" target="_top" xlink:title=" ">
<polygon fill="none" stroke="black" points="0,-0.5 0,-68.5 119,-68.5 119,-0.5 0,-0.5"/>
<text text-anchor="middle" x="59.5" y="-56.5" font-family="Helvetica,sans-Serif" font-size="10.00">transport::tcp::server</text>
<polyline fill="none" stroke="black" points="0,-49.5 119,-49.5 "/>
<text text-anchor="middle" x="59.5" y="-37.5" font-family="Helvetica,sans-Serif" font-size="10.00"> </text>
<polyline fill="none" stroke="black" points="0,-30.5 119,-30.5 "/>
<text text-anchor="start" x="8" y="-18.5" font-family="Helvetica,sans-Serif" font-size="10.00">+ server()</text>
<text text-anchor="start" x="8" y="-7.5" font-family="Helvetica,sans-Serif" font-size="10.00">+ loop()</text>
</a>
</g>
</g>
<!-- Node1&#45;&gt;Node3 -->
<g id="edge2" class="edge">
<title>Node1&#45;&gt;Node3</title>
<path fill="none" stroke="midnightblue" d="M59.5,-94.94C59.5,-85.63 59.5,-76.64 59.5,-68.59"/>
<polygon fill="none" stroke="midnightblue" points="56,-95.13 59.5,-105.13 63,-95.13 56,-95.13"/>
</g>
<!-- Node2 -->
<g id="node2" class="node">
<title>Node2</title>
<g id="a_node2"><a xlink:href="classrunnable.html" target="_top" xlink:title=" ">
<polygon fill="none" stroke="black" points="9,-298.5 9,-443.5 110,-443.5 110,-298.5 9,-298.5"/>
<text text-anchor="middle" x="59.5" y="-431.5" font-family="Helvetica,sans-Serif" font-size="10.00">runnable</text>
<polyline fill="none" stroke="black" points="9,-424.5 110,-424.5 "/>
<text text-anchor="start" x="17" y="-412.5" font-family="Helvetica,sans-Serif" font-size="10.00"># thread</text>
<text text-anchor="start" x="17" y="-401.5" font-family="Helvetica,sans-Serif" font-size="10.00"># callback</text>
<polyline fill="none" stroke="black" points="9,-394.5 110,-394.5 "/>
<text text-anchor="start" x="17" y="-382.5" font-family="Helvetica,sans-Serif" font-size="10.00">+ runnable()</text>
<text text-anchor="start" x="17" y="-371.5" font-family="Helvetica,sans-Serif" font-size="10.00">+ ~runnable()</text>
<text text-anchor="start" x="17" y="-360.5" font-family="Helvetica,sans-Serif" font-size="10.00">+ operator()()</text>
<text text-anchor="start" x="17" y="-349.5" font-family="Helvetica,sans-Serif" font-size="10.00">+ run()</text>
<text text-anchor="start" x="17" y="-338.5" font-family="Helvetica,sans-Serif" font-size="10.00">+ run()</text>
<text text-anchor="start" x="17" y="-327.5" font-family="Helvetica,sans-Serif" font-size="10.00">+ stop()</text>
<text text-anchor="start" x="17" y="-316.5" font-family="Helvetica,sans-Serif" font-size="10.00">+ operator&lt;=&gt;()</text>
<text text-anchor="start" x="17" y="-305.5" font-family="Helvetica,sans-Serif" font-size="10.00"># loop()</text>
</a>
</g>
</g>
<!-- Node2&#45;&gt;Node1 -->
<g id="edge1" class="edge">
<title>Node2&#45;&gt;Node1</title>
<path fill="none" stroke="midnightblue" d="M59.5,-288.03C59.5,-279.23 59.5,-270.3 59.5,-261.56"/>
<polygon fill="none" stroke="midnightblue" points="56,-288.28 59.5,-298.28 63,-288.28 56,-288.28"/>
</g>
</g>
</svg>
