<?xml version="1.0" encoding="UTF-8" standalone="no"?>
<!DOCTYPE svg PUBLIC "-//W3C//DTD SVG 1.1//EN"
 "http://www.w3.org/Graphics/SVG/1.1/DTD/svg11.dtd">
<!-- Generated by graphviz version 2.43.0 (0)
 -->
<!-- Title: RPC::Server Pages: 1 -->
<svg width="106pt" height="237pt"
 viewBox="0.00 0.00 106.00 237.00" xmlns="http://www.w3.org/2000/svg" xmlns:xlink="http://www.w3.org/1999/xlink">
<g id="graph0" class="graph" transform="scale(1 1) rotate(0) translate(4 233)">
<title>RPC::Server</title>
<!-- Node1 -->
<g id="node1" class="node">
<title>Node1</title>
<g id="a_node1"><a xlink:title=" ">
<polygon fill="#bfbfbf" stroke="black" points="11.5,-116.5 11.5,-228.5 86.5,-228.5 86.5,-116.5 11.5,-116.5"/>
<text text-anchor="middle" x="49" y="-216.5" font-family="Helvetica,sans-Serif" font-size="10.00">RPC::Server</text>
<polyline fill="none" stroke="black" points="11.5,-209.5 86.5,-209.5 "/>
<text text-anchor="start" x="19.5" y="-197.5" font-family="Helvetica,sans-Serif" font-size="10.00"># tasks</text>
<text text-anchor="start" x="19.5" y="-186.5" font-family="Helvetica,sans-Serif" font-size="10.00"># interface</text>
<text text-anchor="start" x="19.5" y="-175.5" font-family="Helvetica,sans-Serif" font-size="10.00"># clients</text>
<polyline fill="none" stroke="black" points="11.5,-168.5 86.5,-168.5 "/>
<text text-anchor="start" x="19.5" y="-156.5" font-family="Helvetica,sans-Serif" font-size="10.00">+ Server()</text>
<text text-anchor="start" x="19.5" y="-145.5" font-family="Helvetica,sans-Serif" font-size="10.00">+ ~Server()</text>
<text text-anchor="start" x="19.5" y="-134.5" font-family="Helvetica,sans-Serif" font-size="10.00">+ accept()</text>
<text text-anchor="start" x="19.5" y="-123.5" font-family="Helvetica,sans-Serif" font-size="10.00"># remove()</text>
</a>
</g>
</g>
<!-- Node2 -->
<g id="node2" class="node">
<title>Node2</title>
<g id="a_node2"><a xlink:href="classRPC_1_1TCP_1_1Server.html" target="_top" xlink:title=" ">
<polygon fill="none" stroke="black" points="0,-0.5 0,-79.5 98,-79.5 98,-0.5 0,-0.5"/>
<text text-anchor="middle" x="49" y="-67.5" font-family="Helvetica,sans-Serif" font-size="10.00">RPC::TCP::Server</text>
<polyline fill="none" stroke="black" points="0,-60.5 98,-60.5 "/>
<text text-anchor="middle" x="49" y="-48.5" font-family="Helvetica,sans-Serif" font-size="10.00"> </text>
<polyline fill="none" stroke="black" points="0,-41.5 98,-41.5 "/>
<text text-anchor="start" x="8" y="-29.5" font-family="Helvetica,sans-Serif" font-size="10.00">+ Server()</text>
<text text-anchor="start" x="8" y="-18.5" font-family="Helvetica,sans-Serif" font-size="10.00">+ ~Server()</text>
<text text-anchor="start" x="8" y="-7.5" font-family="Helvetica,sans-Serif" font-size="10.00">+ run()</text>
</a>
</g>
</g>
<!-- Node1&#45;&gt;Node2 -->
<g id="edge1" class="edge">
<title>Node1&#45;&gt;Node2</title>
<path fill="none" stroke="midnightblue" d="M49,-106.06C49,-97.08 49,-88.11 49,-79.82"/>
<polygon fill="none" stroke="midnightblue" points="45.5,-106.16 49,-116.16 52.5,-106.16 45.5,-106.16"/>
</g>
</g>
</svg>
