<?xml version="1.0" encoding="UTF-8" standalone="no"?>
<!DOCTYPE svg PUBLIC "-//W3C//DTD SVG 1.1//EN"
 "http://www.w3.org/Graphics/SVG/1.1/DTD/svg11.dtd">
<!-- Generated by graphviz version 2.43.0 (0)
 -->
<!-- Title: logging::endpoint::file Pages: 1 -->
<svg width="130pt" height="215pt"
 viewBox="0.00 0.00 130.00 215.00" xmlns="http://www.w3.org/2000/svg" xmlns:xlink="http://www.w3.org/1999/xlink">
<g id="graph0" class="graph" transform="scale(1 1) rotate(0) translate(4 211)">
<title>logging::endpoint::file</title>
<!-- Node1 -->
<g id="node1" class="node">
<title>Node1</title>
<g id="a_node1"><a xlink:title=" ">
<polygon fill="#bfbfbf" stroke="black" points="0,-0.5 0,-90.5 122,-90.5 122,-0.5 0,-0.5"/>
<text text-anchor="middle" x="61" y="-78.5" font-family="Helvetica,sans-Serif" font-size="10.00">logging::endpoint::file</text>
<polyline fill="none" stroke="black" points="0,-71.5 122,-71.5 "/>
<text text-anchor="middle" x="61" y="-59.5" font-family="Helvetica,sans-Serif" font-size="10.00"> </text>
<polyline fill="none" stroke="black" points="0,-52.5 122,-52.5 "/>
<text text-anchor="start" x="8" y="-40.5" font-family="Helvetica,sans-Serif" font-size="10.00">+ file()</text>
<text text-anchor="start" x="8" y="-29.5" font-family="Helvetica,sans-Serif" font-size="10.00">+ file()</text>
<text text-anchor="start" x="8" y="-18.5" font-family="Helvetica,sans-Serif" font-size="10.00">+ file()</text>
<text text-anchor="start" x="8" y="-7.5" font-family="Helvetica,sans-Serif" font-size="10.00">+ print()</text>
</a>
</g>
</g>
<!-- Node2 -->
<g id="node2" class="node">
<title>Node2</title>
<g id="a_node2"><a xlink:href="classlogging_1_1endpoint_1_1endpoint.html" target="_top" xlink:title=" ">
<polygon fill="none" stroke="black" points="7.5,-127.5 7.5,-206.5 114.5,-206.5 114.5,-127.5 7.5,-127.5"/>
<text text-anchor="start" x="15.5" y="-194.5" font-family="Helvetica,sans-Serif" font-size="10.00">logging::endpoint::</text>
<text text-anchor="middle" x="61" y="-183.5" font-family="Helvetica,sans-Serif" font-size="10.00">endpoint</text>
<polyline fill="none" stroke="black" points="7.5,-176.5 114.5,-176.5 "/>
<text text-anchor="middle" x="61" y="-164.5" font-family="Helvetica,sans-Serif" font-size="10.00"> </text>
<polyline fill="none" stroke="black" points="7.5,-157.5 114.5,-157.5 "/>
<text text-anchor="start" x="15.5" y="-145.5" font-family="Helvetica,sans-Serif" font-size="10.00">+ ~endpoint()</text>
<text text-anchor="start" x="15.5" y="-134.5" font-family="Helvetica,sans-Serif" font-size="10.00">+ print()</text>
</a>
</g>
</g>
<!-- Node2&#45;&gt;Node1 -->
<g id="edge1" class="edge">
<title>Node2&#45;&gt;Node1</title>
<path fill="none" stroke="midnightblue" d="M61,-117.19C61,-108.49 61,-99.48 61,-90.91"/>
<polygon fill="none" stroke="midnightblue" points="57.5,-117.2 61,-127.2 64.5,-117.2 57.5,-117.2"/>
</g>
</g>
</svg>
