<?xml version="1.0" encoding="UTF-8" standalone="no"?>
<!DOCTYPE svg PUBLIC "-//W3C//DTD SVG 1.1//EN"
 "http://www.w3.org/Graphics/SVG/1.1/DTD/svg11.dtd">
<!-- Generated by graphviz version 2.43.0 (0)
 -->
<!-- Title: logging::endpoint::file Pages: 1 -->
<svg width="146pt" height="320pt"
 viewBox="0.00 0.00 146.00 320.00" xmlns="http://www.w3.org/2000/svg" xmlns:xlink="http://www.w3.org/1999/xlink">
<g id="graph0" class="graph" transform="scale(1 1) rotate(0) translate(4 316)">
<title>logging::endpoint::file</title>
<!-- Node1 -->
<g id="node1" class="node">
<title>Node1</title>
<g id="a_node1"><a xlink:title=" ">
<polygon fill="#bfbfbf" stroke="black" points="8,-0.5 8,-90.5 130,-90.5 130,-0.5 8,-0.5"/>
<text text-anchor="middle" x="69" y="-78.5" font-family="Helvetica,sans-Serif" font-size="10.00">logging::endpoint::file</text>
<polyline fill="none" stroke="black" points="8,-71.5 130,-71.5 "/>
<text text-anchor="middle" x="69" y="-59.5" font-family="Helvetica,sans-Serif" font-size="10.00"> </text>
<polyline fill="none" stroke="black" points="8,-52.5 130,-52.5 "/>
<text text-anchor="start" x="16" y="-40.5" font-family="Helvetica,sans-Serif" font-size="10.00">+ file()</text>
<text text-anchor="start" x="16" y="-29.5" font-family="Helvetica,sans-Serif" font-size="10.00">+ file()</text>
<text text-anchor="start" x="16" y="-18.5" font-family="Helvetica,sans-Serif" font-size="10.00">+ file()</text>
<text text-anchor="start" x="16" y="-7.5" font-family="Helvetica,sans-Serif" font-size="10.00">+ print()</text>
</a>
</g>
</g>
<!-- Node2 -->
<g id="node2" class="node">
<title>Node2</title>
<g id="a_node2"><a xlink:href="structlogging_1_1endpoint_1_1endpoint.html" target="_top" xlink:title=" ">
<polygon fill="none" stroke="black" points="15.5,-127.5 15.5,-217.5 122.5,-217.5 122.5,-127.5 15.5,-127.5"/>
<text text-anchor="start" x="23.5" y="-205.5" font-family="Helvetica,sans-Serif" font-size="10.00">logging::endpoint::</text>
<text text-anchor="middle" x="69" y="-194.5" font-family="Helvetica,sans-Serif" font-size="10.00">endpoint</text>
<polyline fill="none" stroke="black" points="15.5,-187.5 122.5,-187.5 "/>
<text text-anchor="middle" x="69" y="-175.5" font-family="Helvetica,sans-Serif" font-size="10.00"> </text>
<polyline fill="none" stroke="black" points="15.5,-168.5 122.5,-168.5 "/>
<text text-anchor="start" x="23.5" y="-156.5" font-family="Helvetica,sans-Serif" font-size="10.00">+ endpoint()</text>
<text text-anchor="start" x="23.5" y="-145.5" font-family="Helvetica,sans-Serif" font-size="10.00">+ ~endpoint()</text>
<text text-anchor="start" x="23.5" y="-134.5" font-family="Helvetica,sans-Serif" font-size="10.00">+ print()</text>
</a>
</g>
</g>
<!-- Node2&#45;&gt;Node1 -->
<g id="edge1" class="edge">
<title>Node2&#45;&gt;Node1</title>
<path fill="none" stroke="midnightblue" d="M69,-117.16C69,-108.28 69,-99.18 69,-90.59"/>
<polygon fill="none" stroke="midnightblue" points="65.5,-117.43 69,-127.43 72.5,-117.43 65.5,-117.43"/>
</g>
<!-- Node3 -->
<g id="node3" class="node">
<title>Node3</title>
<g id="a_node3"><a xlink:href="classutil_1_1factory.html" target="_top" xlink:title=" ">
<polygon fill="none" stroke="black" points="0,-254.5 0,-311.5 138,-311.5 138,-254.5 0,-254.5"/>
<text text-anchor="middle" x="69" y="-299.5" font-family="Helvetica,sans-Serif" font-size="10.00">util::factory&lt; endpoint &gt;</text>
<polyline fill="none" stroke="black" points="0,-292.5 138,-292.5 "/>
<text text-anchor="start" x="8" y="-280.5" font-family="Helvetica,sans-Serif" font-size="10.00">+ base_t</text>
<polyline fill="none" stroke="black" points="0,-273.5 138,-273.5 "/>
<text text-anchor="start" x="8" y="-261.5" font-family="Helvetica,sans-Serif" font-size="10.00">+ make()</text>
</a>
</g>
</g>
<!-- Node3&#45;&gt;Node2 -->
<g id="edge2" class="edge">
<title>Node3&#45;&gt;Node2</title>
<path fill="none" stroke="midnightblue" d="M69,-244.21C69,-235.61 69,-226.39 69,-217.55"/>
<polygon fill="none" stroke="midnightblue" points="65.5,-244.34 69,-254.34 72.5,-244.34 65.5,-244.34"/>
</g>
</g>
</svg>
