<?xml version="1.0" encoding="UTF-8" standalone="no"?>
<!DOCTYPE svg PUBLIC "-//W3C//DTD SVG 1.1//EN"
 "http://www.w3.org/Graphics/SVG/1.1/DTD/svg11.dtd">
<!-- Generated by graphviz version 2.43.0 (0)
 -->
<!-- Title: transport::TCP::Server Pages: 1 -->
<svg width="130pt" height="314pt"
 viewBox="0.00 0.00 130.00 314.00" xmlns="http://www.w3.org/2000/svg" xmlns:xlink="http://www.w3.org/1999/xlink">
<g id="graph0" class="graph" transform="scale(1 1) rotate(0) translate(4 310)">
<title>transport::TCP::Server</title>
<!-- Node1 -->
<g id="node1" class="node">
<title>Node1</title>
<g id="a_node1"><a xlink:title=" ">
<polygon fill="#bfbfbf" stroke="black" points="0,-0.5 0,-79.5 122,-79.5 122,-0.5 0,-0.5"/>
<text text-anchor="middle" x="61" y="-67.5" font-family="Helvetica,sans-Serif" font-size="10.00">transport::TCP::Server</text>
<polyline fill="none" stroke="black" points="0,-60.5 122,-60.5 "/>
<text text-anchor="middle" x="61" y="-48.5" font-family="Helvetica,sans-Serif" font-size="10.00"> </text>
<polyline fill="none" stroke="black" points="0,-41.5 122,-41.5 "/>
<text text-anchor="start" x="8" y="-29.5" font-family="Helvetica,sans-Serif" font-size="10.00">+ Server()</text>
<text text-anchor="start" x="8" y="-18.5" font-family="Helvetica,sans-Serif" font-size="10.00">+ ~Server()</text>
<text text-anchor="start" x="8" y="-7.5" font-family="Helvetica,sans-Serif" font-size="10.00">+ run()</text>
</a>
</g>
</g>
<!-- Node2 -->
<g id="node2" class="node">
<title>Node2</title>
<g id="a_node2"><a xlink:href="classtransport_1_1Server.html" target="_top" xlink:title=" ">
<polygon fill="none" stroke="black" points="8.5,-116.5 8.5,-305.5 113.5,-305.5 113.5,-116.5 8.5,-116.5"/>
<text text-anchor="middle" x="61" y="-293.5" font-family="Helvetica,sans-Serif" font-size="10.00">transport::Server</text>
<polyline fill="none" stroke="black" points="8.5,-286.5 113.5,-286.5 "/>
<text text-anchor="start" x="16.5" y="-274.5" font-family="Helvetica,sans-Serif" font-size="10.00"># tasks</text>
<text text-anchor="start" x="16.5" y="-263.5" font-family="Helvetica,sans-Serif" font-size="10.00"># interface</text>
<text text-anchor="start" x="16.5" y="-252.5" font-family="Helvetica,sans-Serif" font-size="10.00"># clients_mutex</text>
<text text-anchor="start" x="16.5" y="-241.5" font-family="Helvetica,sans-Serif" font-size="10.00"># clients</text>
<text text-anchor="start" x="16.5" y="-230.5" font-family="Helvetica,sans-Serif" font-size="10.00"># message_event</text>
<text text-anchor="start" x="16.5" y="-219.5" font-family="Helvetica,sans-Serif" font-size="10.00"># packed</text>
<polyline fill="none" stroke="black" points="8.5,-212.5 113.5,-212.5 "/>
<text text-anchor="start" x="16.5" y="-200.5" font-family="Helvetica,sans-Serif" font-size="10.00">+ Server()</text>
<text text-anchor="start" x="16.5" y="-189.5" font-family="Helvetica,sans-Serif" font-size="10.00">+ ~Server()</text>
<text text-anchor="start" x="16.5" y="-178.5" font-family="Helvetica,sans-Serif" font-size="10.00">+ run()</text>
<text text-anchor="start" x="16.5" y="-167.5" font-family="Helvetica,sans-Serif" font-size="10.00">+ accept()</text>
<text text-anchor="start" x="16.5" y="-156.5" font-family="Helvetica,sans-Serif" font-size="10.00">+ prepare()</text>
<text text-anchor="start" x="16.5" y="-145.5" font-family="Helvetica,sans-Serif" font-size="10.00">+ broadcast()</text>
<text text-anchor="start" x="16.5" y="-134.5" font-family="Helvetica,sans-Serif" font-size="10.00">+ set_event()</text>
<text text-anchor="start" x="16.5" y="-123.5" font-family="Helvetica,sans-Serif" font-size="10.00"># remove()</text>
</a>
</g>
</g>
<!-- Node2&#45;&gt;Node1 -->
<g id="edge1" class="edge">
<title>Node2&#45;&gt;Node1</title>
<path fill="none" stroke="midnightblue" d="M61,-106.02C61,-96.82 61,-87.95 61,-79.87"/>
<polygon fill="none" stroke="midnightblue" points="57.5,-106.11 61,-116.11 64.5,-106.11 57.5,-106.11"/>
</g>
</g>
</svg>
