<?xml version="1.0" encoding="UTF-8" standalone="no"?>
<!DOCTYPE svg PUBLIC "-//W3C//DTD SVG 1.1//EN"
 "http://www.w3.org/Graphics/SVG/1.1/DTD/svg11.dtd">
<!-- Generated by graphviz version 2.43.0 (0)
 -->
<!-- Title: Graphical Class Hierarchy Pages: 1 -->
<svg width="273pt" height="127pt"
 viewBox="0.00 0.00 273.00 126.50" xmlns="http://www.w3.org/2000/svg" xmlns:xlink="http://www.w3.org/1999/xlink">
<g id="graph0" class="graph" transform="scale(1 1) rotate(0) translate(4 122.5)">
<title>Graphical Class Hierarchy</title>
<!-- Node0 -->
<g id="node1" class="node">
<title>Node0</title>
<g id="a_node1"><a xlink:title=" ">
<polygon fill="none" stroke="#bfbfbf" points="0,-55 0,-74 107,-74 107,-55 0,-55"/>
<text text-anchor="middle" x="53.5" y="-62" font-family="Helvetica,sans-Serif" font-size="10.00">Endpoint::registrar</text>
</a>
</g>
</g>
<!-- Node1 -->
<g id="node2" class="node">
<title>Node1</title>
<g id="a_node2"><a xlink:href="classlogging_1_1endpoint_1_1file.html" target="_top" xlink:title=" ">
<polygon fill="none" stroke="black" points="143,-99 143,-118 265,-118 265,-99 143,-99"/>
<text text-anchor="middle" x="204" y="-106" font-family="Helvetica,sans-Serif" font-size="10.00">logging::endpoint::file</text>
</a>
</g>
</g>
<!-- Node0&#45;&gt;Node1 -->
<g id="edge1" class="edge">
<title>Node0&#45;&gt;Node1</title>
<path fill="none" stroke="midnightblue" d="M96.47,-76.93C120.06,-83.93 149.06,-92.52 170.84,-98.97"/>
<polygon fill="midnightblue" stroke="midnightblue" points="97.3,-73.53 86.72,-74.05 95.32,-80.24 97.3,-73.53"/>
</g>
<!-- Node2 -->
<g id="node3" class="node">
<title>Node2</title>
<g id="a_node3"><a xlink:href="classlogging_1_1endpoint_1_1serial.html" target="_top" xlink:title=" ">
<polygon fill="none" stroke="black" points="150.5,-49.5 150.5,-79.5 257.5,-79.5 257.5,-49.5 150.5,-49.5"/>
<text text-anchor="start" x="158.5" y="-67.5" font-family="Helvetica,sans-Serif" font-size="10.00">logging::endpoint::</text>
<text text-anchor="middle" x="204" y="-56.5" font-family="Helvetica,sans-Serif" font-size="10.00">serial</text>
</a>
</g>
</g>
<!-- Node0&#45;&gt;Node2 -->
<g id="edge2" class="edge">
<title>Node0&#45;&gt;Node2</title>
<path fill="none" stroke="midnightblue" d="M117.28,-64.5C128.31,-64.5 139.68,-64.5 150.4,-64.5"/>
<polygon fill="midnightblue" stroke="midnightblue" points="117.27,-61 107.27,-64.5 117.27,-68 117.27,-61"/>
</g>
<!-- Node3 -->
<g id="node4" class="node">
<title>Node3</title>
<g id="a_node4"><a xlink:href="classlogging_1_1endpoint_1_1terminal.html" target="_top" xlink:title=" ">
<polygon fill="none" stroke="black" points="150.5,-0.5 150.5,-30.5 257.5,-30.5 257.5,-0.5 150.5,-0.5"/>
<text text-anchor="start" x="158.5" y="-18.5" font-family="Helvetica,sans-Serif" font-size="10.00">logging::endpoint::</text>
<text text-anchor="middle" x="204" y="-7.5" font-family="Helvetica,sans-Serif" font-size="10.00">terminal</text>
</a>
</g>
</g>
<!-- Node0&#45;&gt;Node3 -->
<g id="edge3" class="edge">
<title>Node0&#45;&gt;Node3</title>
<path fill="none" stroke="midnightblue" d="M93.05,-51.78C112.74,-45.28 136.82,-37.34 157.43,-30.54"/>
<polygon fill="midnightblue" stroke="midnightblue" points="91.88,-48.48 83.48,-54.94 94.08,-55.13 91.88,-48.48"/>
</g>
</g>
</svg>
