<?xml version="1.0" encoding="UTF-8" standalone="no"?>
<!DOCTYPE svg PUBLIC "-//W3C//DTD SVG 1.1//EN"
 "http://www.w3.org/Graphics/SVG/1.1/DTD/svg11.dtd">
<!-- Generated by graphviz version 2.43.0 (0)
 -->
<!-- Title: Graphical Class Hierarchy Pages: 1 -->
<svg width="291pt" height="66pt"
 viewBox="0.00 0.00 291.00 66.00" xmlns="http://www.w3.org/2000/svg" xmlns:xlink="http://www.w3.org/1999/xlink">
<g id="graph0" class="graph" transform="scale(1 1) rotate(0) translate(4 62)">
<title>Graphical Class Hierarchy</title>
<!-- Node0 -->
<g id="node1" class="node">
<title>Node0</title>
<g id="a_node1"><a xlink:href="classconfig_1_1parser_1_1parser.html" target="_top" xlink:title=" ">
<polygon fill="none" stroke="black" points="0,-19.5 0,-38.5 119,-38.5 119,-19.5 0,-19.5"/>
<text text-anchor="middle" x="59.5" y="-26.5" font-family="Helvetica,sans-Serif" font-size="10.00">config::parser::parser</text>
</a>
</g>
</g>
<!-- Node1 -->
<g id="node2" class="node">
<title>Node1</title>
<g id="a_node2"><a xlink:href="classconfig_1_1parser_1_1cli.html" target="_top" xlink:title=" ">
<polygon fill="none" stroke="black" points="169,-38.5 169,-57.5 269,-57.5 269,-38.5 169,-38.5"/>
<text text-anchor="middle" x="219" y="-45.5" font-family="Helvetica,sans-Serif" font-size="10.00">config::parser::cli</text>
</a>
</g>
</g>
<!-- Node0&#45;&gt;Node1 -->
<g id="edge1" class="edge">
<title>Node0&#45;&gt;Node1</title>
<path fill="none" stroke="midnightblue" d="M129.24,-37.29C142.57,-38.9 156.3,-40.56 168.84,-42.07"/>
<polygon fill="midnightblue" stroke="midnightblue" points="129.49,-33.8 119.15,-36.07 128.66,-40.75 129.49,-33.8"/>
</g>
<!-- Node2 -->
<g id="node3" class="node">
<title>Node2</title>
<g id="a_node3"><a xlink:href="classconfig_1_1parser_1_1settings.html" target="_top" xlink:title=" ">
<polygon fill="none" stroke="black" points="155,-0.5 155,-19.5 283,-19.5 283,-0.5 155,-0.5"/>
<text text-anchor="middle" x="219" y="-7.5" font-family="Helvetica,sans-Serif" font-size="10.00">config::parser::settings</text>
</a>
</g>
</g>
<!-- Node0&#45;&gt;Node2 -->
<g id="edge2" class="edge">
<title>Node0&#45;&gt;Node2</title>
<path fill="none" stroke="midnightblue" d="M129.09,-20.73C137.64,-19.69 146.35,-18.64 154.81,-17.62"/>
<polygon fill="midnightblue" stroke="midnightblue" points="128.66,-17.25 119.15,-21.93 129.49,-24.2 128.66,-17.25"/>
</g>
</g>
</svg>
