<?xml version="1.0" encoding="UTF-8" standalone="no"?>
<!DOCTYPE svg PUBLIC "-//W3C//DTD SVG 1.1//EN"
 "http://www.w3.org/Graphics/SVG/1.1/DTD/svg11.dtd">
<!-- Generated by graphviz version 2.43.0 (0)
 -->
<!-- Title: Graphical Class Hierarchy Pages: 1 -->
<svg width="724pt" height="576pt"
 viewBox="0.00 0.00 724.00 576.00" xmlns="http://www.w3.org/2000/svg" xmlns:xlink="http://www.w3.org/1999/xlink">
<g id="graph0" class="graph" transform="scale(1 1) rotate(0) translate(4 572)">
<title>Graphical Class Hierarchy</title>
<!-- Node0 -->
<g id="node1" class="node">
<title>Node0</title>
<g id="a_node1"><a xlink:title=" ">
<polygon fill="none" stroke="#bfbfbf" points="0,-177 0,-196 89,-196 89,-177 0,-177"/>
<text text-anchor="middle" x="44.5" y="-184" font-family="Helvetica,sans-Serif" font-size="10.00">std::false_type</text>
</a>
</g>
</g>
<!-- Node1 -->
<g id="node2" class="node">
<title>Node1</title>
<g id="a_node2"><a xlink:title=" ">
<polygon fill="none" stroke="#bfbfbf" points="125,-388 125,-517 329,-517 329,-388 125,-388"/>
<text text-anchor="start" x="133" y="-505" font-family="Helvetica,sans-Serif" font-size="10.00">toml::detail::disjunction</text>
<text text-anchor="start" x="133" y="-494" font-family="Helvetica,sans-Serif" font-size="10.00">&lt; std::is_same&lt; T, boolean</text>
<text text-anchor="start" x="133" y="-483" font-family="Helvetica,sans-Serif" font-size="10.00"> &gt;, std::is_same&lt; T, integer</text>
<text text-anchor="start" x="133" y="-472" font-family="Helvetica,sans-Serif" font-size="10.00"> &gt;, std::is_same&lt; T, floating</text>
<text text-anchor="start" x="133" y="-461" font-family="Helvetica,sans-Serif" font-size="10.00"> &gt;, std::is_same&lt; T, string &gt;,</text>
<text text-anchor="start" x="133" y="-450" font-family="Helvetica,sans-Serif" font-size="10.00"> std::is_same&lt; T, offset_datetime</text>
<text text-anchor="start" x="133" y="-439" font-family="Helvetica,sans-Serif" font-size="10.00"> &gt;, std::is_same&lt; T, local_datetime</text>
<text text-anchor="start" x="133" y="-428" font-family="Helvetica,sans-Serif" font-size="10.00"> &gt;, std::is_same&lt; T, local_date &gt;,</text>
<text text-anchor="start" x="133" y="-417" font-family="Helvetica,sans-Serif" font-size="10.00"> std::is_same&lt; T, local_time &gt;, std</text>
<text text-anchor="start" x="133" y="-406" font-family="Helvetica,sans-Serif" font-size="10.00">::is_same&lt; T, Value::array_type &gt;, std</text>
<text text-anchor="middle" x="227" y="-395" font-family="Helvetica,sans-Serif" font-size="10.00">::is_same&lt; T, Value::table_type &gt; &gt;</text>
</a>
</g>
</g>
<!-- Node0&#45;&gt;Node1 -->
<g id="edge1" class="edge">
<title>Node0&#45;&gt;Node1</title>
<path fill="none" stroke="midnightblue" d="M49.88,-206.21C58.86,-243.15 82.2,-323.98 125,-378.5 127.42,-381.58 129.99,-384.59 132.69,-387.53"/>
<polygon fill="midnightblue" stroke="midnightblue" points="53.24,-205.18 47.55,-196.23 46.42,-206.77 53.24,-205.18"/>
</g>
<!-- Node8 -->
<g id="node9" class="node">
<title>Node8</title>
<g id="a_node9"><a xlink:title=" ">
<polygon fill="none" stroke="#bfbfbf" points="137.5,-294.5 137.5,-368.5 316.5,-368.5 316.5,-294.5 137.5,-294.5"/>
<text text-anchor="start" x="145.5" y="-356.5" font-family="Helvetica,sans-Serif" font-size="10.00">toml::detail::disjunction</text>
<text text-anchor="start" x="145.5" y="-345.5" font-family="Helvetica,sans-Serif" font-size="10.00">&lt; std::is_same&lt; const char</text>
<text text-anchor="start" x="145.5" y="-334.5" font-family="Helvetica,sans-Serif" font-size="10.00"> *, T &gt;, conjunction&lt; std</text>
<text text-anchor="start" x="145.5" y="-323.5" font-family="Helvetica,sans-Serif" font-size="10.00">::is_array&lt; T &gt;, std::is_same</text>
<text text-anchor="start" x="145.5" y="-312.5" font-family="Helvetica,sans-Serif" font-size="10.00">&lt; const char, std::remove_extent</text>
<text text-anchor="middle" x="227" y="-301.5" font-family="Helvetica,sans-Serif" font-size="10.00">&lt; T &gt;::type &gt; &gt; &gt;</text>
</a>
</g>
</g>
<!-- Node0&#45;&gt;Node8 -->
<g id="edge8" class="edge">
<title>Node0&#45;&gt;Node8</title>
<path fill="none" stroke="midnightblue" d="M56.48,-204.55C70.25,-225.95 95.66,-261.61 125,-284.5 129.5,-288.01 134.3,-291.33 139.28,-294.47"/>
<polygon fill="midnightblue" stroke="midnightblue" points="59.44,-202.67 51.15,-196.07 53.51,-206.4 59.44,-202.67"/>
</g>
<!-- Node10 -->
<g id="node11" class="node">
<title>Node10</title>
<g id="a_node11"><a xlink:href="structtoml_1_1detail_1_1disjunction.html" target="_top" xlink:title=" ">
<polygon fill="none" stroke="black" points="161,-245.5 161,-275.5 293,-275.5 293,-245.5 161,-245.5"/>
<text text-anchor="start" x="169" y="-263.5" font-family="Helvetica,sans-Serif" font-size="10.00">toml::detail::disjunction</text>
<text text-anchor="middle" x="227" y="-252.5" font-family="Helvetica,sans-Serif" font-size="10.00">&lt;... &gt;</text>
</a>
</g>
</g>
<!-- Node0&#45;&gt;Node10 -->
<g id="edge10" class="edge">
<title>Node0&#45;&gt;Node10</title>
<path fill="none" stroke="midnightblue" d="M66.64,-202.05C82.12,-212.8 104.01,-226.69 125,-235.5 136.33,-240.26 148.76,-244.25 160.92,-247.55"/>
<polygon fill="midnightblue" stroke="midnightblue" points="68.5,-199.08 58.32,-196.15 64.45,-204.79 68.5,-199.08"/>
</g>
<!-- Node11 -->
<g id="node12" class="node">
<title>Node11</title>
<g id="a_node12"><a xlink:href="structtoml_1_1detail_1_1is__basic__value.html" target="_top" xlink:title=" ">
<polygon fill="none" stroke="black" points="168,-196.5 168,-226.5 286,-226.5 286,-196.5 168,-196.5"/>
<text text-anchor="start" x="176" y="-214.5" font-family="Helvetica,sans-Serif" font-size="10.00">toml::detail::is_basic</text>
<text text-anchor="middle" x="227" y="-203.5" font-family="Helvetica,sans-Serif" font-size="10.00">_value&lt; T &gt;</text>
</a>
</g>
</g>
<!-- Node0&#45;&gt;Node11 -->
<g id="edge11" class="edge">
<title>Node0&#45;&gt;Node11</title>
<path fill="none" stroke="midnightblue" d="M99.17,-193.93C120.74,-196.92 145.68,-200.38 167.7,-203.43"/>
<polygon fill="midnightblue" stroke="midnightblue" points="99.58,-190.46 89.19,-192.55 98.62,-197.39 99.58,-190.46"/>
</g>
<!-- Node16 -->
<g id="node17" class="node">
<title>Node16</title>
<g id="a_node17"><a xlink:href="structtoml_1_1detail_1_1is__chrono__duration.html" target="_top" xlink:title=" ">
<polygon fill="none" stroke="black" points="164.5,-147.5 164.5,-177.5 289.5,-177.5 289.5,-147.5 164.5,-147.5"/>
<text text-anchor="start" x="172.5" y="-165.5" font-family="Helvetica,sans-Serif" font-size="10.00">toml::detail::is_chrono</text>
<text text-anchor="middle" x="227" y="-154.5" font-family="Helvetica,sans-Serif" font-size="10.00">_duration&lt; T &gt;</text>
</a>
</g>
</g>
<!-- Node0&#45;&gt;Node16 -->
<g id="edge16" class="edge">
<title>Node0&#45;&gt;Node16</title>
<path fill="none" stroke="midnightblue" d="M99.27,-179.35C119.72,-176.63 143.17,-173.51 164.29,-170.7"/>
<polygon fill="midnightblue" stroke="midnightblue" points="98.65,-175.9 89.19,-180.69 99.57,-182.84 98.65,-175.9"/>
</g>
<!-- Node17 -->
<g id="node18" class="node">
<title>Node17</title>
<g id="a_node18"><a xlink:href="structtoml_1_1detail_1_1is__std__forward__list.html" target="_top" xlink:title=" ">
<polygon fill="none" stroke="black" points="173,-98.5 173,-128.5 281,-128.5 281,-98.5 173,-98.5"/>
<text text-anchor="start" x="181" y="-116.5" font-family="Helvetica,sans-Serif" font-size="10.00">toml::detail::is_std</text>
<text text-anchor="middle" x="227" y="-105.5" font-family="Helvetica,sans-Serif" font-size="10.00">_forward_list&lt; T &gt;</text>
</a>
</g>
</g>
<!-- Node0&#45;&gt;Node17 -->
<g id="edge17" class="edge">
<title>Node0&#45;&gt;Node17</title>
<path fill="none" stroke="midnightblue" d="M66.62,-170.89C82.08,-160.12 103.97,-146.22 125,-137.5 140.07,-131.26 157.11,-126.43 172.84,-122.79"/>
<polygon fill="midnightblue" stroke="midnightblue" points="64.42,-168.16 58.3,-176.81 68.48,-173.86 64.42,-168.16"/>
</g>
<!-- Node18 -->
<g id="node19" class="node">
<title>Node18</title>
<g id="a_node19"><a xlink:href="structtoml_1_1detail_1_1is__std__pair.html" target="_top" xlink:title=" ">
<polygon fill="none" stroke="black" points="173.5,-49.5 173.5,-79.5 280.5,-79.5 280.5,-49.5 173.5,-49.5"/>
<text text-anchor="start" x="181.5" y="-67.5" font-family="Helvetica,sans-Serif" font-size="10.00">toml::detail::is_std</text>
<text text-anchor="middle" x="227" y="-56.5" font-family="Helvetica,sans-Serif" font-size="10.00">_pair&lt; T &gt;</text>
</a>
</g>
</g>
<!-- Node0&#45;&gt;Node18 -->
<g id="edge18" class="edge">
<title>Node0&#45;&gt;Node18</title>
<path fill="none" stroke="midnightblue" d="M55.35,-168.09C68.29,-145.73 93.17,-108.51 125,-88.5 139.42,-79.43 156.96,-73.79 173.34,-70.28"/>
<polygon fill="midnightblue" stroke="midnightblue" points="52.22,-166.51 50.4,-176.94 58.33,-169.92 52.22,-166.51"/>
</g>
<!-- Node19 -->
<g id="node20" class="node">
<title>Node19</title>
<g id="a_node20"><a xlink:href="structtoml_1_1detail_1_1is__std__tuple.html" target="_top" xlink:title=" ">
<polygon fill="none" stroke="black" points="173.5,-0.5 173.5,-30.5 280.5,-30.5 280.5,-0.5 173.5,-0.5"/>
<text text-anchor="start" x="181.5" y="-18.5" font-family="Helvetica,sans-Serif" font-size="10.00">toml::detail::is_std</text>
<text text-anchor="middle" x="227" y="-7.5" font-family="Helvetica,sans-Serif" font-size="10.00">_tuple&lt; T &gt;</text>
</a>
</g>
</g>
<!-- Node0&#45;&gt;Node19 -->
<g id="edge19" class="edge">
<title>Node0&#45;&gt;Node19</title>
<path fill="none" stroke="midnightblue" d="M50.47,-166.94C59.6,-135.1 82.16,-72.35 125,-39.5 138.8,-28.92 156.55,-22.9 173.31,-19.52"/>
<polygon fill="midnightblue" stroke="midnightblue" points="47.03,-166.24 47.79,-176.81 53.78,-168.07 47.03,-166.24"/>
</g>
<!-- Node2 -->
<g id="node3" class="node">
<title>Node2</title>
<g id="a_node3"><a xlink:href="structtoml_1_1detail_1_1is__exact__toml__type.html" target="_top" xlink:title=" ">
<polygon fill="none" stroke="black" points="384,-461.5 384,-491.5 503,-491.5 503,-461.5 384,-461.5"/>
<text text-anchor="start" x="392" y="-479.5" font-family="Helvetica,sans-Serif" font-size="10.00">toml::detail::is_exact</text>
<text text-anchor="middle" x="443.5" y="-468.5" font-family="Helvetica,sans-Serif" font-size="10.00">_toml_type&lt; T, V &gt;</text>
</a>
</g>
</g>
<!-- Node1&#45;&gt;Node2 -->
<g id="edge2" class="edge">
<title>Node1&#45;&gt;Node2</title>
<path fill="none" stroke="midnightblue" d="M339.35,-464.96C354.67,-466.67 369.87,-468.37 383.71,-469.92"/>
<polygon fill="midnightblue" stroke="midnightblue" points="339.61,-461.47 329.28,-463.83 338.83,-468.42 339.61,-461.47"/>
</g>
<!-- Node7 -->
<g id="node8" class="node">
<title>Node7</title>
<g id="a_node8"><a xlink:href="structtoml_1_1detail_1_1is__exact__toml__type.html" target="_top" xlink:title=" ">
<polygon fill="none" stroke="black" points="377,-412.5 377,-442.5 510,-442.5 510,-412.5 377,-412.5"/>
<text text-anchor="start" x="385" y="-430.5" font-family="Helvetica,sans-Serif" font-size="10.00">toml::detail::is_exact</text>
<text text-anchor="middle" x="443.5" y="-419.5" font-family="Helvetica,sans-Serif" font-size="10.00">_toml_type&lt; T, Value &gt;</text>
</a>
</g>
</g>
<!-- Node1&#45;&gt;Node7 -->
<g id="edge7" class="edge">
<title>Node1&#45;&gt;Node7</title>
<path fill="none" stroke="midnightblue" d="M339.52,-439.5C352.28,-438.01 364.96,-436.54 376.84,-435.15"/>
<polygon fill="midnightblue" stroke="midnightblue" points="338.81,-436.06 329.28,-440.7 339.62,-443.01 338.81,-436.06"/>
</g>
<!-- Node3 -->
<g id="node4" class="node">
<title>Node3</title>
<g id="a_node4"><a xlink:href="structtoml_1_1detail_1_1is__exact__toml__type_3_01T_01_6_00_01V_01_4.html" target="_top" xlink:title=" ">
<polygon fill="none" stroke="black" points="575.5,-537.5 575.5,-567.5 698.5,-567.5 698.5,-537.5 575.5,-537.5"/>
<text text-anchor="start" x="583.5" y="-555.5" font-family="Helvetica,sans-Serif" font-size="10.00">toml::detail::is_exact</text>
<text text-anchor="middle" x="637" y="-544.5" font-family="Helvetica,sans-Serif" font-size="10.00">_toml_type&lt; T &amp;, V &gt;</text>
</a>
</g>
</g>
<!-- Node2&#45;&gt;Node3 -->
<g id="edge3" class="edge">
<title>Node2&#45;&gt;Node3</title>
<path fill="none" stroke="midnightblue" d="M484.04,-496.16C505.61,-506.49 532.95,-518.95 558,-528.5 566.21,-531.63 575.02,-534.65 583.65,-537.43"/>
<polygon fill="midnightblue" stroke="midnightblue" points="485.39,-492.93 474.87,-491.73 482.35,-499.23 485.39,-492.93"/>
</g>
<!-- Node4 -->
<g id="node5" class="node">
<title>Node4</title>
<g id="a_node5"><a xlink:href="structtoml_1_1detail_1_1is__exact__toml__type_3_01T_01const_01_6_00_01V_01_4.html" target="_top" xlink:title=" ">
<polygon fill="none" stroke="black" points="561,-488.5 561,-518.5 713,-518.5 713,-488.5 561,-488.5"/>
<text text-anchor="start" x="569" y="-506.5" font-family="Helvetica,sans-Serif" font-size="10.00">toml::detail::is_exact</text>
<text text-anchor="middle" x="637" y="-495.5" font-family="Helvetica,sans-Serif" font-size="10.00">_toml_type&lt; T const &amp;, V &gt;</text>
</a>
</g>
</g>
<!-- Node2&#45;&gt;Node4 -->
<g id="edge4" class="edge">
<title>Node2&#45;&gt;Node4</title>
<path fill="none" stroke="midnightblue" d="M513.22,-486.19C528.63,-488.36 545.06,-490.68 560.73,-492.89"/>
<polygon fill="midnightblue" stroke="midnightblue" points="513.65,-482.71 503.26,-484.78 512.67,-489.65 513.65,-482.71"/>
</g>
<!-- Node5 -->
<g id="node6" class="node">
<title>Node5</title>
<g id="a_node6"><a xlink:href="structtoml_1_1detail_1_1is__exact__toml__type_3_01T_01const_01volatile_01_6_00_01V_01_4.html" target="_top" xlink:title=" ">
<polygon fill="none" stroke="black" points="558,-428 558,-469 716,-469 716,-428 558,-428"/>
<text text-anchor="start" x="566" y="-457" font-family="Helvetica,sans-Serif" font-size="10.00">toml::detail::is_exact</text>
<text text-anchor="start" x="566" y="-446" font-family="Helvetica,sans-Serif" font-size="10.00">_toml_type&lt; T const volatile</text>
<text text-anchor="middle" x="637" y="-435" font-family="Helvetica,sans-Serif" font-size="10.00"> &amp;, V &gt;</text>
</a>
</g>
</g>
<!-- Node2&#45;&gt;Node5 -->
<g id="edge5" class="edge">
<title>Node2&#45;&gt;Node5</title>
<path fill="none" stroke="midnightblue" d="M513.57,-466.4C527.97,-464.3 543.24,-462.06 557.94,-459.91"/>
<polygon fill="midnightblue" stroke="midnightblue" points="512.65,-463 503.26,-467.91 513.66,-469.93 512.65,-463"/>
</g>
<!-- Node6 -->
<g id="node7" class="node">
<title>Node6</title>
<g id="a_node7"><a xlink:href="structtoml_1_1detail_1_1is__exact__toml__type_3_01T_01volatile_01_6_00_01V_01_4.html" target="_top" xlink:title=" ">
<polygon fill="none" stroke="black" points="573,-368 573,-409 701,-409 701,-368 573,-368"/>
<text text-anchor="start" x="581" y="-397" font-family="Helvetica,sans-Serif" font-size="10.00">toml::detail::is_exact</text>
<text text-anchor="start" x="581" y="-386" font-family="Helvetica,sans-Serif" font-size="10.00">_toml_type&lt; T volatile</text>
<text text-anchor="middle" x="637" y="-375" font-family="Helvetica,sans-Serif" font-size="10.00"> &amp;, V &gt;</text>
</a>
</g>
</g>
<!-- Node2&#45;&gt;Node6 -->
<g id="edge6" class="edge">
<title>Node2&#45;&gt;Node6</title>
<path fill="none" stroke="midnightblue" d="M512.6,-457.43C515.84,-455.9 518.99,-454.26 522,-452.5 541,-441.4 539.38,-430.23 558,-418.5 563.4,-415.1 569.25,-411.98 575.23,-409.15"/>
<polygon fill="midnightblue" stroke="midnightblue" points="511.07,-454.28 503.29,-461.47 513.85,-460.7 511.07,-454.28"/>
</g>
<!-- Node9 -->
<g id="node10" class="node">
<title>Node9</title>
<g id="a_node10"><a xlink:href="structtoml_1_1detail_1_1is__string__literal.html" target="_top" xlink:title=" ">
<polygon fill="none" stroke="black" points="383.5,-316.5 383.5,-346.5 503.5,-346.5 503.5,-316.5 383.5,-316.5"/>
<text text-anchor="start" x="391.5" y="-334.5" font-family="Helvetica,sans-Serif" font-size="10.00">toml::detail::is_string</text>
<text text-anchor="middle" x="443.5" y="-323.5" font-family="Helvetica,sans-Serif" font-size="10.00">_literal&lt; T &gt;</text>
</a>
</g>
</g>
<!-- Node8&#45;&gt;Node9 -->
<g id="edge9" class="edge">
<title>Node8&#45;&gt;Node9</title>
<path fill="none" stroke="midnightblue" d="M326.86,-331.5C346.21,-331.5 365.91,-331.5 383.45,-331.5"/>
<polygon fill="midnightblue" stroke="midnightblue" points="326.79,-328 316.79,-331.5 326.79,-335 326.79,-328"/>
</g>
<!-- Node12 -->
<g id="node13" class="node">
<title>Node12</title>
<g id="a_node13"><a xlink:href="structtoml_1_1detail_1_1is__basic__value_3_01T_01_6_01_4.html" target="_top" xlink:title=" ">
<polygon fill="none" stroke="black" points="384.5,-256.5 384.5,-286.5 502.5,-286.5 502.5,-256.5 384.5,-256.5"/>
<text text-anchor="start" x="392.5" y="-274.5" font-family="Helvetica,sans-Serif" font-size="10.00">toml::detail::is_basic</text>
<text text-anchor="middle" x="443.5" y="-263.5" font-family="Helvetica,sans-Serif" font-size="10.00">_value&lt; T &amp; &gt;</text>
</a>
</g>
</g>
<!-- Node11&#45;&gt;Node12 -->
<g id="edge12" class="edge">
<title>Node11&#45;&gt;Node12</title>
<path fill="none" stroke="midnightblue" d="M296.16,-226.97C307.17,-229.68 318.43,-232.57 329,-235.5 335.77,-237.38 367.38,-247.42 395.53,-256.42"/>
<polygon fill="midnightblue" stroke="midnightblue" points="296.68,-223.5 286.14,-224.54 295.03,-230.3 296.68,-223.5"/>
</g>
<!-- Node13 -->
<g id="node14" class="node">
<title>Node13</title>
<g id="a_node14"><a xlink:href="structtoml_1_1detail_1_1is__basic__value_3_01T_01const_01_6_01_4.html" target="_top" xlink:title=" ">
<polygon fill="none" stroke="black" points="384.5,-207.5 384.5,-237.5 502.5,-237.5 502.5,-207.5 384.5,-207.5"/>
<text text-anchor="start" x="392.5" y="-225.5" font-family="Helvetica,sans-Serif" font-size="10.00">toml::detail::is_basic</text>
<text text-anchor="middle" x="443.5" y="-214.5" font-family="Helvetica,sans-Serif" font-size="10.00">_value&lt; T const &amp; &gt;</text>
</a>
</g>
</g>
<!-- Node11&#45;&gt;Node13 -->
<g id="edge13" class="edge">
<title>Node11&#45;&gt;Node13</title>
<path fill="none" stroke="midnightblue" d="M296.29,-215C324.65,-216.46 357.22,-218.13 384.41,-219.52"/>
<polygon fill="midnightblue" stroke="midnightblue" points="296.21,-211.49 286.05,-214.48 295.85,-218.48 296.21,-211.49"/>
</g>
<!-- Node14 -->
<g id="node15" class="node">
<title>Node14</title>
<g id="a_node15"><a xlink:href="structtoml_1_1detail_1_1is__basic__value_3_01T_01const_01volatile_01_6_01_4.html" target="_top" xlink:title=" ">
<polygon fill="none" stroke="black" points="365,-158.5 365,-188.5 522,-188.5 522,-158.5 365,-158.5"/>
<text text-anchor="start" x="373" y="-176.5" font-family="Helvetica,sans-Serif" font-size="10.00">toml::detail::is_basic</text>
<text text-anchor="middle" x="443.5" y="-165.5" font-family="Helvetica,sans-Serif" font-size="10.00">_value&lt; T const volatile &amp; &gt;</text>
</a>
</g>
</g>
<!-- Node11&#45;&gt;Node14 -->
<g id="edge14" class="edge">
<title>Node11&#45;&gt;Node14</title>
<path fill="none" stroke="midnightblue" d="M295.9,-199.47C317.76,-195.6 342.15,-191.28 364.67,-187.29"/>
<polygon fill="midnightblue" stroke="midnightblue" points="295.28,-196.03 286.05,-201.22 296.5,-202.92 295.28,-196.03"/>
</g>
<!-- Node15 -->
<g id="node16" class="node">
<title>Node15</title>
<g id="a_node16"><a xlink:href="structtoml_1_1detail_1_1is__basic__value_3_01T_01volatile_01_6_01_4.html" target="_top" xlink:title=" ">
<polygon fill="none" stroke="black" points="379.5,-109.5 379.5,-139.5 507.5,-139.5 507.5,-109.5 379.5,-109.5"/>
<text text-anchor="start" x="387.5" y="-127.5" font-family="Helvetica,sans-Serif" font-size="10.00">toml::detail::is_basic</text>
<text text-anchor="middle" x="443.5" y="-116.5" font-family="Helvetica,sans-Serif" font-size="10.00">_value&lt; T volatile &amp; &gt;</text>
</a>
</g>
</g>
<!-- Node11&#45;&gt;Node15 -->
<g id="edge15" class="edge">
<title>Node11&#45;&gt;Node15</title>
<path fill="none" stroke="midnightblue" d="M295.71,-200.42C307.27,-196.96 318.82,-192.43 329,-186.5 349.1,-174.79 345.24,-160.79 365,-148.5 370.5,-145.08 376.53,-142.11 382.71,-139.55"/>
<polygon fill="midnightblue" stroke="midnightblue" points="294.74,-197.06 286.02,-203.09 296.59,-203.81 294.74,-197.06"/>
</g>
</g>
</svg>
