<?xml version="1.0" encoding="UTF-8" standalone="no"?>
<!DOCTYPE svg PUBLIC "-//W3C//DTD SVG 1.1//EN"
 "http://www.w3.org/Graphics/SVG/1.1/DTD/svg11.dtd">
<!-- Generated by graphviz version 2.43.0 (0)
 -->
<!-- Title: Graphical Class Hierarchy Pages: 1 -->
<svg width="356pt" height="180pt"
 viewBox="0.00 0.00 356.00 180.00" xmlns="http://www.w3.org/2000/svg" xmlns:xlink="http://www.w3.org/1999/xlink">
<g id="graph0" class="graph" transform="scale(1 1) rotate(0) translate(4 176)">
<title>Graphical Class Hierarchy</title>
<!-- Node0 -->
<g id="node1" class="node">
<title>Node0</title>
<g id="a_node1"><a xlink:href="classrunnable.html" target="_top" xlink:title=" ">
<polygon fill="none" stroke="black" points="0,-76.5 0,-95.5 59,-95.5 59,-76.5 0,-76.5"/>
<text text-anchor="middle" x="29.5" y="-83.5" font-family="Helvetica,sans-Serif" font-size="10.00">runnable</text>
</a>
</g>
</g>
<!-- Node1 -->
<g id="node2" class="node">
<title>Node1</title>
<g id="a_node2"><a xlink:href="classconsumer.html" target="_top" xlink:title=" ">
<polygon fill="none" stroke="black" points="111.5,-152.5 111.5,-171.5 176.5,-171.5 176.5,-152.5 111.5,-152.5"/>
<text text-anchor="middle" x="144" y="-159.5" font-family="Helvetica,sans-Serif" font-size="10.00">consumer</text>
</a>
</g>
</g>
<!-- Node0&#45;&gt;Node1 -->
<g id="edge1" class="edge">
<title>Node0&#45;&gt;Node1</title>
<path fill="none" stroke="midnightblue" d="M46.53,-103.05C58.86,-115.41 76.82,-131.85 95,-143 100.88,-146.61 107.57,-149.77 114.04,-152.42"/>
<polygon fill="midnightblue" stroke="midnightblue" points="48.77,-100.34 39.29,-95.61 43.76,-105.22 48.77,-100.34"/>
</g>
<!-- Node2 -->
<g id="node3" class="node">
<title>Node2</title>
<g id="a_node3"><a xlink:href="classproducer.html" target="_top" xlink:title=" ">
<polygon fill="none" stroke="black" points="114.5,-114.5 114.5,-133.5 173.5,-133.5 173.5,-114.5 114.5,-114.5"/>
<text text-anchor="middle" x="144" y="-121.5" font-family="Helvetica,sans-Serif" font-size="10.00">producer</text>
</a>
</g>
</g>
<!-- Node0&#45;&gt;Node2 -->
<g id="edge2" class="edge">
<title>Node0&#45;&gt;Node2</title>
<path fill="none" stroke="midnightblue" d="M68.47,-98.83C83.57,-103.92 100.63,-109.69 114.62,-114.41"/>
<polygon fill="midnightblue" stroke="midnightblue" points="69.48,-95.47 58.89,-95.59 67.24,-102.11 69.48,-95.47"/>
</g>
<!-- Node3 -->
<g id="node4" class="node">
<title>Node3</title>
<g id="a_node4"><a xlink:href="classtransport_1_1client.html" target="_top" xlink:title=" ">
<polygon fill="none" stroke="black" points="97,-76.5 97,-95.5 191,-95.5 191,-76.5 97,-76.5"/>
<text text-anchor="middle" x="144" y="-83.5" font-family="Helvetica,sans-Serif" font-size="10.00">transport::client</text>
</a>
</g>
</g>
<!-- Node0&#45;&gt;Node3 -->
<g id="edge3" class="edge">
<title>Node0&#45;&gt;Node3</title>
<path fill="none" stroke="midnightblue" d="M69.27,-86C78.17,-86 87.71,-86 96.89,-86"/>
<polygon fill="midnightblue" stroke="midnightblue" points="69.18,-82.5 59.18,-86 69.18,-89.5 69.18,-82.5"/>
</g>
<!-- Node5 -->
<g id="node6" class="node">
<title>Node5</title>
<g id="a_node6"><a xlink:href="classtransport_1_1server.html" target="_top" xlink:title=" ">
<polygon fill="none" stroke="black" points="95,-38.5 95,-57.5 193,-57.5 193,-38.5 95,-38.5"/>
<text text-anchor="middle" x="144" y="-45.5" font-family="Helvetica,sans-Serif" font-size="10.00">transport::server</text>
</a>
</g>
</g>
<!-- Node0&#45;&gt;Node5 -->
<g id="edge5" class="edge">
<title>Node0&#45;&gt;Node5</title>
<path fill="none" stroke="midnightblue" d="M68.47,-73.17C83.57,-68.08 100.63,-62.31 114.62,-57.59"/>
<polygon fill="midnightblue" stroke="midnightblue" points="67.24,-69.89 58.89,-76.41 69.48,-76.53 67.24,-69.89"/>
</g>
<!-- Node7 -->
<g id="node8" class="node">
<title>Node7</title>
<g id="a_node8"><a xlink:href="classui.html" target="_top" xlink:title=" ">
<polygon fill="none" stroke="black" points="129.5,-0.5 129.5,-19.5 158.5,-19.5 158.5,-0.5 129.5,-0.5"/>
<text text-anchor="middle" x="144" y="-7.5" font-family="Helvetica,sans-Serif" font-size="10.00">ui</text>
</a>
</g>
</g>
<!-- Node0&#45;&gt;Node7 -->
<g id="edge7" class="edge">
<title>Node0&#45;&gt;Node7</title>
<path fill="none" stroke="midnightblue" d="M46.53,-68.95C58.86,-56.59 76.82,-40.15 95,-29 105.85,-22.34 119.43,-17.23 129.38,-13.99"/>
<polygon fill="midnightblue" stroke="midnightblue" points="43.76,-66.78 39.29,-76.39 48.77,-71.66 43.76,-66.78"/>
</g>
<!-- Node4 -->
<g id="node5" class="node">
<title>Node4</title>
<g id="a_node5"><a xlink:href="classtransport_1_1tcp_1_1client.html" target="_top" xlink:title=" ">
<polygon fill="none" stroke="black" points="231,-76.5 231,-95.5 346,-95.5 346,-76.5 231,-76.5"/>
<text text-anchor="middle" x="288.5" y="-83.5" font-family="Helvetica,sans-Serif" font-size="10.00">transport::tcp::client</text>
</a>
</g>
</g>
<!-- Node3&#45;&gt;Node4 -->
<g id="edge4" class="edge">
<title>Node3&#45;&gt;Node4</title>
<path fill="none" stroke="midnightblue" d="M201.52,-86C211.14,-86 221.13,-86 230.76,-86"/>
<polygon fill="midnightblue" stroke="midnightblue" points="201.27,-82.5 191.27,-86 201.27,-89.5 201.27,-82.5"/>
</g>
<!-- Node6 -->
<g id="node7" class="node">
<title>Node6</title>
<g id="a_node7"><a xlink:href="classtransport_1_1tcp_1_1server.html" target="_top" xlink:title=" ">
<polygon fill="none" stroke="black" points="229,-38.5 229,-57.5 348,-57.5 348,-38.5 229,-38.5"/>
<text text-anchor="middle" x="288.5" y="-45.5" font-family="Helvetica,sans-Serif" font-size="10.00">transport::tcp::server</text>
</a>
</g>
</g>
<!-- Node5&#45;&gt;Node6 -->
<g id="edge6" class="edge">
<title>Node5&#45;&gt;Node6</title>
<path fill="none" stroke="midnightblue" d="M203.38,-48C211.81,-48 220.5,-48 228.94,-48"/>
<polygon fill="midnightblue" stroke="midnightblue" points="203.24,-44.5 193.24,-48 203.24,-51.5 203.24,-44.5"/>
</g>
</g>
</svg>
