<?xml version="1.0" encoding="UTF-8" standalone="no"?>
<!DOCTYPE svg PUBLIC "-//W3C//DTD SVG 1.1//EN"
 "http://www.w3.org/Graphics/SVG/1.1/DTD/svg11.dtd">
<!-- Generated by graphviz version 2.43.0 (0)
 -->
<!-- Title: Graphical Class Hierarchy Pages: 1 -->
<svg width="370pt" height="104pt"
 viewBox="0.00 0.00 370.00 104.00" xmlns="http://www.w3.org/2000/svg" xmlns:xlink="http://www.w3.org/1999/xlink">
<g id="graph0" class="graph" transform="scale(1 1) rotate(0) translate(4 100)">
<title>Graphical Class Hierarchy</title>
<!-- Node0 -->
<g id="node1" class="node">
<title>Node0</title>
<g id="a_node1"><a xlink:title=" ">
<polygon fill="none" stroke="#bfbfbf" points="0,-38.5 0,-57.5 86,-57.5 86,-38.5 0,-38.5"/>
<text text-anchor="middle" x="43" y="-45.5" font-family="Helvetica,sans-Serif" font-size="10.00">std::exception</text>
</a>
</g>
</g>
<!-- Node1 -->
<g id="node2" class="node">
<title>Node1</title>
<g id="a_node2"><a xlink:href="structtoml_1_1exception.html" target="_top" xlink:title=" ">
<polygon fill="none" stroke="black" points="122,-38.5 122,-57.5 215,-57.5 215,-38.5 122,-38.5"/>
<text text-anchor="middle" x="168.5" y="-45.5" font-family="Helvetica,sans-Serif" font-size="10.00">toml::exception</text>
</a>
</g>
</g>
<!-- Node0&#45;&gt;Node1 -->
<g id="edge1" class="edge">
<title>Node0&#45;&gt;Node1</title>
<path fill="none" stroke="midnightblue" d="M96.3,-48C104.75,-48 113.45,-48 121.73,-48"/>
<polygon fill="midnightblue" stroke="midnightblue" points="96.16,-44.5 86.16,-48 96.16,-51.5 96.16,-44.5"/>
</g>
<!-- Node2 -->
<g id="node3" class="node">
<title>Node2</title>
<g id="a_node3"><a xlink:href="structtoml_1_1internal__error.html" target="_top" xlink:title=" ">
<polygon fill="none" stroke="black" points="251,-76.5 251,-95.5 362,-95.5 362,-76.5 251,-76.5"/>
<text text-anchor="middle" x="306.5" y="-83.5" font-family="Helvetica,sans-Serif" font-size="10.00">toml::internal_error</text>
</a>
</g>
</g>
<!-- Node1&#45;&gt;Node2 -->
<g id="edge2" class="edge">
<title>Node1&#45;&gt;Node2</title>
<path fill="none" stroke="midnightblue" d="M213.59,-60.32C232.27,-65.54 253.72,-71.53 271.19,-76.41"/>
<polygon fill="midnightblue" stroke="midnightblue" points="214.39,-56.91 203.82,-57.59 212.51,-63.65 214.39,-56.91"/>
</g>
<!-- Node3 -->
<g id="node4" class="node">
<title>Node3</title>
<g id="a_node4"><a xlink:href="structtoml_1_1syntax__error.html" target="_top" xlink:title=" ">
<polygon fill="none" stroke="black" points="253,-38.5 253,-57.5 360,-57.5 360,-38.5 253,-38.5"/>
<text text-anchor="middle" x="306.5" y="-45.5" font-family="Helvetica,sans-Serif" font-size="10.00">toml::syntax_error</text>
</a>
</g>
</g>
<!-- Node1&#45;&gt;Node3 -->
<g id="edge3" class="edge">
<title>Node1&#45;&gt;Node3</title>
<path fill="none" stroke="midnightblue" d="M225.24,-48C234.31,-48 243.68,-48 252.67,-48"/>
<polygon fill="midnightblue" stroke="midnightblue" points="225.16,-44.5 215.16,-48 225.16,-51.5 225.16,-44.5"/>
</g>
<!-- Node4 -->
<g id="node5" class="node">
<title>Node4</title>
<g id="a_node5"><a xlink:href="structtoml_1_1type__error.html" target="_top" xlink:title=" ">
<polygon fill="none" stroke="black" points="259,-0.5 259,-19.5 354,-19.5 354,-0.5 259,-0.5"/>
<text text-anchor="middle" x="306.5" y="-7.5" font-family="Helvetica,sans-Serif" font-size="10.00">toml::type_error</text>
</a>
</g>
</g>
<!-- Node1&#45;&gt;Node4 -->
<g id="edge4" class="edge">
<title>Node1&#45;&gt;Node4</title>
<path fill="none" stroke="midnightblue" d="M213.59,-35.68C232.27,-30.46 253.72,-24.47 271.19,-19.59"/>
<polygon fill="midnightblue" stroke="midnightblue" points="212.51,-32.35 203.82,-38.41 214.39,-39.09 212.51,-32.35"/>
</g>
</g>
</svg>
