<?xml version="1.0" encoding="UTF-8" standalone="no"?>
<!DOCTYPE svg PUBLIC "-//W3C//DTD SVG 1.1//EN"
 "http://www.w3.org/Graphics/SVG/1.1/DTD/svg11.dtd">
<!-- Generated by graphviz version 2.43.0 (0)
 -->
<!-- Title: Graphical Class Hierarchy Pages: 1 -->
<svg width="237pt" height="66pt"
 viewBox="0.00 0.00 237.00 66.00" xmlns="http://www.w3.org/2000/svg" xmlns:xlink="http://www.w3.org/1999/xlink">
<g id="graph0" class="graph" transform="scale(1 1) rotate(0) translate(4 62)">
<title>Graphical Class Hierarchy</title>
<!-- Node0 -->
<g id="node1" class="node">
<title>Node0</title>
<g id="a_node1"><a xlink:title=" ">
<polygon fill="none" stroke="#bfbfbf" points="0,-19.5 0,-38.5 29,-38.5 29,-19.5 0,-19.5"/>
<text text-anchor="middle" x="14.5" y="-26.5" font-family="Helvetica,sans-Serif" font-size="10.00">T</text>
</a>
</g>
</g>
<!-- Node1 -->
<g id="node2" class="node">
<title>Node1</title>
<g id="a_node2"><a xlink:href="structtoml_1_1detail_1_1conjunction_3_01T_01_4.html" target="_top" xlink:title=" ">
<polygon fill="none" stroke="black" points="65,-38.5 65,-57.5 229,-57.5 229,-38.5 65,-38.5"/>
<text text-anchor="middle" x="147" y="-45.5" font-family="Helvetica,sans-Serif" font-size="10.00">toml::detail::conjunction&lt; T &gt;</text>
</a>
</g>
</g>
<!-- Node0&#45;&gt;Node1 -->
<g id="edge1" class="edge">
<title>Node0&#45;&gt;Node1</title>
<path fill="none" stroke="midnightblue" d="M39.64,-32.51C51.29,-34.21 65.9,-36.34 80.52,-38.47"/>
<polygon fill="midnightblue" stroke="midnightblue" points="39.87,-29.01 29.47,-31.03 38.86,-35.94 39.87,-29.01"/>
</g>
<!-- Node2 -->
<g id="node3" class="node">
<title>Node2</title>
<g id="a_node3"><a xlink:href="structtoml_1_1detail_1_1disjunction_3_01T_01_4.html" target="_top" xlink:title=" ">
<polygon fill="none" stroke="black" points="66.5,-0.5 66.5,-19.5 227.5,-19.5 227.5,-0.5 66.5,-0.5"/>
<text text-anchor="middle" x="147" y="-7.5" font-family="Helvetica,sans-Serif" font-size="10.00">toml::detail::disjunction&lt; T &gt;</text>
</a>
</g>
</g>
<!-- Node0&#45;&gt;Node2 -->
<g id="edge2" class="edge">
<title>Node0&#45;&gt;Node2</title>
<path fill="none" stroke="midnightblue" d="M39.64,-25.49C51.29,-23.79 65.9,-21.66 80.52,-19.53"/>
<polygon fill="midnightblue" stroke="midnightblue" points="38.86,-22.06 29.47,-26.97 39.87,-28.99 38.86,-22.06"/>
</g>
</g>
</svg>
