<?xml version="1.0" encoding="UTF-8" standalone="no"?>
<!DOCTYPE svg PUBLIC "-//W3C//DTD SVG 1.1//EN"
 "http://www.w3.org/Graphics/SVG/1.1/DTD/svg11.dtd">
<!-- Generated by graphviz version 2.43.0 (0)
 -->
<!-- Title: Graphical Class Hierarchy Pages: 1 -->
<svg width="273pt" height="176pt"
 viewBox="0.00 0.00 273.00 175.50" xmlns="http://www.w3.org/2000/svg" xmlns:xlink="http://www.w3.org/1999/xlink">
<g id="graph0" class="graph" transform="scale(1 1) rotate(0) translate(4 171.5)">
<title>Graphical Class Hierarchy</title>
<!-- Node0 -->
<g id="node1" class="node">
<title>Node0</title>
<g id="a_node1"><a xlink:title=" ">
<polygon fill="none" stroke="#bfbfbf" points="0,-79 0,-98 107,-98 107,-79 0,-79"/>
<text text-anchor="middle" x="53.5" y="-86" font-family="Helvetica,sans-Serif" font-size="10.00">endpoint::registrar</text>
</a>
</g>
</g>
<!-- Node1 -->
<g id="node2" class="node">
<title>Node1</title>
<g id="a_node2"><a xlink:href="classlogging_1_1endpoint_1_1file.html" target="_top" xlink:title=" ">
<polygon fill="none" stroke="black" points="143,-148 143,-167 265,-167 265,-148 143,-148"/>
<text text-anchor="middle" x="204" y="-155" font-family="Helvetica,sans-Serif" font-size="10.00">logging::endpoint::file</text>
</a>
</g>
</g>
<!-- Node0&#45;&gt;Node1 -->
<g id="edge1" class="edge">
<title>Node0&#45;&gt;Node1</title>
<path fill="none" stroke="midnightblue" d="M78.25,-103.71C95.69,-114.43 120.2,-128.58 143,-138.5 151.12,-142.03 160.1,-145.23 168.6,-147.95"/>
<polygon fill="midnightblue" stroke="midnightblue" points="79.69,-100.49 69.35,-98.16 75.99,-106.43 79.69,-100.49"/>
</g>
<!-- Node2 -->
<g id="node3" class="node">
<title>Node2</title>
<g id="a_node3"><a xlink:href="classlogging_1_1endpoint_1_1serial.html" target="_top" xlink:title=" ">
<polygon fill="none" stroke="black" points="150.5,-98.5 150.5,-128.5 257.5,-128.5 257.5,-98.5 150.5,-98.5"/>
<text text-anchor="start" x="158.5" y="-116.5" font-family="Helvetica,sans-Serif" font-size="10.00">logging::endpoint::</text>
<text text-anchor="middle" x="204" y="-105.5" font-family="Helvetica,sans-Serif" font-size="10.00">serial</text>
</a>
</g>
</g>
<!-- Node0&#45;&gt;Node2 -->
<g id="edge2" class="edge">
<title>Node0&#45;&gt;Node2</title>
<path fill="none" stroke="midnightblue" d="M117.28,-99.07C128.31,-100.93 139.68,-102.84 150.4,-104.64"/>
<polygon fill="midnightblue" stroke="midnightblue" points="117.72,-95.59 107.27,-97.38 116.55,-102.5 117.72,-95.59"/>
</g>
<!-- Node3 -->
<g id="node4" class="node">
<title>Node3</title>
<g id="a_node4"><a xlink:href="classlogging_1_1endpoint_1_1systemd.html" target="_top" xlink:title=" ">
<polygon fill="none" stroke="black" points="150.5,-49.5 150.5,-79.5 257.5,-79.5 257.5,-49.5 150.5,-49.5"/>
<text text-anchor="start" x="158.5" y="-67.5" font-family="Helvetica,sans-Serif" font-size="10.00">logging::endpoint::</text>
<text text-anchor="middle" x="204" y="-56.5" font-family="Helvetica,sans-Serif" font-size="10.00">systemd</text>
</a>
</g>
</g>
<!-- Node0&#45;&gt;Node3 -->
<g id="edge3" class="edge">
<title>Node0&#45;&gt;Node3</title>
<path fill="none" stroke="midnightblue" d="M117.28,-78.35C128.31,-76.57 139.68,-74.73 150.4,-73"/>
<polygon fill="midnightblue" stroke="midnightblue" points="116.59,-74.92 107.27,-79.97 117.7,-81.83 116.59,-74.92"/>
</g>
<!-- Node4 -->
<g id="node5" class="node">
<title>Node4</title>
<g id="a_node5"><a xlink:href="classlogging_1_1endpoint_1_1terminal.html" target="_top" xlink:title=" ">
<polygon fill="none" stroke="black" points="150.5,-0.5 150.5,-30.5 257.5,-30.5 257.5,-0.5 150.5,-0.5"/>
<text text-anchor="start" x="158.5" y="-18.5" font-family="Helvetica,sans-Serif" font-size="10.00">logging::endpoint::</text>
<text text-anchor="middle" x="204" y="-7.5" font-family="Helvetica,sans-Serif" font-size="10.00">terminal</text>
</a>
</g>
</g>
<!-- Node0&#45;&gt;Node4 -->
<g id="edge4" class="edge">
<title>Node0&#45;&gt;Node4</title>
<path fill="none" stroke="midnightblue" d="M79.88,-73.84C97.38,-63.95 121.31,-50.87 143,-40.5 150.13,-37.09 157.84,-33.68 165.29,-30.52"/>
<polygon fill="midnightblue" stroke="midnightblue" points="77.83,-70.97 70.88,-78.96 81.3,-77.06 77.83,-70.97"/>
</g>
</g>
</svg>
