<?xml version="1.0" encoding="UTF-8" standalone="no"?>
<!DOCTYPE svg PUBLIC "-//W3C//DTD SVG 1.1//EN"
 "http://www.w3.org/Graphics/SVG/1.1/DTD/svg11.dtd">
<!-- Generated by graphviz version 2.43.0 (0)
 -->
<!-- Title: Graphical Class Hierarchy Pages: 1 -->
<svg width="249pt" height="78pt"
 viewBox="0.00 0.00 249.00 77.50" xmlns="http://www.w3.org/2000/svg" xmlns:xlink="http://www.w3.org/1999/xlink">
<g id="graph0" class="graph" transform="scale(1 1) rotate(0) translate(4 73.5)">
<title>Graphical Class Hierarchy</title>
<!-- Node0 -->
<g id="node1" class="node">
<title>Node0</title>
<g id="a_node1"><a xlink:title=" ">
<polygon fill="none" stroke="#bfbfbf" points="24.5,-50 24.5,-69 73.5,-69 73.5,-50 24.5,-50"/>
<text text-anchor="middle" x="49" y="-57" font-family="Helvetica,sans-Serif" font-size="10.00">base_t</text>
</a>
</g>
</g>
<!-- Node1 -->
<g id="node2" class="node">
<title>Node1</title>
<g id="a_node2"><a xlink:href="structutil_1_1factory_1_1registrar.html" target="_top" xlink:title=" ">
<polygon fill="none" stroke="black" points="134,-17 134,-58 241,-58 241,-17 134,-17"/>
<text text-anchor="start" x="142" y="-46" font-family="Helvetica,sans-Serif" font-size="10.00">util::factory&lt; base</text>
<text text-anchor="start" x="142" y="-35" font-family="Helvetica,sans-Serif" font-size="10.00">_t &gt;::registrar&lt; T,</text>
<text text-anchor="middle" x="187.5" y="-24" font-family="Helvetica,sans-Serif" font-size="10.00"> Config &gt;</text>
</a>
</g>
</g>
<!-- Node0&#45;&gt;Node1 -->
<g id="edge1" class="edge">
<title>Node0&#45;&gt;Node1</title>
<path fill="none" stroke="midnightblue" d="M83.7,-54.07C98.82,-51.63 117.01,-48.7 133.87,-45.98"/>
<polygon fill="midnightblue" stroke="midnightblue" points="83.09,-50.62 73.78,-55.67 84.21,-57.53 83.09,-50.62"/>
</g>
<!-- Node2 -->
<g id="node3" class="node">
<title>Node2</title>
<g id="a_node3"><a xlink:href="classutil_1_1configurable.html" target="_top" xlink:title=" ">
<polygon fill="none" stroke="black" points="0,-0.5 0,-30.5 98,-30.5 98,-0.5 0,-0.5"/>
<text text-anchor="start" x="8" y="-18.5" font-family="Helvetica,sans-Serif" font-size="10.00">util::configurable</text>
<text text-anchor="middle" x="49" y="-7.5" font-family="Helvetica,sans-Serif" font-size="10.00">&lt; Config &gt;</text>
</a>
</g>
</g>
<!-- Node2&#45;&gt;Node1 -->
<g id="edge2" class="edge">
<title>Node2&#45;&gt;Node1</title>
<path fill="none" stroke="midnightblue" d="M108.01,-24.85C116.54,-26.22 125.28,-27.63 133.7,-28.99"/>
<polygon fill="midnightblue" stroke="midnightblue" points="108.55,-21.39 98.12,-23.26 107.44,-28.3 108.55,-21.39"/>
</g>
</g>
</svg>
