<?xml version="1.0" encoding="UTF-8" standalone="no"?>
<!DOCTYPE svg PUBLIC "-//W3C//DTD SVG 1.1//EN"
 "http://www.w3.org/Graphics/SVG/1.1/DTD/svg11.dtd">
<!-- Generated by graphviz version 2.43.0 (0)
 -->
<!-- Title: Graphical Class Hierarchy Pages: 1 -->
<svg width="303pt" height="439pt"
 viewBox="0.00 0.00 303.00 439.00" xmlns="http://www.w3.org/2000/svg" xmlns:xlink="http://www.w3.org/1999/xlink">
<g id="graph0" class="graph" transform="scale(1 1) rotate(0) translate(4 435)">
<title>Graphical Class Hierarchy</title>
<!-- Node0 -->
<g id="node1" class="node">
<title>Node0</title>
<g id="a_node1"><a xlink:title=" ">
<polygon fill="none" stroke="#bfbfbf" points="0,-211 0,-230 100,-230 100,-211 0,-211"/>
<text text-anchor="middle" x="50" y="-218" font-family="Helvetica,sans-Serif" font-size="10.00">value_t_constant</text>
</a>
</g>
</g>
<!-- Node1 -->
<g id="node2" class="node">
<title>Node1</title>
<g id="a_node2"><a xlink:href="structtoml_1_1detail_1_1type__to__enum_3_01boolean_00_01Value_01_4.html" target="_top" xlink:title=" ">
<polygon fill="none" stroke="black" points="136,-400.5 136,-430.5 295,-430.5 295,-400.5 136,-400.5"/>
<text text-anchor="start" x="144" y="-418.5" font-family="Helvetica,sans-Serif" font-size="10.00">toml::detail::type</text>
<text text-anchor="middle" x="215.5" y="-407.5" font-family="Helvetica,sans-Serif" font-size="10.00">_to_enum&lt; boolean, Value &gt;</text>
</a>
</g>
</g>
<!-- Node0&#45;&gt;Node1 -->
<g id="edge1" class="edge">
<title>Node0&#45;&gt;Node1</title>
<path fill="none" stroke="midnightblue" d="M55.48,-240.22C64.52,-275.53 88.26,-349.66 136,-390.5 140.56,-394.41 145.74,-397.7 151.21,-400.49"/>
<polygon fill="midnightblue" stroke="midnightblue" points="58.81,-239.11 53.05,-230.22 52.01,-240.76 58.81,-239.11"/>
</g>
<!-- Node2 -->
<g id="node3" class="node">
<title>Node2</title>
<g id="a_node3"><a xlink:href="structtoml_1_1detail_1_1type__to__enum_3_01floating_00_01Value_01_4.html" target="_top" xlink:title=" ">
<polygon fill="none" stroke="black" points="157.5,-340 157.5,-381 273.5,-381 273.5,-340 157.5,-340"/>
<text text-anchor="start" x="165.5" y="-369" font-family="Helvetica,sans-Serif" font-size="10.00">toml::detail::type</text>
<text text-anchor="start" x="165.5" y="-358" font-family="Helvetica,sans-Serif" font-size="10.00">_to_enum&lt; floating,</text>
<text text-anchor="middle" x="215.5" y="-347" font-family="Helvetica,sans-Serif" font-size="10.00"> Value &gt;</text>
</a>
</g>
</g>
<!-- Node0&#45;&gt;Node2 -->
<g id="edge2" class="edge">
<title>Node0&#45;&gt;Node2</title>
<path fill="none" stroke="midnightblue" d="M60.98,-239.04C74.86,-263.2 102.12,-305.33 136,-330.5 142.44,-335.29 149.74,-339.4 157.23,-342.91"/>
<polygon fill="midnightblue" stroke="midnightblue" points="63.96,-237.2 56.03,-230.17 57.85,-240.61 63.96,-237.2"/>
</g>
<!-- Node3 -->
<g id="node4" class="node">
<title>Node3</title>
<g id="a_node4"><a xlink:href="structtoml_1_1detail_1_1type__to__enum_3_01integer_00_01Value_01_4.html" target="_top" xlink:title=" ">
<polygon fill="none" stroke="black" points="138,-290.5 138,-320.5 293,-320.5 293,-290.5 138,-290.5"/>
<text text-anchor="start" x="146" y="-308.5" font-family="Helvetica,sans-Serif" font-size="10.00">toml::detail::type</text>
<text text-anchor="middle" x="215.5" y="-297.5" font-family="Helvetica,sans-Serif" font-size="10.00">_to_enum&lt; integer, Value &gt;</text>
</a>
</g>
</g>
<!-- Node0&#45;&gt;Node3 -->
<g id="edge3" class="edge">
<title>Node0&#45;&gt;Node3</title>
<path fill="none" stroke="midnightblue" d="M69.93,-236.44C86.48,-249.73 111.62,-268.38 136,-280.5 143.43,-284.19 151.52,-287.5 159.59,-290.4"/>
<polygon fill="midnightblue" stroke="midnightblue" points="72.07,-233.67 62.11,-230.05 67.64,-239.09 72.07,-233.67"/>
</g>
<!-- Node4 -->
<g id="node5" class="node">
<title>Node4</title>
<g id="a_node5"><a xlink:href="structtoml_1_1detail_1_1type__to__enum_3_01local__date_00_01Value_01_4.html" target="_top" xlink:title=" ">
<polygon fill="none" stroke="black" points="151,-230 151,-271 280,-271 280,-230 151,-230"/>
<text text-anchor="start" x="159" y="-259" font-family="Helvetica,sans-Serif" font-size="10.00">toml::detail::type</text>
<text text-anchor="start" x="159" y="-248" font-family="Helvetica,sans-Serif" font-size="10.00">_to_enum&lt; local_date,</text>
<text text-anchor="middle" x="215.5" y="-237" font-family="Helvetica,sans-Serif" font-size="10.00"> Value &gt;</text>
</a>
</g>
</g>
<!-- Node0&#45;&gt;Node4 -->
<g id="edge4" class="edge">
<title>Node0&#45;&gt;Node4</title>
<path fill="none" stroke="midnightblue" d="M110.02,-231.33C123.31,-233.77 137.47,-236.37 150.93,-238.84"/>
<polygon fill="midnightblue" stroke="midnightblue" points="110.52,-227.86 100.06,-229.5 109.26,-234.75 110.52,-227.86"/>
</g>
<!-- Node5 -->
<g id="node6" class="node">
<title>Node5</title>
<g id="a_node6"><a xlink:href="structtoml_1_1detail_1_1type__to__enum_3_01local__datetime_00_01Value_01_4.html" target="_top" xlink:title=" ">
<polygon fill="none" stroke="black" points="139.5,-170 139.5,-211 291.5,-211 291.5,-170 139.5,-170"/>
<text text-anchor="start" x="147.5" y="-199" font-family="Helvetica,sans-Serif" font-size="10.00">toml::detail::type</text>
<text text-anchor="start" x="147.5" y="-188" font-family="Helvetica,sans-Serif" font-size="10.00">_to_enum&lt; local_datetime,</text>
<text text-anchor="middle" x="215.5" y="-177" font-family="Helvetica,sans-Serif" font-size="10.00"> Value &gt;</text>
</a>
</g>
</g>
<!-- Node0&#45;&gt;Node5 -->
<g id="edge5" class="edge">
<title>Node0&#45;&gt;Node5</title>
<path fill="none" stroke="midnightblue" d="M110.18,-209.64C119.69,-207.9 129.65,-206.07 139.47,-204.27"/>
<polygon fill="midnightblue" stroke="midnightblue" points="109.26,-206.25 100.06,-211.5 110.52,-213.14 109.26,-206.25"/>
</g>
<!-- Node6 -->
<g id="node7" class="node">
<title>Node6</title>
<g id="a_node7"><a xlink:href="structtoml_1_1detail_1_1type__to__enum_3_01local__time_00_01Value_01_4.html" target="_top" xlink:title=" ">
<polygon fill="none" stroke="black" points="150.5,-110 150.5,-151 280.5,-151 280.5,-110 150.5,-110"/>
<text text-anchor="start" x="158.5" y="-139" font-family="Helvetica,sans-Serif" font-size="10.00">toml::detail::type</text>
<text text-anchor="start" x="158.5" y="-128" font-family="Helvetica,sans-Serif" font-size="10.00">_to_enum&lt; local_time,</text>
<text text-anchor="middle" x="215.5" y="-117" font-family="Helvetica,sans-Serif" font-size="10.00"> Value &gt;</text>
</a>
</g>
</g>
<!-- Node0&#45;&gt;Node6 -->
<g id="edge6" class="edge">
<title>Node0&#45;&gt;Node6</title>
<path fill="none" stroke="midnightblue" d="M70.4,-204.68C87.06,-191.63 112.11,-173.24 136,-160.5 142.31,-157.14 149.08,-153.96 155.9,-151.03"/>
<polygon fill="midnightblue" stroke="midnightblue" points="68.14,-202 62.5,-210.97 72.5,-207.48 68.14,-202"/>
</g>
<!-- Node7 -->
<g id="node8" class="node">
<title>Node7</title>
<g id="a_node8"><a xlink:href="structtoml_1_1detail_1_1type__to__enum_3_01offset__datetime_00_01Value_01_4.html" target="_top" xlink:title=" ">
<polygon fill="none" stroke="black" points="137.5,-50 137.5,-91 293.5,-91 293.5,-50 137.5,-50"/>
<text text-anchor="start" x="145.5" y="-79" font-family="Helvetica,sans-Serif" font-size="10.00">toml::detail::type</text>
<text text-anchor="start" x="145.5" y="-68" font-family="Helvetica,sans-Serif" font-size="10.00">_to_enum&lt; offset_datetime,</text>
<text text-anchor="middle" x="215.5" y="-57" font-family="Helvetica,sans-Serif" font-size="10.00"> Value &gt;</text>
</a>
</g>
</g>
<!-- Node0&#45;&gt;Node7 -->
<g id="edge7" class="edge">
<title>Node0&#45;&gt;Node7</title>
<path fill="none" stroke="midnightblue" d="M59.79,-201.77C72.93,-175.66 100.03,-128.41 136,-100.5 140.5,-97.01 145.44,-93.89 150.6,-91.11"/>
<polygon fill="midnightblue" stroke="midnightblue" points="56.55,-200.43 55.31,-210.95 62.84,-203.5 56.55,-200.43"/>
</g>
<!-- Node8 -->
<g id="node9" class="node">
<title>Node8</title>
<g id="a_node9"><a xlink:href="structtoml_1_1detail_1_1type__to__enum_3_01string_00_01Value_01_4.html" target="_top" xlink:title=" ">
<polygon fill="none" stroke="black" points="141.5,-0.5 141.5,-30.5 289.5,-30.5 289.5,-0.5 141.5,-0.5"/>
<text text-anchor="start" x="149.5" y="-18.5" font-family="Helvetica,sans-Serif" font-size="10.00">toml::detail::type</text>
<text text-anchor="middle" x="215.5" y="-7.5" font-family="Helvetica,sans-Serif" font-size="10.00">_to_enum&lt; string, Value &gt;</text>
</a>
</g>
</g>
<!-- Node0&#45;&gt;Node8 -->
<g id="edge8" class="edge">
<title>Node0&#45;&gt;Node8</title>
<path fill="none" stroke="midnightblue" d="M54.9,-200.64C63.19,-163.7 86.04,-84.23 136,-40.5 140.41,-36.64 145.43,-33.37 150.73,-30.61"/>
<polygon fill="midnightblue" stroke="midnightblue" points="51.43,-200.14 52.78,-210.65 58.28,-201.59 51.43,-200.14"/>
</g>
</g>
</svg>
