<?xml version="1.0" encoding="UTF-8" standalone="no"?>
<!DOCTYPE svg PUBLIC "-//W3C//DTD SVG 1.1//EN"
 "http://www.w3.org/Graphics/SVG/1.1/DTD/svg11.dtd">
<!-- Generated by graphviz version 2.43.0 (0)
 -->
<!-- Title: toml::detail::has_mapped_type&lt; T &gt; Pages: 1 -->
<svg width="149pt" height="193pt"
 viewBox="0.00 0.00 149.00 193.00" xmlns="http://www.w3.org/2000/svg" xmlns:xlink="http://www.w3.org/1999/xlink">
<g id="graph0" class="graph" transform="scale(1 1) rotate(0) translate(4 189)">
<title>toml::detail::has_mapped_type&lt; T &gt;</title>
<!-- Node1 -->
<g id="node1" class="node">
<title>Node1</title>
<g id="a_node1"><a xlink:title=" ">
<polygon fill="#bfbfbf" stroke="black" points="0,-0.5 0,-68.5 141,-68.5 141,-0.5 0,-0.5"/>
<text text-anchor="start" x="8" y="-56.5" font-family="Helvetica,sans-Serif" font-size="10.00">toml::detail::has_mapped</text>
<text text-anchor="middle" x="70.5" y="-45.5" font-family="Helvetica,sans-Serif" font-size="10.00">_type&lt; T &gt;</text>
<polyline fill="none" stroke="black" points="0,-38.5 141,-38.5 "/>
<text text-anchor="middle" x="70.5" y="-26.5" font-family="Helvetica,sans-Serif" font-size="10.00"> </text>
<polyline fill="none" stroke="black" points="0,-19.5 141,-19.5 "/>
<text text-anchor="middle" x="70.5" y="-7.5" font-family="Helvetica,sans-Serif" font-size="10.00"> </text>
</a>
</g>
</g>
<!-- Node2 -->
<g id="node2" class="node">
<title>Node2</title>
<g id="a_node2"><a xlink:title=" ">
<polygon fill="none" stroke="black" points="9.5,-105.5 9.5,-184.5 131.5,-184.5 131.5,-105.5 9.5,-105.5"/>
<text text-anchor="start" x="17.5" y="-172.5" font-family="Helvetica,sans-Serif" font-size="10.00">decltypehas_mapped</text>
<text text-anchor="start" x="17.5" y="-161.5" font-family="Helvetica,sans-Serif" font-size="10.00">_type_impl::check&lt; T</text>
<text text-anchor="middle" x="70.5" y="-150.5" font-family="Helvetica,sans-Serif" font-size="10.00"> &gt;nullptr</text>
<polyline fill="none" stroke="black" points="9.5,-143.5 131.5,-143.5 "/>
<text text-anchor="middle" x="70.5" y="-131.5" font-family="Helvetica,sans-Serif" font-size="10.00"> </text>
<polyline fill="none" stroke="black" points="9.5,-124.5 131.5,-124.5 "/>
<text text-anchor="middle" x="70.5" y="-112.5" font-family="Helvetica,sans-Serif" font-size="10.00"> </text>
</a>
</g>
</g>
<!-- Node2&#45;&gt;Node1 -->
<g id="edge1" class="edge">
<title>Node2&#45;&gt;Node1</title>
<path fill="none" stroke="midnightblue" d="M70.5,-95.35C70.5,-86.28 70.5,-77 70.5,-68.54"/>
<polygon fill="none" stroke="midnightblue" points="67,-95.44 70.5,-105.44 74,-95.44 67,-95.44"/>
</g>
</g>
</svg>
