<?xml version="1.0" encoding="UTF-8" standalone="no"?>
<!DOCTYPE svg PUBLIC "-//W3C//DTD SVG 1.1//EN"
 "http://www.w3.org/Graphics/SVG/1.1/DTD/svg11.dtd">
<!-- Generated by graphviz version 2.43.0 (0)
 -->
<!-- Title: toml::detail::is_basic_value&lt; T const volatile &amp; &gt; Pages: 1 -->
<svg width="165pt" height="276pt"
 viewBox="0.00 0.00 165.00 276.00" xmlns="http://www.w3.org/2000/svg" xmlns:xlink="http://www.w3.org/1999/xlink">
<g id="graph0" class="graph" transform="scale(1 1) rotate(0) translate(4 272)">
<title>toml::detail::is_basic_value&lt; T const volatile &amp; &gt;</title>
<!-- Node1 -->
<g id="node1" class="node">
<title>Node1</title>
<g id="a_node1"><a xlink:title=" ">
<polygon fill="#bfbfbf" stroke="black" points="0,-0.5 0,-68.5 157,-68.5 157,-0.5 0,-0.5"/>
<text text-anchor="start" x="8" y="-56.5" font-family="Helvetica,sans-Serif" font-size="10.00">toml::detail::is_basic</text>
<text text-anchor="middle" x="78.5" y="-45.5" font-family="Helvetica,sans-Serif" font-size="10.00">_value&lt; T const volatile &amp; &gt;</text>
<polyline fill="none" stroke="black" points="0,-38.5 157,-38.5 "/>
<text text-anchor="middle" x="78.5" y="-26.5" font-family="Helvetica,sans-Serif" font-size="10.00"> </text>
<polyline fill="none" stroke="black" points="0,-19.5 157,-19.5 "/>
<text text-anchor="middle" x="78.5" y="-7.5" font-family="Helvetica,sans-Serif" font-size="10.00"> </text>
</a>
</g>
</g>
<!-- Node2 -->
<g id="node2" class="node">
<title>Node2</title>
<g id="a_node2"><a xlink:href="structtoml_1_1detail_1_1is__basic__value.html" target="_top" xlink:title=" ">
<polygon fill="none" stroke="black" points="19.5,-105.5 19.5,-173.5 137.5,-173.5 137.5,-105.5 19.5,-105.5"/>
<text text-anchor="start" x="27.5" y="-161.5" font-family="Helvetica,sans-Serif" font-size="10.00">toml::detail::is_basic</text>
<text text-anchor="middle" x="78.5" y="-150.5" font-family="Helvetica,sans-Serif" font-size="10.00">_value&lt; T &gt;</text>
<polyline fill="none" stroke="black" points="19.5,-143.5 137.5,-143.5 "/>
<text text-anchor="middle" x="78.5" y="-131.5" font-family="Helvetica,sans-Serif" font-size="10.00"> </text>
<polyline fill="none" stroke="black" points="19.5,-124.5 137.5,-124.5 "/>
<text text-anchor="middle" x="78.5" y="-112.5" font-family="Helvetica,sans-Serif" font-size="10.00"> </text>
</a>
</g>
</g>
<!-- Node2&#45;&gt;Node1 -->
<g id="edge1" class="edge">
<title>Node2&#45;&gt;Node1</title>
<path fill="none" stroke="midnightblue" d="M78.5,-95.14C78.5,-86.26 78.5,-77.04 78.5,-68.59"/>
<polygon fill="none" stroke="midnightblue" points="75,-95.34 78.5,-105.34 82,-95.34 75,-95.34"/>
</g>
<!-- Node3 -->
<g id="node3" class="node">
<title>Node3</title>
<g id="a_node3"><a xlink:title=" ">
<polygon fill="none" stroke="black" points="34,-210.5 34,-267.5 123,-267.5 123,-210.5 34,-210.5"/>
<text text-anchor="middle" x="78.5" y="-255.5" font-family="Helvetica,sans-Serif" font-size="10.00">std::false_type</text>
<polyline fill="none" stroke="black" points="34,-248.5 123,-248.5 "/>
<text text-anchor="middle" x="78.5" y="-236.5" font-family="Helvetica,sans-Serif" font-size="10.00"> </text>
<polyline fill="none" stroke="black" points="34,-229.5 123,-229.5 "/>
<text text-anchor="middle" x="78.5" y="-217.5" font-family="Helvetica,sans-Serif" font-size="10.00"> </text>
</a>
</g>
</g>
<!-- Node3&#45;&gt;Node2 -->
<g id="edge2" class="edge">
<title>Node3&#45;&gt;Node2</title>
<path fill="none" stroke="midnightblue" d="M78.5,-200.06C78.5,-191.39 78.5,-182.24 78.5,-173.79"/>
<polygon fill="none" stroke="midnightblue" points="75,-200.32 78.5,-210.32 82,-200.32 75,-200.32"/>
</g>
</g>
</svg>
