<?xml version="1.0" encoding="UTF-8" standalone="no"?>
<!DOCTYPE svg PUBLIC "-//W3C//DTD SVG 1.1//EN"
 "http://www.w3.org/Graphics/SVG/1.1/DTD/svg11.dtd">
<!-- Generated by graphviz version 2.43.0 (0)
 -->
<!-- Title: logging::endpoint::endpoint Pages: 1 -->
<svg width="256pt" height="320pt"
 viewBox="0.00 0.00 255.50 320.00" xmlns="http://www.w3.org/2000/svg" xmlns:xlink="http://www.w3.org/1999/xlink">
<g id="graph0" class="graph" transform="scale(1 1) rotate(0) translate(4 316)">
<title>logging::endpoint::endpoint</title>
<!-- Node1 -->
<g id="node1" class="node">
<title>Node1</title>
<g id="a_node1"><a xlink:title=" ">
<polygon fill="#bfbfbf" stroke="black" points="73.5,-127.5 73.5,-217.5 180.5,-217.5 180.5,-127.5 73.5,-127.5"/>
<text text-anchor="start" x="81.5" y="-205.5" font-family="Helvetica,sans-Serif" font-size="10.00">logging::endpoint::</text>
<text text-anchor="middle" x="127" y="-194.5" font-family="Helvetica,sans-Serif" font-size="10.00">endpoint</text>
<polyline fill="none" stroke="black" points="73.5,-187.5 180.5,-187.5 "/>
<text text-anchor="middle" x="127" y="-175.5" font-family="Helvetica,sans-Serif" font-size="10.00"> </text>
<polyline fill="none" stroke="black" points="73.5,-168.5 180.5,-168.5 "/>
<text text-anchor="start" x="81.5" y="-156.5" font-family="Helvetica,sans-Serif" font-size="10.00">+ endpoint()</text>
<text text-anchor="start" x="81.5" y="-145.5" font-family="Helvetica,sans-Serif" font-size="10.00">+ ~endpoint()</text>
<text text-anchor="start" x="81.5" y="-134.5" font-family="Helvetica,sans-Serif" font-size="10.00">+ print()</text>
</a>
</g>
</g>
<!-- Node3 -->
<g id="node3" class="node">
<title>Node3</title>
<g id="a_node3"><a xlink:href="classlogging_1_1endpoint_1_1file.html" target="_top" xlink:title=" ">
<polygon fill="none" stroke="black" points="0,-0.5 0,-90.5 122,-90.5 122,-0.5 0,-0.5"/>
<text text-anchor="middle" x="61" y="-78.5" font-family="Helvetica,sans-Serif" font-size="10.00">logging::endpoint::file</text>
<polyline fill="none" stroke="black" points="0,-71.5 122,-71.5 "/>
<text text-anchor="middle" x="61" y="-59.5" font-family="Helvetica,sans-Serif" font-size="10.00"> </text>
<polyline fill="none" stroke="black" points="0,-52.5 122,-52.5 "/>
<text text-anchor="start" x="8" y="-40.5" font-family="Helvetica,sans-Serif" font-size="10.00">+ file()</text>
<text text-anchor="start" x="8" y="-29.5" font-family="Helvetica,sans-Serif" font-size="10.00">+ file()</text>
<text text-anchor="start" x="8" y="-18.5" font-family="Helvetica,sans-Serif" font-size="10.00">+ file()</text>
<text text-anchor="start" x="8" y="-7.5" font-family="Helvetica,sans-Serif" font-size="10.00">+ print()</text>
</a>
</g>
</g>
<!-- Node1&#45;&gt;Node3 -->
<g id="edge2" class="edge">
<title>Node1&#45;&gt;Node3</title>
<path fill="none" stroke="midnightblue" d="M98.92,-118.31C94.04,-109.07 89.01,-99.56 84.28,-90.59"/>
<polygon fill="none" stroke="midnightblue" points="95.97,-120.22 103.73,-127.43 102.16,-116.95 95.97,-120.22"/>
</g>
<!-- Node4 -->
<g id="node4" class="node">
<title>Node4</title>
<g id="a_node4"><a xlink:href="classlogging_1_1endpoint_1_1systemd.html" target="_top" xlink:title=" ">
<polygon fill="none" stroke="black" points="140.5,-6 140.5,-85 247.5,-85 247.5,-6 140.5,-6"/>
<text text-anchor="start" x="148.5" y="-73" font-family="Helvetica,sans-Serif" font-size="10.00">logging::endpoint::</text>
<text text-anchor="middle" x="194" y="-62" font-family="Helvetica,sans-Serif" font-size="10.00">systemd</text>
<polyline fill="none" stroke="black" points="140.5,-55 247.5,-55 "/>
<text text-anchor="middle" x="194" y="-43" font-family="Helvetica,sans-Serif" font-size="10.00"> </text>
<polyline fill="none" stroke="black" points="140.5,-36 247.5,-36 "/>
<text text-anchor="start" x="148.5" y="-24" font-family="Helvetica,sans-Serif" font-size="10.00">+ systemd()</text>
<text text-anchor="start" x="148.5" y="-13" font-family="Helvetica,sans-Serif" font-size="10.00">+ print()</text>
</a>
</g>
</g>
<!-- Node1&#45;&gt;Node4 -->
<g id="edge3" class="edge">
<title>Node1&#45;&gt;Node4</title>
<path fill="none" stroke="midnightblue" d="M155.37,-118.56C161.38,-107.36 167.61,-95.74 173.26,-85.19"/>
<polygon fill="none" stroke="midnightblue" points="152.26,-116.96 150.62,-127.43 158.43,-120.27 152.26,-116.96"/>
</g>
<!-- Node2 -->
<g id="node2" class="node">
<title>Node2</title>
<g id="a_node2"><a xlink:href="classutil_1_1factory.html" target="_top" xlink:title=" ">
<polygon fill="none" stroke="black" points="58,-254.5 58,-311.5 196,-311.5 196,-254.5 58,-254.5"/>
<text text-anchor="middle" x="127" y="-299.5" font-family="Helvetica,sans-Serif" font-size="10.00">util::factory&lt; endpoint &gt;</text>
<polyline fill="none" stroke="black" points="58,-292.5 196,-292.5 "/>
<text text-anchor="start" x="66" y="-280.5" font-family="Helvetica,sans-Serif" font-size="10.00">+ base_t</text>
<polyline fill="none" stroke="black" points="58,-273.5 196,-273.5 "/>
<text text-anchor="start" x="66" y="-261.5" font-family="Helvetica,sans-Serif" font-size="10.00">+ make()</text>
</a>
</g>
</g>
<!-- Node2&#45;&gt;Node1 -->
<g id="edge1" class="edge">
<title>Node2&#45;&gt;Node1</title>
<path fill="none" stroke="midnightblue" d="M127,-244.21C127,-235.61 127,-226.39 127,-217.55"/>
<polygon fill="none" stroke="midnightblue" points="123.5,-244.34 127,-254.34 130.5,-244.34 123.5,-244.34"/>
</g>
</g>
</svg>
