<?xml version="1.0" encoding="UTF-8" standalone="no"?>
<!DOCTYPE svg PUBLIC "-//W3C//DTD SVG 1.1//EN"
 "http://www.w3.org/Graphics/SVG/1.1/DTD/svg11.dtd">
<!-- Generated by graphviz version 2.43.0 (0)
 -->
<!-- Title: toml::detail::is_container&lt; T &gt; Pages: 1 -->
<svg width="614pt" height="403pt"
 viewBox="0.00 0.00 614.00 403.00" xmlns="http://www.w3.org/2000/svg" xmlns:xlink="http://www.w3.org/1999/xlink">
<g id="graph0" class="graph" transform="scale(1 1) rotate(0) translate(4 399)">
<title>toml::detail::is_container&lt; T &gt;</title>
<!-- Node1 -->
<g id="node1" class="node">
<title>Node1</title>
<g id="a_node1"><a xlink:title=" ">
<polygon fill="#bfbfbf" stroke="black" points="219.5,-105.5 219.5,-162.5 386.5,-162.5 386.5,-105.5 219.5,-105.5"/>
<text text-anchor="middle" x="303" y="-150.5" font-family="Helvetica,sans-Serif" font-size="10.00">toml::detail::is_container&lt; T &gt;</text>
<polyline fill="none" stroke="black" points="219.5,-143.5 386.5,-143.5 "/>
<text text-anchor="middle" x="303" y="-131.5" font-family="Helvetica,sans-Serif" font-size="10.00"> </text>
<polyline fill="none" stroke="black" points="219.5,-124.5 386.5,-124.5 "/>
<text text-anchor="middle" x="303" y="-112.5" font-family="Helvetica,sans-Serif" font-size="10.00"> </text>
</a>
</g>
</g>
<!-- Node4 -->
<g id="node4" class="node">
<title>Node4</title>
<g id="a_node4"><a xlink:href="structtoml_1_1detail_1_1is__container_3_01T_01_6_01_4.html" target="_top" xlink:title=" ">
<polygon fill="none" stroke="black" points="0,-0.5 0,-68.5 138,-68.5 138,-0.5 0,-0.5"/>
<text text-anchor="start" x="8" y="-56.5" font-family="Helvetica,sans-Serif" font-size="10.00">toml::detail::is_container</text>
<text text-anchor="middle" x="69" y="-45.5" font-family="Helvetica,sans-Serif" font-size="10.00">&lt; T &amp; &gt;</text>
<polyline fill="none" stroke="black" points="0,-38.5 138,-38.5 "/>
<text text-anchor="middle" x="69" y="-26.5" font-family="Helvetica,sans-Serif" font-size="10.00"> </text>
<polyline fill="none" stroke="black" points="0,-19.5 138,-19.5 "/>
<text text-anchor="middle" x="69" y="-7.5" font-family="Helvetica,sans-Serif" font-size="10.00"> </text>
</a>
</g>
</g>
<!-- Node1&#45;&gt;Node4 -->
<g id="edge3" class="edge">
<title>Node1&#45;&gt;Node4</title>
<path fill="none" stroke="midnightblue" d="M225.48,-101.49C200.4,-91.22 172.49,-79.7 147,-69 144.15,-67.8 141.24,-66.57 138.3,-65.33"/>
<polygon fill="none" stroke="midnightblue" points="224.36,-104.81 234.94,-105.36 227.01,-98.33 224.36,-104.81"/>
</g>
<!-- Node5 -->
<g id="node5" class="node">
<title>Node5</title>
<g id="a_node5"><a xlink:href="structtoml_1_1detail_1_1is__container_3_01T_01const_01_6_01_4.html" target="_top" xlink:title=" ">
<polygon fill="none" stroke="black" points="156,-0.5 156,-68.5 294,-68.5 294,-0.5 156,-0.5"/>
<text text-anchor="start" x="164" y="-56.5" font-family="Helvetica,sans-Serif" font-size="10.00">toml::detail::is_container</text>
<text text-anchor="middle" x="225" y="-45.5" font-family="Helvetica,sans-Serif" font-size="10.00">&lt; T const &amp; &gt;</text>
<polyline fill="none" stroke="black" points="156,-38.5 294,-38.5 "/>
<text text-anchor="middle" x="225" y="-26.5" font-family="Helvetica,sans-Serif" font-size="10.00"> </text>
<polyline fill="none" stroke="black" points="156,-19.5 294,-19.5 "/>
<text text-anchor="middle" x="225" y="-7.5" font-family="Helvetica,sans-Serif" font-size="10.00"> </text>
</a>
</g>
</g>
<!-- Node1&#45;&gt;Node5 -->
<g id="edge4" class="edge">
<title>Node1&#45;&gt;Node5</title>
<path fill="none" stroke="midnightblue" d="M274.47,-97.34C267.01,-88.01 258.99,-77.99 251.63,-68.79"/>
<polygon fill="none" stroke="midnightblue" points="271.88,-99.7 280.86,-105.32 277.34,-95.33 271.88,-99.7"/>
</g>
<!-- Node6 -->
<g id="node6" class="node">
<title>Node6</title>
<g id="a_node6"><a xlink:href="structtoml_1_1detail_1_1is__container_3_01T_01const_01volatile_01_6_01_4.html" target="_top" xlink:title=" ">
<polygon fill="none" stroke="black" points="312,-0.5 312,-68.5 450,-68.5 450,-0.5 312,-0.5"/>
<text text-anchor="start" x="320" y="-56.5" font-family="Helvetica,sans-Serif" font-size="10.00">toml::detail::is_container</text>
<text text-anchor="middle" x="381" y="-45.5" font-family="Helvetica,sans-Serif" font-size="10.00">&lt; T const volatile &amp; &gt;</text>
<polyline fill="none" stroke="black" points="312,-38.5 450,-38.5 "/>
<text text-anchor="middle" x="381" y="-26.5" font-family="Helvetica,sans-Serif" font-size="10.00"> </text>
<polyline fill="none" stroke="black" points="312,-19.5 450,-19.5 "/>
<text text-anchor="middle" x="381" y="-7.5" font-family="Helvetica,sans-Serif" font-size="10.00"> </text>
</a>
</g>
</g>
<!-- Node1&#45;&gt;Node6 -->
<g id="edge5" class="edge">
<title>Node1&#45;&gt;Node6</title>
<path fill="none" stroke="midnightblue" d="M331.53,-97.34C338.99,-88.01 347.01,-77.99 354.37,-68.79"/>
<polygon fill="none" stroke="midnightblue" points="328.66,-95.33 325.14,-105.32 334.12,-99.7 328.66,-95.33"/>
</g>
<!-- Node7 -->
<g id="node7" class="node">
<title>Node7</title>
<g id="a_node7"><a xlink:href="structtoml_1_1detail_1_1is__container_3_01T_01volatile_01_6_01_4.html" target="_top" xlink:title=" ">
<polygon fill="none" stroke="black" points="468,-0.5 468,-68.5 606,-68.5 606,-0.5 468,-0.5"/>
<text text-anchor="start" x="476" y="-56.5" font-family="Helvetica,sans-Serif" font-size="10.00">toml::detail::is_container</text>
<text text-anchor="middle" x="537" y="-45.5" font-family="Helvetica,sans-Serif" font-size="10.00">&lt; T volatile &amp; &gt;</text>
<polyline fill="none" stroke="black" points="468,-38.5 606,-38.5 "/>
<text text-anchor="middle" x="537" y="-26.5" font-family="Helvetica,sans-Serif" font-size="10.00"> </text>
<polyline fill="none" stroke="black" points="468,-19.5 606,-19.5 "/>
<text text-anchor="middle" x="537" y="-7.5" font-family="Helvetica,sans-Serif" font-size="10.00"> </text>
</a>
</g>
</g>
<!-- Node1&#45;&gt;Node7 -->
<g id="edge6" class="edge">
<title>Node1&#45;&gt;Node7</title>
<path fill="none" stroke="midnightblue" d="M380.52,-101.49C405.6,-91.22 433.51,-79.7 459,-69 461.85,-67.8 464.76,-66.57 467.7,-65.33"/>
<polygon fill="none" stroke="midnightblue" points="378.99,-98.33 371.06,-105.36 381.64,-104.81 378.99,-98.33"/>
</g>
<!-- Node2 -->
<g id="node2" class="node">
<title>Node2</title>
<g id="a_node2"><a xlink:title=" ">
<polygon fill="none" stroke="black" points="198.5,-199.5 198.5,-300.5 407.5,-300.5 407.5,-199.5 198.5,-199.5"/>
<text text-anchor="start" x="206.5" y="-288.5" font-family="Helvetica,sans-Serif" font-size="10.00">toml::detail::conjunction</text>
<text text-anchor="start" x="206.5" y="-277.5" font-family="Helvetica,sans-Serif" font-size="10.00">&lt; negation&lt; is_map&lt; T &gt;</text>
<text text-anchor="start" x="206.5" y="-266.5" font-family="Helvetica,sans-Serif" font-size="10.00"> &gt;, negation&lt; std::is_same</text>
<text text-anchor="start" x="206.5" y="-255.5" font-family="Helvetica,sans-Serif" font-size="10.00">&lt; T, std::string &gt; &gt;, has</text>
<text text-anchor="middle" x="303" y="-244.5" font-family="Helvetica,sans-Serif" font-size="10.00">_iterator&lt; T &gt;, has_value_type&lt; T &gt; &gt;</text>
<polyline fill="none" stroke="black" points="198.5,-237.5 407.5,-237.5 "/>
<text text-anchor="middle" x="303" y="-225.5" font-family="Helvetica,sans-Serif" font-size="10.00"> </text>
<polyline fill="none" stroke="black" points="198.5,-218.5 407.5,-218.5 "/>
<text text-anchor="middle" x="303" y="-206.5" font-family="Helvetica,sans-Serif" font-size="10.00"> </text>
</a>
</g>
</g>
<!-- Node2&#45;&gt;Node1 -->
<g id="edge1" class="edge">
<title>Node2&#45;&gt;Node1</title>
<path fill="none" stroke="midnightblue" d="M303,-189.23C303,-179.92 303,-170.71 303,-162.59"/>
<polygon fill="none" stroke="midnightblue" points="299.5,-189.33 303,-199.33 306.5,-189.33 299.5,-189.33"/>
</g>
<!-- Node3 -->
<g id="node3" class="node">
<title>Node3</title>
<g id="a_node3"><a xlink:title=" ">
<polygon fill="none" stroke="black" points="261,-337.5 261,-394.5 345,-394.5 345,-337.5 261,-337.5"/>
<text text-anchor="middle" x="303" y="-382.5" font-family="Helvetica,sans-Serif" font-size="10.00">std::true_type</text>
<polyline fill="none" stroke="black" points="261,-375.5 345,-375.5 "/>
<text text-anchor="middle" x="303" y="-363.5" font-family="Helvetica,sans-Serif" font-size="10.00"> </text>
<polyline fill="none" stroke="black" points="261,-356.5 345,-356.5 "/>
<text text-anchor="middle" x="303" y="-344.5" font-family="Helvetica,sans-Serif" font-size="10.00"> </text>
</a>
</g>
</g>
<!-- Node3&#45;&gt;Node2 -->
<g id="edge2" class="edge">
<title>Node3&#45;&gt;Node2</title>
<path fill="none" stroke="midnightblue" d="M303,-327.35C303,-318.8 303,-309.58 303,-300.61"/>
<polygon fill="none" stroke="midnightblue" points="299.5,-327.4 303,-337.4 306.5,-327.4 299.5,-327.4"/>
</g>
</g>
</svg>
