<?xml version="1.0" encoding="UTF-8" standalone="no"?>
<!DOCTYPE svg PUBLIC "-//W3C//DTD SVG 1.1//EN"
 "http://www.w3.org/Graphics/SVG/1.1/DTD/svg11.dtd">
<!-- Generated by graphviz version 2.43.0 (0)
 -->
<!-- Title: toml::detail::type_to_enum&lt; local_time, Value &gt; Pages: 1 -->
<svg width="146pt" height="193pt"
 viewBox="0.00 0.00 146.00 193.00" xmlns="http://www.w3.org/2000/svg" xmlns:xlink="http://www.w3.org/1999/xlink">
<g id="graph0" class="graph" transform="scale(1 1) rotate(0) translate(4 189)">
<title>toml::detail::type_to_enum&lt; local_time, Value &gt;</title>
<!-- Node1 -->
<g id="node1" class="node">
<title>Node1</title>
<g id="a_node1"><a xlink:title=" ">
<polygon fill="#bfbfbf" stroke="black" points="4,-0.5 4,-79.5 134,-79.5 134,-0.5 4,-0.5"/>
<text text-anchor="start" x="12" y="-67.5" font-family="Helvetica,sans-Serif" font-size="10.00">toml::detail::type</text>
<text text-anchor="start" x="12" y="-56.5" font-family="Helvetica,sans-Serif" font-size="10.00">_to_enum&lt; local_time,</text>
<text text-anchor="middle" x="69" y="-45.5" font-family="Helvetica,sans-Serif" font-size="10.00"> Value &gt;</text>
<polyline fill="none" stroke="black" points="4,-38.5 134,-38.5 "/>
<text text-anchor="middle" x="69" y="-26.5" font-family="Helvetica,sans-Serif" font-size="10.00"> </text>
<polyline fill="none" stroke="black" points="4,-19.5 134,-19.5 "/>
<text text-anchor="middle" x="69" y="-7.5" font-family="Helvetica,sans-Serif" font-size="10.00"> </text>
</a>
</g>
</g>
<!-- Node2 -->
<g id="node2" class="node">
<title>Node2</title>
<g id="a_node2"><a xlink:title=" ">
<polygon fill="none" stroke="black" points="0,-116.5 0,-184.5 138,-184.5 138,-116.5 0,-116.5"/>
<text text-anchor="start" x="8" y="-172.5" font-family="Helvetica,sans-Serif" font-size="10.00">value_t_constant&lt; value</text>
<text text-anchor="middle" x="69" y="-161.5" font-family="Helvetica,sans-Serif" font-size="10.00">_t::local_time &gt;</text>
<polyline fill="none" stroke="black" points="0,-154.5 138,-154.5 "/>
<text text-anchor="middle" x="69" y="-142.5" font-family="Helvetica,sans-Serif" font-size="10.00"> </text>
<polyline fill="none" stroke="black" points="0,-135.5 138,-135.5 "/>
<text text-anchor="middle" x="69" y="-123.5" font-family="Helvetica,sans-Serif" font-size="10.00"> </text>
</a>
</g>
</g>
<!-- Node2&#45;&gt;Node1 -->
<g id="edge1" class="edge">
<title>Node2&#45;&gt;Node1</title>
<path fill="none" stroke="midnightblue" d="M69,-106.27C69,-97.48 69,-88.28 69,-79.65"/>
<polygon fill="none" stroke="midnightblue" points="65.5,-106.36 69,-116.36 72.5,-106.36 65.5,-106.36"/>
</g>
</g>
</svg>
