<?xml version="1.0" encoding="UTF-8" standalone="no"?>
<!DOCTYPE svg PUBLIC "-//W3C//DTD SVG 1.1//EN"
 "http://www.w3.org/Graphics/SVG/1.1/DTD/svg11.dtd">
<!-- Generated by graphviz version 2.43.0 (0)
 -->
<!-- Title: util::factory&lt; base_t &gt;::registrar&lt; T, Config &gt; Pages: 1 -->
<svg width="180pt" height="248pt"
 viewBox="0.00 0.00 179.50 248.00" xmlns="http://www.w3.org/2000/svg" xmlns:xlink="http://www.w3.org/1999/xlink">
<g id="graph0" class="graph" transform="scale(1 1) rotate(0) translate(4 244)">
<title>util::factory&lt; base_t &gt;::registrar&lt; T, Config &gt;</title>
<!-- Node1 -->
<g id="node1" class="node">
<title>Node1</title>
<g id="a_node1"><a xlink:title=" ">
<polygon fill="#bfbfbf" stroke="black" points="18,-0.5 18,-101.5 125,-101.5 125,-0.5 18,-0.5"/>
<text text-anchor="start" x="26" y="-89.5" font-family="Helvetica,sans-Serif" font-size="10.00">util::factory&lt; base</text>
<text text-anchor="start" x="26" y="-78.5" font-family="Helvetica,sans-Serif" font-size="10.00">_t &gt;::registrar&lt; T,</text>
<text text-anchor="middle" x="71.5" y="-67.5" font-family="Helvetica,sans-Serif" font-size="10.00"> Config &gt;</text>
<polyline fill="none" stroke="black" points="18,-60.5 125,-60.5 "/>
<text text-anchor="start" x="26" y="-48.5" font-family="Helvetica,sans-Serif" font-size="10.00">+ T</text>
<text text-anchor="start" x="26" y="-37.5" font-family="Helvetica,sans-Serif" font-size="10.00">+ registered</text>
<polyline fill="none" stroke="black" points="18,-30.5 125,-30.5 "/>
<text text-anchor="start" x="26" y="-18.5" font-family="Helvetica,sans-Serif" font-size="10.00">+ ~registrar()</text>
<text text-anchor="start" x="26" y="-7.5" font-family="Helvetica,sans-Serif" font-size="10.00">+ registerT()</text>
</a>
</g>
</g>
<!-- Node2 -->
<g id="node2" class="node">
<title>Node2</title>
<g id="a_node2"><a xlink:title=" ">
<polygon fill="none" stroke="black" points="0,-160.5 0,-217.5 49,-217.5 49,-160.5 0,-160.5"/>
<text text-anchor="middle" x="24.5" y="-205.5" font-family="Helvetica,sans-Serif" font-size="10.00">base_t</text>
<polyline fill="none" stroke="black" points="0,-198.5 49,-198.5 "/>
<text text-anchor="middle" x="24.5" y="-186.5" font-family="Helvetica,sans-Serif" font-size="10.00"> </text>
<polyline fill="none" stroke="black" points="0,-179.5 49,-179.5 "/>
<text text-anchor="middle" x="24.5" y="-167.5" font-family="Helvetica,sans-Serif" font-size="10.00"> </text>
</a>
</g>
</g>
<!-- Node2&#45;&gt;Node1 -->
<g id="edge1" class="edge">
<title>Node2&#45;&gt;Node1</title>
<path fill="none" stroke="midnightblue" d="M37.31,-150.94C42.55,-135.78 48.68,-118.02 54.3,-101.76"/>
<polygon fill="none" stroke="midnightblue" points="33.97,-149.88 34.01,-160.48 40.59,-152.17 33.97,-149.88"/>
</g>
<!-- Node3 -->
<g id="node3" class="node">
<title>Node3</title>
<g id="a_node3"><a xlink:href="classutil_1_1configurable.html" target="_top" xlink:title=" ">
<polygon fill="none" stroke="black" points="67.5,-138.5 67.5,-239.5 171.5,-239.5 171.5,-138.5 67.5,-138.5"/>
<text text-anchor="start" x="75.5" y="-227.5" font-family="Helvetica,sans-Serif" font-size="10.00">util::configurable</text>
<text text-anchor="middle" x="119.5" y="-216.5" font-family="Helvetica,sans-Serif" font-size="10.00">&lt; Config &gt;</text>
<polyline fill="none" stroke="black" points="67.5,-209.5 171.5,-209.5 "/>
<text text-anchor="start" x="75.5" y="-197.5" font-family="Helvetica,sans-Serif" font-size="10.00">+ config</text>
<text text-anchor="start" x="75.5" y="-186.5" font-family="Helvetica,sans-Serif" font-size="10.00"># _lock</text>
<polyline fill="none" stroke="black" points="67.5,-179.5 171.5,-179.5 "/>
<text text-anchor="start" x="75.5" y="-167.5" font-family="Helvetica,sans-Serif" font-size="10.00">+ configurable()</text>
<text text-anchor="start" x="75.5" y="-156.5" font-family="Helvetica,sans-Serif" font-size="10.00">+ ~configurable()</text>
<text text-anchor="start" x="75.5" y="-145.5" font-family="Helvetica,sans-Serif" font-size="10.00">+ lock()</text>
</a>
</g>
</g>
<!-- Node3&#45;&gt;Node1 -->
<g id="edge2" class="edge">
<title>Node3&#45;&gt;Node1</title>
<path fill="none" stroke="midnightblue" d="M98.52,-128.57C95.38,-119.66 92.16,-110.55 89.1,-101.86"/>
<polygon fill="none" stroke="midnightblue" points="95.27,-129.87 101.9,-138.13 101.87,-127.54 95.27,-129.87"/>
</g>
</g>
</svg>
