<?xml version="1.0" encoding="UTF-8" standalone="no"?>
<!DOCTYPE svg PUBLIC "-//W3C//DTD SVG 1.1//EN"
 "http://www.w3.org/Graphics/SVG/1.1/DTD/svg11.dtd">
<!-- Generated by graphviz version 2.43.0 (0)
 -->
<!-- Title: logging::endpoint::terminal Pages: 1 -->
<svg width="118pt" height="215pt"
 viewBox="0.00 0.00 118.00 215.00" xmlns="http://www.w3.org/2000/svg" xmlns:xlink="http://www.w3.org/1999/xlink">
<g id="graph0" class="graph" transform="scale(1 1) rotate(0) translate(4 211)">
<title>logging::endpoint::terminal</title>
<!-- Node1 -->
<g id="node1" class="node">
<title>Node1</title>
<g id="a_node1"><a xlink:title=" ">
<polygon fill="#bfbfbf" stroke="black" points="1.5,-0.5 1.5,-90.5 108.5,-90.5 108.5,-0.5 1.5,-0.5"/>
<text text-anchor="start" x="9.5" y="-78.5" font-family="Helvetica,sans-Serif" font-size="10.00">logging::endpoint::</text>
<text text-anchor="middle" x="55" y="-67.5" font-family="Helvetica,sans-Serif" font-size="10.00">terminal</text>
<polyline fill="none" stroke="black" points="1.5,-60.5 108.5,-60.5 "/>
<text text-anchor="middle" x="55" y="-48.5" font-family="Helvetica,sans-Serif" font-size="10.00"> </text>
<polyline fill="none" stroke="black" points="1.5,-41.5 108.5,-41.5 "/>
<text text-anchor="start" x="9.5" y="-29.5" font-family="Helvetica,sans-Serif" font-size="10.00">+ terminal()</text>
<text text-anchor="start" x="9.5" y="-18.5" font-family="Helvetica,sans-Serif" font-size="10.00">+ ~terminal()</text>
<text text-anchor="start" x="9.5" y="-7.5" font-family="Helvetica,sans-Serif" font-size="10.00">+ print()</text>
</a>
</g>
</g>
<!-- Node2 -->
<g id="node2" class="node">
<title>Node2</title>
<g id="a_node2"><a xlink:title=" ">
<polygon fill="none" stroke="black" points="0,-127.5 0,-206.5 110,-206.5 110,-127.5 0,-127.5"/>
<text text-anchor="start" x="8" y="-194.5" font-family="Helvetica,sans-Serif" font-size="10.00">endpoint::registrar</text>
<text text-anchor="start" x="8" y="-183.5" font-family="Helvetica,sans-Serif" font-size="10.00">&lt; terminal, config::</text>
<text text-anchor="middle" x="55" y="-172.5" font-family="Helvetica,sans-Serif" font-size="10.00">terminal &gt;</text>
<polyline fill="none" stroke="black" points="0,-165.5 110,-165.5 "/>
<text text-anchor="middle" x="55" y="-153.5" font-family="Helvetica,sans-Serif" font-size="10.00"> </text>
<polyline fill="none" stroke="black" points="0,-146.5 110,-146.5 "/>
<text text-anchor="middle" x="55" y="-134.5" font-family="Helvetica,sans-Serif" font-size="10.00"> </text>
</a>
</g>
</g>
<!-- Node2&#45;&gt;Node1 -->
<g id="edge1" class="edge">
<title>Node2&#45;&gt;Node1</title>
<path fill="none" stroke="midnightblue" d="M55,-117.19C55,-108.49 55,-99.48 55,-90.91"/>
<polygon fill="none" stroke="midnightblue" points="51.5,-117.2 55,-127.2 58.5,-117.2 51.5,-117.2"/>
</g>
</g>
</svg>
