<?xml version="1.0" encoding="UTF-8" standalone="no"?>
<!DOCTYPE svg PUBLIC "-//W3C//DTD SVG 1.1//EN"
 "http://www.w3.org/Graphics/SVG/1.1/DTD/svg11.dtd">
<!-- Generated by graphviz version 2.43.0 (0)
 -->
<!-- Title: toml::detail::is_map&lt; T &gt; Pages: 1 -->
<svg width="530pt" height="392pt"
 viewBox="0.00 0.00 530.00 392.00" xmlns="http://www.w3.org/2000/svg" xmlns:xlink="http://www.w3.org/1999/xlink">
<g id="graph0" class="graph" transform="scale(1 1) rotate(0) translate(4 388)">
<title>toml::detail::is_map&lt; T &gt;</title>
<!-- Node1 -->
<g id="node1" class="node">
<title>Node1</title>
<g id="a_node1"><a xlink:title=" ">
<polygon fill="#bfbfbf" stroke="black" points="186.5,-105.5 186.5,-162.5 329.5,-162.5 329.5,-105.5 186.5,-105.5"/>
<text text-anchor="middle" x="258" y="-150.5" font-family="Helvetica,sans-Serif" font-size="10.00">toml::detail::is_map&lt; T &gt;</text>
<polyline fill="none" stroke="black" points="186.5,-143.5 329.5,-143.5 "/>
<text text-anchor="middle" x="258" y="-131.5" font-family="Helvetica,sans-Serif" font-size="10.00"> </text>
<polyline fill="none" stroke="black" points="186.5,-124.5 329.5,-124.5 "/>
<text text-anchor="middle" x="258" y="-112.5" font-family="Helvetica,sans-Serif" font-size="10.00"> </text>
</a>
</g>
</g>
<!-- Node4 -->
<g id="node4" class="node">
<title>Node4</title>
<g id="a_node4"><a xlink:href="structtoml_1_1detail_1_1is__map_3_01T_01_6_01_4.html" target="_top" xlink:title=" ">
<polygon fill="none" stroke="black" points="0,-0.5 0,-68.5 114,-68.5 114,-0.5 0,-0.5"/>
<text text-anchor="start" x="8" y="-56.5" font-family="Helvetica,sans-Serif" font-size="10.00">toml::detail::is_map</text>
<text text-anchor="middle" x="57" y="-45.5" font-family="Helvetica,sans-Serif" font-size="10.00">&lt; T &amp; &gt;</text>
<polyline fill="none" stroke="black" points="0,-38.5 114,-38.5 "/>
<text text-anchor="middle" x="57" y="-26.5" font-family="Helvetica,sans-Serif" font-size="10.00"> </text>
<polyline fill="none" stroke="black" points="0,-19.5 114,-19.5 "/>
<text text-anchor="middle" x="57" y="-7.5" font-family="Helvetica,sans-Serif" font-size="10.00"> </text>
</a>
</g>
</g>
<!-- Node1&#45;&gt;Node4 -->
<g id="edge3" class="edge">
<title>Node1&#45;&gt;Node4</title>
<path fill="none" stroke="midnightblue" d="M189.97,-101.19C168.49,-91.02 144.7,-79.65 123,-69 120.12,-67.58 117.17,-66.13 114.19,-64.65"/>
<polygon fill="none" stroke="midnightblue" points="188.49,-104.36 199.03,-105.46 191.48,-98.03 188.49,-104.36"/>
</g>
<!-- Node5 -->
<g id="node5" class="node">
<title>Node5</title>
<g id="a_node5"><a xlink:href="structtoml_1_1detail_1_1is__map_3_01T_01const_01_6_01_4.html" target="_top" xlink:title=" ">
<polygon fill="none" stroke="black" points="132,-0.5 132,-68.5 246,-68.5 246,-0.5 132,-0.5"/>
<text text-anchor="start" x="140" y="-56.5" font-family="Helvetica,sans-Serif" font-size="10.00">toml::detail::is_map</text>
<text text-anchor="middle" x="189" y="-45.5" font-family="Helvetica,sans-Serif" font-size="10.00">&lt; T const &amp; &gt;</text>
<polyline fill="none" stroke="black" points="132,-38.5 246,-38.5 "/>
<text text-anchor="middle" x="189" y="-26.5" font-family="Helvetica,sans-Serif" font-size="10.00"> </text>
<polyline fill="none" stroke="black" points="132,-19.5 246,-19.5 "/>
<text text-anchor="middle" x="189" y="-7.5" font-family="Helvetica,sans-Serif" font-size="10.00"> </text>
</a>
</g>
</g>
<!-- Node1&#45;&gt;Node5 -->
<g id="edge4" class="edge">
<title>Node1&#45;&gt;Node5</title>
<path fill="none" stroke="midnightblue" d="M232.56,-97.05C226.02,-87.81 219,-77.89 212.56,-68.79"/>
<polygon fill="none" stroke="midnightblue" points="229.78,-99.18 238.41,-105.32 235.49,-95.14 229.78,-99.18"/>
</g>
<!-- Node6 -->
<g id="node6" class="node">
<title>Node6</title>
<g id="a_node6"><a xlink:href="structtoml_1_1detail_1_1is__map_3_01T_01const_01volatile_01_6_01_4.html" target="_top" xlink:title=" ">
<polygon fill="none" stroke="black" points="264.5,-0.5 264.5,-68.5 389.5,-68.5 389.5,-0.5 264.5,-0.5"/>
<text text-anchor="start" x="272.5" y="-56.5" font-family="Helvetica,sans-Serif" font-size="10.00">toml::detail::is_map</text>
<text text-anchor="middle" x="327" y="-45.5" font-family="Helvetica,sans-Serif" font-size="10.00">&lt; T const volatile &amp; &gt;</text>
<polyline fill="none" stroke="black" points="264.5,-38.5 389.5,-38.5 "/>
<text text-anchor="middle" x="327" y="-26.5" font-family="Helvetica,sans-Serif" font-size="10.00"> </text>
<polyline fill="none" stroke="black" points="264.5,-19.5 389.5,-19.5 "/>
<text text-anchor="middle" x="327" y="-7.5" font-family="Helvetica,sans-Serif" font-size="10.00"> </text>
</a>
</g>
</g>
<!-- Node1&#45;&gt;Node6 -->
<g id="edge5" class="edge">
<title>Node1&#45;&gt;Node6</title>
<path fill="none" stroke="midnightblue" d="M283.44,-97.05C289.98,-87.81 297,-77.89 303.44,-68.79"/>
<polygon fill="none" stroke="midnightblue" points="280.51,-95.14 277.59,-105.32 286.22,-99.18 280.51,-95.14"/>
</g>
<!-- Node7 -->
<g id="node7" class="node">
<title>Node7</title>
<g id="a_node7"><a xlink:href="structtoml_1_1detail_1_1is__map_3_01T_01volatile_01_6_01_4.html" target="_top" xlink:title=" ">
<polygon fill="none" stroke="black" points="408,-0.5 408,-68.5 522,-68.5 522,-0.5 408,-0.5"/>
<text text-anchor="start" x="416" y="-56.5" font-family="Helvetica,sans-Serif" font-size="10.00">toml::detail::is_map</text>
<text text-anchor="middle" x="465" y="-45.5" font-family="Helvetica,sans-Serif" font-size="10.00">&lt; T volatile &amp; &gt;</text>
<polyline fill="none" stroke="black" points="408,-38.5 522,-38.5 "/>
<text text-anchor="middle" x="465" y="-26.5" font-family="Helvetica,sans-Serif" font-size="10.00"> </text>
<polyline fill="none" stroke="black" points="408,-19.5 522,-19.5 "/>
<text text-anchor="middle" x="465" y="-7.5" font-family="Helvetica,sans-Serif" font-size="10.00"> </text>
</a>
</g>
</g>
<!-- Node1&#45;&gt;Node7 -->
<g id="edge6" class="edge">
<title>Node1&#45;&gt;Node7</title>
<path fill="none" stroke="midnightblue" d="M329.78,-101.15C352.06,-91.07 376.63,-79.75 399,-69 401.9,-67.61 404.86,-66.17 407.84,-64.71"/>
<polygon fill="none" stroke="midnightblue" points="328.07,-98.08 320.39,-105.38 330.95,-104.46 328.07,-98.08"/>
</g>
<!-- Node2 -->
<g id="node2" class="node">
<title>Node2</title>
<g id="a_node2"><a xlink:href="structtoml_1_1detail_1_1conjunction.html" target="_top" xlink:title=" ">
<polygon fill="none" stroke="black" points="154.5,-199.5 154.5,-289.5 361.5,-289.5 361.5,-199.5 154.5,-199.5"/>
<text text-anchor="start" x="162.5" y="-277.5" font-family="Helvetica,sans-Serif" font-size="10.00">toml::detail::conjunction</text>
<text text-anchor="start" x="162.5" y="-266.5" font-family="Helvetica,sans-Serif" font-size="10.00">&lt; has_iterator&lt; T &gt;, has</text>
<text text-anchor="start" x="162.5" y="-255.5" font-family="Helvetica,sans-Serif" font-size="10.00">_value_type&lt; T &gt;, has_key</text>
<text text-anchor="middle" x="258" y="-244.5" font-family="Helvetica,sans-Serif" font-size="10.00">_type&lt; T &gt;, has_mapped_type&lt; T &gt; &gt;</text>
<polyline fill="none" stroke="black" points="154.5,-237.5 361.5,-237.5 "/>
<text text-anchor="middle" x="258" y="-225.5" font-family="Helvetica,sans-Serif" font-size="10.00"> </text>
<polyline fill="none" stroke="black" points="154.5,-218.5 361.5,-218.5 "/>
<text text-anchor="middle" x="258" y="-206.5" font-family="Helvetica,sans-Serif" font-size="10.00"> </text>
</a>
</g>
</g>
<!-- Node2&#45;&gt;Node1 -->
<g id="edge1" class="edge">
<title>Node2&#45;&gt;Node1</title>
<path fill="none" stroke="midnightblue" d="M258,-189.35C258,-180.07 258,-170.79 258,-162.59"/>
<polygon fill="none" stroke="midnightblue" points="254.5,-189.37 258,-199.37 261.5,-189.37 254.5,-189.37"/>
</g>
<!-- Node3 -->
<g id="node3" class="node">
<title>Node3</title>
<g id="a_node3"><a xlink:title=" ">
<polygon fill="none" stroke="black" points="216,-326.5 216,-383.5 300,-383.5 300,-326.5 216,-326.5"/>
<text text-anchor="middle" x="258" y="-371.5" font-family="Helvetica,sans-Serif" font-size="10.00">std::true_type</text>
<polyline fill="none" stroke="black" points="216,-364.5 300,-364.5 "/>
<text text-anchor="middle" x="258" y="-352.5" font-family="Helvetica,sans-Serif" font-size="10.00"> </text>
<polyline fill="none" stroke="black" points="216,-345.5 300,-345.5 "/>
<text text-anchor="middle" x="258" y="-333.5" font-family="Helvetica,sans-Serif" font-size="10.00"> </text>
</a>
</g>
</g>
<!-- Node3&#45;&gt;Node2 -->
<g id="edge2" class="edge">
<title>Node3&#45;&gt;Node2</title>
<path fill="none" stroke="midnightblue" d="M258,-316.21C258,-307.61 258,-298.39 258,-289.55"/>
<polygon fill="none" stroke="midnightblue" points="254.5,-316.34 258,-326.34 261.5,-316.34 254.5,-316.34"/>
</g>
</g>
</svg>
