<?xml version="1.0" encoding="UTF-8" standalone="no"?>
<!DOCTYPE svg PUBLIC "-//W3C//DTD SVG 1.1//EN"
 "http://www.w3.org/Graphics/SVG/1.1/DTD/svg11.dtd">
<!-- Generated by graphviz version 2.43.0 (0)
 -->
<!-- Title: toml::detail::is_basic_value&lt; T &gt; Pages: 1 -->
<svg width="584pt" height="276pt"
 viewBox="0.00 0.00 584.00 276.00" xmlns="http://www.w3.org/2000/svg" xmlns:xlink="http://www.w3.org/1999/xlink">
<g id="graph0" class="graph" transform="scale(1 1) rotate(0) translate(4 272)">
<title>toml::detail::is_basic_value&lt; T &gt;</title>
<!-- Node1 -->
<g id="node1" class="node">
<title>Node1</title>
<g id="a_node1"><a xlink:title=" ">
<polygon fill="#bfbfbf" stroke="black" points="214,-105.5 214,-173.5 332,-173.5 332,-105.5 214,-105.5"/>
<text text-anchor="start" x="222" y="-161.5" font-family="Helvetica,sans-Serif" font-size="10.00">toml::detail::is_basic</text>
<text text-anchor="middle" x="273" y="-150.5" font-family="Helvetica,sans-Serif" font-size="10.00">_value&lt; T &gt;</text>
<polyline fill="none" stroke="black" points="214,-143.5 332,-143.5 "/>
<text text-anchor="middle" x="273" y="-131.5" font-family="Helvetica,sans-Serif" font-size="10.00"> </text>
<polyline fill="none" stroke="black" points="214,-124.5 332,-124.5 "/>
<text text-anchor="middle" x="273" y="-112.5" font-family="Helvetica,sans-Serif" font-size="10.00"> </text>
</a>
</g>
</g>
<!-- Node3 -->
<g id="node3" class="node">
<title>Node3</title>
<g id="a_node3"><a xlink:href="structtoml_1_1detail_1_1is__basic__value_3_01T_01_6_01_4.html" target="_top" xlink:title=" ">
<polygon fill="none" stroke="black" points="0,-0.5 0,-68.5 118,-68.5 118,-0.5 0,-0.5"/>
<text text-anchor="start" x="8" y="-56.5" font-family="Helvetica,sans-Serif" font-size="10.00">toml::detail::is_basic</text>
<text text-anchor="middle" x="59" y="-45.5" font-family="Helvetica,sans-Serif" font-size="10.00">_value&lt; T &amp; &gt;</text>
<polyline fill="none" stroke="black" points="0,-38.5 118,-38.5 "/>
<text text-anchor="middle" x="59" y="-26.5" font-family="Helvetica,sans-Serif" font-size="10.00"> </text>
<polyline fill="none" stroke="black" points="0,-19.5 118,-19.5 "/>
<text text-anchor="middle" x="59" y="-7.5" font-family="Helvetica,sans-Serif" font-size="10.00"> </text>
</a>
</g>
</g>
<!-- Node1&#45;&gt;Node3 -->
<g id="edge2" class="edge">
<title>Node1&#45;&gt;Node3</title>
<path fill="none" stroke="midnightblue" d="M204.72,-106.23C180.18,-94.57 152.32,-81.26 127,-69 124.16,-67.62 121.25,-66.21 118.32,-64.78"/>
<polygon fill="none" stroke="midnightblue" points="203.42,-109.49 213.95,-110.61 206.42,-103.16 203.42,-109.49"/>
</g>
<!-- Node4 -->
<g id="node4" class="node">
<title>Node4</title>
<g id="a_node4"><a xlink:href="structtoml_1_1detail_1_1is__basic__value_3_01T_01const_01_6_01_4.html" target="_top" xlink:title=" ">
<polygon fill="none" stroke="black" points="136,-0.5 136,-68.5 254,-68.5 254,-0.5 136,-0.5"/>
<text text-anchor="start" x="144" y="-56.5" font-family="Helvetica,sans-Serif" font-size="10.00">toml::detail::is_basic</text>
<text text-anchor="middle" x="195" y="-45.5" font-family="Helvetica,sans-Serif" font-size="10.00">_value&lt; T const &amp; &gt;</text>
<polyline fill="none" stroke="black" points="136,-38.5 254,-38.5 "/>
<text text-anchor="middle" x="195" y="-26.5" font-family="Helvetica,sans-Serif" font-size="10.00"> </text>
<polyline fill="none" stroke="black" points="136,-19.5 254,-19.5 "/>
<text text-anchor="middle" x="195" y="-7.5" font-family="Helvetica,sans-Serif" font-size="10.00"> </text>
</a>
</g>
</g>
<!-- Node1&#45;&gt;Node4 -->
<g id="edge3" class="edge">
<title>Node1&#45;&gt;Node4</title>
<path fill="none" stroke="midnightblue" d="M241.69,-97.16C234.5,-87.66 226.95,-77.69 220.06,-68.59"/>
<polygon fill="none" stroke="midnightblue" points="239.06,-99.48 247.89,-105.34 244.64,-95.26 239.06,-99.48"/>
</g>
<!-- Node5 -->
<g id="node5" class="node">
<title>Node5</title>
<g id="a_node5"><a xlink:href="structtoml_1_1detail_1_1is__basic__value_3_01T_01const_01volatile_01_6_01_4.html" target="_top" xlink:title=" ">
<polygon fill="none" stroke="black" points="272.5,-0.5 272.5,-68.5 429.5,-68.5 429.5,-0.5 272.5,-0.5"/>
<text text-anchor="start" x="280.5" y="-56.5" font-family="Helvetica,sans-Serif" font-size="10.00">toml::detail::is_basic</text>
<text text-anchor="middle" x="351" y="-45.5" font-family="Helvetica,sans-Serif" font-size="10.00">_value&lt; T const volatile &amp; &gt;</text>
<polyline fill="none" stroke="black" points="272.5,-38.5 429.5,-38.5 "/>
<text text-anchor="middle" x="351" y="-26.5" font-family="Helvetica,sans-Serif" font-size="10.00"> </text>
<polyline fill="none" stroke="black" points="272.5,-19.5 429.5,-19.5 "/>
<text text-anchor="middle" x="351" y="-7.5" font-family="Helvetica,sans-Serif" font-size="10.00"> </text>
</a>
</g>
</g>
<!-- Node1&#45;&gt;Node5 -->
<g id="edge4" class="edge">
<title>Node1&#45;&gt;Node5</title>
<path fill="none" stroke="midnightblue" d="M304.31,-97.16C311.5,-87.66 319.05,-77.69 325.94,-68.59"/>
<polygon fill="none" stroke="midnightblue" points="301.36,-95.26 298.11,-105.34 306.94,-99.48 301.36,-95.26"/>
</g>
<!-- Node6 -->
<g id="node6" class="node">
<title>Node6</title>
<g id="a_node6"><a xlink:href="structtoml_1_1detail_1_1is__basic__value_3_01T_01volatile_01_6_01_4.html" target="_top" xlink:title=" ">
<polygon fill="none" stroke="black" points="448,-0.5 448,-68.5 576,-68.5 576,-0.5 448,-0.5"/>
<text text-anchor="start" x="456" y="-56.5" font-family="Helvetica,sans-Serif" font-size="10.00">toml::detail::is_basic</text>
<text text-anchor="middle" x="512" y="-45.5" font-family="Helvetica,sans-Serif" font-size="10.00">_value&lt; T volatile &amp; &gt;</text>
<polyline fill="none" stroke="black" points="448,-38.5 576,-38.5 "/>
<text text-anchor="middle" x="512" y="-26.5" font-family="Helvetica,sans-Serif" font-size="10.00"> </text>
<polyline fill="none" stroke="black" points="448,-19.5 576,-19.5 "/>
<text text-anchor="middle" x="512" y="-7.5" font-family="Helvetica,sans-Serif" font-size="10.00"> </text>
</a>
</g>
</g>
<!-- Node1&#45;&gt;Node6 -->
<g id="edge5" class="edge">
<title>Node1&#45;&gt;Node6</title>
<path fill="none" stroke="midnightblue" d="M341.88,-110.27C371.82,-97.84 407.24,-82.93 439,-69 441.94,-67.71 444.94,-66.38 447.96,-65.04"/>
<polygon fill="none" stroke="midnightblue" points="340.26,-107.15 332.36,-114.21 342.94,-113.62 340.26,-107.15"/>
</g>
<!-- Node2 -->
<g id="node2" class="node">
<title>Node2</title>
<g id="a_node2"><a xlink:title=" ">
<polygon fill="none" stroke="black" points="228.5,-210.5 228.5,-267.5 317.5,-267.5 317.5,-210.5 228.5,-210.5"/>
<text text-anchor="middle" x="273" y="-255.5" font-family="Helvetica,sans-Serif" font-size="10.00">std::false_type</text>
<polyline fill="none" stroke="black" points="228.5,-248.5 317.5,-248.5 "/>
<text text-anchor="middle" x="273" y="-236.5" font-family="Helvetica,sans-Serif" font-size="10.00"> </text>
<polyline fill="none" stroke="black" points="228.5,-229.5 317.5,-229.5 "/>
<text text-anchor="middle" x="273" y="-217.5" font-family="Helvetica,sans-Serif" font-size="10.00"> </text>
</a>
</g>
</g>
<!-- Node2&#45;&gt;Node1 -->
<g id="edge1" class="edge">
<title>Node2&#45;&gt;Node1</title>
<path fill="none" stroke="midnightblue" d="M273,-200.06C273,-191.39 273,-182.24 273,-173.79"/>
<polygon fill="none" stroke="midnightblue" points="269.5,-200.32 273,-210.32 276.5,-200.32 269.5,-200.32"/>
</g>
</g>
</svg>
