<?xml version="1.0" encoding="UTF-8" standalone="no"?>
<!DOCTYPE svg PUBLIC "-//W3C//DTD SVG 1.1//EN"
 "http://www.w3.org/Graphics/SVG/1.1/DTD/svg11.dtd">
<!-- Generated by graphviz version 2.43.0 (0)
 -->
<!-- Title: toml::detail::is_exact_toml_type&lt; T volatile &amp;, V &gt; Pages: 1 -->
<svg width="212pt" height="491pt"
 viewBox="0.00 0.00 212.00 491.00" xmlns="http://www.w3.org/2000/svg" xmlns:xlink="http://www.w3.org/1999/xlink">
<g id="graph0" class="graph" transform="scale(1 1) rotate(0) translate(4 487)">
<title>toml::detail::is_exact_toml_type&lt; T volatile &amp;, V &gt;</title>
<!-- Node1 -->
<g id="node1" class="node">
<title>Node1</title>
<g id="a_node1"><a xlink:title=" ">
<polygon fill="#bfbfbf" stroke="black" points="38,-0.5 38,-79.5 166,-79.5 166,-0.5 38,-0.5"/>
<text text-anchor="start" x="46" y="-67.5" font-family="Helvetica,sans-Serif" font-size="10.00">toml::detail::is_exact</text>
<text text-anchor="start" x="46" y="-56.5" font-family="Helvetica,sans-Serif" font-size="10.00">_toml_type&lt; T volatile</text>
<text text-anchor="middle" x="102" y="-45.5" font-family="Helvetica,sans-Serif" font-size="10.00"> &amp;, V &gt;</text>
<polyline fill="none" stroke="black" points="38,-38.5 166,-38.5 "/>
<text text-anchor="middle" x="102" y="-26.5" font-family="Helvetica,sans-Serif" font-size="10.00"> </text>
<polyline fill="none" stroke="black" points="38,-19.5 166,-19.5 "/>
<text text-anchor="middle" x="102" y="-7.5" font-family="Helvetica,sans-Serif" font-size="10.00"> </text>
</a>
</g>
</g>
<!-- Node2 -->
<g id="node2" class="node">
<title>Node2</title>
<g id="a_node2"><a xlink:href="structtoml_1_1detail_1_1is__exact__toml__type.html" target="_top" xlink:title=" ">
<polygon fill="none" stroke="black" points="42.5,-116.5 42.5,-184.5 161.5,-184.5 161.5,-116.5 42.5,-116.5"/>
<text text-anchor="start" x="50.5" y="-172.5" font-family="Helvetica,sans-Serif" font-size="10.00">toml::detail::is_exact</text>
<text text-anchor="middle" x="102" y="-161.5" font-family="Helvetica,sans-Serif" font-size="10.00">_toml_type&lt; T, V &gt;</text>
<polyline fill="none" stroke="black" points="42.5,-154.5 161.5,-154.5 "/>
<text text-anchor="middle" x="102" y="-142.5" font-family="Helvetica,sans-Serif" font-size="10.00"> </text>
<polyline fill="none" stroke="black" points="42.5,-135.5 161.5,-135.5 "/>
<text text-anchor="middle" x="102" y="-123.5" font-family="Helvetica,sans-Serif" font-size="10.00"> </text>
</a>
</g>
</g>
<!-- Node2&#45;&gt;Node1 -->
<g id="edge1" class="edge">
<title>Node2&#45;&gt;Node1</title>
<path fill="none" stroke="midnightblue" d="M102,-106.27C102,-97.48 102,-88.28 102,-79.65"/>
<polygon fill="none" stroke="midnightblue" points="98.5,-106.36 102,-116.36 105.5,-106.36 98.5,-106.36"/>
</g>
<!-- Node3 -->
<g id="node3" class="node">
<title>Node3</title>
<g id="a_node3"><a xlink:title=" ">
<polygon fill="none" stroke="black" points="0,-221.5 0,-388.5 204,-388.5 204,-221.5 0,-221.5"/>
<text text-anchor="start" x="8" y="-376.5" font-family="Helvetica,sans-Serif" font-size="10.00">toml::detail::disjunction</text>
<text text-anchor="start" x="8" y="-365.5" font-family="Helvetica,sans-Serif" font-size="10.00">&lt; std::is_same&lt; T, boolean</text>
<text text-anchor="start" x="8" y="-354.5" font-family="Helvetica,sans-Serif" font-size="10.00"> &gt;, std::is_same&lt; T, integer</text>
<text text-anchor="start" x="8" y="-343.5" font-family="Helvetica,sans-Serif" font-size="10.00"> &gt;, std::is_same&lt; T, floating</text>
<text text-anchor="start" x="8" y="-332.5" font-family="Helvetica,sans-Serif" font-size="10.00"> &gt;, std::is_same&lt; T, string &gt;,</text>
<text text-anchor="start" x="8" y="-321.5" font-family="Helvetica,sans-Serif" font-size="10.00"> std::is_same&lt; T, offset_datetime</text>
<text text-anchor="start" x="8" y="-310.5" font-family="Helvetica,sans-Serif" font-size="10.00"> &gt;, std::is_same&lt; T, local_datetime</text>
<text text-anchor="start" x="8" y="-299.5" font-family="Helvetica,sans-Serif" font-size="10.00"> &gt;, std::is_same&lt; T, local_date &gt;,</text>
<text text-anchor="start" x="8" y="-288.5" font-family="Helvetica,sans-Serif" font-size="10.00"> std::is_same&lt; T, local_time &gt;, std</text>
<text text-anchor="start" x="8" y="-277.5" font-family="Helvetica,sans-Serif" font-size="10.00">::is_same&lt; T, Value::array_type &gt;, std</text>
<text text-anchor="middle" x="102" y="-266.5" font-family="Helvetica,sans-Serif" font-size="10.00">::is_same&lt; T, Value::table_type &gt; &gt;</text>
<polyline fill="none" stroke="black" points="0,-259.5 204,-259.5 "/>
<text text-anchor="middle" x="102" y="-247.5" font-family="Helvetica,sans-Serif" font-size="10.00"> </text>
<polyline fill="none" stroke="black" points="0,-240.5 204,-240.5 "/>
<text text-anchor="middle" x="102" y="-228.5" font-family="Helvetica,sans-Serif" font-size="10.00"> </text>
</a>
</g>
</g>
<!-- Node3&#45;&gt;Node2 -->
<g id="edge2" class="edge">
<title>Node3&#45;&gt;Node2</title>
<path fill="none" stroke="midnightblue" d="M102,-210.89C102,-201.63 102,-192.72 102,-184.74"/>
<polygon fill="none" stroke="midnightblue" points="98.5,-211.06 102,-221.06 105.5,-211.06 98.5,-211.06"/>
</g>
<!-- Node4 -->
<g id="node4" class="node">
<title>Node4</title>
<g id="a_node4"><a xlink:title=" ">
<polygon fill="none" stroke="black" points="57.5,-425.5 57.5,-482.5 146.5,-482.5 146.5,-425.5 57.5,-425.5"/>
<text text-anchor="middle" x="102" y="-470.5" font-family="Helvetica,sans-Serif" font-size="10.00">std::false_type</text>
<polyline fill="none" stroke="black" points="57.5,-463.5 146.5,-463.5 "/>
<text text-anchor="middle" x="102" y="-451.5" font-family="Helvetica,sans-Serif" font-size="10.00"> </text>
<polyline fill="none" stroke="black" points="57.5,-444.5 146.5,-444.5 "/>
<text text-anchor="middle" x="102" y="-432.5" font-family="Helvetica,sans-Serif" font-size="10.00"> </text>
</a>
</g>
</g>
<!-- Node4&#45;&gt;Node3 -->
<g id="edge3" class="edge">
<title>Node4&#45;&gt;Node3</title>
<path fill="none" stroke="midnightblue" d="M102,-415.35C102,-407.08 102,-398.01 102,-388.74"/>
<polygon fill="none" stroke="midnightblue" points="98.5,-415.35 102,-425.35 105.5,-415.35 98.5,-415.35"/>
</g>
</g>
</svg>
