<?xml version="1.0" encoding="UTF-8" standalone="no"?>
<!DOCTYPE svg PUBLIC "-//W3C//DTD SVG 1.1//EN"
 "http://www.w3.org/Graphics/SVG/1.1/DTD/svg11.dtd">
<!-- Generated by graphviz version 2.43.0 (0)
 -->
<!-- Title: config::setting Pages: 1 -->
<svg width="107pt" height="193pt"
 viewBox="0.00 0.00 107.00 193.00" xmlns="http://www.w3.org/2000/svg" xmlns:xlink="http://www.w3.org/1999/xlink">
<g id="graph0" class="graph" transform="scale(1 1) rotate(0) translate(4 189)">
<title>config::setting</title>
<!-- Node1 -->
<g id="node1" class="node">
<title>Node1</title>
<g id="a_node1"><a xlink:title=" ">
<polygon fill="#bfbfbf" stroke="black" points="2,-94.5 2,-184.5 97,-184.5 97,-94.5 2,-94.5"/>
<text text-anchor="middle" x="49.5" y="-172.5" font-family="Helvetica,sans-Serif" font-size="10.00">config::setting</text>
<polyline fill="none" stroke="black" points="2,-165.5 97,-165.5 "/>
<text text-anchor="start" x="10" y="-153.5" font-family="Helvetica,sans-Serif" font-size="10.00">+ name</text>
<text text-anchor="start" x="10" y="-142.5" font-family="Helvetica,sans-Serif" font-size="10.00">+ description</text>
<text text-anchor="start" x="10" y="-131.5" font-family="Helvetica,sans-Serif" font-size="10.00">+ default_value</text>
<text text-anchor="start" x="10" y="-120.5" font-family="Helvetica,sans-Serif" font-size="10.00">+ value</text>
<polyline fill="none" stroke="black" points="2,-113.5 97,-113.5 "/>
<text text-anchor="start" x="10" y="-101.5" font-family="Helvetica,sans-Serif" font-size="10.00">+ to_toml()</text>
</a>
</g>
</g>
<!-- Node2 -->
<g id="node2" class="node">
<title>Node2</title>
<g id="a_node2"><a xlink:href="structconfig_1_1cli__option.html" target="_top" xlink:title=" ">
<polygon fill="none" stroke="black" points="0,-0.5 0,-57.5 99,-57.5 99,-0.5 0,-0.5"/>
<text text-anchor="middle" x="49.5" y="-45.5" font-family="Helvetica,sans-Serif" font-size="10.00">config::cli_option</text>
<polyline fill="none" stroke="black" points="0,-38.5 99,-38.5 "/>
<text text-anchor="start" x="8" y="-26.5" font-family="Helvetica,sans-Serif" font-size="10.00">+ shorthand</text>
<polyline fill="none" stroke="black" points="0,-19.5 99,-19.5 "/>
<text text-anchor="middle" x="49.5" y="-7.5" font-family="Helvetica,sans-Serif" font-size="10.00"> </text>
</a>
</g>
</g>
<!-- Node1&#45;&gt;Node2 -->
<g id="edge1" class="edge">
<title>Node1&#45;&gt;Node2</title>
<path fill="none" stroke="midnightblue" d="M49.5,-84.35C49.5,-75.07 49.5,-65.79 49.5,-57.59"/>
<polygon fill="none" stroke="midnightblue" points="46,-84.37 49.5,-94.37 53,-84.37 46,-84.37"/>
</g>
</g>
</svg>
