<?xml version="1.0" encoding="UTF-8" standalone="no"?>
<!DOCTYPE svg PUBLIC "-//W3C//DTD SVG 1.1//EN"
 "http://www.w3.org/Graphics/SVG/1.1/DTD/svg11.dtd">
<!-- Generated by graphviz version 2.43.0 (0)
 -->
<!-- Title: toml::detail::type_to_enum&lt; T, Value &gt; Pages: 1 -->
<svg width="203pt" height="259pt"
 viewBox="0.00 0.00 203.00 259.00" xmlns="http://www.w3.org/2000/svg" xmlns:xlink="http://www.w3.org/1999/xlink">
<g id="graph0" class="graph" transform="scale(1 1) rotate(0) translate(4 255)">
<title>toml::detail::type_to_enum&lt; T, Value &gt;</title>
<!-- Node1 -->
<g id="node1" class="node">
<title>Node1</title>
<g id="a_node1"><a xlink:title=" ">
<polygon fill="#bfbfbf" stroke="black" points="34.5,-0.5 34.5,-68.5 160.5,-68.5 160.5,-0.5 34.5,-0.5"/>
<text text-anchor="start" x="42.5" y="-56.5" font-family="Helvetica,sans-Serif" font-size="10.00">toml::detail::type</text>
<text text-anchor="middle" x="97.5" y="-45.5" font-family="Helvetica,sans-Serif" font-size="10.00">_to_enum&lt; T, Value &gt;</text>
<polyline fill="none" stroke="black" points="34.5,-38.5 160.5,-38.5 "/>
<text text-anchor="middle" x="97.5" y="-26.5" font-family="Helvetica,sans-Serif" font-size="10.00"> </text>
<polyline fill="none" stroke="black" points="34.5,-19.5 160.5,-19.5 "/>
<text text-anchor="middle" x="97.5" y="-7.5" font-family="Helvetica,sans-Serif" font-size="10.00"> </text>
</a>
</g>
</g>
<!-- Node2 -->
<g id="node2" class="node">
<title>Node2</title>
<g id="a_node2"><a xlink:title=" ">
<polygon fill="none" stroke="black" points="0,-105.5 0,-250.5 195,-250.5 195,-105.5 0,-105.5"/>
<text text-anchor="start" x="8" y="-238.5" font-family="Helvetica,sans-Serif" font-size="10.00">std::conditional&lt; std</text>
<text text-anchor="start" x="8" y="-227.5" font-family="Helvetica,sans-Serif" font-size="10.00">::is_same&lt; T, Value::</text>
<text text-anchor="start" x="8" y="-216.5" font-family="Helvetica,sans-Serif" font-size="10.00">array_type &gt;::value, value</text>
<text text-anchor="start" x="8" y="-205.5" font-family="Helvetica,sans-Serif" font-size="10.00">_t_constant&lt; value_t::array</text>
<text text-anchor="start" x="8" y="-194.5" font-family="Helvetica,sans-Serif" font-size="10.00"> &gt;, std::conditional&lt; std::</text>
<text text-anchor="start" x="8" y="-183.5" font-family="Helvetica,sans-Serif" font-size="10.00">is_same&lt; T, Value::table_type</text>
<text text-anchor="start" x="8" y="-172.5" font-family="Helvetica,sans-Serif" font-size="10.00"> &gt;::value, value_t_constant&lt; value</text>
<text text-anchor="start" x="8" y="-161.5" font-family="Helvetica,sans-Serif" font-size="10.00">_t::table &gt;, value_t_constant&lt; value</text>
<text text-anchor="middle" x="97.5" y="-150.5" font-family="Helvetica,sans-Serif" font-size="10.00">_t::empty &gt; &gt;::type &gt;::type</text>
<polyline fill="none" stroke="black" points="0,-143.5 195,-143.5 "/>
<text text-anchor="middle" x="97.5" y="-131.5" font-family="Helvetica,sans-Serif" font-size="10.00"> </text>
<polyline fill="none" stroke="black" points="0,-124.5 195,-124.5 "/>
<text text-anchor="middle" x="97.5" y="-112.5" font-family="Helvetica,sans-Serif" font-size="10.00"> </text>
</a>
</g>
</g>
<!-- Node2&#45;&gt;Node1 -->
<g id="edge1" class="edge">
<title>Node2&#45;&gt;Node1</title>
<path fill="none" stroke="midnightblue" d="M97.5,-95.19C97.5,-85.83 97.5,-76.73 97.5,-68.58"/>
<polygon fill="none" stroke="midnightblue" points="94,-95.42 97.5,-105.42 101,-95.42 94,-95.42"/>
</g>
</g>
</svg>
