<?xml version="1.0" encoding="UTF-8" standalone="no"?>
<!DOCTYPE svg PUBLIC "-//W3C//DTD SVG 1.1//EN"
 "http://www.w3.org/Graphics/SVG/1.1/DTD/svg11.dtd">
<!-- Generated by graphviz version 2.43.0 (0)
 -->
<!-- Title: toml::detail::is_std_forward_list&lt; T &gt; Pages: 1 -->
<svg width="116pt" height="171pt"
 viewBox="0.00 0.00 116.00 171.00" xmlns="http://www.w3.org/2000/svg" xmlns:xlink="http://www.w3.org/1999/xlink">
<g id="graph0" class="graph" transform="scale(1 1) rotate(0) translate(4 167)">
<title>toml::detail::is_std_forward_list&lt; T &gt;</title>
<!-- Node1 -->
<g id="node1" class="node">
<title>Node1</title>
<g id="a_node1"><a xlink:title=" ">
<polygon fill="#bfbfbf" stroke="black" points="0,-0.5 0,-68.5 108,-68.5 108,-0.5 0,-0.5"/>
<text text-anchor="start" x="8" y="-56.5" font-family="Helvetica,sans-Serif" font-size="10.00">toml::detail::is_std</text>
<text text-anchor="middle" x="54" y="-45.5" font-family="Helvetica,sans-Serif" font-size="10.00">_forward_list&lt; T &gt;</text>
<polyline fill="none" stroke="black" points="0,-38.5 108,-38.5 "/>
<text text-anchor="middle" x="54" y="-26.5" font-family="Helvetica,sans-Serif" font-size="10.00"> </text>
<polyline fill="none" stroke="black" points="0,-19.5 108,-19.5 "/>
<text text-anchor="middle" x="54" y="-7.5" font-family="Helvetica,sans-Serif" font-size="10.00"> </text>
</a>
</g>
</g>
<!-- Node2 -->
<g id="node2" class="node">
<title>Node2</title>
<g id="a_node2"><a xlink:title=" ">
<polygon fill="none" stroke="black" points="9.5,-105.5 9.5,-162.5 98.5,-162.5 98.5,-105.5 9.5,-105.5"/>
<text text-anchor="middle" x="54" y="-150.5" font-family="Helvetica,sans-Serif" font-size="10.00">std::false_type</text>
<polyline fill="none" stroke="black" points="9.5,-143.5 98.5,-143.5 "/>
<text text-anchor="middle" x="54" y="-131.5" font-family="Helvetica,sans-Serif" font-size="10.00"> </text>
<polyline fill="none" stroke="black" points="9.5,-124.5 98.5,-124.5 "/>
<text text-anchor="middle" x="54" y="-112.5" font-family="Helvetica,sans-Serif" font-size="10.00"> </text>
</a>
</g>
</g>
<!-- Node2&#45;&gt;Node1 -->
<g id="edge1" class="edge">
<title>Node2&#45;&gt;Node1</title>
<path fill="none" stroke="midnightblue" d="M54,-95.06C54,-86.39 54,-77.24 54,-68.79"/>
<polygon fill="none" stroke="midnightblue" points="50.5,-95.32 54,-105.32 57.5,-95.32 50.5,-95.32"/>
</g>
</g>
</svg>
