<?xml version="1.0" encoding="UTF-8" standalone="no"?>
<!DOCTYPE svg PUBLIC "-//W3C//DTD SVG 1.1//EN"
 "http://www.w3.org/Graphics/SVG/1.1/DTD/svg11.dtd">
<!-- Generated by graphviz version 2.43.0 (0)
 -->
<!-- Title: toml::internal_error Pages: 1 -->
<svg width="119pt" height="309pt"
 viewBox="0.00 0.00 119.00 309.00" xmlns="http://www.w3.org/2000/svg" xmlns:xlink="http://www.w3.org/1999/xlink">
<g id="graph0" class="graph" transform="scale(1 1) rotate(0) translate(4 305)">
<title>toml::internal_error</title>
<!-- Node1 -->
<g id="node1" class="node">
<title>Node1</title>
<g id="a_node1"><a xlink:title=" ">
<polygon fill="#bfbfbf" stroke="black" points="0,-0.5 0,-79.5 111,-79.5 111,-0.5 0,-0.5"/>
<text text-anchor="middle" x="55.5" y="-67.5" font-family="Helvetica,sans-Serif" font-size="10.00">toml::internal_error</text>
<polyline fill="none" stroke="black" points="0,-60.5 111,-60.5 "/>
<text text-anchor="start" x="8" y="-48.5" font-family="Helvetica,sans-Serif" font-size="10.00"># what_</text>
<polyline fill="none" stroke="black" points="0,-41.5 111,-41.5 "/>
<text text-anchor="start" x="8" y="-29.5" font-family="Helvetica,sans-Serif" font-size="10.00">+ internal_error()</text>
<text text-anchor="start" x="8" y="-18.5" font-family="Helvetica,sans-Serif" font-size="10.00">+ ~internal_error()</text>
<text text-anchor="start" x="8" y="-7.5" font-family="Helvetica,sans-Serif" font-size="10.00">+ what()</text>
</a>
</g>
</g>
<!-- Node2 -->
<g id="node2" class="node">
<title>Node2</title>
<g id="a_node2"><a xlink:href="structtoml_1_1exception.html" target="_top" xlink:title=" ">
<polygon fill="none" stroke="black" points="9,-116.5 9,-206.5 102,-206.5 102,-116.5 9,-116.5"/>
<text text-anchor="middle" x="55.5" y="-194.5" font-family="Helvetica,sans-Serif" font-size="10.00">toml::exception</text>
<polyline fill="none" stroke="black" points="9,-187.5 102,-187.5 "/>
<text text-anchor="start" x="17" y="-175.5" font-family="Helvetica,sans-Serif" font-size="10.00"># loc_</text>
<polyline fill="none" stroke="black" points="9,-168.5 102,-168.5 "/>
<text text-anchor="start" x="17" y="-156.5" font-family="Helvetica,sans-Serif" font-size="10.00">+ exception()</text>
<text text-anchor="start" x="17" y="-145.5" font-family="Helvetica,sans-Serif" font-size="10.00">+ ~exception()</text>
<text text-anchor="start" x="17" y="-134.5" font-family="Helvetica,sans-Serif" font-size="10.00">+ what()</text>
<text text-anchor="start" x="17" y="-123.5" font-family="Helvetica,sans-Serif" font-size="10.00">+ location()</text>
</a>
</g>
</g>
<!-- Node2&#45;&gt;Node1 -->
<g id="edge1" class="edge">
<title>Node2&#45;&gt;Node1</title>
<path fill="none" stroke="midnightblue" d="M55.5,-106.08C55.5,-97.23 55.5,-88.23 55.5,-79.86"/>
<polygon fill="none" stroke="midnightblue" points="52,-106.34 55.5,-116.34 59,-106.34 52,-106.34"/>
</g>
<!-- Node3 -->
<g id="node3" class="node">
<title>Node3</title>
<g id="a_node3"><a xlink:title=" ">
<polygon fill="none" stroke="black" points="12.5,-243.5 12.5,-300.5 98.5,-300.5 98.5,-243.5 12.5,-243.5"/>
<text text-anchor="middle" x="55.5" y="-288.5" font-family="Helvetica,sans-Serif" font-size="10.00">std::exception</text>
<polyline fill="none" stroke="black" points="12.5,-281.5 98.5,-281.5 "/>
<text text-anchor="middle" x="55.5" y="-269.5" font-family="Helvetica,sans-Serif" font-size="10.00"> </text>
<polyline fill="none" stroke="black" points="12.5,-262.5 98.5,-262.5 "/>
<text text-anchor="middle" x="55.5" y="-250.5" font-family="Helvetica,sans-Serif" font-size="10.00"> </text>
</a>
</g>
</g>
<!-- Node3&#45;&gt;Node2 -->
<g id="edge2" class="edge">
<title>Node3&#45;&gt;Node2</title>
<path fill="none" stroke="midnightblue" d="M55.5,-233.21C55.5,-224.61 55.5,-215.39 55.5,-206.55"/>
<polygon fill="none" stroke="midnightblue" points="52,-233.34 55.5,-243.34 59,-233.34 52,-233.34"/>
</g>
</g>
</svg>
