<?xml version="1.0" encoding="UTF-8" standalone="no"?>
<!DOCTYPE svg PUBLIC "-//W3C//DTD SVG 1.1//EN"
 "http://www.w3.org/Graphics/SVG/1.1/DTD/svg11.dtd">
<!-- Generated by graphviz version 2.43.0 (0)
 -->
<!-- Title: toml::detail::is_comparable&lt; T &gt; Pages: 1 -->
<svg width="187pt" height="171pt"
 viewBox="0.00 0.00 187.00 171.00" xmlns="http://www.w3.org/2000/svg" xmlns:xlink="http://www.w3.org/1999/xlink">
<g id="graph0" class="graph" transform="scale(1 1) rotate(0) translate(4 167)">
<title>toml::detail::is_comparable&lt; T &gt;</title>
<!-- Node1 -->
<g id="node1" class="node">
<title>Node1</title>
<g id="a_node1"><a xlink:title=" ">
<polygon fill="#bfbfbf" stroke="black" points="0,-0.5 0,-57.5 179,-57.5 179,-0.5 0,-0.5"/>
<text text-anchor="middle" x="89.5" y="-45.5" font-family="Helvetica,sans-Serif" font-size="10.00">toml::detail::is_comparable&lt; T &gt;</text>
<polyline fill="none" stroke="black" points="0,-38.5 179,-38.5 "/>
<text text-anchor="middle" x="89.5" y="-26.5" font-family="Helvetica,sans-Serif" font-size="10.00"> </text>
<polyline fill="none" stroke="black" points="0,-19.5 179,-19.5 "/>
<text text-anchor="middle" x="89.5" y="-7.5" font-family="Helvetica,sans-Serif" font-size="10.00"> </text>
</a>
</g>
</g>
<!-- Node2 -->
<g id="node2" class="node">
<title>Node2</title>
<g id="a_node2"><a xlink:title=" ">
<polygon fill="none" stroke="black" points="20.5,-94.5 20.5,-162.5 158.5,-162.5 158.5,-94.5 20.5,-94.5"/>
<text text-anchor="start" x="28.5" y="-150.5" font-family="Helvetica,sans-Serif" font-size="10.00">decltypeis_comparable</text>
<text text-anchor="middle" x="89.5" y="-139.5" font-family="Helvetica,sans-Serif" font-size="10.00">_impl::check&lt; T &gt;nullptr</text>
<polyline fill="none" stroke="black" points="20.5,-132.5 158.5,-132.5 "/>
<text text-anchor="middle" x="89.5" y="-120.5" font-family="Helvetica,sans-Serif" font-size="10.00"> </text>
<polyline fill="none" stroke="black" points="20.5,-113.5 158.5,-113.5 "/>
<text text-anchor="middle" x="89.5" y="-101.5" font-family="Helvetica,sans-Serif" font-size="10.00"> </text>
</a>
</g>
</g>
<!-- Node2&#45;&gt;Node1 -->
<g id="edge1" class="edge">
<title>Node2&#45;&gt;Node1</title>
<path fill="none" stroke="midnightblue" d="M89.5,-84.45C89.5,-75.4 89.5,-66.09 89.5,-57.78"/>
<polygon fill="none" stroke="midnightblue" points="86,-84.49 89.5,-94.49 93,-84.49 86,-84.49"/>
</g>
</g>
</svg>
